<?xml version="1.0" encoding="utf-8"?>
<svg xmlns="http://www.w3.org/2000/svg" xmlns:xlink="http://www.w3.org/1999/xlink" width="672" height="480" viewBox="0 0 2688 1920">
<defs>
  <clipPath id="clip160">
    <rect x="0" y="0" width="2688" height="1920"/>
  </clipPath>
</defs>
<path clip-path="url(#clip160)" d="M0 1920 L2688 1920 L2688 -4.26326e-14 L0 -4.26326e-14  Z" fill="#ffffff" fill-rule="evenodd" fill-opacity="1"/>
<defs>
  <clipPath id="clip161">
    <rect x="537" y="0" width="1883" height="1883"/>
  </clipPath>
</defs>
<path clip-path="url(#clip160)" d="M253.733 1734.12 L2640.76 1734.12 L2640.76 127.792 L253.733 127.792  Z" fill="#ffffff" fill-rule="evenodd" fill-opacity="1"/>
<defs>
  <clipPath id="clip162">
    <rect x="253" y="127" width="2388" height="1607"/>
  </clipPath>
</defs>
<polyline clip-path="url(#clip162)" style="stroke:#000000; stroke-linecap:round; stroke-linejoin:round; stroke-width:2; stroke-opacity:0.1; fill:none" points="319.036,1734.12 319.036,127.792 "/>
<polyline clip-path="url(#clip162)" style="stroke:#000000; stroke-linecap:round; stroke-linejoin:round; stroke-width:2; stroke-opacity:0.1; fill:none" points="882.577,1734.12 882.577,127.792 "/>
<polyline clip-path="url(#clip162)" style="stroke:#000000; stroke-linecap:round; stroke-linejoin:round; stroke-width:2; stroke-opacity:0.1; fill:none" points="1446.12,1734.12 1446.12,127.792 "/>
<polyline clip-path="url(#clip162)" style="stroke:#000000; stroke-linecap:round; stroke-linejoin:round; stroke-width:2; stroke-opacity:0.1; fill:none" points="2009.66,1734.12 2009.66,127.792 "/>
<polyline clip-path="url(#clip162)" style="stroke:#000000; stroke-linecap:round; stroke-linejoin:round; stroke-width:2; stroke-opacity:0.1; fill:none" points="2573.2,1734.12 2573.2,127.792 "/>
<polyline clip-path="url(#clip162)" style="stroke:#000000; stroke-linecap:round; stroke-linejoin:round; stroke-width:2; stroke-opacity:0.1; fill:none" points="253.733,1506.27 2640.76,1506.27 "/>
<polyline clip-path="url(#clip162)" style="stroke:#000000; stroke-linecap:round; stroke-linejoin:round; stroke-width:2; stroke-opacity:0.1; fill:none" points="253.733,1134.82 2640.76,1134.82 "/>
<polyline clip-path="url(#clip162)" style="stroke:#000000; stroke-linecap:round; stroke-linejoin:round; stroke-width:2; stroke-opacity:0.1; fill:none" points="253.733,763.38 2640.76,763.38 "/>
<polyline clip-path="url(#clip162)" style="stroke:#000000; stroke-linecap:round; stroke-linejoin:round; stroke-width:2; stroke-opacity:0.1; fill:none" points="253.733,391.937 2640.76,391.937 "/>
<polyline clip-path="url(#clip160)" style="stroke:#000000; stroke-linecap:round; stroke-linejoin:round; stroke-width:4; stroke-opacity:1; fill:none" points="253.733,1734.12 2640.76,1734.12 "/>
<polyline clip-path="url(#clip160)" style="stroke:#000000; stroke-linecap:round; stroke-linejoin:round; stroke-width:4; stroke-opacity:1; fill:none" points="319.036,1734.12 319.036,1715.22 "/>
<polyline clip-path="url(#clip160)" style="stroke:#000000; stroke-linecap:round; stroke-linejoin:round; stroke-width:4; stroke-opacity:1; fill:none" points="882.577,1734.12 882.577,1715.22 "/>
<polyline clip-path="url(#clip160)" style="stroke:#000000; stroke-linecap:round; stroke-linejoin:round; stroke-width:4; stroke-opacity:1; fill:none" points="1446.12,1734.12 1446.12,1715.22 "/>
<polyline clip-path="url(#clip160)" style="stroke:#000000; stroke-linecap:round; stroke-linejoin:round; stroke-width:4; stroke-opacity:1; fill:none" points="2009.66,1734.12 2009.66,1715.22 "/>
<polyline clip-path="url(#clip160)" style="stroke:#000000; stroke-linecap:round; stroke-linejoin:round; stroke-width:4; stroke-opacity:1; fill:none" points="2573.2,1734.12 2573.2,1715.22 "/>
<path clip-path="url(#clip160)" d="M319.036 1767.34 Q315.425 1767.34 313.596 1770.9 Q311.791 1774.45 311.791 1781.58 Q311.791 1788.68 313.596 1792.25 Q315.425 1795.79 319.036 1795.79 Q322.67 1795.79 324.476 1792.25 Q326.305 1788.68 326.305 1781.58 Q326.305 1774.45 324.476 1770.9 Q322.67 1767.34 319.036 1767.34 M319.036 1763.64 Q324.846 1763.64 327.902 1768.24 Q330.98 1772.83 330.98 1781.58 Q330.98 1790.3 327.902 1794.91 Q324.846 1799.49 319.036 1799.49 Q313.226 1799.49 310.147 1794.91 Q307.092 1790.3 307.092 1781.58 Q307.092 1772.83 310.147 1768.24 Q313.226 1763.64 319.036 1763.64 Z" fill="#000000" fill-rule="nonzero" fill-opacity="1" /><path clip-path="url(#clip160)" d="M846.269 1794.89 L862.588 1794.89 L862.588 1798.82 L840.644 1798.82 L840.644 1794.89 Q843.306 1792.13 847.889 1787.5 Q852.496 1782.85 853.676 1781.51 Q855.922 1778.98 856.801 1777.25 Q857.704 1775.49 857.704 1773.8 Q857.704 1771.04 855.76 1769.31 Q853.838 1767.57 850.737 1767.57 Q848.538 1767.57 846.084 1768.34 Q843.653 1769.1 840.876 1770.65 L840.876 1765.93 Q843.7 1764.79 846.153 1764.21 Q848.607 1763.64 850.644 1763.64 Q856.014 1763.64 859.209 1766.32 Q862.403 1769.01 862.403 1773.5 Q862.403 1775.63 861.593 1777.55 Q860.806 1779.45 858.7 1782.04 Q858.121 1782.71 855.019 1785.93 Q851.917 1789.12 846.269 1794.89 Z" fill="#000000" fill-rule="nonzero" fill-opacity="1" /><path clip-path="url(#clip160)" d="M872.449 1764.26 L890.806 1764.26 L890.806 1768.2 L876.732 1768.2 L876.732 1776.67 Q877.75 1776.32 878.769 1776.16 Q879.787 1775.97 880.806 1775.97 Q886.593 1775.97 889.973 1779.15 Q893.352 1782.32 893.352 1787.73 Q893.352 1793.31 889.88 1796.41 Q886.408 1799.49 880.088 1799.49 Q877.912 1799.49 875.644 1799.12 Q873.399 1798.75 870.991 1798.01 L870.991 1793.31 Q873.074 1794.45 875.297 1795 Q877.519 1795.56 879.996 1795.56 Q884 1795.56 886.338 1793.45 Q888.676 1791.34 888.676 1787.73 Q888.676 1784.12 886.338 1782.02 Q884 1779.91 879.996 1779.91 Q878.121 1779.91 876.246 1780.33 Q874.394 1780.74 872.449 1781.62 L872.449 1764.26 Z" fill="#000000" fill-rule="nonzero" fill-opacity="1" /><path clip-path="url(#clip160)" d="M912.565 1767.34 Q908.954 1767.34 907.125 1770.9 Q905.32 1774.45 905.32 1781.58 Q905.32 1788.68 907.125 1792.25 Q908.954 1795.79 912.565 1795.79 Q916.199 1795.79 918.005 1792.25 Q919.833 1788.68 919.833 1781.58 Q919.833 1774.45 918.005 1770.9 Q916.199 1767.34 912.565 1767.34 M912.565 1763.64 Q918.375 1763.64 921.431 1768.24 Q924.509 1772.83 924.509 1781.58 Q924.509 1790.3 921.431 1794.91 Q918.375 1799.49 912.565 1799.49 Q906.755 1799.49 903.676 1794.91 Q900.621 1790.3 900.621 1781.58 Q900.621 1772.83 903.676 1768.24 Q906.755 1763.64 912.565 1763.64 Z" fill="#000000" fill-rule="nonzero" fill-opacity="1" /><path clip-path="url(#clip160)" d="M1405.74 1764.26 L1424.09 1764.26 L1424.09 1768.2 L1410.02 1768.2 L1410.02 1776.67 Q1411.04 1776.32 1412.06 1776.16 Q1413.07 1775.97 1414.09 1775.97 Q1419.88 1775.97 1423.26 1779.15 Q1426.64 1782.32 1426.64 1787.73 Q1426.64 1793.31 1423.17 1796.41 Q1419.69 1799.49 1413.37 1799.49 Q1411.2 1799.49 1408.93 1799.12 Q1406.68 1798.75 1404.28 1798.01 L1404.28 1793.31 Q1406.36 1794.45 1408.58 1795 Q1410.81 1795.56 1413.28 1795.56 Q1417.29 1795.56 1419.62 1793.45 Q1421.96 1791.34 1421.96 1787.73 Q1421.96 1784.12 1419.62 1782.02 Q1417.29 1779.91 1413.28 1779.91 Q1411.41 1779.91 1409.53 1780.33 Q1407.68 1780.74 1405.74 1781.62 L1405.74 1764.26 Z" fill="#000000" fill-rule="nonzero" fill-opacity="1" /><path clip-path="url(#clip160)" d="M1445.85 1767.34 Q1442.24 1767.34 1440.41 1770.9 Q1438.61 1774.45 1438.61 1781.58 Q1438.61 1788.68 1440.41 1792.25 Q1442.24 1795.79 1445.85 1795.79 Q1449.49 1795.79 1451.29 1792.25 Q1453.12 1788.68 1453.12 1781.58 Q1453.12 1774.45 1451.29 1770.9 Q1449.49 1767.34 1445.85 1767.34 M1445.85 1763.64 Q1451.66 1763.64 1454.72 1768.24 Q1457.8 1772.83 1457.8 1781.58 Q1457.8 1790.3 1454.72 1794.91 Q1451.66 1799.49 1445.85 1799.49 Q1440.04 1799.49 1436.96 1794.91 Q1433.91 1790.3 1433.91 1781.58 Q1433.91 1772.83 1436.96 1768.24 Q1440.04 1763.64 1445.85 1763.64 Z" fill="#000000" fill-rule="nonzero" fill-opacity="1" /><path clip-path="url(#clip160)" d="M1476.01 1767.34 Q1472.4 1767.34 1470.57 1770.9 Q1468.77 1774.45 1468.77 1781.58 Q1468.77 1788.68 1470.57 1792.25 Q1472.4 1795.79 1476.01 1795.79 Q1479.65 1795.79 1481.45 1792.25 Q1483.28 1788.68 1483.28 1781.58 Q1483.28 1774.45 1481.45 1770.9 Q1479.65 1767.34 1476.01 1767.34 M1476.01 1763.64 Q1481.82 1763.64 1484.88 1768.24 Q1487.96 1772.83 1487.96 1781.58 Q1487.96 1790.3 1484.88 1794.91 Q1481.82 1799.49 1476.01 1799.49 Q1470.2 1799.49 1467.12 1794.91 Q1464.07 1790.3 1464.07 1781.58 Q1464.07 1772.83 1467.12 1768.24 Q1470.2 1763.64 1476.01 1763.64 Z" fill="#000000" fill-rule="nonzero" fill-opacity="1" /><path clip-path="url(#clip160)" d="M1967.93 1764.26 L1990.16 1764.26 L1990.16 1766.25 L1977.61 1798.82 L1972.73 1798.82 L1984.53 1768.2 L1967.93 1768.2 L1967.93 1764.26 Z" fill="#000000" fill-rule="nonzero" fill-opacity="1" /><path clip-path="url(#clip160)" d="M1999.32 1764.26 L2017.68 1764.26 L2017.68 1768.2 L2003.6 1768.2 L2003.6 1776.67 Q2004.62 1776.32 2005.64 1776.16 Q2006.66 1775.97 2007.68 1775.97 Q2013.47 1775.97 2016.85 1779.15 Q2020.23 1782.32 2020.23 1787.73 Q2020.23 1793.31 2016.75 1796.41 Q2013.28 1799.49 2006.96 1799.49 Q2004.79 1799.49 2002.52 1799.12 Q2000.27 1798.75 1997.86 1798.01 L1997.86 1793.31 Q1999.95 1794.45 2002.17 1795 Q2004.39 1795.56 2006.87 1795.56 Q2010.87 1795.56 2013.21 1793.45 Q2015.55 1791.34 2015.55 1787.73 Q2015.55 1784.12 2013.21 1782.02 Q2010.87 1779.91 2006.87 1779.91 Q2004.99 1779.91 2003.12 1780.33 Q2001.27 1780.74 1999.32 1781.62 L1999.32 1764.26 Z" fill="#000000" fill-rule="nonzero" fill-opacity="1" /><path clip-path="url(#clip160)" d="M2039.44 1767.34 Q2035.83 1767.34 2034 1770.9 Q2032.19 1774.45 2032.19 1781.58 Q2032.19 1788.68 2034 1792.25 Q2035.83 1795.79 2039.44 1795.79 Q2043.07 1795.79 2044.88 1792.25 Q2046.71 1788.68 2046.71 1781.58 Q2046.71 1774.45 2044.88 1770.9 Q2043.07 1767.34 2039.44 1767.34 M2039.44 1763.64 Q2045.25 1763.64 2048.3 1768.24 Q2051.38 1772.83 2051.38 1781.58 Q2051.38 1790.3 2048.3 1794.91 Q2045.25 1799.49 2039.44 1799.49 Q2033.63 1799.49 2030.55 1794.91 Q2027.49 1790.3 2027.49 1781.58 Q2027.49 1772.83 2030.55 1768.24 Q2033.63 1763.64 2039.44 1763.64 Z" fill="#000000" fill-rule="nonzero" fill-opacity="1" /><path clip-path="url(#clip160)" d="M2517.72 1794.89 L2525.36 1794.89 L2525.36 1768.52 L2517.05 1770.19 L2517.05 1765.93 L2525.32 1764.26 L2529.99 1764.26 L2529.99 1794.89 L2537.63 1794.89 L2537.63 1798.82 L2517.72 1798.82 L2517.72 1794.89 Z" fill="#000000" fill-rule="nonzero" fill-opacity="1" /><path clip-path="url(#clip160)" d="M2557.08 1767.34 Q2553.46 1767.34 2551.64 1770.9 Q2549.83 1774.45 2549.83 1781.58 Q2549.83 1788.68 2551.64 1792.25 Q2553.46 1795.79 2557.08 1795.79 Q2560.71 1795.79 2562.52 1792.25 Q2564.34 1788.68 2564.34 1781.58 Q2564.34 1774.45 2562.52 1770.9 Q2560.71 1767.34 2557.08 1767.34 M2557.08 1763.64 Q2562.89 1763.64 2565.94 1768.24 Q2569.02 1772.83 2569.02 1781.58 Q2569.02 1790.3 2565.94 1794.91 Q2562.89 1799.49 2557.08 1799.49 Q2551.27 1799.49 2548.19 1794.91 Q2545.13 1790.3 2545.13 1781.58 Q2545.13 1772.83 2548.19 1768.24 Q2551.27 1763.64 2557.08 1763.64 Z" fill="#000000" fill-rule="nonzero" fill-opacity="1" /><path clip-path="url(#clip160)" d="M2587.24 1767.34 Q2583.63 1767.34 2581.8 1770.9 Q2579.99 1774.45 2579.99 1781.58 Q2579.99 1788.68 2581.8 1792.25 Q2583.63 1795.79 2587.24 1795.79 Q2590.87 1795.79 2592.68 1792.25 Q2594.51 1788.68 2594.51 1781.58 Q2594.51 1774.45 2592.68 1770.9 Q2590.87 1767.34 2587.24 1767.34 M2587.24 1763.64 Q2593.05 1763.64 2596.1 1768.24 Q2599.18 1772.83 2599.18 1781.58 Q2599.18 1790.3 2596.1 1794.91 Q2593.05 1799.49 2587.24 1799.49 Q2581.43 1799.49 2578.35 1794.91 Q2575.29 1790.3 2575.29 1781.58 Q2575.29 1772.83 2578.35 1768.24 Q2581.43 1763.64 2587.24 1763.64 Z" fill="#000000" fill-rule="nonzero" fill-opacity="1" /><path clip-path="url(#clip160)" d="M2617.4 1767.34 Q2613.79 1767.34 2611.96 1770.9 Q2610.15 1774.45 2610.15 1781.58 Q2610.15 1788.68 2611.96 1792.25 Q2613.79 1795.79 2617.4 1795.79 Q2621.03 1795.79 2622.84 1792.25 Q2624.67 1788.68 2624.67 1781.58 Q2624.67 1774.45 2622.84 1770.9 Q2621.03 1767.34 2617.4 1767.34 M2617.4 1763.64 Q2623.21 1763.64 2626.27 1768.24 Q2629.34 1772.83 2629.34 1781.58 Q2629.34 1790.3 2626.27 1794.91 Q2623.21 1799.49 2617.4 1799.49 Q2611.59 1799.49 2608.51 1794.91 Q2605.46 1790.3 2605.46 1781.58 Q2605.46 1772.83 2608.51 1768.24 Q2611.59 1763.64 2617.4 1763.64 Z" fill="#000000" fill-rule="nonzero" fill-opacity="1" /><path clip-path="url(#clip160)" d="M1232.72 1835.78 L1239.21 1835.78 L1249.21 1875.95 L1259.17 1835.78 L1266.39 1835.78 L1276.39 1875.95 L1286.35 1835.78 L1292.88 1835.78 L1280.94 1883.3 L1272.86 1883.3 L1262.83 1842.05 L1252.71 1883.3 L1244.62 1883.3 L1232.72 1835.78 Z" fill="#000000" fill-rule="nonzero" fill-opacity="1" /><path clip-path="url(#clip160)" d="M1313.18 1865.38 Q1306.08 1865.38 1303.35 1867 Q1300.61 1868.63 1300.61 1872.54 Q1300.61 1875.66 1302.65 1877.51 Q1304.72 1879.32 1308.25 1879.32 Q1313.12 1879.32 1316.05 1875.88 Q1319.01 1872.42 1319.01 1866.69 L1319.01 1865.38 L1313.18 1865.38 M1324.86 1862.96 L1324.86 1883.3 L1319.01 1883.3 L1319.01 1877.89 Q1317 1881.14 1314.01 1882.7 Q1311.02 1884.22 1306.69 1884.22 Q1301.22 1884.22 1297.97 1881.17 Q1294.75 1878.08 1294.75 1872.92 Q1294.75 1866.91 1298.76 1863.85 Q1302.81 1860.8 1310.8 1860.8 L1319.01 1860.8 L1319.01 1860.23 Q1319.01 1856.18 1316.33 1853.99 Q1313.69 1851.76 1308.89 1851.76 Q1305.83 1851.76 1302.93 1852.49 Q1300.04 1853.22 1297.36 1854.69 L1297.36 1849.28 Q1300.58 1848.03 1303.6 1847.43 Q1306.63 1846.79 1309.49 1846.79 Q1317.22 1846.79 1321.04 1850.8 Q1324.86 1854.81 1324.86 1862.96 Z" fill="#000000" fill-rule="nonzero" fill-opacity="1" /><path clip-path="url(#clip160)" d="M1336.93 1833.78 L1342.78 1833.78 L1342.78 1883.3 L1336.93 1883.3 L1336.93 1833.78 Z" fill="#000000" fill-rule="nonzero" fill-opacity="1" /><path clip-path="url(#clip160)" d="M1354.81 1833.78 L1360.7 1833.78 L1360.7 1863.03 L1378.18 1847.65 L1385.66 1847.65 L1366.75 1864.33 L1386.45 1883.3 L1378.81 1883.3 L1360.7 1865.89 L1360.7 1883.3 L1354.81 1883.3 L1354.81 1833.78 Z" fill="#000000" fill-rule="nonzero" fill-opacity="1" /><path clip-path="url(#clip160)" d="M1443.14 1861.78 L1443.14 1883.3 L1437.28 1883.3 L1437.28 1861.98 Q1437.28 1856.92 1435.31 1854.4 Q1433.34 1851.89 1429.39 1851.89 Q1424.65 1851.89 1421.91 1854.91 Q1419.17 1857.93 1419.17 1863.15 L1419.17 1883.3 L1413.28 1883.3 L1413.28 1847.65 L1419.17 1847.65 L1419.17 1853.19 Q1421.27 1849.98 1424.11 1848.39 Q1426.97 1846.79 1430.69 1846.79 Q1436.84 1846.79 1439.99 1850.61 Q1443.14 1854.4 1443.14 1861.78 Z" fill="#000000" fill-rule="nonzero" fill-opacity="1" /><path clip-path="url(#clip160)" d="M1454.21 1869.23 L1454.21 1847.65 L1460.07 1847.65 L1460.07 1869.01 Q1460.07 1874.07 1462.04 1876.62 Q1464.02 1879.13 1467.96 1879.13 Q1472.71 1879.13 1475.44 1876.11 Q1478.21 1873.08 1478.21 1867.86 L1478.21 1847.65 L1484.07 1847.65 L1484.07 1883.3 L1478.21 1883.3 L1478.21 1877.83 Q1476.08 1881.07 1473.25 1882.66 Q1470.45 1884.22 1466.72 1884.22 Q1460.58 1884.22 1457.4 1880.4 Q1454.21 1876.59 1454.21 1869.23 M1468.95 1846.79 L1468.95 1846.79 Z" fill="#000000" fill-rule="nonzero" fill-opacity="1" /><path clip-path="url(#clip160)" d="M1523.89 1854.5 Q1526.08 1850.55 1529.14 1848.67 Q1532.19 1846.79 1536.33 1846.79 Q1541.9 1846.79 1544.93 1850.71 Q1547.95 1854.59 1547.95 1861.78 L1547.95 1883.3 L1542.06 1883.3 L1542.06 1861.98 Q1542.06 1856.85 1540.25 1854.37 Q1538.43 1851.89 1534.71 1851.89 Q1530.16 1851.89 1527.52 1854.91 Q1524.87 1857.93 1524.87 1863.15 L1524.87 1883.3 L1518.99 1883.3 L1518.99 1861.98 Q1518.99 1856.82 1517.17 1854.37 Q1515.36 1851.89 1511.57 1851.89 Q1507.08 1851.89 1504.44 1854.94 Q1501.8 1857.97 1501.8 1863.15 L1501.8 1883.3 L1495.91 1883.3 L1495.91 1847.65 L1501.8 1847.65 L1501.8 1853.19 Q1503.8 1849.91 1506.6 1848.35 Q1509.41 1846.79 1513.26 1846.79 Q1517.14 1846.79 1519.85 1848.77 Q1522.58 1850.74 1523.89 1854.5 Z" fill="#000000" fill-rule="nonzero" fill-opacity="1" /><path clip-path="url(#clip160)" d="M1585.22 1865.51 Q1585.22 1859.05 1582.55 1855.39 Q1579.91 1851.7 1575.26 1851.7 Q1570.61 1851.7 1567.94 1855.39 Q1565.3 1859.05 1565.3 1865.51 Q1565.3 1871.97 1567.94 1875.66 Q1570.61 1879.32 1575.26 1879.32 Q1579.91 1879.32 1582.55 1875.66 Q1585.22 1871.97 1585.22 1865.51 M1565.3 1853.06 Q1567.14 1849.88 1569.94 1848.35 Q1572.78 1846.79 1576.69 1846.79 Q1583.18 1846.79 1587.23 1851.95 Q1591.3 1857.11 1591.3 1865.51 Q1591.3 1873.91 1587.23 1879.07 Q1583.18 1884.22 1576.69 1884.22 Q1572.78 1884.22 1569.94 1882.7 Q1567.14 1881.14 1565.3 1877.95 L1565.3 1883.3 L1559.41 1883.3 L1559.41 1833.78 L1565.3 1833.78 L1565.3 1853.06 Z" fill="#000000" fill-rule="nonzero" fill-opacity="1" /><path clip-path="url(#clip160)" d="M1631.5 1864.01 L1631.5 1866.88 L1604.57 1866.88 Q1604.95 1872.92 1608.2 1876.11 Q1611.48 1879.26 1617.3 1879.26 Q1620.68 1879.26 1623.83 1878.43 Q1627.01 1877.6 1630.13 1875.95 L1630.13 1881.49 Q1626.98 1882.82 1623.67 1883.52 Q1620.36 1884.22 1616.95 1884.22 Q1608.42 1884.22 1603.43 1879.26 Q1598.46 1874.29 1598.46 1865.83 Q1598.46 1857.07 1603.17 1851.95 Q1607.91 1846.79 1615.94 1846.79 Q1623.13 1846.79 1627.3 1851.44 Q1631.5 1856.06 1631.5 1864.01 M1625.64 1862.29 Q1625.58 1857.49 1622.94 1854.62 Q1620.33 1851.76 1616 1851.76 Q1611.1 1851.76 1608.14 1854.53 Q1605.21 1857.3 1604.76 1862.33 L1625.64 1862.29 Z" fill="#000000" fill-rule="nonzero" fill-opacity="1" /><path clip-path="url(#clip160)" d="M1661.77 1853.13 Q1660.78 1852.55 1659.6 1852.3 Q1658.46 1852.01 1657.06 1852.01 Q1652.09 1852.01 1649.42 1855.26 Q1646.78 1858.47 1646.78 1864.52 L1646.78 1883.3 L1640.89 1883.3 L1640.89 1847.65 L1646.78 1847.65 L1646.78 1853.19 Q1648.62 1849.94 1651.58 1848.39 Q1654.54 1846.79 1658.78 1846.79 Q1659.38 1846.79 1660.11 1846.89 Q1660.85 1846.95 1661.74 1847.11 L1661.77 1853.13 Z" fill="#000000" fill-rule="nonzero" fill-opacity="1" /><polyline clip-path="url(#clip160)" style="stroke:#000000; stroke-linecap:round; stroke-linejoin:round; stroke-width:4; stroke-opacity:1; fill:none" points="253.733,1734.12 253.733,127.792 "/>
<polyline clip-path="url(#clip160)" style="stroke:#000000; stroke-linecap:round; stroke-linejoin:round; stroke-width:4; stroke-opacity:1; fill:none" points="253.733,1506.27 272.631,1506.27 "/>
<polyline clip-path="url(#clip160)" style="stroke:#000000; stroke-linecap:round; stroke-linejoin:round; stroke-width:4; stroke-opacity:1; fill:none" points="253.733,1134.82 272.631,1134.82 "/>
<polyline clip-path="url(#clip160)" style="stroke:#000000; stroke-linecap:round; stroke-linejoin:round; stroke-width:4; stroke-opacity:1; fill:none" points="253.733,763.38 272.631,763.38 "/>
<polyline clip-path="url(#clip160)" style="stroke:#000000; stroke-linecap:round; stroke-linejoin:round; stroke-width:4; stroke-opacity:1; fill:none" points="253.733,391.937 272.631,391.937 "/>
<path clip-path="url(#clip160)" d="M146.052 1488.99 L168.274 1488.99 L168.274 1490.98 L155.728 1523.55 L150.844 1523.55 L162.649 1492.92 L146.052 1492.92 L146.052 1488.99 Z" fill="#000000" fill-rule="nonzero" fill-opacity="1" /><path clip-path="url(#clip160)" d="M177.395 1517.67 L182.279 1517.67 L182.279 1523.55 L177.395 1523.55 L177.395 1517.67 Z" fill="#000000" fill-rule="nonzero" fill-opacity="1" /><path clip-path="url(#clip160)" d="M192.51 1488.99 L210.867 1488.99 L210.867 1492.92 L196.793 1492.92 L196.793 1501.39 Q197.811 1501.05 198.83 1500.88 Q199.848 1500.7 200.867 1500.7 Q206.654 1500.7 210.033 1503.87 Q213.413 1507.04 213.413 1512.46 Q213.413 1518.04 209.941 1521.14 Q206.469 1524.22 200.149 1524.22 Q197.973 1524.22 195.705 1523.85 Q193.459 1523.48 191.052 1522.74 L191.052 1518.04 Q193.135 1519.17 195.358 1519.73 Q197.58 1520.28 200.057 1520.28 Q204.061 1520.28 206.399 1518.18 Q208.737 1516.07 208.737 1512.46 Q208.737 1508.85 206.399 1506.74 Q204.061 1504.63 200.057 1504.63 Q198.182 1504.63 196.307 1505.05 Q194.455 1505.47 192.51 1506.35 L192.51 1488.99 Z" fill="#000000" fill-rule="nonzero" fill-opacity="1" /><path clip-path="url(#clip160)" d="M116.886 1148.17 L124.525 1148.17 L124.525 1121.8 L116.214 1123.47 L116.214 1119.21 L124.478 1117.54 L129.154 1117.54 L129.154 1148.17 L136.793 1148.17 L136.793 1152.1 L116.886 1152.1 L116.886 1148.17 Z" fill="#000000" fill-rule="nonzero" fill-opacity="1" /><path clip-path="url(#clip160)" d="M156.237 1120.62 Q152.626 1120.62 150.798 1124.19 Q148.992 1127.73 148.992 1134.86 Q148.992 1141.96 150.798 1145.53 Q152.626 1149.07 156.237 1149.07 Q159.872 1149.07 161.677 1145.53 Q163.506 1141.96 163.506 1134.86 Q163.506 1127.73 161.677 1124.19 Q159.872 1120.62 156.237 1120.62 M156.237 1116.92 Q162.048 1116.92 165.103 1121.52 Q168.182 1126.11 168.182 1134.86 Q168.182 1143.58 165.103 1148.19 Q162.048 1152.77 156.237 1152.77 Q150.427 1152.77 147.349 1148.19 Q144.293 1143.58 144.293 1134.86 Q144.293 1126.11 147.349 1121.52 Q150.427 1116.92 156.237 1116.92 Z" fill="#000000" fill-rule="nonzero" fill-opacity="1" /><path clip-path="url(#clip160)" d="M176.399 1146.22 L181.284 1146.22 L181.284 1152.1 L176.399 1152.1 L176.399 1146.22 Z" fill="#000000" fill-rule="nonzero" fill-opacity="1" /><path clip-path="url(#clip160)" d="M201.469 1120.62 Q197.858 1120.62 196.029 1124.19 Q194.223 1127.73 194.223 1134.86 Q194.223 1141.96 196.029 1145.53 Q197.858 1149.07 201.469 1149.07 Q205.103 1149.07 206.908 1145.53 Q208.737 1141.96 208.737 1134.86 Q208.737 1127.73 206.908 1124.19 Q205.103 1120.62 201.469 1120.62 M201.469 1116.92 Q207.279 1116.92 210.334 1121.52 Q213.413 1126.11 213.413 1134.86 Q213.413 1143.58 210.334 1148.19 Q207.279 1152.77 201.469 1152.77 Q195.658 1152.77 192.58 1148.19 Q189.524 1143.58 189.524 1134.86 Q189.524 1126.11 192.58 1121.52 Q195.658 1116.92 201.469 1116.92 Z" fill="#000000" fill-rule="nonzero" fill-opacity="1" /><path clip-path="url(#clip160)" d="M117.881 776.725 L125.52 776.725 L125.52 750.359 L117.21 752.026 L117.21 747.767 L125.474 746.1 L130.15 746.1 L130.15 776.725 L137.788 776.725 L137.788 780.66 L117.881 780.66 L117.881 776.725 Z" fill="#000000" fill-rule="nonzero" fill-opacity="1" /><path clip-path="url(#clip160)" d="M151.261 776.725 L167.58 776.725 L167.58 780.66 L145.636 780.66 L145.636 776.725 Q148.298 773.97 152.881 769.341 Q157.487 764.688 158.668 763.345 Q160.913 760.822 161.793 759.086 Q162.696 757.327 162.696 755.637 Q162.696 752.882 160.751 751.146 Q158.83 749.41 155.728 749.41 Q153.529 749.41 151.075 750.174 Q148.645 750.938 145.867 752.489 L145.867 747.767 Q148.691 746.632 151.145 746.054 Q153.599 745.475 155.636 745.475 Q161.006 745.475 164.2 748.16 Q167.395 750.845 167.395 755.336 Q167.395 757.466 166.585 759.387 Q165.798 761.285 163.691 763.878 Q163.112 764.549 160.011 767.766 Q156.909 770.961 151.261 776.725 Z" fill="#000000" fill-rule="nonzero" fill-opacity="1" /><path clip-path="url(#clip160)" d="M177.395 774.78 L182.279 774.78 L182.279 780.66 L177.395 780.66 L177.395 774.78 Z" fill="#000000" fill-rule="nonzero" fill-opacity="1" /><path clip-path="url(#clip160)" d="M192.51 746.1 L210.867 746.1 L210.867 750.035 L196.793 750.035 L196.793 758.507 Q197.811 758.16 198.83 757.998 Q199.848 757.813 200.867 757.813 Q206.654 757.813 210.033 760.984 Q213.413 764.155 213.413 769.572 Q213.413 775.151 209.941 778.253 Q206.469 781.331 200.149 781.331 Q197.973 781.331 195.705 780.961 Q193.459 780.59 191.052 779.85 L191.052 775.151 Q193.135 776.285 195.358 776.84 Q197.58 777.396 200.057 777.396 Q204.061 777.396 206.399 775.29 Q208.737 773.183 208.737 769.572 Q208.737 765.961 206.399 763.854 Q204.061 761.748 200.057 761.748 Q198.182 761.748 196.307 762.165 Q194.455 762.581 192.51 763.461 L192.51 746.1 Z" fill="#000000" fill-rule="nonzero" fill-opacity="1" /><path clip-path="url(#clip160)" d="M116.886 405.282 L124.525 405.282 L124.525 378.916 L116.214 380.583 L116.214 376.324 L124.478 374.657 L129.154 374.657 L129.154 405.282 L136.793 405.282 L136.793 409.217 L116.886 409.217 L116.886 405.282 Z" fill="#000000" fill-rule="nonzero" fill-opacity="1" /><path clip-path="url(#clip160)" d="M146.284 374.657 L164.64 374.657 L164.64 378.592 L150.566 378.592 L150.566 387.064 Q151.585 386.717 152.603 386.555 Q153.622 386.37 154.64 386.37 Q160.427 386.37 163.807 389.541 Q167.186 392.712 167.186 398.129 Q167.186 403.708 163.714 406.81 Q160.242 409.888 153.923 409.888 Q151.747 409.888 149.478 409.518 Q147.233 409.148 144.825 408.407 L144.825 403.708 Q146.909 404.842 149.131 405.398 Q151.353 405.953 153.83 405.953 Q157.835 405.953 160.173 403.847 Q162.51 401.74 162.51 398.129 Q162.51 394.518 160.173 392.412 Q157.835 390.305 153.83 390.305 Q151.955 390.305 150.08 390.722 Q148.228 391.138 146.284 392.018 L146.284 374.657 Z" fill="#000000" fill-rule="nonzero" fill-opacity="1" /><path clip-path="url(#clip160)" d="M176.399 403.337 L181.284 403.337 L181.284 409.217 L176.399 409.217 L176.399 403.337 Z" fill="#000000" fill-rule="nonzero" fill-opacity="1" /><path clip-path="url(#clip160)" d="M201.469 377.736 Q197.858 377.736 196.029 381.301 Q194.223 384.842 194.223 391.972 Q194.223 399.078 196.029 402.643 Q197.858 406.185 201.469 406.185 Q205.103 406.185 206.908 402.643 Q208.737 399.078 208.737 391.972 Q208.737 384.842 206.908 381.301 Q205.103 377.736 201.469 377.736 M201.469 374.032 Q207.279 374.032 210.334 378.638 Q213.413 383.222 213.413 391.972 Q213.413 400.699 210.334 405.305 Q207.279 409.888 201.469 409.888 Q195.658 409.888 192.58 405.305 Q189.524 400.699 189.524 391.972 Q189.524 383.222 192.58 378.638 Q195.658 374.032 201.469 374.032 Z" fill="#000000" fill-rule="nonzero" fill-opacity="1" /><path clip-path="url(#clip160)" d="M14.1184 1106.3 L14.1184 1096.72 L46.4562 1084.59 L14.1184 1072.4 L14.1184 1062.82 L61.6384 1062.82 L61.6384 1069.09 L19.9112 1069.09 L52.5037 1081.34 L52.5037 1087.81 L19.9112 1100.06 L61.6384 1100.06 L61.6384 1106.3 L14.1184 1106.3 Z" fill="#000000" fill-rule="nonzero" fill-opacity="1" /><path clip-path="url(#clip160)" d="M42.3504 1019.82 L45.2149 1019.82 L45.2149 1046.75 Q51.2623 1046.36 54.4452 1043.12 Q57.5962 1039.84 57.5962 1034.02 Q57.5962 1030.64 56.7687 1027.49 Q55.9411 1024.31 54.2861 1021.19 L59.8242 1021.19 Q61.161 1024.34 61.8612 1027.65 Q62.5615 1030.96 62.5615 1034.37 Q62.5615 1042.9 57.5962 1047.89 Q52.631 1052.86 44.1646 1052.86 Q35.4117 1052.86 30.2873 1048.15 Q25.1311 1043.4 25.1311 1035.38 Q25.1311 1028.19 29.7781 1024.02 Q34.3932 1019.82 42.3504 1019.82 M40.6316 1025.68 Q35.8255 1025.74 32.9609 1028.38 Q30.0964 1030.99 30.0964 1035.32 Q30.0964 1040.22 32.8654 1043.18 Q35.6345 1046.11 40.6634 1046.56 L40.6316 1025.68 Z" fill="#000000" fill-rule="nonzero" fill-opacity="1" /><path clip-path="url(#clip160)" d="M43.719 994.007 Q43.719 1001.1 45.3422 1003.84 Q46.9655 1006.58 50.8804 1006.58 Q53.9996 1006.58 55.8457 1004.54 Q57.6599 1002.47 57.6599 998.94 Q57.6599 994.071 54.2224 991.142 Q50.7531 988.182 45.0239 988.182 L43.719 988.182 L43.719 994.007 M41.3 982.326 L61.6384 982.326 L61.6384 988.182 L56.2276 988.182 Q59.4741 990.187 61.0337 993.179 Q62.5615 996.171 62.5615 1000.5 Q62.5615 1005.97 59.5059 1009.22 Q56.4186 1012.44 51.2623 1012.44 Q45.2467 1012.44 42.1912 1008.43 Q39.1357 1004.38 39.1357 996.394 L39.1357 988.182 L38.5628 988.182 Q34.5205 988.182 32.3244 990.856 Q30.0964 993.498 30.0964 998.304 Q30.0964 1001.36 30.8284 1004.26 Q31.5605 1007.15 33.0246 1009.83 L27.6137 1009.83 Q26.3724 1006.61 25.7677 1003.59 Q25.1311 1000.56 25.1311 997.699 Q25.1311 989.965 29.1415 986.145 Q33.1519 982.326 41.3 982.326 Z" fill="#000000" fill-rule="nonzero" fill-opacity="1" /><path clip-path="url(#clip160)" d="M40.1224 940.63 L61.6384 940.63 L61.6384 946.487 L40.3133 946.487 Q35.2526 946.487 32.7381 948.46 Q30.2237 950.434 30.2237 954.38 Q30.2237 959.123 33.2474 961.86 Q36.2711 964.597 41.491 964.597 L61.6384 964.597 L61.6384 970.486 L25.9905 970.486 L25.9905 964.597 L31.5287 964.597 Q28.314 962.497 26.7225 959.664 Q25.1311 956.799 25.1311 953.075 Q25.1311 946.932 28.9505 943.781 Q32.7381 940.63 40.1224 940.63 Z" fill="#000000" fill-rule="nonzero" fill-opacity="1" /><path clip-path="url(#clip160)" d="M56.2912 902.564 L75.1974 902.564 L75.1974 908.452 L25.9905 908.452 L25.9905 902.564 L31.4013 902.564 Q28.2185 900.717 26.6907 897.917 Q25.1311 895.084 25.1311 891.169 Q25.1311 884.676 30.2873 880.634 Q35.4436 876.56 43.8463 876.56 Q52.249 876.56 57.4052 880.634 Q62.5615 884.676 62.5615 891.169 Q62.5615 895.084 61.0337 897.917 Q59.4741 900.717 56.2912 902.564 M43.8463 882.639 Q37.3851 882.639 33.7248 885.312 Q30.0327 887.954 30.0327 892.601 Q30.0327 897.248 33.7248 899.922 Q37.3851 902.564 43.8463 902.564 Q50.3075 902.564 53.9996 899.922 Q57.6599 897.248 57.6599 892.601 Q57.6599 887.954 53.9996 885.312 Q50.3075 882.639 43.8463 882.639 Z" fill="#000000" fill-rule="nonzero" fill-opacity="1" /><path clip-path="url(#clip160)" d="M31.465 846.195 Q30.8921 847.182 30.6375 848.36 Q30.351 849.505 30.351 850.906 Q30.351 855.871 33.5975 858.545 Q36.8122 861.186 42.8596 861.186 L61.6384 861.186 L61.6384 867.075 L25.9905 867.075 L25.9905 861.186 L31.5287 861.186 Q28.2821 859.34 26.7225 856.38 Q25.1311 853.42 25.1311 849.187 Q25.1311 848.582 25.2266 847.85 Q25.2903 847.118 25.4494 846.227 L31.465 846.195 Z" fill="#000000" fill-rule="nonzero" fill-opacity="1" /><path clip-path="url(#clip160)" d="M25.9905 840.052 L25.9905 834.196 L61.6384 834.196 L61.6384 840.052 L25.9905 840.052 M12.1132 840.052 L12.1132 834.196 L19.5293 834.196 L19.5293 840.052 L12.1132 840.052 Z" fill="#000000" fill-rule="nonzero" fill-opacity="1" /><path clip-path="url(#clip160)" d="M27.3591 796.288 L32.8336 796.288 Q31.465 798.771 30.7966 801.285 Q30.0964 803.768 30.0964 806.314 Q30.0964 812.011 33.7248 815.162 Q37.3214 818.313 43.8463 818.313 Q50.3711 818.313 53.9996 815.162 Q57.5962 812.011 57.5962 806.314 Q57.5962 803.768 56.9278 801.285 Q56.2276 798.771 54.859 796.288 L60.2698 796.288 Q61.4156 798.739 61.9886 801.381 Q62.5615 803.991 62.5615 806.951 Q62.5615 815.003 57.5007 819.746 Q52.44 824.488 43.8463 824.488 Q35.1253 824.488 30.1282 819.714 Q25.1311 814.908 25.1311 806.569 Q25.1311 803.863 25.704 801.285 Q26.2451 798.707 27.3591 796.288 Z" fill="#000000" fill-rule="nonzero" fill-opacity="1" /><path clip-path="url(#clip160)" d="M42.3504 755.611 L45.2149 755.611 L45.2149 782.538 Q51.2623 782.156 54.4452 778.91 Q57.5962 775.631 57.5962 769.807 Q57.5962 766.433 56.7687 763.282 Q55.9411 760.099 54.2861 756.98 L59.8242 756.98 Q61.161 760.131 61.8612 763.441 Q62.5615 766.751 62.5615 770.157 Q62.5615 778.687 57.5962 783.684 Q52.631 788.649 44.1646 788.649 Q35.4117 788.649 30.2873 783.939 Q25.1311 779.196 25.1311 771.175 Q25.1311 763.982 29.7781 759.813 Q34.3932 755.611 42.3504 755.611 M40.6316 761.468 Q35.8255 761.531 32.9609 764.173 Q30.0964 766.783 30.0964 771.112 Q30.0964 776.013 32.8654 778.973 Q35.6345 781.902 40.6634 782.347 L40.6316 761.468 Z" fill="#000000" fill-rule="nonzero" fill-opacity="1" /><path clip-path="url(#clip160)" d="M830.069 12.096 L842.262 12.096 L857.696 53.2532 L873.211 12.096 L885.404 12.096 L885.404 72.576 L877.424 72.576 L877.424 19.4686 L861.828 60.9499 L853.605 60.9499 L838.009 19.4686 L838.009 72.576 L830.069 72.576 L830.069 12.096 Z" fill="#000000" fill-rule="nonzero" fill-opacity="1" /><path clip-path="url(#clip160)" d="M940.132 48.0275 L940.132 51.6733 L905.861 51.6733 Q906.347 59.3701 910.479 63.421 Q914.652 67.4314 922.065 67.4314 Q926.359 67.4314 930.369 66.3781 Q934.42 65.3249 938.39 63.2184 L938.39 70.267 Q934.38 71.9684 930.167 72.8596 Q925.954 73.7508 921.619 73.7508 Q910.763 73.7508 904.403 67.4314 Q898.084 61.1119 898.084 50.3365 Q898.084 39.1965 904.079 32.6746 Q910.115 26.1121 920.323 26.1121 Q929.478 26.1121 934.785 32.0264 Q940.132 37.9003 940.132 48.0275 M932.678 45.84 Q932.597 39.7232 929.235 36.0774 Q925.913 32.4315 920.404 32.4315 Q914.166 32.4315 910.398 35.9558 Q906.672 39.4801 906.104 45.8805 L932.678 45.84 Z" fill="#000000" fill-rule="nonzero" fill-opacity="1" /><path clip-path="url(#clip160)" d="M972.985 49.7694 Q963.951 49.7694 960.468 51.8354 Q956.984 53.9013 956.984 58.8839 Q956.984 62.8538 959.576 65.2034 Q962.209 67.5124 966.706 67.5124 Q972.904 67.5124 976.631 63.1374 Q980.398 58.7219 980.398 51.4303 L980.398 49.7694 L972.985 49.7694 M987.852 46.6907 L987.852 72.576 L980.398 72.576 L980.398 65.6895 Q977.846 69.8214 974.038 71.8063 Q970.23 73.7508 964.721 73.7508 Q957.753 73.7508 953.622 69.8619 Q949.53 65.9325 949.53 59.3701 Q949.53 51.7138 954.634 47.825 Q959.779 43.9361 969.947 43.9361 L980.398 43.9361 L980.398 43.2069 Q980.398 38.0623 976.995 35.2672 Q973.633 32.4315 967.516 32.4315 Q963.627 32.4315 959.941 33.3632 Q956.255 34.295 952.852 36.1584 L952.852 29.2718 Q956.943 27.692 960.792 26.9223 Q964.64 26.1121 968.286 26.1121 Q978.129 26.1121 982.991 31.2163 Q987.852 36.3204 987.852 46.6907 Z" fill="#000000" fill-rule="nonzero" fill-opacity="1" /><path clip-path="url(#clip160)" d="M1040.92 45.1919 L1040.92 72.576 L1033.46 72.576 L1033.46 45.4349 Q1033.46 38.994 1030.95 35.7938 Q1028.44 32.5936 1023.42 32.5936 Q1017.38 32.5936 1013.9 36.4419 Q1010.42 40.2903 1010.42 46.9338 L1010.42 72.576 L1002.92 72.576 L1002.92 27.2059 L1010.42 27.2059 L1010.42 34.2544 Q1013.09 30.163 1016.69 28.1376 Q1020.34 26.1121 1025.08 26.1121 Q1032.9 26.1121 1036.91 30.9732 Q1040.92 35.7938 1040.92 45.1919 Z" fill="#000000" fill-rule="nonzero" fill-opacity="1" /><path clip-path="url(#clip160)" d="M1089.37 65.7705 L1089.37 89.8329 L1081.87 89.8329 L1081.87 27.2059 L1089.37 27.2059 L1089.37 34.0924 Q1091.72 30.0415 1095.28 28.0971 Q1098.89 26.1121 1103.87 26.1121 Q1112.13 26.1121 1117.28 32.6746 Q1122.46 39.2371 1122.46 49.9314 Q1122.46 60.6258 1117.28 67.1883 Q1112.13 73.7508 1103.87 73.7508 Q1098.89 73.7508 1095.28 71.8063 Q1091.72 69.8214 1089.37 65.7705 M1114.73 49.9314 Q1114.73 41.7081 1111.32 37.0496 Q1107.96 32.3505 1102.05 32.3505 Q1096.13 32.3505 1092.73 37.0496 Q1089.37 41.7081 1089.37 49.9314 Q1089.37 58.1548 1092.73 62.8538 Q1096.13 67.5124 1102.05 67.5124 Q1107.96 67.5124 1111.32 62.8538 Q1114.73 58.1548 1114.73 49.9314 Z" fill="#000000" fill-rule="nonzero" fill-opacity="1" /><path clip-path="url(#clip160)" d="M1161.11 34.1734 Q1159.85 33.4443 1158.35 33.1202 Q1156.9 32.7556 1155.11 32.7556 Q1148.79 32.7556 1145.39 36.8875 Q1142.03 40.9789 1142.03 48.6757 L1142.03 72.576 L1134.53 72.576 L1134.53 27.2059 L1142.03 27.2059 L1142.03 34.2544 Q1144.38 30.1225 1148.15 28.1376 Q1151.91 26.1121 1157.3 26.1121 Q1158.07 26.1121 1159 26.2337 Q1159.93 26.3147 1161.07 26.5172 L1161.11 34.1734 Z" fill="#000000" fill-rule="nonzero" fill-opacity="1" /><path clip-path="url(#clip160)" d="M1168.93 27.2059 L1176.38 27.2059 L1176.38 72.576 L1168.93 72.576 L1168.93 27.2059 M1168.93 9.54393 L1176.38 9.54393 L1176.38 18.9825 L1168.93 18.9825 L1168.93 9.54393 Z" fill="#000000" fill-rule="nonzero" fill-opacity="1" /><path clip-path="url(#clip160)" d="M1224.63 28.9478 L1224.63 35.9153 Q1221.47 34.1734 1218.27 33.3227 Q1215.11 32.4315 1211.87 32.4315 Q1204.62 32.4315 1200.61 37.0496 Q1196.59 41.6271 1196.59 49.9314 Q1196.59 58.2358 1200.61 62.8538 Q1204.62 67.4314 1211.87 67.4314 Q1215.11 67.4314 1218.27 66.5807 Q1221.47 65.6895 1224.63 63.9476 L1224.63 70.8341 Q1221.51 72.2924 1218.15 73.0216 Q1214.82 73.7508 1211.06 73.7508 Q1200.81 73.7508 1194.77 67.3098 Q1188.74 60.8689 1188.74 49.9314 Q1188.74 38.832 1194.81 32.472 Q1200.93 26.1121 1211.54 26.1121 Q1214.99 26.1121 1218.27 26.8413 Q1221.55 27.5299 1224.63 28.9478 Z" fill="#000000" fill-rule="nonzero" fill-opacity="1" /><path clip-path="url(#clip160)" d="M1276.4 48.0275 L1276.4 51.6733 L1242.13 51.6733 Q1242.61 59.3701 1246.74 63.421 Q1250.92 67.4314 1258.33 67.4314 Q1262.62 67.4314 1266.63 66.3781 Q1270.69 65.3249 1274.66 63.2184 L1274.66 70.267 Q1270.65 71.9684 1266.43 72.8596 Q1262.22 73.7508 1257.88 73.7508 Q1247.03 73.7508 1240.67 67.4314 Q1234.35 61.1119 1234.35 50.3365 Q1234.35 39.1965 1240.34 32.6746 Q1246.38 26.1121 1256.59 26.1121 Q1265.74 26.1121 1271.05 32.0264 Q1276.4 37.9003 1276.4 48.0275 M1268.94 45.84 Q1268.86 39.7232 1265.5 36.0774 Q1262.18 32.4315 1256.67 32.4315 Q1250.43 32.4315 1246.66 35.9558 Q1242.94 39.4801 1242.37 45.8805 L1268.94 45.84 Z" fill="#000000" fill-rule="nonzero" fill-opacity="1" /><path clip-path="url(#clip160)" d="M1344.86 34.0924 L1344.86 9.54393 L1352.31 9.54393 L1352.31 72.576 L1344.86 72.576 L1344.86 65.7705 Q1342.51 69.8214 1338.9 71.8063 Q1335.34 73.7508 1330.32 73.7508 Q1322.09 73.7508 1316.91 67.1883 Q1311.76 60.6258 1311.76 49.9314 Q1311.76 39.2371 1316.91 32.6746 Q1322.09 26.1121 1330.32 26.1121 Q1335.34 26.1121 1338.9 28.0971 Q1342.51 30.0415 1344.86 34.0924 M1319.46 49.9314 Q1319.46 58.1548 1322.82 62.8538 Q1326.22 67.5124 1332.14 67.5124 Q1338.05 67.5124 1341.46 62.8538 Q1344.86 58.1548 1344.86 49.9314 Q1344.86 41.7081 1341.46 37.0496 Q1338.05 32.3505 1332.14 32.3505 Q1326.22 32.3505 1322.82 37.0496 Q1319.46 41.7081 1319.46 49.9314 Z" fill="#000000" fill-rule="nonzero" fill-opacity="1" /><path clip-path="url(#clip160)" d="M1367.66 27.2059 L1375.12 27.2059 L1375.12 72.576 L1367.66 72.576 L1367.66 27.2059 M1367.66 9.54393 L1375.12 9.54393 L1375.12 18.9825 L1367.66 18.9825 L1367.66 9.54393 Z" fill="#000000" fill-rule="nonzero" fill-opacity="1" /><path clip-path="url(#clip160)" d="M1419.64 28.5427 L1419.64 35.5912 Q1416.48 33.9709 1413.08 33.1607 Q1409.67 32.3505 1406.03 32.3505 Q1400.48 32.3505 1397.68 34.0519 Q1394.93 35.7533 1394.93 39.156 Q1394.93 41.7486 1396.91 43.2475 Q1398.9 44.7058 1404.89 46.0426 L1407.44 46.6097 Q1415.38 48.3111 1418.71 51.4303 Q1422.07 54.509 1422.07 60.0587 Q1422.07 66.3781 1417.04 70.0644 Q1412.06 73.7508 1403.31 73.7508 Q1399.67 73.7508 1395.7 73.0216 Q1391.77 72.3329 1387.39 70.9151 L1387.39 63.2184 Q1391.52 65.3654 1395.53 66.4591 Q1399.55 67.5124 1403.47 67.5124 Q1408.74 67.5124 1411.58 65.73 Q1414.41 63.9071 1414.41 60.6258 Q1414.41 57.5877 1412.35 55.9673 Q1410.32 54.3469 1403.39 52.8481 L1400.8 52.2405 Q1393.87 50.7821 1390.8 47.7845 Q1387.72 44.7463 1387.72 39.4801 Q1387.72 33.0797 1392.25 29.5959 Q1396.79 26.1121 1405.14 26.1121 Q1409.27 26.1121 1412.91 26.7198 Q1416.56 27.3274 1419.64 28.5427 Z" fill="#000000" fill-rule="nonzero" fill-opacity="1" /><path clip-path="url(#clip160)" d="M1466.59 28.9478 L1466.59 35.9153 Q1463.43 34.1734 1460.23 33.3227 Q1457.07 32.4315 1453.83 32.4315 Q1446.58 32.4315 1442.57 37.0496 Q1438.56 41.6271 1438.56 49.9314 Q1438.56 58.2358 1442.57 62.8538 Q1446.58 67.4314 1453.83 67.4314 Q1457.07 67.4314 1460.23 66.5807 Q1463.43 65.6895 1466.59 63.9476 L1466.59 70.8341 Q1463.47 72.2924 1460.11 73.0216 Q1456.78 73.7508 1453.02 73.7508 Q1442.77 73.7508 1436.73 67.3098 Q1430.7 60.8689 1430.7 49.9314 Q1430.7 38.832 1436.77 32.472 Q1442.89 26.1121 1453.5 26.1121 Q1456.95 26.1121 1460.23 26.8413 Q1463.51 27.5299 1466.59 28.9478 Z" fill="#000000" fill-rule="nonzero" fill-opacity="1" /><path clip-path="url(#clip160)" d="M1497.13 32.4315 Q1491.14 32.4315 1487.65 37.1306 Q1484.17 41.7891 1484.17 49.9314 Q1484.17 58.0738 1487.61 62.7728 Q1491.1 67.4314 1497.13 67.4314 Q1503.09 67.4314 1506.57 62.7323 Q1510.05 58.0333 1510.05 49.9314 Q1510.05 41.8701 1506.57 37.1711 Q1503.09 32.4315 1497.13 32.4315 M1497.13 26.1121 Q1506.85 26.1121 1512.4 32.4315 Q1517.95 38.7509 1517.95 49.9314 Q1517.95 61.0714 1512.4 67.4314 Q1506.85 73.7508 1497.13 73.7508 Q1487.37 73.7508 1481.82 67.4314 Q1476.31 61.0714 1476.31 49.9314 Q1476.31 38.7509 1481.82 32.4315 Q1487.37 26.1121 1497.13 26.1121 Z" fill="#000000" fill-rule="nonzero" fill-opacity="1" /><path clip-path="url(#clip160)" d="M1529.54 54.671 L1529.54 27.2059 L1536.99 27.2059 L1536.99 54.3874 Q1536.99 60.8284 1539.5 64.0691 Q1542.02 67.2693 1547.04 67.2693 Q1553.07 67.2693 1556.56 63.421 Q1560.08 59.5726 1560.08 52.9291 L1560.08 27.2059 L1567.54 27.2059 L1567.54 72.576 L1560.08 72.576 L1560.08 65.6084 Q1557.37 69.7404 1553.76 71.7658 Q1550.2 73.7508 1545.46 73.7508 Q1537.64 73.7508 1533.59 68.8897 Q1529.54 64.0286 1529.54 54.671 M1548.29 26.1121 L1548.29 26.1121 Z" fill="#000000" fill-rule="nonzero" fill-opacity="1" /><path clip-path="url(#clip160)" d="M1620.6 45.1919 L1620.6 72.576 L1613.15 72.576 L1613.15 45.4349 Q1613.15 38.994 1610.64 35.7938 Q1608.13 32.5936 1603.1 32.5936 Q1597.07 32.5936 1593.58 36.4419 Q1590.1 40.2903 1590.1 46.9338 L1590.1 72.576 L1582.61 72.576 L1582.61 27.2059 L1590.1 27.2059 L1590.1 34.2544 Q1592.77 30.163 1596.38 28.1376 Q1600.02 26.1121 1604.76 26.1121 Q1612.58 26.1121 1616.59 30.9732 Q1620.6 35.7938 1620.6 45.1919 Z" fill="#000000" fill-rule="nonzero" fill-opacity="1" /><path clip-path="url(#clip160)" d="M1642.84 14.324 L1642.84 27.2059 L1658.2 27.2059 L1658.2 32.9987 L1642.84 32.9987 L1642.84 57.6282 Q1642.84 63.1779 1644.34 64.7578 Q1645.88 66.3376 1650.54 66.3376 L1658.2 66.3376 L1658.2 72.576 L1650.54 72.576 Q1641.91 72.576 1638.63 69.3758 Q1635.35 66.1351 1635.35 57.6282 L1635.35 32.9987 L1629.88 32.9987 L1629.88 27.2059 L1635.35 27.2059 L1635.35 14.324 L1642.84 14.324 Z" fill="#000000" fill-rule="nonzero" fill-opacity="1" /><path clip-path="url(#clip160)" d="M1696.27 62.2867 L1704.82 62.2867 L1704.82 69.2543 L1698.18 82.2172 L1692.95 82.2172 L1696.27 69.2543 L1696.27 62.2867 Z" fill="#000000" fill-rule="nonzero" fill-opacity="1" /><path clip-path="url(#clip160)" d="M1755.62 18.8205 L1755.62 41.5461 L1765.91 41.5461 Q1771.62 41.5461 1774.74 38.5889 Q1777.86 35.6318 1777.86 30.163 Q1777.86 24.7348 1774.74 21.7777 Q1771.62 18.8205 1765.91 18.8205 L1755.62 18.8205 M1747.44 12.096 L1765.91 12.096 Q1776.08 12.096 1781.26 16.714 Q1786.49 21.2916 1786.49 30.163 Q1786.49 39.1155 1781.26 43.6931 Q1776.08 48.2706 1765.91 48.2706 L1755.62 48.2706 L1755.62 72.576 L1747.44 72.576 L1747.44 12.096 Z" fill="#000000" fill-rule="nonzero" fill-opacity="1" /><path clip-path="url(#clip160)" d="M1824.48 34.9026 L1876.42 34.9026 L1876.42 41.7081 L1824.48 41.7081 L1824.48 34.9026 M1824.48 51.4303 L1876.42 51.4303 L1876.42 58.3168 L1824.48 58.3168 L1824.48 51.4303 Z" fill="#000000" fill-rule="nonzero" fill-opacity="1" /><path clip-path="url(#clip160)" d="M1927.5 65.6895 L1956.06 65.6895 L1956.06 72.576 L1917.66 72.576 L1917.66 65.6895 Q1922.31 60.8689 1930.34 52.7671 Q1938.4 44.6248 1940.46 42.2752 Q1944.39 37.8598 1945.93 34.8216 Q1947.51 31.7429 1947.51 28.7857 Q1947.51 23.9651 1944.11 20.927 Q1940.75 17.8888 1935.32 17.8888 Q1931.47 17.8888 1927.18 19.2256 Q1922.92 20.5624 1918.06 23.2765 L1918.06 15.0127 Q1923 13.0277 1927.3 12.015 Q1931.59 11.0023 1935.16 11.0023 Q1944.55 11.0023 1950.14 15.7013 Q1955.73 20.4004 1955.73 28.2591 Q1955.73 31.9859 1954.32 35.3482 Q1952.94 38.6699 1949.25 43.2069 Q1948.24 44.3817 1942.81 50.0125 Q1937.38 55.6027 1927.5 65.6895 Z" fill="#000000" fill-rule="nonzero" fill-opacity="1" /><path clip-path="url(#clip160)" d="M1990.73 17.4837 Q1984.41 17.4837 1981.21 23.7221 Q1978.05 29.92 1978.05 42.3968 Q1978.05 54.833 1981.21 61.0714 Q1984.41 67.2693 1990.73 67.2693 Q1997.09 67.2693 2000.25 61.0714 Q2003.45 54.833 2003.45 42.3968 Q2003.45 29.92 2000.25 23.7221 Q1997.09 17.4837 1990.73 17.4837 M1990.73 11.0023 Q2000.9 11.0023 2006.25 19.0636 Q2011.64 27.0843 2011.64 42.3968 Q2011.64 57.6687 2006.25 65.73 Q2000.9 73.7508 1990.73 73.7508 Q1980.57 73.7508 1975.18 65.73 Q1969.83 57.6687 1969.83 42.3968 Q1969.83 27.0843 1975.18 19.0636 Q1980.57 11.0023 1990.73 11.0023 Z" fill="#000000" fill-rule="nonzero" fill-opacity="1" /><path clip-path="url(#clip160)" d="M2043.52 17.4837 Q2037.2 17.4837 2034 23.7221 Q2030.84 29.92 2030.84 42.3968 Q2030.84 54.833 2034 61.0714 Q2037.2 67.2693 2043.52 67.2693 Q2049.88 67.2693 2053.04 61.0714 Q2056.24 54.833 2056.24 42.3968 Q2056.24 29.92 2053.04 23.7221 Q2049.88 17.4837 2043.52 17.4837 M2043.52 11.0023 Q2053.69 11.0023 2059.03 19.0636 Q2064.42 27.0843 2064.42 42.3968 Q2064.42 57.6687 2059.03 65.73 Q2053.69 73.7508 2043.52 73.7508 Q2033.35 73.7508 2027.96 65.73 Q2022.61 57.6687 2022.61 42.3968 Q2022.61 27.0843 2027.96 19.0636 Q2033.35 11.0023 2043.52 11.0023 Z" fill="#000000" fill-rule="nonzero" fill-opacity="1" /><polyline clip-path="url(#clip162)" style="stroke:#009af9; stroke-linecap:round; stroke-linejoin:round; stroke-width:4; stroke-opacity:1; fill:none" points="321.29,1168.4 323.544,752.986 325.799,1107.81 328.053,880.433 330.307,1006.25 332.561,1328.44 334.815,791.724 337.069,1061.7 339.324,919.112 341.578,1155.95 343.832,1076.96 346.086,1330.62 348.34,1207.84 350.594,1489.36 352.849,1019.47 355.103,1294.11 357.357,1050.39 359.611,1200.49 361.865,891.028 364.119,1193.07 366.373,1072.01 368.628,1144.01 370.882,1018.45 373.136,1179.98 375.39,968.756 377.644,1446.69 379.898,1146.32 382.153,1346.74 384.407,798.098 386.661,1311.28 388.915,1292.52 391.169,920.939 393.423,930.316 395.678,1172.57 397.932,1355.24 400.186,923.495 402.44,1095.01 404.694,892.766 406.948,1095.82 409.203,1216.12 411.457,1172.25 413.711,1003.14 415.965,1097.32 418.219,822.378 420.473,670.428 422.728,1043.19 424.982,1037.21 427.236,1147.81 429.49,891.637 431.744,1231.14 433.998,898.145 436.253,728.988 438.507,1029.66 440.761,1177.22 443.015,825.633 445.269,1070.82 447.523,1028.77 449.778,1025.68 452.032,1269.52 454.286,1155.46 456.54,780.416 458.794,1545.64 461.048,967.791 463.302,981.862 465.557,762.956 467.811,949.068 470.065,1030.12 472.319,981.045 474.573,1241.18 476.827,173.254 479.082,664.737 481.336,585.478 483.59,1326.46 485.844,1004.57 488.098,1105.18 490.352,1149.93 492.607,1166.62 494.861,924.357 497.115,1100.28 499.369,1042.22 501.623,1366.2 503.877,950.91 506.132,936.363 508.386,991.491 510.64,1074.7 512.894,913.584 515.148,987.36 517.402,1235.91 519.657,1029.5 521.911,1349.73 524.165,809.807 526.419,714.07 528.673,1425.01 530.927,838.53 533.182,1055.31 535.436,1239.67 537.69,1149.76 539.944,993.051 542.198,947.671 544.452,1127.02 546.707,979.202 548.961,1121.7 551.215,994.121 553.469,1164.29 555.723,1255.27 557.977,599.55 560.231,1070.68 562.486,1512.62 564.74,1137.27 566.994,1096.16 569.248,240.462 571.502,1129.68 573.756,842.111 576.011,1018.01 578.265,1420.55 580.519,860.403 582.773,1221.9 585.027,1128.57 587.281,977.627 589.536,957.805 591.79,968.013 594.044,722.881 596.298,913.436 598.552,1176.38 600.806,1196.46 603.061,1108.51 605.315,1092.89 607.569,950.272 609.823,1111.49 612.077,823.181 614.331,1300.84 616.586,964.031 618.84,835.276 621.094,1002.06 623.348,1286.51 625.602,1266.31 627.856,1282.52 630.111,1103.5 632.365,1325.36 634.619,841.146 636.873,824.384 639.127,1217.08 641.381,1323.65 643.635,1115.03 645.89,1214.62 648.144,1028.39 650.398,800.134 652.652,1175.3 654.906,903.435 657.16,1091.21 659.415,1059.59 661.669,565.329 663.923,587.707 666.177,1203.68 668.431,1125.74 670.685,1377.35 672.94,1267.63 675.194,1082.56 677.448,721.143 679.702,1075.12 681.956,1317.52 684.21,1010.72 686.465,1187.56 688.719,1314.96 690.973,1403.48 693.227,1042.44 695.481,1274.22 697.735,1370.12 699.99,840.611 702.244,958.073 704.498,1069.99 706.752,1290.7 709.006,1191.84 711.26,1373.79 713.515,1533.36 715.769,1346.45 718.023,793.982 720.277,892.558 722.531,772.897 724.785,909.052 727.04,735.348 729.294,1067.39 731.548,921.356 733.802,802.839 736.056,928.949 738.31,1343.46 740.564,1065.52 742.819,563.754 745.073,843.553 747.327,1055.13 749.581,938.934 751.835,1466.23 754.089,1404.64 756.344,1120.29 758.598,981.52 760.852,1106.43 763.106,687.1 765.36,1268.97 767.614,924.476 769.869,1159.36 772.123,445.371 774.377,886.526 776.631,795.082 778.885,988.118 781.139,1194.2 783.394,966.84 785.648,751.485 787.902,1005.92 790.156,830.432 792.41,1106.93 794.664,1013.63 796.919,1069.99 799.173,1151.76 801.427,1201.94 803.681,1045.56 805.935,1020.27 808.189,907.462 810.444,1107.08 812.698,818.693 814.952,1292.15 817.206,1088.88 819.46,798.693 821.714,1108.83 823.969,1238.84 826.223,544.496 828.477,1066.43 830.731,945.918 832.985,1139.71 835.239,877.372 837.493,1145.02 839.748,1155.14 842.002,1021.48 844.256,858.932 846.51,1290.98 848.764,1513.54 851.018,798.039 853.273,1040.73 855.527,729.598 857.781,1219 860.035,588.896 862.289,1109.86 864.543,939.944 866.798,1246.46 869.052,889.973 871.306,1070.96 873.56,991.55 875.814,986.691 878.068,627.173 880.323,953.05 882.577,872.186 884.831,650.859 887.085,728.26 889.339,1161.69 891.593,1012.28 893.848,848.129 896.102,1213.71 898.356,1099.26 900.61,748.543 902.864,1208.41 905.118,430.987 907.373,636.237 909.627,1081.94 911.881,643.013 914.135,965.963 916.389,1144.76 918.643,1210.9 920.897,1315.48 923.152,1001.88 925.406,1078.67 927.66,1178.61 929.914,1394.67 932.168,919.394 934.422,675.317 936.677,486.278 938.931,595.672 941.185,1401.86 943.439,1195.31 945.693,1200.16 947.947,1063.08 950.202,846.019 952.456,941.505 954.71,943.956 956.964,1348.63 959.218,1114.6 961.472,874.965 963.727,929.602 965.981,1142.94 968.235,1348.17 970.489,878.249 972.743,1108.7 974.997,1151 977.252,1250.58 979.506,552.164 981.76,1209.89 984.014,918.205 986.268,830.239 988.522,1000.12 990.777,1357.71 993.031,1130.78 995.285,1443.81 997.539,1206.7 999.793,823.76 1002.05,987.687 1004.3,930.94 1006.56,1095.36 1008.81,777.444 1011.06,799.822 1013.32,821.398 1015.57,808.574 1017.83,794.116 1020.08,803.255 1022.33,1452.74 1024.59,700.904 1026.84,785.468 1029.1,1263.28 1031.35,930.568 1033.61,663.652 1035.86,1196.13 1038.11,1491.06 1040.37,1107.96 1042.62,1082.5 1044.88,851.755 1047.13,1200.46 1049.38,1055.98 1051.64,1362.75 1053.89,855.024 1056.15,1088.45 1058.4,1307.78 1060.66,802.868 1062.91,876.466 1065.16,844.251 1067.42,857.446 1069.67,899.082 1071.93,1069.81 1074.18,1118.05 1076.43,1019.99 1078.69,1268.54 1080.94,723.788 1083.2,1287.71 1085.45,408.416 1087.71,742.51 1089.96,1424.34 1092.21,1029.03 1094.47,718.26 1096.72,1464.37 1098.98,1688.65 1101.23,1207.02 1103.48,1040.26 1105.74,1282.18 1107.99,1097.08 1110.25,867.744 1112.5,1330.03 1114.76,897.759 1117.01,1149.93 1119.26,1186.47 1121.52,1348.19 1123.77,1369.91 1126.03,1138.12 1128.28,962.426 1130.53,1049.46 1132.79,1126.19 1135.04,1272.18 1137.3,1006.17 1139.55,940.212 1141.81,589.104 1144.06,1121.03 1146.31,1042.31 1148.57,831.502 1150.82,1264.92 1153.08,1058.58 1155.33,1115.36 1157.58,1246.47 1159.84,901.741 1162.09,1173.38 1164.35,1213.34 1166.6,848.56 1168.86,857.877 1171.11,1061.15 1173.36,606.667 1175.62,1328.71 1177.87,1141.88 1180.13,806.122 1182.38,759.271 1184.63,1406.46 1186.89,1307.71 1189.14,996.929 1191.4,1011.65 1193.65,1139.04 1195.91,774.591 1198.16,1082.28 1200.41,1587.42 1202.67,981.179 1204.92,1167.01 1207.18,1245.05 1209.43,701.855 1211.68,711.276 1213.94,1210.58 1216.19,1201.66 1218.45,999.916 1220.7,867.238 1222.96,1005.41 1225.21,1263.35 1227.46,1231.99 1229.72,1480.72 1231.97,904.431 1234.23,812.571 1236.48,836.361 1238.73,991.134 1240.99,861.993 1243.24,1280.86 1245.5,1356.05 1247.75,924.045 1250.01,727.993 1252.26,891.756 1254.51,884.846 1256.77,952.887 1259.02,937.79 1261.28,1134.69 1263.53,1296 1265.78,631.601 1268.04,1007.15 1270.29,780.52 1272.55,1259.02 1274.8,826.539 1277.06,764.903 1279.31,988.058 1281.56,805.573 1283.82,1226.62 1286.07,1178.6 1288.33,1215.06 1290.58,997.048 1292.83,931.014 1295.09,1562.81 1297.34,1247.75 1299.6,1094.11 1301.85,1025.7 1304.11,1233.62 1306.36,760.713 1308.61,1353.18 1310.87,656.802 1313.12,856.109 1315.38,1178.95 1317.63,729.85 1319.88,1240.62 1322.14,1123.01 1324.39,972.828 1326.65,923.362 1328.9,1124.36 1331.16,1107.1 1333.41,1010.45 1335.66,1077.91 1337.92,1189.3 1340.17,928.235 1342.43,1102.88 1344.68,1433.3 1346.93,1114.17 1349.19,708.572 1351.44,834.31 1353.7,735.749 1355.95,1334.31 1358.21,503.262 1360.46,1427.12 1362.71,934.12 1364.97,1207.28 1367.22,1080.48 1369.48,892.945 1371.73,799.198 1373.98,1432.82 1376.24,1305.67 1378.49,1307.26 1380.75,1194.36 1383,1117.48 1385.25,1233.22 1387.51,1172.97 1389.76,1191.78 1392.02,1200.9 1394.27,1053.75 1396.53,1145.39 1398.78,1231.35 1401.03,1082.04 1403.29,1282.57 1405.54,952.426 1407.8,1102.12 1410.05,1041.14 1412.3,1044.76 1414.56,966.869 1416.81,1014.12 1419.07,772.214 1421.32,1023.94 1423.58,1017.26 1425.83,599.847 1428.08,634.395 1430.34,687.234 1432.59,1359.48 1434.85,601.927 1437.1,833.404 1439.35,500.35 1441.61,893.212 1443.86,745.72 1446.12,1444.77 1448.37,1261.97 1450.63,630.739 1452.88,1160.75 1455.13,1149.98 1457.39,1165.28 1459.64,922.188 1461.9,192.304 1464.15,735.021 1466.4,717.71 1468.66,871.295 1470.91,1117.11 1473.17,1277.71 1475.42,1116.12 1477.68,1116.84 1479.93,888.413 1482.18,1358.54 1484.44,856.049 1486.69,1444.19 1488.95,1363.58 1491.2,835.618 1493.45,1196.52 1495.71,1077.57 1497.96,964.759 1500.22,946.364 1502.47,1172.45 1504.73,861.116 1506.98,1011.63 1509.23,1116.56 1511.49,800.387 1513.74,1228.48 1516,853.092 1518.25,1328.6 1520.5,1158.12 1522.76,891.503 1525.01,1120.5 1527.27,997.598 1529.52,638.273 1531.78,1157.41 1534.03,789.614 1536.28,1240.22 1538.54,1060.54 1540.79,1341.38 1543.05,1195.27 1545.3,925.07 1547.55,986.87 1549.81,1268.57 1552.06,1320.04 1554.32,941.906 1556.57,1142.56 1558.83,826.777 1561.08,1071.73 1563.33,1478.87 1565.59,1031.48 1567.84,1243.76 1570.1,702.851 1572.35,878.71 1574.6,1168.3 1576.86,911.548 1579.11,1083.48 1581.37,838.753 1583.62,693.742 1585.88,1063.71 1588.13,1384.04 1590.38,847.788 1592.64,940.643 1594.89,1280.16 1597.15,941.49 1599.4,1070.32 1601.65,951.014 1603.91,849.571 1606.16,1214.71 1608.42,1243.04 1610.67,1072.62 1612.93,1188.85 1615.18,930.093 1617.43,977.88 1619.69,1198.45 1621.94,1080.97 1624.2,1031.22 1626.45,1152.74 1628.7,1086.25 1630.96,1108.36 1633.21,1406.6 1635.47,980.837 1637.72,960.643 1639.98,1345.94 1642.23,1254.25 1644.48,1405.47 1646.74,1146.49 1648.99,1209.31 1651.25,1264.86 1653.5,1269.08 1655.75,1114.67 1658.01,843.389 1660.26,989.455 1662.52,1177.23 1664.77,971.372 1667.03,791.1 1669.28,1068.48 1671.53,1481.16 1673.79,846.525 1676.04,1225.51 1678.3,920.776 1680.55,939.825 1682.8,1273.82 1685.06,1009.56 1687.31,1218.61 1689.57,1267.03 1691.82,881.696 1694.08,1289.45 1696.33,1177.93 1698.58,1059.72 1700.84,1122.24 1703.09,1282.85 1705.35,1268.7 1707.6,993.423 1709.85,1256.7 1712.11,1228.2 1714.36,973.838 1716.62,983.853 1718.87,1164.66 1721.13,730.742 1723.38,1059.38 1725.63,1034.61 1727.89,1349.36 1730.14,1209.7 1732.4,1236.64 1734.65,913.317 1736.9,1007.91 1739.16,1280.58 1741.41,1378.11 1743.67,799.54 1745.92,1382.02 1748.18,1047.67 1750.43,1273.85 1752.68,783.462 1754.94,1102.21 1757.19,1353.4 1759.45,1078.06 1761.7,887.952 1763.95,1348.96 1766.21,1150.11 1768.46,1169.55 1770.72,1140.87 1772.97,996.528 1775.23,997.821 1777.48,1354.59 1779.73,1315.82 1781.99,775.052 1784.24,1281.47 1786.5,1039.14 1788.75,678.244 1791,1239.24 1793.26,1044.06 1795.51,968.4 1797.77,916.838 1800.02,1037.64 1802.28,918.191 1804.53,1405.17 1806.78,1171.18 1809.04,1068.92 1811.29,1152.65 1813.55,1329.15 1815.8,1413.33 1818.05,1438.81 1820.31,1066.74 1822.56,1040.41 1824.82,1182.46 1827.07,730.757 1829.33,928.518 1831.58,1098.43 1833.83,821.621 1836.09,1165.51 1838.34,774.339 1840.6,1177.17 1842.85,906.229 1845.1,1246.19 1847.36,982.382 1849.61,894.252 1851.87,762.199 1854.12,750.802 1856.37,814.117 1858.63,1312.14 1860.88,1279.82 1863.14,940.643 1865.39,1225.63 1867.65,1074.08 1869.9,1235.75 1872.15,723.282 1874.41,1393.76 1876.66,976.275 1878.92,1064.33 1881.17,1237.54 1883.42,1195.42 1885.68,990.317 1887.93,1320.1 1890.19,921.801 1892.44,1114.57 1894.7,1104.08 1896.95,851.101 1899.2,869.304 1901.46,928.027 1903.71,1182.13 1905.97,804.102 1908.22,1026.68 1910.47,648.184 1912.73,1206.33 1914.98,626.281 1917.24,977.82 1919.49,1226.25 1921.75,1143.72 1924,1205.63 1926.25,1228.73 1928.51,1188.63 1930.76,1004.58 1933.02,1103.71 1935.27,1128.27 1937.52,884.757 1939.78,1012.2 1942.03,1236.34 1944.29,1195.31 1946.54,1021.54 1948.8,947.641 1951.05,1563.75 1953.3,765.096 1955.56,1101.4 1957.81,986.29 1960.07,1215.39 1962.32,1249.52 1964.57,1191.04 1966.83,1256.82 1969.08,1329.4 1971.34,897.611 1973.59,721.96 1975.85,925.992 1978.1,795.394 1980.35,949.142 1982.61,991.119 1984.86,665.762 1987.12,1215.63 1989.37,1052.92 1991.62,983.586 1993.88,1310.71 1996.13,880.79 1998.39,1201.64 2000.64,939.038 2002.9,888.368 2005.15,1114.55 2007.4,1092.55 2009.66,1040.82 2011.91,1206.61 2014.17,1209.58 2016.42,1257 2018.67,802.289 2020.93,902.306 2023.18,1178.6 2025.44,731.425 2027.69,556.993 2029.95,1228.51 2032.2,1205.79 2034.45,958.266 2036.71,1118.85 2038.96,1161.05 2041.22,1230.96 2043.47,1228.5 2045.72,1277.81 2047.98,1085.45 2050.23,1011.61 2052.49,1106.74 2054.74,1081.75 2057,862.186 2059.25,748.32 2061.5,839.333 2063.76,804.057 2066.01,835.128 2068.27,1203.06 2070.52,1123.11 2072.77,1256.28 2075.03,1182.54 2077.28,1042.21 2079.54,942.693 2081.79,709.226 2084.05,1360.59 2086.3,681.602 2088.55,996.558 2090.81,975.428 2093.06,887.907 2095.32,1158.67 2097.57,1349.58 2099.82,946.066 2102.08,1162.92 2104.33,1114.21 2106.59,1395.63 2108.84,639.595 2111.1,1212.02 2113.35,938.949 2115.6,1232.88 2117.86,801.947 2120.11,1088.28 2122.37,1134.33 2124.62,1303.83 2126.87,1242.05 2129.13,1043.63 2131.38,1388.6 2133.64,1050.08 2135.89,1357.7 2138.15,955.784 2140.4,765.913 2142.65,1101.46 2144.91,1125.48 2147.16,1465.74 2149.42,1184.87 2151.67,868.932 2153.92,1099.55 2156.18,1091.26 2158.43,1209.85 2160.69,939.885 2162.94,1059.01 2165.2,875.129 2167.45,1025.58 2169.7,1346.88 2171.96,1343.02 2174.21,899.126 2176.47,841.933 2178.72,1358.56 2180.97,1483.81 2183.23,1389.61 2185.48,693.698 2187.74,1195.97 2189.99,1038.71 2192.25,1309.08 2194.5,1179.3 2196.75,947.062 2199.01,893.717 2201.26,1076 2203.52,726.314 2205.77,1078.6 2208.02,878.16 2210.28,912.336 2212.53,798.871 2214.79,1596.96 2217.04,1018.21 2219.3,940.138 2221.55,979.604 2223.8,626.891 2226.06,1262.73 2228.31,1187.65 2230.57,841.547 2232.82,892.811 2235.07,1361.43 2237.33,1049.9 2239.58,1172.05 2241.84,1139.34 2244.09,1130.37 2246.35,800.996 2248.6,1252 2250.85,1573.91 2253.11,981.327 2255.36,729.3 2257.62,1096.22 2259.87,1223.92 2262.12,1157.17 2264.38,1221.23 2266.63,1031.28 2268.89,704.218 2271.14,665.837 2273.4,1151.91 2275.65,704.084 2277.9,1234.54 2280.16,1261.62 2282.41,958.147 2284.67,457.838 2286.92,1004.58 2289.17,1279.45 2291.43,766.315 2293.68,973.348 2295.94,1248.05 2298.19,1397.44 2300.44,755.973 2302.7,1157.57 2304.95,1103.23 2307.21,1407.98 2309.46,709.597 2311.72,1346.67 2313.97,1145.92 2316.22,759.301 2318.48,1167.51 2320.73,1190.99 2322.99,1398.28 2325.24,1169.71 2327.49,1086.83 2329.75,1046.75 2332,939.365 2334.26,1236.37 2336.51,902.261 2338.77,912.381 2341.02,860.492 2343.27,955.383 2345.53,1168.55 2347.78,1107.36 2350.04,1118.2 2352.29,955.041 2354.54,776.077 2356.8,1023.04 2359.05,795.305 2361.31,734.219 2363.56,1139.55 2365.82,1314.89 2368.07,1294.84 2370.32,1244.68 2372.58,1036.04 2374.83,1060.44 2377.09,643.117 2379.34,866.198 2381.59,966.557 2383.85,918.072 2386.1,1406.72 2388.36,1279.63 2390.61,1217.16 2392.87,958.489 2395.12,1074.73 2397.37,864.593 2399.63,807.801 2401.88,969.544 2404.14,835.157 2406.39,872.29 2408.64,1173.17 2410.9,1288.9 2413.15,1081.91 2415.41,1113.96 2417.66,1197.47 2419.92,1070.87 2422.17,835.633 2424.42,1061.08 2426.68,1148.73 2428.93,784.993 2431.19,925.293 2433.44,1194.53 2435.69,1060.27 2437.95,1182.88 2440.2,1448.01 2442.46,1135.61 2444.71,1115.19 2446.97,954.655 2449.22,1096.26 2451.47,658.689 2453.73,920.538 2455.98,907.923 2458.24,975.057 2460.49,1025.83 2462.74,936.066 2465,871.473 2467.25,966.409 2469.51,1061.73 2471.76,1002.17 2474.02,1128.82 2476.27,886.6 2478.52,1147.81 2480.78,722.391 2483.03,913.242 2485.29,710.385 2487.54,1057.51 2489.79,1209.7 2492.05,1050.7 2494.3,1062.52 2496.56,1326.34 2498.81,859.363 2501.07,937.255 2503.32,1260.47 2505.57,1487.52 2507.83,1074.96 2510.08,928.859 2512.34,940.138 2514.59,1119.32 2516.84,844.548 2519.1,866.466 2521.35,942.857 2523.61,1122.24 2525.86,1045.22 2528.12,1236.37 2530.37,992.917 2532.62,1065.36 2534.88,954.298 2537.13,1180.19 2539.39,1226.58 2541.64,704.471 2543.89,1297.61 2546.15,808.292 2548.4,874.311 2550.66,916.705 2552.91,1132.71 2555.17,949.499 2557.42,1104.47 2559.67,941.43 2561.93,964.016 2564.18,1249.6 2566.44,850.135 2568.69,969.128 2570.94,1015.59 2573.2,1303.89 "/>
<path clip-path="url(#clip160)" d="M1855.59 285.016 L2561.19 285.016 L2561.19 181.336 L1855.59 181.336  Z" fill="#ffffff" fill-rule="evenodd" fill-opacity="1"/>
<polyline clip-path="url(#clip160)" style="stroke:#000000; stroke-linecap:round; stroke-linejoin:round; stroke-width:4; stroke-opacity:1; fill:none" points="1855.59,285.016 2561.19,285.016 2561.19,181.336 1855.59,181.336 1855.59,285.016 "/>
<polyline clip-path="url(#clip160)" style="stroke:#009af9; stroke-linecap:round; stroke-linejoin:round; stroke-width:4; stroke-opacity:1; fill:none" points="1882.11,233.176 2041.25,233.176 "/>
<path clip-path="url(#clip160)" d="M2067.77 215.896 L2074.74 215.896 L2083.56 239.415 L2092.42 215.896 L2099.39 215.896 L2099.39 250.456 L2094.83 250.456 L2094.83 220.109 L2085.92 243.813 L2081.22 243.813 L2072.31 220.109 L2072.31 250.456 L2067.77 250.456 L2067.77 215.896 Z" fill="#000000" fill-rule="nonzero" fill-opacity="1" /><path clip-path="url(#clip160)" d="M2130.66 236.429 L2130.66 238.512 L2111.08 238.512 Q2111.36 242.91 2113.72 245.225 Q2116.1 247.516 2120.34 247.516 Q2122.79 247.516 2125.08 246.915 Q2127.4 246.313 2129.67 245.109 L2129.67 249.137 Q2127.38 250.109 2124.97 250.618 Q2122.56 251.128 2120.08 251.128 Q2113.88 251.128 2110.25 247.516 Q2106.64 243.905 2106.64 237.748 Q2106.64 231.382 2110.06 227.655 Q2113.51 223.906 2119.34 223.906 Q2124.58 223.906 2127.61 227.285 Q2130.66 230.642 2130.66 236.429 M2126.4 235.179 Q2126.36 231.683 2124.44 229.6 Q2122.54 227.517 2119.39 227.517 Q2115.83 227.517 2113.67 229.53 Q2111.54 231.544 2111.22 235.202 L2126.4 235.179 Z" fill="#000000" fill-rule="nonzero" fill-opacity="1" /><path clip-path="url(#clip160)" d="M2149.44 237.424 Q2144.27 237.424 2142.28 238.604 Q2140.29 239.785 2140.29 242.632 Q2140.29 244.901 2141.77 246.243 Q2143.28 247.563 2145.85 247.563 Q2149.39 247.563 2151.52 245.063 Q2153.67 242.54 2153.67 238.373 L2153.67 237.424 L2149.44 237.424 M2157.93 235.665 L2157.93 250.456 L2153.67 250.456 L2153.67 246.521 Q2152.21 248.882 2150.04 250.016 Q2147.86 251.128 2144.71 251.128 Q2140.73 251.128 2138.37 248.905 Q2136.03 246.66 2136.03 242.91 Q2136.03 238.535 2138.95 236.313 Q2141.89 234.091 2147.7 234.091 L2153.67 234.091 L2153.67 233.674 Q2153.67 230.734 2151.73 229.137 Q2149.81 227.517 2146.31 227.517 Q2144.09 227.517 2141.98 228.049 Q2139.88 228.581 2137.93 229.646 L2137.93 225.711 Q2140.27 224.808 2142.47 224.368 Q2144.67 223.906 2146.75 223.906 Q2152.38 223.906 2155.15 226.822 Q2157.93 229.739 2157.93 235.665 Z" fill="#000000" fill-rule="nonzero" fill-opacity="1" /><path clip-path="url(#clip160)" d="M2188.26 234.808 L2188.26 250.456 L2184 250.456 L2184 234.947 Q2184 231.267 2182.56 229.438 Q2181.13 227.609 2178.26 227.609 Q2174.81 227.609 2172.82 229.808 Q2170.83 232.007 2170.83 235.804 L2170.83 250.456 L2166.54 250.456 L2166.54 224.531 L2170.83 224.531 L2170.83 228.558 Q2172.35 226.22 2174.41 225.063 Q2176.5 223.906 2179.2 223.906 Q2183.67 223.906 2185.96 226.683 Q2188.26 229.438 2188.26 234.808 Z" fill="#000000" fill-rule="nonzero" fill-opacity="1" /><path clip-path="url(#clip160)" d="M2221.87 227.517 Q2218.44 227.517 2216.45 230.202 Q2214.46 232.864 2214.46 237.517 Q2214.46 242.169 2216.43 244.854 Q2218.42 247.516 2221.87 247.516 Q2225.27 247.516 2227.26 244.831 Q2229.25 242.146 2229.25 237.517 Q2229.25 232.91 2227.26 230.225 Q2225.27 227.517 2221.87 227.517 M2221.87 223.906 Q2227.42 223.906 2230.59 227.517 Q2233.76 231.128 2233.76 237.517 Q2233.76 243.882 2230.59 247.516 Q2227.42 251.128 2221.87 251.128 Q2216.29 251.128 2213.12 247.516 Q2209.97 243.882 2209.97 237.517 Q2209.97 231.128 2213.12 227.517 Q2216.29 223.906 2221.87 223.906 Z" fill="#000000" fill-rule="nonzero" fill-opacity="1" /><path clip-path="url(#clip160)" d="M2253.95 214.438 L2253.95 217.98 L2249.88 217.98 Q2247.58 217.98 2246.68 218.906 Q2245.8 219.831 2245.8 222.239 L2245.8 224.531 L2252.82 224.531 L2252.82 227.841 L2245.8 227.841 L2245.8 250.456 L2241.52 250.456 L2241.52 227.841 L2237.45 227.841 L2237.45 224.531 L2241.52 224.531 L2241.52 222.725 Q2241.52 218.396 2243.53 216.429 Q2245.55 214.438 2249.92 214.438 L2253.95 214.438 Z" fill="#000000" fill-rule="nonzero" fill-opacity="1" /><path clip-path="url(#clip160)" d="M2274 246.521 L2281.63 246.521 L2281.63 220.156 L2273.32 221.822 L2273.32 217.563 L2281.59 215.896 L2286.26 215.896 L2286.26 246.521 L2293.9 246.521 L2293.9 250.456 L2274 250.456 L2274 246.521 Z" fill="#000000" fill-rule="nonzero" fill-opacity="1" /><path clip-path="url(#clip160)" d="M2313.35 218.975 Q2309.74 218.975 2307.91 222.54 Q2306.1 226.081 2306.1 233.211 Q2306.1 240.317 2307.91 243.882 Q2309.74 247.424 2313.35 247.424 Q2316.98 247.424 2318.79 243.882 Q2320.62 240.317 2320.62 233.211 Q2320.62 226.081 2318.79 222.54 Q2316.98 218.975 2313.35 218.975 M2313.35 215.271 Q2319.16 215.271 2322.21 219.878 Q2325.29 224.461 2325.29 233.211 Q2325.29 241.938 2322.21 246.544 Q2319.16 251.128 2313.35 251.128 Q2307.54 251.128 2304.46 246.544 Q2301.4 241.938 2301.4 233.211 Q2301.4 224.461 2304.46 219.878 Q2307.54 215.271 2313.35 215.271 Z" fill="#000000" fill-rule="nonzero" fill-opacity="1" /><path clip-path="url(#clip160)" d="M2343.51 218.975 Q2339.9 218.975 2338.07 222.54 Q2336.26 226.081 2336.26 233.211 Q2336.26 240.317 2338.07 243.882 Q2339.9 247.424 2343.51 247.424 Q2347.14 247.424 2348.95 243.882 Q2350.78 240.317 2350.78 233.211 Q2350.78 226.081 2348.95 222.54 Q2347.14 218.975 2343.51 218.975 M2343.51 215.271 Q2349.32 215.271 2352.38 219.878 Q2355.45 224.461 2355.45 233.211 Q2355.45 241.938 2352.38 246.544 Q2349.32 251.128 2343.51 251.128 Q2337.7 251.128 2334.62 246.544 Q2331.57 241.938 2331.57 233.211 Q2331.57 224.461 2334.62 219.878 Q2337.7 215.271 2343.51 215.271 Z" fill="#000000" fill-rule="nonzero" fill-opacity="1" /><path clip-path="url(#clip160)" d="M2373.67 218.975 Q2370.06 218.975 2368.23 222.54 Q2366.43 226.081 2366.43 233.211 Q2366.43 240.317 2368.23 243.882 Q2370.06 247.424 2373.67 247.424 Q2377.31 247.424 2379.11 243.882 Q2380.94 240.317 2380.94 233.211 Q2380.94 226.081 2379.11 222.54 Q2377.31 218.975 2373.67 218.975 M2373.67 215.271 Q2379.48 215.271 2382.54 219.878 Q2385.62 224.461 2385.62 233.211 Q2385.62 241.938 2382.54 246.544 Q2379.48 251.128 2373.67 251.128 Q2367.86 251.128 2364.78 246.544 Q2361.73 241.938 2361.73 233.211 Q2361.73 224.461 2364.78 219.878 Q2367.86 215.271 2373.67 215.271 Z" fill="#000000" fill-rule="nonzero" fill-opacity="1" /><path clip-path="url(#clip160)" d="M2405.82 224.531 L2410.08 224.531 L2415.41 244.762 L2420.71 224.531 L2425.73 224.531 L2431.06 244.762 L2436.36 224.531 L2440.62 224.531 L2433.83 250.456 L2428.81 250.456 L2423.23 229.206 L2417.63 250.456 L2412.61 250.456 L2405.82 224.531 Z" fill="#000000" fill-rule="nonzero" fill-opacity="1" /><path clip-path="url(#clip160)" d="M2458.86 237.424 Q2453.69 237.424 2451.7 238.604 Q2449.71 239.785 2449.71 242.632 Q2449.71 244.901 2451.19 246.243 Q2452.7 247.563 2455.27 247.563 Q2458.81 247.563 2460.94 245.063 Q2463.09 242.54 2463.09 238.373 L2463.09 237.424 L2458.86 237.424 M2467.35 235.665 L2467.35 250.456 L2463.09 250.456 L2463.09 246.521 Q2461.63 248.882 2459.46 250.016 Q2457.28 251.128 2454.13 251.128 Q2450.15 251.128 2447.79 248.905 Q2445.45 246.66 2445.45 242.91 Q2445.45 238.535 2448.37 236.313 Q2451.31 234.091 2457.12 234.091 L2463.09 234.091 L2463.09 233.674 Q2463.09 230.734 2461.15 229.137 Q2459.23 227.517 2455.73 227.517 Q2453.51 227.517 2451.4 228.049 Q2449.3 228.581 2447.35 229.646 L2447.35 225.711 Q2449.69 224.808 2451.89 224.368 Q2454.09 223.906 2456.17 223.906 Q2461.8 223.906 2464.57 226.822 Q2467.35 229.739 2467.35 235.665 Z" fill="#000000" fill-rule="nonzero" fill-opacity="1" /><path clip-path="url(#clip160)" d="M2476.12 214.438 L2480.38 214.438 L2480.38 250.456 L2476.12 250.456 L2476.12 214.438 Z" fill="#000000" fill-rule="nonzero" fill-opacity="1" /><path clip-path="url(#clip160)" d="M2489.13 214.438 L2493.42 214.438 L2493.42 235.711 L2506.12 224.531 L2511.56 224.531 L2497.81 236.66 L2512.14 250.456 L2506.59 250.456 L2493.42 237.794 L2493.42 250.456 L2489.13 250.456 L2489.13 214.438 Z" fill="#000000" fill-rule="nonzero" fill-opacity="1" /><path clip-path="url(#clip160)" d="M2533.28 225.294 L2533.28 229.322 Q2531.47 228.396 2529.53 227.933 Q2527.58 227.47 2525.5 227.47 Q2522.33 227.47 2520.73 228.443 Q2519.16 229.415 2519.16 231.359 Q2519.16 232.841 2520.29 233.697 Q2521.43 234.53 2524.85 235.294 L2526.31 235.618 Q2530.85 236.591 2532.74 238.373 Q2534.67 240.132 2534.67 243.304 Q2534.67 246.915 2531.8 249.021 Q2528.95 251.128 2523.95 251.128 Q2521.87 251.128 2519.6 250.711 Q2517.35 250.317 2514.85 249.507 L2514.85 245.109 Q2517.21 246.336 2519.5 246.961 Q2521.8 247.563 2524.04 247.563 Q2527.05 247.563 2528.67 246.544 Q2530.29 245.503 2530.29 243.628 Q2530.29 241.892 2529.11 240.966 Q2527.95 240.04 2523.99 239.183 L2522.51 238.836 Q2518.55 238.003 2516.8 236.29 Q2515.04 234.554 2515.04 231.544 Q2515.04 227.887 2517.63 225.896 Q2520.22 223.906 2524.99 223.906 Q2527.35 223.906 2529.43 224.253 Q2531.52 224.6 2533.28 225.294 Z" fill="#000000" fill-rule="nonzero" fill-opacity="1" /></svg>
