<?xml version="1.0" encoding="utf-8"?>
<svg xmlns="http://www.w3.org/2000/svg" xmlns:xlink="http://www.w3.org/1999/xlink" width="672" height="480" viewBox="0 0 2688 1920">
<defs>
  <clipPath id="clip280">
    <rect x="0" y="0" width="2688" height="1920"/>
  </clipPath>
</defs>
<path clip-path="url(#clip280)" d="M0 1920 L2688 1920 L2688 -4.26326e-14 L0 -4.26326e-14  Z" fill="#ffffff" fill-rule="evenodd" fill-opacity="1"/>
<defs>
  <clipPath id="clip281">
    <rect x="537" y="0" width="1883" height="1883"/>
  </clipPath>
</defs>
<path clip-path="url(#clip280)" d="M255.816 1734.12 L2640.76 1734.12 L2640.76 127.792 L255.816 127.792  Z" fill="#ffffff" fill-rule="evenodd" fill-opacity="1"/>
<defs>
  <clipPath id="clip282">
    <rect x="255" y="127" width="2386" height="1607"/>
  </clipPath>
</defs>
<polyline clip-path="url(#clip282)" style="stroke:#000000; stroke-linecap:round; stroke-linejoin:round; stroke-width:2; stroke-opacity:0.1; fill:none" points="698.305,1734.12 698.305,127.792 "/>
<polyline clip-path="url(#clip282)" style="stroke:#000000; stroke-linecap:round; stroke-linejoin:round; stroke-width:2; stroke-opacity:0.1; fill:none" points="1167.04,1734.12 1167.04,127.792 "/>
<polyline clip-path="url(#clip282)" style="stroke:#000000; stroke-linecap:round; stroke-linejoin:round; stroke-width:2; stroke-opacity:0.1; fill:none" points="1635.78,1734.12 1635.78,127.792 "/>
<polyline clip-path="url(#clip282)" style="stroke:#000000; stroke-linecap:round; stroke-linejoin:round; stroke-width:2; stroke-opacity:0.1; fill:none" points="2104.52,1734.12 2104.52,127.792 "/>
<polyline clip-path="url(#clip282)" style="stroke:#000000; stroke-linecap:round; stroke-linejoin:round; stroke-width:2; stroke-opacity:0.1; fill:none" points="2573.26,1734.12 2573.26,127.792 "/>
<polyline clip-path="url(#clip282)" style="stroke:#000000; stroke-linecap:round; stroke-linejoin:round; stroke-width:2; stroke-opacity:0.1; fill:none" points="255.816,1734.12 2640.76,1734.12 "/>
<polyline clip-path="url(#clip282)" style="stroke:#000000; stroke-linecap:round; stroke-linejoin:round; stroke-width:2; stroke-opacity:0.1; fill:none" points="255.816,1466.4 2640.76,1466.4 "/>
<polyline clip-path="url(#clip282)" style="stroke:#000000; stroke-linecap:round; stroke-linejoin:round; stroke-width:2; stroke-opacity:0.1; fill:none" points="255.816,1198.68 2640.76,1198.68 "/>
<polyline clip-path="url(#clip282)" style="stroke:#000000; stroke-linecap:round; stroke-linejoin:round; stroke-width:2; stroke-opacity:0.1; fill:none" points="255.816,930.955 2640.76,930.955 "/>
<polyline clip-path="url(#clip282)" style="stroke:#000000; stroke-linecap:round; stroke-linejoin:round; stroke-width:2; stroke-opacity:0.1; fill:none" points="255.816,663.234 2640.76,663.234 "/>
<polyline clip-path="url(#clip282)" style="stroke:#000000; stroke-linecap:round; stroke-linejoin:round; stroke-width:2; stroke-opacity:0.1; fill:none" points="255.816,395.513 2640.76,395.513 "/>
<polyline clip-path="url(#clip280)" style="stroke:#000000; stroke-linecap:round; stroke-linejoin:round; stroke-width:4; stroke-opacity:1; fill:none" points="255.816,1734.12 2640.76,1734.12 "/>
<polyline clip-path="url(#clip280)" style="stroke:#000000; stroke-linecap:round; stroke-linejoin:round; stroke-width:4; stroke-opacity:1; fill:none" points="698.305,1734.12 698.305,1715.22 "/>
<polyline clip-path="url(#clip280)" style="stroke:#000000; stroke-linecap:round; stroke-linejoin:round; stroke-width:4; stroke-opacity:1; fill:none" points="1167.04,1734.12 1167.04,1715.22 "/>
<polyline clip-path="url(#clip280)" style="stroke:#000000; stroke-linecap:round; stroke-linejoin:round; stroke-width:4; stroke-opacity:1; fill:none" points="1635.78,1734.12 1635.78,1715.22 "/>
<polyline clip-path="url(#clip280)" style="stroke:#000000; stroke-linecap:round; stroke-linejoin:round; stroke-width:4; stroke-opacity:1; fill:none" points="2104.52,1734.12 2104.52,1715.22 "/>
<polyline clip-path="url(#clip280)" style="stroke:#000000; stroke-linecap:round; stroke-linejoin:round; stroke-width:4; stroke-opacity:1; fill:none" points="2573.26,1734.12 2573.26,1715.22 "/>
<path clip-path="url(#clip280)" d="M661.106 1767.34 Q657.495 1767.34 655.666 1770.9 Q653.861 1774.45 653.861 1781.58 Q653.861 1788.68 655.666 1792.25 Q657.495 1795.79 661.106 1795.79 Q664.74 1795.79 666.546 1792.25 Q668.375 1788.68 668.375 1781.58 Q668.375 1774.45 666.546 1770.9 Q664.74 1767.34 661.106 1767.34 M661.106 1763.64 Q666.916 1763.64 669.972 1768.24 Q673.051 1772.83 673.051 1781.58 Q673.051 1790.3 669.972 1794.91 Q666.916 1799.49 661.106 1799.49 Q655.296 1799.49 652.217 1794.91 Q649.162 1790.3 649.162 1781.58 Q649.162 1772.83 652.217 1768.24 Q655.296 1763.64 661.106 1763.64 Z" fill="#000000" fill-rule="nonzero" fill-opacity="1" /><path clip-path="url(#clip280)" d="M681.268 1792.94 L686.152 1792.94 L686.152 1798.82 L681.268 1798.82 L681.268 1792.94 Z" fill="#000000" fill-rule="nonzero" fill-opacity="1" /><path clip-path="url(#clip280)" d="M706.337 1767.34 Q702.726 1767.34 700.898 1770.9 Q699.092 1774.45 699.092 1781.58 Q699.092 1788.68 700.898 1792.25 Q702.726 1795.79 706.337 1795.79 Q709.972 1795.79 711.777 1792.25 Q713.606 1788.68 713.606 1781.58 Q713.606 1774.45 711.777 1770.9 Q709.972 1767.34 706.337 1767.34 M706.337 1763.64 Q712.148 1763.64 715.203 1768.24 Q718.282 1772.83 718.282 1781.58 Q718.282 1790.3 715.203 1794.91 Q712.148 1799.49 706.337 1799.49 Q700.527 1799.49 697.449 1794.91 Q694.393 1790.3 694.393 1781.58 Q694.393 1772.83 697.449 1768.24 Q700.527 1763.64 706.337 1763.64 Z" fill="#000000" fill-rule="nonzero" fill-opacity="1" /><path clip-path="url(#clip280)" d="M726.546 1764.26 L744.902 1764.26 L744.902 1768.2 L730.828 1768.2 L730.828 1776.67 Q731.847 1776.32 732.865 1776.16 Q733.884 1775.97 734.902 1775.97 Q740.689 1775.97 744.069 1779.15 Q747.448 1782.32 747.448 1787.73 Q747.448 1793.31 743.976 1796.41 Q740.504 1799.49 734.185 1799.49 Q732.009 1799.49 729.74 1799.12 Q727.495 1798.75 725.087 1798.01 L725.087 1793.31 Q727.171 1794.45 729.393 1795 Q731.615 1795.56 734.092 1795.56 Q738.097 1795.56 740.435 1793.45 Q742.772 1791.34 742.772 1787.73 Q742.772 1784.12 740.435 1782.02 Q738.097 1779.91 734.092 1779.91 Q732.217 1779.91 730.342 1780.33 Q728.49 1780.74 726.546 1781.62 L726.546 1764.26 Z" fill="#000000" fill-rule="nonzero" fill-opacity="1" /><path clip-path="url(#clip280)" d="M1129.35 1767.34 Q1125.74 1767.34 1123.91 1770.9 Q1122.1 1774.45 1122.1 1781.58 Q1122.1 1788.68 1123.91 1792.25 Q1125.74 1795.79 1129.35 1795.79 Q1132.98 1795.79 1134.79 1792.25 Q1136.62 1788.68 1136.62 1781.58 Q1136.62 1774.45 1134.79 1770.9 Q1132.98 1767.34 1129.35 1767.34 M1129.35 1763.64 Q1135.16 1763.64 1138.21 1768.24 Q1141.29 1772.83 1141.29 1781.58 Q1141.29 1790.3 1138.21 1794.91 Q1135.16 1799.49 1129.35 1799.49 Q1123.54 1799.49 1120.46 1794.91 Q1117.4 1790.3 1117.4 1781.58 Q1117.4 1772.83 1120.46 1768.24 Q1123.54 1763.64 1129.35 1763.64 Z" fill="#000000" fill-rule="nonzero" fill-opacity="1" /><path clip-path="url(#clip280)" d="M1149.51 1792.94 L1154.39 1792.94 L1154.39 1798.82 L1149.51 1798.82 L1149.51 1792.94 Z" fill="#000000" fill-rule="nonzero" fill-opacity="1" /><path clip-path="url(#clip280)" d="M1165.39 1794.89 L1173.03 1794.89 L1173.03 1768.52 L1164.72 1770.19 L1164.72 1765.93 L1172.98 1764.26 L1177.66 1764.26 L1177.66 1794.89 L1185.3 1794.89 L1185.3 1798.82 L1165.39 1798.82 L1165.39 1794.89 Z" fill="#000000" fill-rule="nonzero" fill-opacity="1" /><path clip-path="url(#clip280)" d="M1204.74 1767.34 Q1201.13 1767.34 1199.3 1770.9 Q1197.49 1774.45 1197.49 1781.58 Q1197.49 1788.68 1199.3 1792.25 Q1201.13 1795.79 1204.74 1795.79 Q1208.37 1795.79 1210.18 1792.25 Q1212.01 1788.68 1212.01 1781.58 Q1212.01 1774.45 1210.18 1770.9 Q1208.37 1767.34 1204.74 1767.34 M1204.74 1763.64 Q1210.55 1763.64 1213.61 1768.24 Q1216.68 1772.83 1216.68 1781.58 Q1216.68 1790.3 1213.61 1794.91 Q1210.55 1799.49 1204.74 1799.49 Q1198.93 1799.49 1195.85 1794.91 Q1192.8 1790.3 1192.8 1781.58 Q1192.8 1772.83 1195.85 1768.24 Q1198.93 1763.64 1204.74 1763.64 Z" fill="#000000" fill-rule="nonzero" fill-opacity="1" /><path clip-path="url(#clip280)" d="M1598.58 1767.34 Q1594.97 1767.34 1593.14 1770.9 Q1591.34 1774.45 1591.34 1781.58 Q1591.34 1788.68 1593.14 1792.25 Q1594.97 1795.79 1598.58 1795.79 Q1602.22 1795.79 1604.02 1792.25 Q1605.85 1788.68 1605.85 1781.58 Q1605.85 1774.45 1604.02 1770.9 Q1602.22 1767.34 1598.58 1767.34 M1598.58 1763.64 Q1604.39 1763.64 1607.45 1768.24 Q1610.53 1772.83 1610.53 1781.58 Q1610.53 1790.3 1607.45 1794.91 Q1604.39 1799.49 1598.58 1799.49 Q1592.77 1799.49 1589.69 1794.91 Q1586.64 1790.3 1586.64 1781.58 Q1586.64 1772.83 1589.69 1768.24 Q1592.77 1763.64 1598.58 1763.64 Z" fill="#000000" fill-rule="nonzero" fill-opacity="1" /><path clip-path="url(#clip280)" d="M1618.74 1792.94 L1623.63 1792.94 L1623.63 1798.82 L1618.74 1798.82 L1618.74 1792.94 Z" fill="#000000" fill-rule="nonzero" fill-opacity="1" /><path clip-path="url(#clip280)" d="M1634.62 1794.89 L1642.26 1794.89 L1642.26 1768.52 L1633.95 1770.19 L1633.95 1765.93 L1642.22 1764.26 L1646.89 1764.26 L1646.89 1794.89 L1654.53 1794.89 L1654.53 1798.82 L1634.62 1798.82 L1634.62 1794.89 Z" fill="#000000" fill-rule="nonzero" fill-opacity="1" /><path clip-path="url(#clip280)" d="M1664.02 1764.26 L1682.38 1764.26 L1682.38 1768.2 L1668.3 1768.2 L1668.3 1776.67 Q1669.32 1776.32 1670.34 1776.16 Q1671.36 1775.97 1672.38 1775.97 Q1678.17 1775.97 1681.55 1779.15 Q1684.92 1782.32 1684.92 1787.73 Q1684.92 1793.31 1681.45 1796.41 Q1677.98 1799.49 1671.66 1799.49 Q1669.48 1799.49 1667.22 1799.12 Q1664.97 1798.75 1662.56 1798.01 L1662.56 1793.31 Q1664.65 1794.45 1666.87 1795 Q1669.09 1795.56 1671.57 1795.56 Q1675.57 1795.56 1677.91 1793.45 Q1680.25 1791.34 1680.25 1787.73 Q1680.25 1784.12 1677.91 1782.02 Q1675.57 1779.91 1671.57 1779.91 Q1669.69 1779.91 1667.82 1780.33 Q1665.97 1780.74 1664.02 1781.62 L1664.02 1764.26 Z" fill="#000000" fill-rule="nonzero" fill-opacity="1" /><path clip-path="url(#clip280)" d="M2066.82 1767.34 Q2063.21 1767.34 2061.38 1770.9 Q2059.58 1774.45 2059.58 1781.58 Q2059.58 1788.68 2061.38 1792.25 Q2063.21 1795.79 2066.82 1795.79 Q2070.46 1795.79 2072.26 1792.25 Q2074.09 1788.68 2074.09 1781.58 Q2074.09 1774.45 2072.26 1770.9 Q2070.46 1767.34 2066.82 1767.34 M2066.82 1763.64 Q2072.63 1763.64 2075.69 1768.24 Q2078.77 1772.83 2078.77 1781.58 Q2078.77 1790.3 2075.69 1794.91 Q2072.63 1799.49 2066.82 1799.49 Q2061.01 1799.49 2057.93 1794.91 Q2054.88 1790.3 2054.88 1781.58 Q2054.88 1772.83 2057.93 1768.24 Q2061.01 1763.64 2066.82 1763.64 Z" fill="#000000" fill-rule="nonzero" fill-opacity="1" /><path clip-path="url(#clip280)" d="M2086.98 1792.94 L2091.87 1792.94 L2091.87 1798.82 L2086.98 1798.82 L2086.98 1792.94 Z" fill="#000000" fill-rule="nonzero" fill-opacity="1" /><path clip-path="url(#clip280)" d="M2106.08 1794.89 L2122.4 1794.89 L2122.4 1798.82 L2100.46 1798.82 L2100.46 1794.89 Q2103.12 1792.13 2107.7 1787.5 Q2112.31 1782.85 2113.49 1781.51 Q2115.73 1778.98 2116.61 1777.25 Q2117.52 1775.49 2117.52 1773.8 Q2117.52 1771.04 2115.57 1769.31 Q2113.65 1767.57 2110.55 1767.57 Q2108.35 1767.57 2105.9 1768.34 Q2103.47 1769.1 2100.69 1770.65 L2100.69 1765.93 Q2103.51 1764.79 2105.97 1764.21 Q2108.42 1763.64 2110.46 1763.64 Q2115.83 1763.64 2119.02 1766.32 Q2122.22 1769.01 2122.22 1773.5 Q2122.22 1775.63 2121.41 1777.55 Q2120.62 1779.45 2118.51 1782.04 Q2117.93 1782.71 2114.83 1785.93 Q2111.73 1789.12 2106.08 1794.89 Z" fill="#000000" fill-rule="nonzero" fill-opacity="1" /><path clip-path="url(#clip280)" d="M2142.22 1767.34 Q2138.6 1767.34 2136.78 1770.9 Q2134.97 1774.45 2134.97 1781.58 Q2134.97 1788.68 2136.78 1792.25 Q2138.6 1795.79 2142.22 1795.79 Q2145.85 1795.79 2147.66 1792.25 Q2149.48 1788.68 2149.48 1781.58 Q2149.48 1774.45 2147.66 1770.9 Q2145.85 1767.34 2142.22 1767.34 M2142.22 1763.64 Q2148.03 1763.64 2151.08 1768.24 Q2154.16 1772.83 2154.16 1781.58 Q2154.16 1790.3 2151.08 1794.91 Q2148.03 1799.49 2142.22 1799.49 Q2136.41 1799.49 2133.33 1794.91 Q2130.27 1790.3 2130.27 1781.58 Q2130.27 1772.83 2133.33 1768.24 Q2136.41 1763.64 2142.22 1763.64 Z" fill="#000000" fill-rule="nonzero" fill-opacity="1" /><path clip-path="url(#clip280)" d="M2536.06 1767.34 Q2532.45 1767.34 2530.62 1770.9 Q2528.81 1774.45 2528.81 1781.58 Q2528.81 1788.68 2530.62 1792.25 Q2532.45 1795.79 2536.06 1795.79 Q2539.69 1795.79 2541.5 1792.25 Q2543.33 1788.68 2543.33 1781.58 Q2543.33 1774.45 2541.5 1770.9 Q2539.69 1767.34 2536.06 1767.34 M2536.06 1763.64 Q2541.87 1763.64 2544.92 1768.24 Q2548 1772.83 2548 1781.58 Q2548 1790.3 2544.92 1794.91 Q2541.87 1799.49 2536.06 1799.49 Q2530.25 1799.49 2527.17 1794.91 Q2524.11 1790.3 2524.11 1781.58 Q2524.11 1772.83 2527.17 1768.24 Q2530.25 1763.64 2536.06 1763.64 Z" fill="#000000" fill-rule="nonzero" fill-opacity="1" /><path clip-path="url(#clip280)" d="M2556.22 1792.94 L2561.1 1792.94 L2561.1 1798.82 L2556.22 1798.82 L2556.22 1792.94 Z" fill="#000000" fill-rule="nonzero" fill-opacity="1" /><path clip-path="url(#clip280)" d="M2575.32 1794.89 L2591.64 1794.89 L2591.64 1798.82 L2569.69 1798.82 L2569.69 1794.89 Q2572.35 1792.13 2576.94 1787.5 Q2581.54 1782.85 2582.73 1781.51 Q2584.97 1778.98 2585.85 1777.25 Q2586.75 1775.49 2586.75 1773.8 Q2586.75 1771.04 2584.81 1769.31 Q2582.89 1767.57 2579.79 1767.57 Q2577.59 1767.57 2575.13 1768.34 Q2572.7 1769.1 2569.92 1770.65 L2569.92 1765.93 Q2572.75 1764.79 2575.2 1764.21 Q2577.66 1763.64 2579.69 1763.64 Q2585.06 1763.64 2588.26 1766.32 Q2591.45 1769.01 2591.45 1773.5 Q2591.45 1775.63 2590.64 1777.55 Q2589.85 1779.45 2587.75 1782.04 Q2587.17 1782.71 2584.07 1785.93 Q2580.97 1789.12 2575.32 1794.89 Z" fill="#000000" fill-rule="nonzero" fill-opacity="1" /><path clip-path="url(#clip280)" d="M2601.5 1764.26 L2619.85 1764.26 L2619.85 1768.2 L2605.78 1768.2 L2605.78 1776.67 Q2606.8 1776.32 2607.82 1776.16 Q2608.84 1775.97 2609.85 1775.97 Q2615.64 1775.97 2619.02 1779.15 Q2622.4 1782.32 2622.4 1787.73 Q2622.4 1793.31 2618.93 1796.41 Q2615.46 1799.49 2609.14 1799.49 Q2606.96 1799.49 2604.69 1799.12 Q2602.45 1798.75 2600.04 1798.01 L2600.04 1793.31 Q2602.12 1794.45 2604.35 1795 Q2606.57 1795.56 2609.04 1795.56 Q2613.05 1795.56 2615.39 1793.45 Q2617.72 1791.34 2617.72 1787.73 Q2617.72 1784.12 2615.39 1782.02 Q2613.05 1779.91 2609.04 1779.91 Q2607.17 1779.91 2605.29 1780.33 Q2603.44 1780.74 2601.5 1781.62 L2601.5 1764.26 Z" fill="#000000" fill-rule="nonzero" fill-opacity="1" /><path clip-path="url(#clip280)" d="M1153.3 1837.34 L1153.3 1843.61 Q1149.64 1841.86 1146.39 1841 Q1143.15 1840.14 1140.12 1840.14 Q1134.87 1840.14 1132.01 1842.18 Q1129.17 1844.22 1129.17 1847.97 Q1129.17 1851.12 1131.05 1852.75 Q1132.96 1854.34 1138.24 1855.32 L1142.13 1856.12 Q1149.32 1857.49 1152.73 1860.96 Q1156.16 1864.39 1156.16 1870.19 Q1156.16 1877.09 1151.52 1880.66 Q1146.9 1884.22 1137.96 1884.22 Q1134.58 1884.22 1130.76 1883.46 Q1126.98 1882.7 1122.9 1881.2 L1122.9 1874.58 Q1126.82 1876.78 1130.57 1877.89 Q1134.33 1879 1137.96 1879 Q1143.46 1879 1146.46 1876.84 Q1149.45 1874.68 1149.45 1870.67 Q1149.45 1867.16 1147.28 1865.19 Q1145.15 1863.22 1140.25 1862.23 L1136.33 1861.47 Q1129.14 1860.03 1125.93 1856.98 Q1122.71 1853.92 1122.71 1848.48 Q1122.71 1842.18 1127.14 1838.55 Q1131.59 1834.92 1139.39 1834.92 Q1142.73 1834.92 1146.2 1835.53 Q1149.67 1836.13 1153.3 1837.34 Z" fill="#000000" fill-rule="nonzero" fill-opacity="1" /><path clip-path="url(#clip280)" d="M1171.73 1837.53 L1171.73 1847.65 L1183.79 1847.65 L1183.79 1852.2 L1171.73 1852.2 L1171.73 1871.56 Q1171.73 1875.92 1172.91 1877.16 Q1174.12 1878.4 1177.78 1878.4 L1183.79 1878.4 L1183.79 1883.3 L1177.78 1883.3 Q1171 1883.3 1168.42 1880.79 Q1165.84 1878.24 1165.84 1871.56 L1165.84 1852.2 L1161.54 1852.2 L1161.54 1847.65 L1165.84 1847.65 L1165.84 1837.53 L1171.73 1837.53 Z" fill="#000000" fill-rule="nonzero" fill-opacity="1" /><path clip-path="url(#clip280)" d="M1221.99 1864.01 L1221.99 1866.88 L1195.06 1866.88 Q1195.44 1872.92 1198.69 1876.11 Q1201.97 1879.26 1207.79 1879.26 Q1211.16 1879.26 1214.31 1878.43 Q1217.5 1877.6 1220.62 1875.95 L1220.62 1881.49 Q1217.47 1882.82 1214.16 1883.52 Q1210.85 1884.22 1207.44 1884.22 Q1198.91 1884.22 1193.91 1879.26 Q1188.95 1874.29 1188.95 1865.83 Q1188.95 1857.07 1193.66 1851.95 Q1198.4 1846.79 1206.42 1846.79 Q1213.61 1846.79 1217.78 1851.44 Q1221.99 1856.06 1221.99 1864.01 M1216.13 1862.29 Q1216.07 1857.49 1213.42 1854.62 Q1210.81 1851.76 1206.48 1851.76 Q1201.58 1851.76 1198.62 1854.53 Q1195.69 1857.3 1195.25 1862.33 L1216.13 1862.29 Z" fill="#000000" fill-rule="nonzero" fill-opacity="1" /><path clip-path="url(#clip280)" d="M1237.26 1877.95 L1237.26 1896.86 L1231.37 1896.86 L1231.37 1847.65 L1237.26 1847.65 L1237.26 1853.06 Q1239.11 1849.88 1241.91 1848.35 Q1244.74 1846.79 1248.66 1846.79 Q1255.15 1846.79 1259.19 1851.95 Q1263.27 1857.11 1263.27 1865.51 Q1263.27 1873.91 1259.19 1879.07 Q1255.15 1884.22 1248.66 1884.22 Q1244.74 1884.22 1241.91 1882.7 Q1239.11 1881.14 1237.26 1877.95 M1257.19 1865.51 Q1257.19 1859.05 1254.51 1855.39 Q1251.87 1851.7 1247.23 1851.7 Q1242.58 1851.7 1239.9 1855.39 Q1237.26 1859.05 1237.26 1865.51 Q1237.26 1871.97 1239.9 1875.66 Q1242.58 1879.32 1247.23 1879.32 Q1251.87 1879.32 1254.51 1875.66 Q1257.19 1871.97 1257.19 1865.51 Z" fill="#000000" fill-rule="nonzero" fill-opacity="1" /><path clip-path="url(#clip280)" d="M1316.42 1848.7 L1316.42 1854.24 Q1313.94 1852.97 1311.26 1852.33 Q1308.59 1851.7 1305.73 1851.7 Q1301.37 1851.7 1299.17 1853.03 Q1297.01 1854.37 1297.01 1857.04 Q1297.01 1859.08 1298.56 1860.26 Q1300.12 1861.4 1304.83 1862.45 L1306.84 1862.9 Q1313.08 1864.24 1315.69 1866.69 Q1318.33 1869.11 1318.33 1873.47 Q1318.33 1878.43 1314.38 1881.33 Q1310.47 1884.22 1303.59 1884.22 Q1300.73 1884.22 1297.61 1883.65 Q1294.52 1883.11 1291.08 1882 L1291.08 1875.95 Q1294.33 1877.64 1297.48 1878.49 Q1300.63 1879.32 1303.72 1879.32 Q1307.86 1879.32 1310.09 1877.92 Q1312.31 1876.49 1312.31 1873.91 Q1312.31 1871.52 1310.69 1870.25 Q1309.1 1868.98 1303.66 1867.8 L1301.62 1867.32 Q1296.18 1866.18 1293.76 1863.82 Q1291.34 1861.43 1291.34 1857.3 Q1291.34 1852.27 1294.9 1849.53 Q1298.47 1846.79 1305.03 1846.79 Q1308.27 1846.79 1311.14 1847.27 Q1314 1847.75 1316.42 1848.7 Z" fill="#000000" fill-rule="nonzero" fill-opacity="1" /><path clip-path="url(#clip280)" d="M1327.66 1847.65 L1333.51 1847.65 L1333.51 1883.3 L1327.66 1883.3 L1327.66 1847.65 M1327.66 1833.78 L1333.51 1833.78 L1333.51 1841.19 L1327.66 1841.19 L1327.66 1833.78 Z" fill="#000000" fill-rule="nonzero" fill-opacity="1" /><path clip-path="url(#clip280)" d="M1343.22 1847.65 L1371.04 1847.65 L1371.04 1853 L1349.01 1878.62 L1371.04 1878.62 L1371.04 1883.3 L1342.42 1883.3 L1342.42 1877.95 L1364.45 1852.33 L1343.22 1852.33 L1343.22 1847.65 Z" fill="#000000" fill-rule="nonzero" fill-opacity="1" /><path clip-path="url(#clip280)" d="M1410.47 1864.01 L1410.47 1866.88 L1383.55 1866.88 Q1383.93 1872.92 1387.18 1876.11 Q1390.45 1879.26 1396.28 1879.26 Q1399.65 1879.26 1402.8 1878.43 Q1405.99 1877.6 1409.11 1875.95 L1409.11 1881.49 Q1405.95 1882.82 1402.64 1883.52 Q1399.33 1884.22 1395.93 1884.22 Q1387.4 1884.22 1382.4 1879.26 Q1377.44 1874.29 1377.44 1865.83 Q1377.44 1857.07 1382.15 1851.95 Q1386.89 1846.79 1394.91 1846.79 Q1402.1 1846.79 1406.27 1851.44 Q1410.47 1856.06 1410.47 1864.01 M1404.62 1862.29 Q1404.55 1857.49 1401.91 1854.62 Q1399.3 1851.76 1394.97 1851.76 Q1390.07 1851.76 1387.11 1854.53 Q1384.18 1857.3 1383.74 1862.33 L1404.62 1862.29 Z" fill="#000000" fill-rule="nonzero" fill-opacity="1" /><path clip-path="url(#clip280)" d="M1466.46 1849.02 L1466.46 1854.5 Q1463.98 1853.13 1461.46 1852.46 Q1458.98 1851.76 1456.43 1851.76 Q1450.74 1851.76 1447.59 1855.39 Q1444.43 1858.98 1444.43 1865.51 Q1444.43 1872.03 1447.59 1875.66 Q1450.74 1879.26 1456.43 1879.26 Q1458.98 1879.26 1461.46 1878.59 Q1463.98 1877.89 1466.46 1876.52 L1466.46 1881.93 Q1464.01 1883.08 1461.37 1883.65 Q1458.76 1884.22 1455.8 1884.22 Q1447.75 1884.22 1443 1879.16 Q1438.26 1874.1 1438.26 1865.51 Q1438.26 1856.79 1443.03 1851.79 Q1447.84 1846.79 1456.18 1846.79 Q1458.89 1846.79 1461.46 1847.37 Q1464.04 1847.91 1466.46 1849.02 Z" fill="#000000" fill-rule="nonzero" fill-opacity="1" /><path clip-path="url(#clip280)" d="M1490.46 1851.76 Q1485.75 1851.76 1483.01 1855.45 Q1480.27 1859.11 1480.27 1865.51 Q1480.27 1871.91 1482.98 1875.6 Q1485.72 1879.26 1490.46 1879.26 Q1495.14 1879.26 1497.87 1875.57 Q1500.61 1871.87 1500.61 1865.51 Q1500.61 1859.17 1497.87 1855.48 Q1495.14 1851.76 1490.46 1851.76 M1490.46 1846.79 Q1498.1 1846.79 1502.46 1851.76 Q1506.82 1856.72 1506.82 1865.51 Q1506.82 1874.26 1502.46 1879.26 Q1498.1 1884.22 1490.46 1884.22 Q1482.79 1884.22 1478.43 1879.26 Q1474.1 1874.26 1474.1 1865.51 Q1474.1 1856.72 1478.43 1851.76 Q1482.79 1846.79 1490.46 1846.79 Z" fill="#000000" fill-rule="nonzero" fill-opacity="1" /><path clip-path="url(#clip280)" d="M1547.02 1864.01 L1547.02 1866.88 L1520.09 1866.88 Q1520.47 1872.92 1523.72 1876.11 Q1527 1879.26 1532.82 1879.26 Q1536.2 1879.26 1539.35 1878.43 Q1542.53 1877.6 1545.65 1875.95 L1545.65 1881.49 Q1542.5 1882.82 1539.19 1883.52 Q1535.88 1884.22 1532.47 1884.22 Q1523.94 1884.22 1518.95 1879.26 Q1513.98 1874.29 1513.98 1865.83 Q1513.98 1857.07 1518.69 1851.95 Q1523.43 1846.79 1531.45 1846.79 Q1538.65 1846.79 1542.82 1851.44 Q1547.02 1856.06 1547.02 1864.01 M1541.16 1862.29 Q1541.1 1857.49 1538.46 1854.62 Q1535.85 1851.76 1531.52 1851.76 Q1526.62 1851.76 1523.66 1854.53 Q1520.73 1857.3 1520.28 1862.33 L1541.16 1862.29 Z" fill="#000000" fill-rule="nonzero" fill-opacity="1" /><path clip-path="url(#clip280)" d="M1574.68 1833.78 L1574.68 1838.65 L1569.08 1838.65 Q1565.92 1838.65 1564.68 1839.92 Q1563.47 1841.19 1563.47 1844.5 L1563.47 1847.65 L1573.12 1847.65 L1573.12 1852.2 L1563.47 1852.2 L1563.47 1883.3 L1557.59 1883.3 L1557.59 1852.2 L1551.98 1852.2 L1551.98 1847.65 L1557.59 1847.65 L1557.59 1845.17 Q1557.59 1839.22 1560.35 1836.51 Q1563.12 1833.78 1569.14 1833.78 L1574.68 1833.78 Z" fill="#000000" fill-rule="nonzero" fill-opacity="1" /><path clip-path="url(#clip280)" d="M1597.63 1833.78 L1597.63 1838.65 L1592.02 1838.65 Q1588.87 1838.65 1587.63 1839.92 Q1586.42 1841.19 1586.42 1844.5 L1586.42 1847.65 L1596.07 1847.65 L1596.07 1852.2 L1586.42 1852.2 L1586.42 1883.3 L1580.53 1883.3 L1580.53 1852.2 L1574.93 1852.2 L1574.93 1847.65 L1580.53 1847.65 L1580.53 1845.17 Q1580.53 1839.22 1583.3 1836.51 Q1586.07 1833.78 1592.09 1833.78 L1597.63 1833.78 Z" fill="#000000" fill-rule="nonzero" fill-opacity="1" /><path clip-path="url(#clip280)" d="M1602.53 1847.65 L1608.38 1847.65 L1608.38 1883.3 L1602.53 1883.3 L1602.53 1847.65 M1602.53 1833.78 L1608.38 1833.78 L1608.38 1841.19 L1602.53 1841.19 L1602.53 1833.78 Z" fill="#000000" fill-rule="nonzero" fill-opacity="1" /><path clip-path="url(#clip280)" d="M1646.29 1849.02 L1646.29 1854.5 Q1643.81 1853.13 1641.29 1852.46 Q1638.81 1851.76 1636.27 1851.76 Q1630.57 1851.76 1627.42 1855.39 Q1624.27 1858.98 1624.27 1865.51 Q1624.27 1872.03 1627.42 1875.66 Q1630.57 1879.26 1636.27 1879.26 Q1638.81 1879.26 1641.29 1878.59 Q1643.81 1877.89 1646.29 1876.52 L1646.29 1881.93 Q1643.84 1883.08 1641.2 1883.65 Q1638.59 1884.22 1635.63 1884.22 Q1627.58 1884.22 1622.83 1879.16 Q1618.09 1874.1 1618.09 1865.51 Q1618.09 1856.79 1622.87 1851.79 Q1627.67 1846.79 1636.01 1846.79 Q1638.72 1846.79 1641.29 1847.37 Q1643.87 1847.91 1646.29 1849.02 Z" fill="#000000" fill-rule="nonzero" fill-opacity="1" /><path clip-path="url(#clip280)" d="M1656.48 1847.65 L1662.33 1847.65 L1662.33 1883.3 L1656.48 1883.3 L1656.48 1847.65 M1656.48 1833.78 L1662.33 1833.78 L1662.33 1841.19 L1656.48 1841.19 L1656.48 1833.78 Z" fill="#000000" fill-rule="nonzero" fill-opacity="1" /><path clip-path="url(#clip280)" d="M1705.08 1864.01 L1705.08 1866.88 L1678.15 1866.88 Q1678.53 1872.92 1681.78 1876.11 Q1685.06 1879.26 1690.88 1879.26 Q1694.26 1879.26 1697.41 1878.43 Q1700.59 1877.6 1703.71 1875.95 L1703.71 1881.49 Q1700.56 1882.82 1697.25 1883.52 Q1693.94 1884.22 1690.53 1884.22 Q1682 1884.22 1677.01 1879.26 Q1672.04 1874.29 1672.04 1865.83 Q1672.04 1857.07 1676.75 1851.95 Q1681.49 1846.79 1689.51 1846.79 Q1696.71 1846.79 1700.88 1851.44 Q1705.08 1856.06 1705.08 1864.01 M1699.22 1862.29 Q1699.16 1857.49 1696.52 1854.62 Q1693.91 1851.76 1689.58 1851.76 Q1684.68 1851.76 1681.72 1854.53 Q1678.79 1857.3 1678.34 1862.33 L1699.22 1862.29 Z" fill="#000000" fill-rule="nonzero" fill-opacity="1" /><path clip-path="url(#clip280)" d="M1744.32 1861.78 L1744.32 1883.3 L1738.47 1883.3 L1738.47 1861.98 Q1738.47 1856.92 1736.49 1854.4 Q1734.52 1851.89 1730.57 1851.89 Q1725.83 1851.89 1723.09 1854.91 Q1720.36 1857.93 1720.36 1863.15 L1720.36 1883.3 L1714.47 1883.3 L1714.47 1847.65 L1720.36 1847.65 L1720.36 1853.19 Q1722.46 1849.98 1725.29 1848.39 Q1728.15 1846.79 1731.88 1846.79 Q1738.02 1846.79 1741.17 1850.61 Q1744.32 1854.4 1744.32 1861.78 Z" fill="#000000" fill-rule="nonzero" fill-opacity="1" /><path clip-path="url(#clip280)" d="M1761.8 1837.53 L1761.8 1847.65 L1773.86 1847.65 L1773.86 1852.2 L1761.8 1852.2 L1761.8 1871.56 Q1761.8 1875.92 1762.97 1877.16 Q1764.18 1878.4 1767.84 1878.4 L1773.86 1878.4 L1773.86 1883.3 L1767.84 1883.3 Q1761.07 1883.3 1758.49 1880.79 Q1755.91 1878.24 1755.91 1871.56 L1755.91 1852.2 L1751.61 1852.2 L1751.61 1847.65 L1755.91 1847.65 L1755.91 1837.53 L1761.8 1837.53 Z" fill="#000000" fill-rule="nonzero" fill-opacity="1" /><polyline clip-path="url(#clip280)" style="stroke:#000000; stroke-linecap:round; stroke-linejoin:round; stroke-width:4; stroke-opacity:1; fill:none" points="255.816,1734.12 255.816,127.792 "/>
<polyline clip-path="url(#clip280)" style="stroke:#000000; stroke-linecap:round; stroke-linejoin:round; stroke-width:4; stroke-opacity:1; fill:none" points="255.816,1734.12 274.714,1734.12 "/>
<polyline clip-path="url(#clip280)" style="stroke:#000000; stroke-linecap:round; stroke-linejoin:round; stroke-width:4; stroke-opacity:1; fill:none" points="255.816,1466.4 274.714,1466.4 "/>
<polyline clip-path="url(#clip280)" style="stroke:#000000; stroke-linecap:round; stroke-linejoin:round; stroke-width:4; stroke-opacity:1; fill:none" points="255.816,1198.68 274.714,1198.68 "/>
<polyline clip-path="url(#clip280)" style="stroke:#000000; stroke-linecap:round; stroke-linejoin:round; stroke-width:4; stroke-opacity:1; fill:none" points="255.816,930.955 274.714,930.955 "/>
<polyline clip-path="url(#clip280)" style="stroke:#000000; stroke-linecap:round; stroke-linejoin:round; stroke-width:4; stroke-opacity:1; fill:none" points="255.816,663.234 274.714,663.234 "/>
<polyline clip-path="url(#clip280)" style="stroke:#000000; stroke-linecap:round; stroke-linejoin:round; stroke-width:4; stroke-opacity:1; fill:none" points="255.816,395.513 274.714,395.513 "/>
<path clip-path="url(#clip280)" d="M128.159 1719.92 Q124.548 1719.92 122.719 1723.48 Q120.913 1727.02 120.913 1734.15 Q120.913 1741.26 122.719 1744.82 Q124.548 1748.36 128.159 1748.36 Q131.793 1748.36 133.599 1744.82 Q135.427 1741.26 135.427 1734.15 Q135.427 1727.02 133.599 1723.48 Q131.793 1719.92 128.159 1719.92 M128.159 1716.21 Q133.969 1716.21 137.025 1720.82 Q140.103 1725.4 140.103 1734.15 Q140.103 1742.88 137.025 1747.48 Q133.969 1752.07 128.159 1752.07 Q122.349 1752.07 119.27 1747.48 Q116.214 1742.88 116.214 1734.15 Q116.214 1725.4 119.27 1720.82 Q122.349 1716.21 128.159 1716.21 Z" fill="#000000" fill-rule="nonzero" fill-opacity="1" /><path clip-path="url(#clip280)" d="M148.321 1745.52 L153.205 1745.52 L153.205 1751.4 L148.321 1751.4 L148.321 1745.52 Z" fill="#000000" fill-rule="nonzero" fill-opacity="1" /><path clip-path="url(#clip280)" d="M173.39 1719.92 Q169.779 1719.92 167.95 1723.48 Q166.145 1727.02 166.145 1734.15 Q166.145 1741.26 167.95 1744.82 Q169.779 1748.36 173.39 1748.36 Q177.024 1748.36 178.83 1744.82 Q180.659 1741.26 180.659 1734.15 Q180.659 1727.02 178.83 1723.48 Q177.024 1719.92 173.39 1719.92 M173.39 1716.21 Q179.2 1716.21 182.256 1720.82 Q185.334 1725.4 185.334 1734.15 Q185.334 1742.88 182.256 1747.48 Q179.2 1752.07 173.39 1752.07 Q167.58 1752.07 164.501 1747.48 Q161.446 1742.88 161.446 1734.15 Q161.446 1725.4 164.501 1720.82 Q167.58 1716.21 173.39 1716.21 Z" fill="#000000" fill-rule="nonzero" fill-opacity="1" /><path clip-path="url(#clip280)" d="M203.552 1719.92 Q199.941 1719.92 198.112 1723.48 Q196.307 1727.02 196.307 1734.15 Q196.307 1741.26 198.112 1744.82 Q199.941 1748.36 203.552 1748.36 Q207.186 1748.36 208.992 1744.82 Q210.82 1741.26 210.82 1734.15 Q210.82 1727.02 208.992 1723.48 Q207.186 1719.92 203.552 1719.92 M203.552 1716.21 Q209.362 1716.21 212.418 1720.82 Q215.496 1725.4 215.496 1734.15 Q215.496 1742.88 212.418 1747.48 Q209.362 1752.07 203.552 1752.07 Q197.742 1752.07 194.663 1747.48 Q191.608 1742.88 191.608 1734.15 Q191.608 1725.4 194.663 1720.82 Q197.742 1716.21 203.552 1716.21 Z" fill="#000000" fill-rule="nonzero" fill-opacity="1" /><path clip-path="url(#clip280)" d="M129.154 1452.19 Q125.543 1452.19 123.714 1455.76 Q121.909 1459.3 121.909 1466.43 Q121.909 1473.54 123.714 1477.1 Q125.543 1480.64 129.154 1480.64 Q132.788 1480.64 134.594 1477.1 Q136.423 1473.54 136.423 1466.43 Q136.423 1459.3 134.594 1455.76 Q132.788 1452.19 129.154 1452.19 M129.154 1448.49 Q134.964 1448.49 138.02 1453.1 Q141.099 1457.68 141.099 1466.43 Q141.099 1475.16 138.02 1479.76 Q134.964 1484.35 129.154 1484.35 Q123.344 1484.35 120.265 1479.76 Q117.21 1475.16 117.21 1466.43 Q117.21 1457.68 120.265 1453.1 Q123.344 1448.49 129.154 1448.49 Z" fill="#000000" fill-rule="nonzero" fill-opacity="1" /><path clip-path="url(#clip280)" d="M149.316 1477.8 L154.2 1477.8 L154.2 1483.68 L149.316 1483.68 L149.316 1477.8 Z" fill="#000000" fill-rule="nonzero" fill-opacity="1" /><path clip-path="url(#clip280)" d="M174.385 1452.19 Q170.774 1452.19 168.946 1455.76 Q167.14 1459.3 167.14 1466.43 Q167.14 1473.54 168.946 1477.1 Q170.774 1480.64 174.385 1480.64 Q178.02 1480.64 179.825 1477.1 Q181.654 1473.54 181.654 1466.43 Q181.654 1459.3 179.825 1455.76 Q178.02 1452.19 174.385 1452.19 M174.385 1448.49 Q180.196 1448.49 183.251 1453.1 Q186.33 1457.68 186.33 1466.43 Q186.33 1475.16 183.251 1479.76 Q180.196 1484.35 174.385 1484.35 Q168.575 1484.35 165.497 1479.76 Q162.441 1475.16 162.441 1466.43 Q162.441 1457.68 165.497 1453.1 Q168.575 1448.49 174.385 1448.49 Z" fill="#000000" fill-rule="nonzero" fill-opacity="1" /><path clip-path="url(#clip280)" d="M194.594 1449.12 L212.95 1449.12 L212.95 1453.05 L198.876 1453.05 L198.876 1461.52 Q199.895 1461.18 200.913 1461.01 Q201.932 1460.83 202.95 1460.83 Q208.737 1460.83 212.117 1464 Q215.496 1467.17 215.496 1472.59 Q215.496 1478.17 212.024 1481.27 Q208.552 1484.35 202.233 1484.35 Q200.057 1484.35 197.788 1483.98 Q195.543 1483.61 193.135 1482.87 L193.135 1478.17 Q195.219 1479.3 197.441 1479.86 Q199.663 1480.41 202.14 1480.41 Q206.145 1480.41 208.482 1478.31 Q210.82 1476.2 210.82 1472.59 Q210.82 1468.98 208.482 1466.87 Q206.145 1464.76 202.14 1464.76 Q200.265 1464.76 198.39 1465.18 Q196.538 1465.6 194.594 1466.48 L194.594 1449.12 Z" fill="#000000" fill-rule="nonzero" fill-opacity="1" /><path clip-path="url(#clip280)" d="M128.159 1184.47 Q124.548 1184.47 122.719 1188.04 Q120.913 1191.58 120.913 1198.71 Q120.913 1205.82 122.719 1209.38 Q124.548 1212.92 128.159 1212.92 Q131.793 1212.92 133.599 1209.38 Q135.427 1205.82 135.427 1198.71 Q135.427 1191.58 133.599 1188.04 Q131.793 1184.47 128.159 1184.47 M128.159 1180.77 Q133.969 1180.77 137.025 1185.38 Q140.103 1189.96 140.103 1198.71 Q140.103 1207.44 137.025 1212.04 Q133.969 1216.63 128.159 1216.63 Q122.349 1216.63 119.27 1212.04 Q116.214 1207.44 116.214 1198.71 Q116.214 1189.96 119.27 1185.38 Q122.349 1180.77 128.159 1180.77 Z" fill="#000000" fill-rule="nonzero" fill-opacity="1" /><path clip-path="url(#clip280)" d="M148.321 1210.08 L153.205 1210.08 L153.205 1215.96 L148.321 1215.96 L148.321 1210.08 Z" fill="#000000" fill-rule="nonzero" fill-opacity="1" /><path clip-path="url(#clip280)" d="M164.2 1212.02 L171.839 1212.02 L171.839 1185.65 L163.529 1187.32 L163.529 1183.06 L171.793 1181.4 L176.469 1181.4 L176.469 1212.02 L184.108 1212.02 L184.108 1215.96 L164.2 1215.96 L164.2 1212.02 Z" fill="#000000" fill-rule="nonzero" fill-opacity="1" /><path clip-path="url(#clip280)" d="M203.552 1184.47 Q199.941 1184.47 198.112 1188.04 Q196.307 1191.58 196.307 1198.71 Q196.307 1205.82 198.112 1209.38 Q199.941 1212.92 203.552 1212.92 Q207.186 1212.92 208.992 1209.38 Q210.82 1205.82 210.82 1198.71 Q210.82 1191.58 208.992 1188.04 Q207.186 1184.47 203.552 1184.47 M203.552 1180.77 Q209.362 1180.77 212.418 1185.38 Q215.496 1189.96 215.496 1198.71 Q215.496 1207.44 212.418 1212.04 Q209.362 1216.63 203.552 1216.63 Q197.742 1216.63 194.663 1212.04 Q191.608 1207.44 191.608 1198.71 Q191.608 1189.96 194.663 1185.38 Q197.742 1180.77 203.552 1180.77 Z" fill="#000000" fill-rule="nonzero" fill-opacity="1" /><path clip-path="url(#clip280)" d="M129.154 916.753 Q125.543 916.753 123.714 920.318 Q121.909 923.86 121.909 930.989 Q121.909 938.096 123.714 941.661 Q125.543 945.202 129.154 945.202 Q132.788 945.202 134.594 941.661 Q136.423 938.096 136.423 930.989 Q136.423 923.86 134.594 920.318 Q132.788 916.753 129.154 916.753 M129.154 913.05 Q134.964 913.05 138.02 917.656 Q141.099 922.239 141.099 930.989 Q141.099 939.716 138.02 944.323 Q134.964 948.906 129.154 948.906 Q123.344 948.906 120.265 944.323 Q117.21 939.716 117.21 930.989 Q117.21 922.239 120.265 917.656 Q123.344 913.05 129.154 913.05 Z" fill="#000000" fill-rule="nonzero" fill-opacity="1" /><path clip-path="url(#clip280)" d="M149.316 942.355 L154.2 942.355 L154.2 948.235 L149.316 948.235 L149.316 942.355 Z" fill="#000000" fill-rule="nonzero" fill-opacity="1" /><path clip-path="url(#clip280)" d="M165.196 944.299 L172.835 944.299 L172.835 917.934 L164.524 919.6 L164.524 915.341 L172.788 913.675 L177.464 913.675 L177.464 944.299 L185.103 944.299 L185.103 948.235 L165.196 948.235 L165.196 944.299 Z" fill="#000000" fill-rule="nonzero" fill-opacity="1" /><path clip-path="url(#clip280)" d="M194.594 913.675 L212.95 913.675 L212.95 917.61 L198.876 917.61 L198.876 926.082 Q199.895 925.735 200.913 925.573 Q201.932 925.387 202.95 925.387 Q208.737 925.387 212.117 928.559 Q215.496 931.73 215.496 937.147 Q215.496 942.725 212.024 945.827 Q208.552 948.906 202.233 948.906 Q200.057 948.906 197.788 948.535 Q195.543 948.165 193.135 947.424 L193.135 942.725 Q195.219 943.86 197.441 944.415 Q199.663 944.971 202.14 944.971 Q206.145 944.971 208.482 942.864 Q210.82 940.758 210.82 937.147 Q210.82 933.536 208.482 931.429 Q206.145 929.323 202.14 929.323 Q200.265 929.323 198.39 929.739 Q196.538 930.156 194.594 931.036 L194.594 913.675 Z" fill="#000000" fill-rule="nonzero" fill-opacity="1" /><path clip-path="url(#clip280)" d="M128.159 649.032 Q124.548 649.032 122.719 652.597 Q120.913 656.139 120.913 663.268 Q120.913 670.375 122.719 673.94 Q124.548 677.481 128.159 677.481 Q131.793 677.481 133.599 673.94 Q135.427 670.375 135.427 663.268 Q135.427 656.139 133.599 652.597 Q131.793 649.032 128.159 649.032 M128.159 645.329 Q133.969 645.329 137.025 649.935 Q140.103 654.519 140.103 663.268 Q140.103 671.995 137.025 676.602 Q133.969 681.185 128.159 681.185 Q122.349 681.185 119.27 676.602 Q116.214 671.995 116.214 663.268 Q116.214 654.519 119.27 649.935 Q122.349 645.329 128.159 645.329 Z" fill="#000000" fill-rule="nonzero" fill-opacity="1" /><path clip-path="url(#clip280)" d="M148.321 674.634 L153.205 674.634 L153.205 680.514 L148.321 680.514 L148.321 674.634 Z" fill="#000000" fill-rule="nonzero" fill-opacity="1" /><path clip-path="url(#clip280)" d="M167.418 676.579 L183.737 676.579 L183.737 680.514 L161.793 680.514 L161.793 676.579 Q164.455 673.824 169.038 669.194 Q173.645 664.542 174.825 663.199 Q177.071 660.676 177.95 658.94 Q178.853 657.181 178.853 655.491 Q178.853 652.736 176.909 651 Q174.987 649.264 171.885 649.264 Q169.686 649.264 167.233 650.028 Q164.802 650.792 162.024 652.343 L162.024 647.62 Q164.848 646.486 167.302 645.907 Q169.756 645.329 171.793 645.329 Q177.163 645.329 180.358 648.014 Q183.552 650.699 183.552 655.19 Q183.552 657.319 182.742 659.241 Q181.955 661.139 179.848 663.731 Q179.27 664.403 176.168 667.62 Q173.066 670.815 167.418 676.579 Z" fill="#000000" fill-rule="nonzero" fill-opacity="1" /><path clip-path="url(#clip280)" d="M203.552 649.032 Q199.941 649.032 198.112 652.597 Q196.307 656.139 196.307 663.268 Q196.307 670.375 198.112 673.94 Q199.941 677.481 203.552 677.481 Q207.186 677.481 208.992 673.94 Q210.82 670.375 210.82 663.268 Q210.82 656.139 208.992 652.597 Q207.186 649.032 203.552 649.032 M203.552 645.329 Q209.362 645.329 212.418 649.935 Q215.496 654.519 215.496 663.268 Q215.496 671.995 212.418 676.602 Q209.362 681.185 203.552 681.185 Q197.742 681.185 194.663 676.602 Q191.608 671.995 191.608 663.268 Q191.608 654.519 194.663 649.935 Q197.742 645.329 203.552 645.329 Z" fill="#000000" fill-rule="nonzero" fill-opacity="1" /><path clip-path="url(#clip280)" d="M129.154 381.312 Q125.543 381.312 123.714 384.876 Q121.909 388.418 121.909 395.548 Q121.909 402.654 123.714 406.219 Q125.543 409.761 129.154 409.761 Q132.788 409.761 134.594 406.219 Q136.423 402.654 136.423 395.548 Q136.423 388.418 134.594 384.876 Q132.788 381.312 129.154 381.312 M129.154 377.608 Q134.964 377.608 138.02 382.214 Q141.099 386.798 141.099 395.548 Q141.099 404.274 138.02 408.881 Q134.964 413.464 129.154 413.464 Q123.344 413.464 120.265 408.881 Q117.21 404.274 117.21 395.548 Q117.21 386.798 120.265 382.214 Q123.344 377.608 129.154 377.608 Z" fill="#000000" fill-rule="nonzero" fill-opacity="1" /><path clip-path="url(#clip280)" d="M149.316 406.913 L154.2 406.913 L154.2 412.793 L149.316 412.793 L149.316 406.913 Z" fill="#000000" fill-rule="nonzero" fill-opacity="1" /><path clip-path="url(#clip280)" d="M168.413 408.858 L184.733 408.858 L184.733 412.793 L162.788 412.793 L162.788 408.858 Q165.45 406.103 170.034 401.474 Q174.64 396.821 175.821 395.478 Q178.066 392.955 178.946 391.219 Q179.848 389.46 179.848 387.77 Q179.848 385.015 177.904 383.279 Q175.983 381.543 172.881 381.543 Q170.682 381.543 168.228 382.307 Q165.798 383.071 163.02 384.622 L163.02 379.9 Q165.844 378.765 168.297 378.187 Q170.751 377.608 172.788 377.608 Q178.159 377.608 181.353 380.293 Q184.547 382.978 184.547 387.469 Q184.547 389.599 183.737 391.52 Q182.95 393.418 180.844 396.011 Q180.265 396.682 177.163 399.899 Q174.061 403.094 168.413 408.858 Z" fill="#000000" fill-rule="nonzero" fill-opacity="1" /><path clip-path="url(#clip280)" d="M194.594 378.233 L212.95 378.233 L212.95 382.168 L198.876 382.168 L198.876 390.64 Q199.895 390.293 200.913 390.131 Q201.932 389.946 202.95 389.946 Q208.737 389.946 212.117 393.117 Q215.496 396.288 215.496 401.705 Q215.496 407.284 212.024 410.386 Q208.552 413.464 202.233 413.464 Q200.057 413.464 197.788 413.094 Q195.543 412.723 193.135 411.983 L193.135 407.284 Q195.219 408.418 197.441 408.974 Q199.663 409.529 202.14 409.529 Q206.145 409.529 208.482 407.423 Q210.82 405.316 210.82 401.705 Q210.82 398.094 208.482 395.987 Q206.145 393.881 202.14 393.881 Q200.265 393.881 198.39 394.298 Q196.538 394.714 194.594 395.594 L194.594 378.233 Z" fill="#000000" fill-rule="nonzero" fill-opacity="1" /><path clip-path="url(#clip280)" d="M14.1184 1277.54 L14.1184 1267.96 L46.4562 1255.83 L14.1184 1243.64 L14.1184 1234.06 L61.6384 1234.06 L61.6384 1240.33 L19.9112 1240.33 L52.5037 1252.58 L52.5037 1259.04 L19.9112 1271.3 L61.6384 1271.3 L61.6384 1277.54 L14.1184 1277.54 Z" fill="#000000" fill-rule="nonzero" fill-opacity="1" /><path clip-path="url(#clip280)" d="M42.3504 1191.06 L45.2149 1191.06 L45.2149 1217.98 Q51.2623 1217.6 54.4452 1214.36 Q57.5962 1211.08 57.5962 1205.25 Q57.5962 1201.88 56.7687 1198.73 Q55.9411 1195.55 54.2861 1192.43 L59.8242 1192.43 Q61.161 1195.58 61.8612 1198.89 Q62.5615 1202.2 62.5615 1205.6 Q62.5615 1214.13 57.5962 1219.13 Q52.631 1224.1 44.1646 1224.1 Q35.4117 1224.1 30.2873 1219.38 Q25.1311 1214.64 25.1311 1206.62 Q25.1311 1199.43 29.7781 1195.26 Q34.3932 1191.06 42.3504 1191.06 M40.6316 1196.91 Q35.8255 1196.98 32.9609 1199.62 Q30.0964 1202.23 30.0964 1206.56 Q30.0964 1211.46 32.8654 1214.42 Q35.6345 1217.35 40.6634 1217.79 L40.6316 1196.91 Z" fill="#000000" fill-rule="nonzero" fill-opacity="1" /><path clip-path="url(#clip280)" d="M43.719 1165.24 Q43.719 1172.34 45.3422 1175.08 Q46.9655 1177.82 50.8804 1177.82 Q53.9996 1177.82 55.8457 1175.78 Q57.6599 1173.71 57.6599 1170.18 Q57.6599 1165.31 54.2224 1162.38 Q50.7531 1159.42 45.0239 1159.42 L43.719 1159.42 L43.719 1165.24 M41.3 1153.56 L61.6384 1153.56 L61.6384 1159.42 L56.2276 1159.42 Q59.4741 1161.42 61.0337 1164.42 Q62.5615 1167.41 62.5615 1171.74 Q62.5615 1177.21 59.5059 1180.46 Q56.4186 1183.67 51.2623 1183.67 Q45.2467 1183.67 42.1912 1179.66 Q39.1357 1175.62 39.1357 1167.63 L39.1357 1159.42 L38.5628 1159.42 Q34.5205 1159.42 32.3244 1162.09 Q30.0964 1164.74 30.0964 1169.54 Q30.0964 1172.6 30.8284 1175.49 Q31.5605 1178.39 33.0246 1181.06 L27.6137 1181.06 Q26.3724 1177.85 25.7677 1174.82 Q25.1311 1171.8 25.1311 1168.94 Q25.1311 1161.2 29.1415 1157.38 Q33.1519 1153.56 41.3 1153.56 Z" fill="#000000" fill-rule="nonzero" fill-opacity="1" /><path clip-path="url(#clip280)" d="M40.1224 1111.87 L61.6384 1111.87 L61.6384 1117.72 L40.3133 1117.72 Q35.2526 1117.72 32.7381 1119.7 Q30.2237 1121.67 30.2237 1125.62 Q30.2237 1130.36 33.2474 1133.1 Q36.2711 1135.83 41.491 1135.83 L61.6384 1135.83 L61.6384 1141.72 L25.9905 1141.72 L25.9905 1135.83 L31.5287 1135.83 Q28.314 1133.73 26.7225 1130.9 Q25.1311 1128.04 25.1311 1124.31 Q25.1311 1118.17 28.9505 1115.02 Q32.7381 1111.87 40.1224 1111.87 Z" fill="#000000" fill-rule="nonzero" fill-opacity="1" /><path clip-path="url(#clip280)" d="M31.4013 1056.01 L12.1132 1056.01 L12.1132 1050.15 L61.6384 1050.15 L61.6384 1056.01 L56.2912 1056.01 Q59.4741 1057.85 61.0337 1060.69 Q62.5615 1063.49 62.5615 1067.44 Q62.5615 1073.9 57.4052 1077.97 Q52.249 1082.01 43.8463 1082.01 Q35.4436 1082.01 30.2873 1077.97 Q25.1311 1073.9 25.1311 1067.44 Q25.1311 1063.49 26.6907 1060.69 Q28.2185 1057.85 31.4013 1056.01 M43.8463 1075.97 Q50.3075 1075.97 53.9996 1073.32 Q57.6599 1070.65 57.6599 1066 Q57.6599 1061.36 53.9996 1058.68 Q50.3075 1056.01 43.8463 1056.01 Q37.3851 1056.01 33.7248 1058.68 Q30.0327 1061.36 30.0327 1066 Q30.0327 1070.65 33.7248 1073.32 Q37.3851 1075.97 43.8463 1075.97 Z" fill="#000000" fill-rule="nonzero" fill-opacity="1" /><path clip-path="url(#clip280)" d="M25.9905 1038.09 L25.9905 1032.23 L61.6384 1032.23 L61.6384 1038.09 L25.9905 1038.09 M12.1132 1038.09 L12.1132 1032.23 L19.5293 1032.23 L19.5293 1038.09 L12.1132 1038.09 Z" fill="#000000" fill-rule="nonzero" fill-opacity="1" /><path clip-path="url(#clip280)" d="M27.0408 997.253 L32.579 997.253 Q31.3059 999.736 30.6693 1002.41 Q30.0327 1005.08 30.0327 1007.95 Q30.0327 1012.31 31.3695 1014.5 Q32.7063 1016.67 35.3799 1016.67 Q37.4169 1016.67 38.5946 1015.11 Q39.7404 1013.55 40.7908 1008.84 L41.2364 1006.83 Q42.5732 1000.6 45.0239 997.985 Q47.4429 995.344 51.8034 995.344 Q56.7687 995.344 59.6651 999.29 Q62.5615 1003.21 62.5615 1010.08 Q62.5615 1012.94 61.9886 1016.06 Q61.4475 1019.15 60.3335 1022.59 L54.2861 1022.59 Q55.973 1019.34 56.8323 1016.19 Q57.6599 1013.04 57.6599 1009.95 Q57.6599 1005.82 56.2594 1003.59 Q54.8271 1001.36 52.249 1001.36 Q49.8619 1001.36 48.5887 1002.98 Q47.3156 1004.57 46.1379 1010.02 L45.6605 1012.05 Q44.5147 1017.5 42.1594 1019.92 Q39.7722 1022.33 35.6345 1022.33 Q30.6056 1022.33 27.8684 1018.77 Q25.1311 1015.2 25.1311 1008.65 Q25.1311 1005.4 25.6085 1002.54 Q26.086 999.672 27.0408 997.253 Z" fill="#000000" fill-rule="nonzero" fill-opacity="1" /><path clip-path="url(#clip280)" d="M27.3591 960.364 L32.8336 960.364 Q31.465 962.847 30.7966 965.361 Q30.0964 967.844 30.0964 970.39 Q30.0964 976.087 33.7248 979.238 Q37.3214 982.389 43.8463 982.389 Q50.3711 982.389 53.9996 979.238 Q57.5962 976.087 57.5962 970.39 Q57.5962 967.844 56.9278 965.361 Q56.2276 962.847 54.859 960.364 L60.2698 960.364 Q61.4156 962.815 61.9886 965.457 Q62.5615 968.067 62.5615 971.027 Q62.5615 979.079 57.5007 983.822 Q52.44 988.564 43.8463 988.564 Q35.1253 988.564 30.1282 983.79 Q25.1311 978.984 25.1311 970.645 Q25.1311 967.939 25.704 965.361 Q26.2451 962.783 27.3591 960.364 Z" fill="#000000" fill-rule="nonzero" fill-opacity="1" /><path clip-path="url(#clip280)" d="M30.0964 936.365 Q30.0964 941.076 33.7885 943.813 Q37.4488 946.551 43.8463 946.551 Q50.2438 946.551 53.9359 943.845 Q57.5962 941.108 57.5962 936.365 Q57.5962 931.687 53.9041 928.949 Q50.212 926.212 43.8463 926.212 Q37.5124 926.212 33.8203 928.949 Q30.0964 931.687 30.0964 936.365 M25.1311 936.365 Q25.1311 928.727 30.0964 924.366 Q35.0616 920.006 43.8463 920.006 Q52.5991 920.006 57.5962 924.366 Q62.5615 928.727 62.5615 936.365 Q62.5615 944.036 57.5962 948.397 Q52.5991 952.725 43.8463 952.725 Q35.0616 952.725 30.0964 948.397 Q25.1311 944.036 25.1311 936.365 Z" fill="#000000" fill-rule="nonzero" fill-opacity="1" /><path clip-path="url(#clip280)" d="M47.5702 910.903 L25.9905 910.903 L25.9905 905.046 L47.3474 905.046 Q52.4082 905.046 54.9545 903.073 Q57.4689 901.099 57.4689 897.153 Q57.4689 892.41 54.4452 889.673 Q51.4215 886.904 46.2016 886.904 L25.9905 886.904 L25.9905 881.047 L61.6384 881.047 L61.6384 886.904 L56.1639 886.904 Q59.4104 889.036 61.0019 891.869 Q62.5615 894.67 62.5615 898.394 Q62.5615 904.537 58.742 907.72 Q54.9226 910.903 47.5702 910.903 M25.1311 896.166 L25.1311 896.166 Z" fill="#000000" fill-rule="nonzero" fill-opacity="1" /><path clip-path="url(#clip280)" d="M40.1224 839.352 L61.6384 839.352 L61.6384 845.208 L40.3133 845.208 Q35.2526 845.208 32.7381 847.182 Q30.2237 849.155 30.2237 853.102 Q30.2237 857.844 33.2474 860.582 Q36.2711 863.319 41.491 863.319 L61.6384 863.319 L61.6384 869.207 L25.9905 869.207 L25.9905 863.319 L31.5287 863.319 Q28.314 861.218 26.7225 858.386 Q25.1311 855.521 25.1311 851.797 Q25.1311 845.654 28.9505 842.503 Q32.7381 839.352 40.1224 839.352 Z" fill="#000000" fill-rule="nonzero" fill-opacity="1" /><path clip-path="url(#clip280)" d="M15.869 821.878 L25.9905 821.878 L25.9905 809.815 L30.542 809.815 L30.542 821.878 L49.8937 821.878 Q54.2542 821.878 55.4955 820.701 Q56.7368 819.491 56.7368 815.831 L56.7368 809.815 L61.6384 809.815 L61.6384 815.831 Q61.6384 822.61 59.124 825.188 Q56.5777 827.766 49.8937 827.766 L30.542 827.766 L30.542 832.063 L25.9905 832.063 L25.9905 827.766 L15.869 827.766 L15.869 821.878 Z" fill="#000000" fill-rule="nonzero" fill-opacity="1" /><path clip-path="url(#clip280)" d="M30.0964 767.579 Q30.0964 772.289 33.7885 775.027 Q37.4488 777.764 43.8463 777.764 Q50.2438 777.764 53.9359 775.058 Q57.5962 772.321 57.5962 767.579 Q57.5962 762.9 53.9041 760.163 Q50.212 757.425 43.8463 757.425 Q37.5124 757.425 33.8203 760.163 Q30.0964 762.9 30.0964 767.579 M25.1311 767.579 Q25.1311 759.94 30.0964 755.579 Q35.0616 751.219 43.8463 751.219 Q52.5991 751.219 57.5962 755.579 Q62.5615 759.94 62.5615 767.579 Q62.5615 775.249 57.5962 779.61 Q52.5991 783.939 43.8463 783.939 Q35.0616 783.939 30.0964 779.61 Q25.1311 775.249 25.1311 767.579 Z" fill="#000000" fill-rule="nonzero" fill-opacity="1" /><path clip-path="url(#clip280)" d="M25.9905 745.712 L25.9905 739.506 L55.9093 728.366 L25.9905 717.226 L25.9905 711.019 L61.6384 724.387 L61.6384 732.345 L25.9905 745.712 Z" fill="#000000" fill-rule="nonzero" fill-opacity="1" /><path clip-path="url(#clip280)" d="M42.3504 672.443 L45.2149 672.443 L45.2149 699.37 Q51.2623 698.988 54.4452 695.742 Q57.5962 692.463 57.5962 686.639 Q57.5962 683.265 56.7687 680.114 Q55.9411 676.931 54.2861 673.812 L59.8242 673.812 Q61.161 676.963 61.8612 680.273 Q62.5615 683.583 62.5615 686.989 Q62.5615 695.519 57.5962 700.516 Q52.631 705.481 44.1646 705.481 Q35.4117 705.481 30.2873 700.771 Q25.1311 696.028 25.1311 688.007 Q25.1311 680.814 29.7781 676.645 Q34.3932 672.443 42.3504 672.443 M40.6316 678.3 Q35.8255 678.363 32.9609 681.005 Q30.0964 683.615 30.0964 687.944 Q30.0964 692.845 32.8654 695.805 Q35.6345 698.734 40.6634 699.179 L40.6316 678.3 Z" fill="#000000" fill-rule="nonzero" fill-opacity="1" /><path clip-path="url(#clip280)" d="M31.465 642.174 Q30.8921 643.161 30.6375 644.339 Q30.351 645.484 30.351 646.885 Q30.351 651.85 33.5975 654.524 Q36.8122 657.166 42.8596 657.166 L61.6384 657.166 L61.6384 663.054 L25.9905 663.054 L25.9905 657.166 L31.5287 657.166 Q28.2821 655.319 26.7225 652.359 Q25.1311 649.399 25.1311 645.166 Q25.1311 644.561 25.2266 643.829 Q25.2903 643.097 25.4494 642.206 L31.465 642.174 Z" fill="#000000" fill-rule="nonzero" fill-opacity="1" /><path clip-path="url(#clip280)" d="M19.402 608.627 L37.2578 608.627 L37.2578 600.543 Q37.2578 596.055 34.9343 593.604 Q32.6108 591.153 28.314 591.153 Q24.0489 591.153 21.7255 593.604 Q19.402 596.055 19.402 600.543 L19.402 608.627 M14.1184 615.056 L14.1184 600.543 Q14.1184 592.554 17.7469 588.48 Q21.3435 584.374 28.314 584.374 Q35.3481 584.374 38.9447 588.48 Q42.5413 592.554 42.5413 600.543 L42.5413 608.627 L61.6384 608.627 L61.6384 615.056 L14.1184 615.056 Z" fill="#000000" fill-rule="nonzero" fill-opacity="1" /><path clip-path="url(#clip280)" d="M677.723 12.096 L689.916 12.096 L705.35 53.2532 L720.865 12.096 L733.058 12.096 L733.058 72.576 L725.078 72.576 L725.078 19.4686 L709.482 60.9499 L701.259 60.9499 L685.663 19.4686 L685.663 72.576 L677.723 72.576 L677.723 12.096 Z" fill="#000000" fill-rule="nonzero" fill-opacity="1" /><path clip-path="url(#clip280)" d="M787.786 48.0275 L787.786 51.6733 L753.516 51.6733 Q754.002 59.3701 758.134 63.421 Q762.306 67.4314 769.719 67.4314 Q774.013 67.4314 778.023 66.3781 Q782.074 65.3249 786.044 63.2184 L786.044 70.267 Q782.034 71.9684 777.821 72.8596 Q773.608 73.7508 769.274 73.7508 Q758.417 73.7508 752.057 67.4314 Q745.738 61.1119 745.738 50.3365 Q745.738 39.1965 751.733 32.6746 Q757.769 26.1121 767.977 26.1121 Q777.132 26.1121 782.439 32.0264 Q787.786 37.9003 787.786 48.0275 M780.333 45.84 Q780.251 39.7232 776.889 36.0774 Q773.568 32.4315 768.058 32.4315 Q761.82 32.4315 758.053 35.9558 Q754.326 39.4801 753.759 45.8805 L780.333 45.84 Z" fill="#000000" fill-rule="nonzero" fill-opacity="1" /><path clip-path="url(#clip280)" d="M820.639 49.7694 Q811.605 49.7694 808.122 51.8354 Q804.638 53.9013 804.638 58.8839 Q804.638 62.8538 807.231 65.2034 Q809.864 67.5124 814.36 67.5124 Q820.558 67.5124 824.285 63.1374 Q828.052 58.7219 828.052 51.4303 L828.052 49.7694 L820.639 49.7694 M835.506 46.6907 L835.506 72.576 L828.052 72.576 L828.052 65.6895 Q825.5 69.8214 821.692 71.8063 Q817.884 73.7508 812.375 73.7508 Q805.408 73.7508 801.276 69.8619 Q797.184 65.9325 797.184 59.3701 Q797.184 51.7138 802.288 47.825 Q807.433 43.9361 817.601 43.9361 L828.052 43.9361 L828.052 43.2069 Q828.052 38.0623 824.649 35.2672 Q821.287 32.4315 815.17 32.4315 Q811.281 32.4315 807.595 33.3632 Q803.909 34.295 800.506 36.1584 L800.506 29.2718 Q804.597 27.692 808.446 26.9223 Q812.294 26.1121 815.94 26.1121 Q825.784 26.1121 830.645 31.2163 Q835.506 36.3204 835.506 46.6907 Z" fill="#000000" fill-rule="nonzero" fill-opacity="1" /><path clip-path="url(#clip280)" d="M888.573 45.1919 L888.573 72.576 L881.119 72.576 L881.119 45.4349 Q881.119 38.994 878.607 35.7938 Q876.096 32.5936 871.073 32.5936 Q865.037 32.5936 861.553 36.4419 Q858.069 40.2903 858.069 46.9338 L858.069 72.576 L850.575 72.576 L850.575 27.2059 L858.069 27.2059 L858.069 34.2544 Q860.743 30.163 864.348 28.1376 Q867.994 26.1121 872.734 26.1121 Q880.552 26.1121 884.562 30.9732 Q888.573 35.7938 888.573 45.1919 Z" fill="#000000" fill-rule="nonzero" fill-opacity="1" /><path clip-path="url(#clip280)" d="M937.021 65.7705 L937.021 89.8329 L929.527 89.8329 L929.527 27.2059 L937.021 27.2059 L937.021 34.0924 Q939.371 30.0415 942.936 28.0971 Q946.541 26.1121 951.524 26.1121 Q959.788 26.1121 964.932 32.6746 Q970.117 39.2371 970.117 49.9314 Q970.117 60.6258 964.932 67.1883 Q959.788 73.7508 951.524 73.7508 Q946.541 73.7508 942.936 71.8063 Q939.371 69.8214 937.021 65.7705 M962.38 49.9314 Q962.38 41.7081 958.977 37.0496 Q955.615 32.3505 949.701 32.3505 Q943.787 32.3505 940.384 37.0496 Q937.021 41.7081 937.021 49.9314 Q937.021 58.1548 940.384 62.8538 Q943.787 67.5124 949.701 67.5124 Q955.615 67.5124 958.977 62.8538 Q962.38 58.1548 962.38 49.9314 Z" fill="#000000" fill-rule="nonzero" fill-opacity="1" /><path clip-path="url(#clip280)" d="M1008.76 34.1734 Q1007.51 33.4443 1006.01 33.1202 Q1004.55 32.7556 1002.77 32.7556 Q996.448 32.7556 993.045 36.8875 Q989.683 40.9789 989.683 48.6757 L989.683 72.576 L982.189 72.576 L982.189 27.2059 L989.683 27.2059 L989.683 34.2544 Q992.033 30.1225 995.8 28.1376 Q999.567 26.1121 1004.96 26.1121 Q1005.72 26.1121 1006.66 26.2337 Q1007.59 26.3147 1008.72 26.5172 L1008.76 34.1734 Z" fill="#000000" fill-rule="nonzero" fill-opacity="1" /><path clip-path="url(#clip280)" d="M1016.58 27.2059 L1024.03 27.2059 L1024.03 72.576 L1016.58 72.576 L1016.58 27.2059 M1016.58 9.54393 L1024.03 9.54393 L1024.03 18.9825 L1016.58 18.9825 L1016.58 9.54393 Z" fill="#000000" fill-rule="nonzero" fill-opacity="1" /><path clip-path="url(#clip280)" d="M1072.28 28.9478 L1072.28 35.9153 Q1069.12 34.1734 1065.92 33.3227 Q1062.76 32.4315 1059.52 32.4315 Q1052.27 32.4315 1048.26 37.0496 Q1044.25 41.6271 1044.25 49.9314 Q1044.25 58.2358 1048.26 62.8538 Q1052.27 67.4314 1059.52 67.4314 Q1062.76 67.4314 1065.92 66.5807 Q1069.12 65.6895 1072.28 63.9476 L1072.28 70.8341 Q1069.16 72.2924 1065.8 73.0216 Q1062.48 73.7508 1058.71 73.7508 Q1048.46 73.7508 1042.43 67.3098 Q1036.39 60.8689 1036.39 49.9314 Q1036.39 38.832 1042.47 32.472 Q1048.58 26.1121 1059.2 26.1121 Q1062.64 26.1121 1065.92 26.8413 Q1069.2 27.5299 1072.28 28.9478 Z" fill="#000000" fill-rule="nonzero" fill-opacity="1" /><path clip-path="url(#clip280)" d="M1124.05 48.0275 L1124.05 51.6733 L1089.78 51.6733 Q1090.27 59.3701 1094.4 63.421 Q1098.57 67.4314 1105.98 67.4314 Q1110.28 67.4314 1114.29 66.3781 Q1118.34 65.3249 1122.31 63.2184 L1122.31 70.267 Q1118.3 71.9684 1114.09 72.8596 Q1109.87 73.7508 1105.54 73.7508 Q1094.68 73.7508 1088.32 67.4314 Q1082 61.1119 1082 50.3365 Q1082 39.1965 1088 32.6746 Q1094.03 26.1121 1104.24 26.1121 Q1113.4 26.1121 1118.7 32.0264 Q1124.05 37.9003 1124.05 48.0275 M1116.6 45.84 Q1116.52 39.7232 1113.15 36.0774 Q1109.83 32.4315 1104.32 32.4315 Q1098.09 32.4315 1094.32 35.9558 Q1090.59 39.4801 1090.02 45.8805 L1116.6 45.84 Z" fill="#000000" fill-rule="nonzero" fill-opacity="1" /><path clip-path="url(#clip280)" d="M1192.51 34.0924 L1192.51 9.54393 L1199.97 9.54393 L1199.97 72.576 L1192.51 72.576 L1192.51 65.7705 Q1190.16 69.8214 1186.56 71.8063 Q1182.99 73.7508 1177.97 73.7508 Q1169.75 73.7508 1164.56 67.1883 Q1159.42 60.6258 1159.42 49.9314 Q1159.42 39.2371 1164.56 32.6746 Q1169.75 26.1121 1177.97 26.1121 Q1182.99 26.1121 1186.56 28.0971 Q1190.16 30.0415 1192.51 34.0924 M1167.11 49.9314 Q1167.11 58.1548 1170.48 62.8538 Q1173.88 67.5124 1179.79 67.5124 Q1185.71 67.5124 1189.11 62.8538 Q1192.51 58.1548 1192.51 49.9314 Q1192.51 41.7081 1189.11 37.0496 Q1185.71 32.3505 1179.79 32.3505 Q1173.88 32.3505 1170.48 37.0496 Q1167.11 41.7081 1167.11 49.9314 Z" fill="#000000" fill-rule="nonzero" fill-opacity="1" /><path clip-path="url(#clip280)" d="M1215.32 27.2059 L1222.77 27.2059 L1222.77 72.576 L1215.32 72.576 L1215.32 27.2059 M1215.32 9.54393 L1222.77 9.54393 L1222.77 18.9825 L1215.32 18.9825 L1215.32 9.54393 Z" fill="#000000" fill-rule="nonzero" fill-opacity="1" /><path clip-path="url(#clip280)" d="M1267.29 28.5427 L1267.29 35.5912 Q1264.13 33.9709 1260.73 33.1607 Q1257.33 32.3505 1253.68 32.3505 Q1248.13 32.3505 1245.34 34.0519 Q1242.58 35.7533 1242.58 39.156 Q1242.58 41.7486 1244.57 43.2475 Q1246.55 44.7058 1252.55 46.0426 L1255.1 46.6097 Q1263.04 48.3111 1266.36 51.4303 Q1269.72 54.509 1269.72 60.0587 Q1269.72 66.3781 1264.7 70.0644 Q1259.72 73.7508 1250.97 73.7508 Q1247.32 73.7508 1243.35 73.0216 Q1239.42 72.3329 1235.05 70.9151 L1235.05 63.2184 Q1239.18 65.3654 1243.19 66.4591 Q1247.2 67.5124 1251.13 67.5124 Q1256.39 67.5124 1259.23 65.73 Q1262.07 63.9071 1262.07 60.6258 Q1262.07 57.5877 1260 55.9673 Q1257.97 54.3469 1251.05 52.8481 L1248.46 52.2405 Q1241.53 50.7821 1238.45 47.7845 Q1235.37 44.7463 1235.37 39.4801 Q1235.37 33.0797 1239.91 29.5959 Q1244.44 26.1121 1252.79 26.1121 Q1256.92 26.1121 1260.57 26.7198 Q1264.21 27.3274 1267.29 28.5427 Z" fill="#000000" fill-rule="nonzero" fill-opacity="1" /><path clip-path="url(#clip280)" d="M1314.24 28.9478 L1314.24 35.9153 Q1311.08 34.1734 1307.88 33.3227 Q1304.72 32.4315 1301.48 32.4315 Q1294.23 32.4315 1290.22 37.0496 Q1286.21 41.6271 1286.21 49.9314 Q1286.21 58.2358 1290.22 62.8538 Q1294.23 67.4314 1301.48 67.4314 Q1304.72 67.4314 1307.88 66.5807 Q1311.08 65.6895 1314.24 63.9476 L1314.24 70.8341 Q1311.12 72.2924 1307.76 73.0216 Q1304.44 73.7508 1300.67 73.7508 Q1290.42 73.7508 1284.39 67.3098 Q1278.35 60.8689 1278.35 49.9314 Q1278.35 38.832 1284.43 32.472 Q1290.54 26.1121 1301.16 26.1121 Q1304.6 26.1121 1307.88 26.8413 Q1311.16 27.5299 1314.24 28.9478 Z" fill="#000000" fill-rule="nonzero" fill-opacity="1" /><path clip-path="url(#clip280)" d="M1344.79 32.4315 Q1338.79 32.4315 1335.31 37.1306 Q1331.82 41.7891 1331.82 49.9314 Q1331.82 58.0738 1335.27 62.7728 Q1338.75 67.4314 1344.79 67.4314 Q1350.74 67.4314 1354.22 62.7323 Q1357.71 58.0333 1357.71 49.9314 Q1357.71 41.8701 1354.22 37.1711 Q1350.74 32.4315 1344.79 32.4315 M1344.79 26.1121 Q1354.51 26.1121 1360.06 32.4315 Q1365.61 38.7509 1365.61 49.9314 Q1365.61 61.0714 1360.06 67.4314 Q1354.51 73.7508 1344.79 73.7508 Q1335.02 73.7508 1329.47 67.4314 Q1323.96 61.0714 1323.96 49.9314 Q1323.96 38.7509 1329.47 32.4315 Q1335.02 26.1121 1344.79 26.1121 Z" fill="#000000" fill-rule="nonzero" fill-opacity="1" /><path clip-path="url(#clip280)" d="M1377.19 54.671 L1377.19 27.2059 L1384.65 27.2059 L1384.65 54.3874 Q1384.65 60.8284 1387.16 64.0691 Q1389.67 67.2693 1394.69 67.2693 Q1400.73 67.2693 1404.21 63.421 Q1407.74 59.5726 1407.74 52.9291 L1407.74 27.2059 L1415.19 27.2059 L1415.19 72.576 L1407.74 72.576 L1407.74 65.6084 Q1405.02 69.7404 1401.42 71.7658 Q1397.85 73.7508 1393.11 73.7508 Q1385.29 73.7508 1381.24 68.8897 Q1377.19 64.0286 1377.19 54.671 M1395.95 26.1121 L1395.95 26.1121 Z" fill="#000000" fill-rule="nonzero" fill-opacity="1" /><path clip-path="url(#clip280)" d="M1468.26 45.1919 L1468.26 72.576 L1460.8 72.576 L1460.8 45.4349 Q1460.8 38.994 1458.29 35.7938 Q1455.78 32.5936 1450.76 32.5936 Q1444.72 32.5936 1441.24 36.4419 Q1437.75 40.2903 1437.75 46.9338 L1437.75 72.576 L1430.26 72.576 L1430.26 27.2059 L1437.75 27.2059 L1437.75 34.2544 Q1440.43 30.163 1444.03 28.1376 Q1447.68 26.1121 1452.42 26.1121 Q1460.24 26.1121 1464.25 30.9732 Q1468.26 35.7938 1468.26 45.1919 Z" fill="#000000" fill-rule="nonzero" fill-opacity="1" /><path clip-path="url(#clip280)" d="M1490.5 14.324 L1490.5 27.2059 L1505.85 27.2059 L1505.85 32.9987 L1490.5 32.9987 L1490.5 57.6282 Q1490.5 63.1779 1492 64.7578 Q1493.53 66.3376 1498.19 66.3376 L1505.85 66.3376 L1505.85 72.576 L1498.19 72.576 Q1489.56 72.576 1486.28 69.3758 Q1483 66.1351 1483 57.6282 L1483 32.9987 L1477.53 32.9987 L1477.53 27.2059 L1483 27.2059 L1483 14.324 L1490.5 14.324 Z" fill="#000000" fill-rule="nonzero" fill-opacity="1" /><path clip-path="url(#clip280)" d="M1528.9 12.096 L1535.79 12.096 L1514.72 80.2727 L1507.83 80.2727 L1528.9 12.096 Z" fill="#000000" fill-rule="nonzero" fill-opacity="1" /><path clip-path="url(#clip280)" d="M1552.11 18.8205 L1552.11 41.5461 L1562.4 41.5461 Q1568.11 41.5461 1571.23 38.5889 Q1574.35 35.6318 1574.35 30.163 Q1574.35 24.7348 1571.23 21.7777 Q1568.11 18.8205 1562.4 18.8205 L1552.11 18.8205 M1543.93 12.096 L1562.4 12.096 Q1572.57 12.096 1577.75 16.714 Q1582.98 21.2916 1582.98 30.163 Q1582.98 39.1155 1577.75 43.6931 Q1572.57 48.2706 1562.4 48.2706 L1552.11 48.2706 L1552.11 72.576 L1543.93 72.576 L1543.93 12.096 Z" fill="#000000" fill-rule="nonzero" fill-opacity="1" /><path clip-path="url(#clip280)" d="M1642.04 27.2059 L1649.49 27.2059 L1658.81 62.6108 L1668.09 27.2059 L1676.88 27.2059 L1686.2 62.6108 L1695.47 27.2059 L1702.93 27.2059 L1691.06 72.576 L1682.27 72.576 L1672.5 35.3887 L1662.7 72.576 L1653.91 72.576 L1642.04 27.2059 Z" fill="#000000" fill-rule="nonzero" fill-opacity="1" /><path clip-path="url(#clip280)" d="M1714.23 27.2059 L1721.68 27.2059 L1721.68 72.576 L1714.23 72.576 L1714.23 27.2059 M1714.23 9.54393 L1721.68 9.54393 L1721.68 18.9825 L1714.23 18.9825 L1714.23 9.54393 Z" fill="#000000" fill-rule="nonzero" fill-opacity="1" /><path clip-path="url(#clip280)" d="M1744.65 14.324 L1744.65 27.2059 L1760 27.2059 L1760 32.9987 L1744.65 32.9987 L1744.65 57.6282 Q1744.65 63.1779 1746.15 64.7578 Q1747.69 66.3376 1752.35 66.3376 L1760 66.3376 L1760 72.576 L1752.35 72.576 Q1743.72 72.576 1740.44 69.3758 Q1737.16 66.1351 1737.16 57.6282 L1737.16 32.9987 L1731.69 32.9987 L1731.69 27.2059 L1737.16 27.2059 L1737.16 14.324 L1744.65 14.324 Z" fill="#000000" fill-rule="nonzero" fill-opacity="1" /><path clip-path="url(#clip280)" d="M1807.52 45.1919 L1807.52 72.576 L1800.07 72.576 L1800.07 45.4349 Q1800.07 38.994 1797.56 35.7938 Q1795.04 32.5936 1790.02 32.5936 Q1783.98 32.5936 1780.5 36.4419 Q1777.02 40.2903 1777.02 46.9338 L1777.02 72.576 L1769.52 72.576 L1769.52 9.54393 L1777.02 9.54393 L1777.02 34.2544 Q1779.69 30.163 1783.3 28.1376 Q1786.94 26.1121 1791.68 26.1121 Q1799.5 26.1121 1803.51 30.9732 Q1807.52 35.7938 1807.52 45.1919 Z" fill="#000000" fill-rule="nonzero" fill-opacity="1" /><path clip-path="url(#clip280)" d="M1857.27 18.8205 L1857.27 41.5461 L1867.55 41.5461 Q1873.27 41.5461 1876.39 38.5889 Q1879.5 35.6318 1879.5 30.163 Q1879.5 24.7348 1876.39 21.7777 Q1873.27 18.8205 1867.55 18.8205 L1857.27 18.8205 M1849.08 12.096 L1867.55 12.096 Q1877.72 12.096 1882.91 16.714 Q1888.13 21.2916 1888.13 30.163 Q1888.13 39.1155 1882.91 43.6931 Q1877.72 48.2706 1867.55 48.2706 L1857.27 48.2706 L1857.27 72.576 L1849.08 72.576 L1849.08 12.096 Z" fill="#000000" fill-rule="nonzero" fill-opacity="1" /><path clip-path="url(#clip280)" d="M1926.13 34.9026 L1978.06 34.9026 L1978.06 41.7081 L1926.13 41.7081 L1926.13 34.9026 M1926.13 51.4303 L1978.06 51.4303 L1978.06 58.3168 L1926.13 58.3168 L1926.13 51.4303 Z" fill="#000000" fill-rule="nonzero" fill-opacity="1" /><path clip-path="url(#clip280)" d="M2023.51 65.6895 L2036.88 65.6895 L2036.88 19.5497 L2022.34 22.4663 L2022.34 15.0127 L2036.8 12.096 L2044.98 12.096 L2044.98 65.6895 L2058.35 65.6895 L2058.35 72.576 L2023.51 72.576 L2023.51 65.6895 Z" fill="#000000" fill-rule="nonzero" fill-opacity="1" /><path clip-path="url(#clip280)" d="M2092.38 17.4837 Q2086.06 17.4837 2082.86 23.7221 Q2079.7 29.92 2079.7 42.3968 Q2079.7 54.833 2082.86 61.0714 Q2086.06 67.2693 2092.38 67.2693 Q2098.74 67.2693 2101.9 61.0714 Q2105.1 54.833 2105.1 42.3968 Q2105.1 29.92 2101.9 23.7221 Q2098.74 17.4837 2092.38 17.4837 M2092.38 11.0023 Q2102.55 11.0023 2107.89 19.0636 Q2113.28 27.0843 2113.28 42.3968 Q2113.28 57.6687 2107.89 65.73 Q2102.55 73.7508 2092.38 73.7508 Q2082.21 73.7508 2076.82 65.73 Q2071.48 57.6687 2071.48 42.3968 Q2071.48 27.0843 2076.82 19.0636 Q2082.21 11.0023 2092.38 11.0023 Z" fill="#000000" fill-rule="nonzero" fill-opacity="1" /><path clip-path="url(#clip280)" d="M2145.16 17.4837 Q2138.84 17.4837 2135.64 23.7221 Q2132.48 29.92 2132.48 42.3968 Q2132.48 54.833 2135.64 61.0714 Q2138.84 67.2693 2145.16 67.2693 Q2151.52 67.2693 2154.68 61.0714 Q2157.88 54.833 2157.88 42.3968 Q2157.88 29.92 2154.68 23.7221 Q2151.52 17.4837 2145.16 17.4837 M2145.16 11.0023 Q2155.33 11.0023 2160.68 19.0636 Q2166.07 27.0843 2166.07 42.3968 Q2166.07 57.6687 2160.68 65.73 Q2155.33 73.7508 2145.16 73.7508 Q2135 73.7508 2129.61 65.73 Q2124.26 57.6687 2124.26 42.3968 Q2124.26 27.0843 2129.61 19.0636 Q2135 11.0023 2145.16 11.0023 Z" fill="#000000" fill-rule="nonzero" fill-opacity="1" /><path clip-path="url(#clip280)" d="M2197.95 17.4837 Q2191.63 17.4837 2188.43 23.7221 Q2185.27 29.92 2185.27 42.3968 Q2185.27 54.833 2188.43 61.0714 Q2191.63 67.2693 2197.95 67.2693 Q2204.31 67.2693 2207.47 61.0714 Q2210.67 54.833 2210.67 42.3968 Q2210.67 29.92 2207.47 23.7221 Q2204.31 17.4837 2197.95 17.4837 M2197.95 11.0023 Q2208.11 11.0023 2213.46 19.0636 Q2218.85 27.0843 2218.85 42.3968 Q2218.85 57.6687 2213.46 65.73 Q2208.11 73.7508 2197.95 73.7508 Q2187.78 73.7508 2182.39 65.73 Q2177.04 57.6687 2177.04 42.3968 Q2177.04 27.0843 2182.39 19.0636 Q2187.78 11.0023 2197.95 11.0023 Z" fill="#000000" fill-rule="nonzero" fill-opacity="1" /><polyline clip-path="url(#clip282)" style="stroke:#009af9; stroke-linecap:round; stroke-linejoin:round; stroke-width:4; stroke-opacity:1; fill:none" points="323.315,1354.46 417.062,1203.68 510.81,1096.66 604.557,1005.74 698.305,939.453 792.053,879.945 885.8,825.358 979.548,776.095 1073.3,726.121 1167.04,687.73 1260.79,650.888 1354.54,616.442 1448.29,583.784 1542.03,550.279 1635.78,516.804 1729.53,498.224 1823.28,469.574 1917.02,445.274 2010.77,427.42 2104.52,403.75 2198.27,386.877 2292.01,368.787 2385.76,351.954 2479.51,325.085 2573.26,311.973 "/>
<path clip-path="url(#clip280)" d="M335.314 285.016 L958.042 285.016 L958.042 181.336 L335.314 181.336  Z" fill="#ffffff" fill-rule="evenodd" fill-opacity="1"/>
<polyline clip-path="url(#clip280)" style="stroke:#000000; stroke-linecap:round; stroke-linejoin:round; stroke-width:4; stroke-opacity:1; fill:none" points="335.314,285.016 958.042,285.016 958.042,181.336 335.314,181.336 335.314,285.016 "/>
<polyline clip-path="url(#clip280)" style="stroke:#009af9; stroke-linecap:round; stroke-linejoin:round; stroke-width:4; stroke-opacity:1; fill:none" points="361.814,233.176 520.81,233.176 "/>
<path clip-path="url(#clip280)" d="M547.309 215.896 L554.276 215.896 L563.096 239.415 L571.962 215.896 L578.929 215.896 L578.929 250.456 L574.369 250.456 L574.369 220.109 L565.457 243.813 L560.758 243.813 L551.846 220.109 L551.846 250.456 L547.309 250.456 L547.309 215.896 Z" fill="#000000" fill-rule="nonzero" fill-opacity="1" /><path clip-path="url(#clip280)" d="M610.202 236.429 L610.202 238.512 L590.619 238.512 Q590.897 242.91 593.258 245.225 Q595.642 247.516 599.878 247.516 Q602.332 247.516 604.623 246.915 Q606.938 246.313 609.207 245.109 L609.207 249.137 Q606.915 250.109 604.508 250.618 Q602.1 251.128 599.623 251.128 Q593.42 251.128 589.786 247.516 Q586.174 243.905 586.174 237.748 Q586.174 231.382 589.6 227.655 Q593.049 223.906 598.883 223.906 Q604.114 223.906 607.147 227.285 Q610.202 230.642 610.202 236.429 M605.943 235.179 Q605.897 231.683 603.975 229.6 Q602.077 227.517 598.929 227.517 Q595.364 227.517 593.211 229.53 Q591.082 231.544 590.758 235.202 L605.943 235.179 Z" fill="#000000" fill-rule="nonzero" fill-opacity="1" /><path clip-path="url(#clip280)" d="M628.975 237.424 Q623.813 237.424 621.822 238.604 Q619.832 239.785 619.832 242.632 Q619.832 244.901 621.313 246.243 Q622.818 247.563 625.387 247.563 Q628.929 247.563 631.058 245.063 Q633.211 242.54 633.211 238.373 L633.211 237.424 L628.975 237.424 M637.47 235.665 L637.47 250.456 L633.211 250.456 L633.211 246.521 Q631.753 248.882 629.577 250.016 Q627.401 251.128 624.253 251.128 Q620.272 251.128 617.91 248.905 Q615.572 246.66 615.572 242.91 Q615.572 238.535 618.489 236.313 Q621.429 234.091 627.239 234.091 L633.211 234.091 L633.211 233.674 Q633.211 230.734 631.267 229.137 Q629.346 227.517 625.85 227.517 Q623.628 227.517 621.522 228.049 Q619.415 228.581 617.471 229.646 L617.471 225.711 Q619.809 224.808 622.008 224.368 Q624.207 223.906 626.29 223.906 Q631.915 223.906 634.693 226.822 Q637.47 229.739 637.47 235.665 Z" fill="#000000" fill-rule="nonzero" fill-opacity="1" /><path clip-path="url(#clip280)" d="M667.794 234.808 L667.794 250.456 L663.535 250.456 L663.535 234.947 Q663.535 231.267 662.1 229.438 Q660.665 227.609 657.794 227.609 Q654.345 227.609 652.355 229.808 Q650.364 232.007 650.364 235.804 L650.364 250.456 L646.082 250.456 L646.082 224.531 L650.364 224.531 L650.364 228.558 Q651.892 226.22 653.952 225.063 Q656.035 223.906 658.744 223.906 Q663.211 223.906 665.503 226.683 Q667.794 229.438 667.794 234.808 Z" fill="#000000" fill-rule="nonzero" fill-opacity="1" /><path clip-path="url(#clip280)" d="M708.419 228.466 L708.419 214.438 L712.678 214.438 L712.678 250.456 L708.419 250.456 L708.419 246.567 Q707.077 248.882 705.016 250.016 Q702.979 251.128 700.109 251.128 Q695.41 251.128 692.447 247.378 Q689.507 243.628 689.507 237.517 Q689.507 231.405 692.447 227.655 Q695.41 223.906 700.109 223.906 Q702.979 223.906 705.016 225.04 Q707.077 226.151 708.419 228.466 M693.905 237.517 Q693.905 242.216 695.827 244.901 Q697.771 247.563 701.151 247.563 Q704.53 247.563 706.475 244.901 Q708.419 242.216 708.419 237.517 Q708.419 232.817 706.475 230.155 Q704.53 227.47 701.151 227.47 Q697.771 227.47 695.827 230.155 Q693.905 232.817 693.905 237.517 Z" fill="#000000" fill-rule="nonzero" fill-opacity="1" /><path clip-path="url(#clip280)" d="M721.452 224.531 L725.711 224.531 L725.711 250.456 L721.452 250.456 L721.452 224.531 M721.452 214.438 L725.711 214.438 L725.711 219.831 L721.452 219.831 L721.452 214.438 Z" fill="#000000" fill-rule="nonzero" fill-opacity="1" /><path clip-path="url(#clip280)" d="M751.15 225.294 L751.15 229.322 Q749.345 228.396 747.4 227.933 Q745.456 227.47 743.373 227.47 Q740.201 227.47 738.604 228.443 Q737.03 229.415 737.03 231.359 Q737.03 232.841 738.164 233.697 Q739.299 234.53 742.725 235.294 L744.183 235.618 Q748.72 236.591 750.618 238.373 Q752.539 240.132 752.539 243.304 Q752.539 246.915 749.669 249.021 Q746.822 251.128 741.822 251.128 Q739.738 251.128 737.47 250.711 Q735.225 250.317 732.725 249.507 L732.725 245.109 Q735.086 246.336 737.377 246.961 Q739.669 247.563 741.914 247.563 Q744.924 247.563 746.544 246.544 Q748.164 245.503 748.164 243.628 Q748.164 241.892 746.984 240.966 Q745.826 240.04 741.868 239.183 L740.387 238.836 Q736.428 238.003 734.669 236.29 Q732.91 234.554 732.91 231.544 Q732.91 227.887 735.502 225.896 Q738.095 223.906 742.863 223.906 Q745.225 223.906 747.308 224.253 Q749.391 224.6 751.15 225.294 Z" fill="#000000" fill-rule="nonzero" fill-opacity="1" /><path clip-path="url(#clip280)" d="M777.979 225.526 L777.979 229.507 Q776.173 228.512 774.345 228.026 Q772.539 227.517 770.687 227.517 Q766.544 227.517 764.252 230.155 Q761.961 232.771 761.961 237.517 Q761.961 242.262 764.252 244.901 Q766.544 247.516 770.687 247.516 Q772.539 247.516 774.345 247.03 Q776.173 246.521 777.979 245.526 L777.979 249.461 Q776.197 250.294 774.275 250.711 Q772.377 251.128 770.224 251.128 Q764.368 251.128 760.919 247.447 Q757.47 243.767 757.47 237.517 Q757.47 231.174 760.942 227.54 Q764.437 223.906 770.502 223.906 Q772.47 223.906 774.345 224.322 Q776.22 224.716 777.979 225.526 Z" fill="#000000" fill-rule="nonzero" fill-opacity="1" /><path clip-path="url(#clip280)" d="M795.433 227.517 Q792.007 227.517 790.016 230.202 Q788.025 232.864 788.025 237.517 Q788.025 242.169 789.993 244.854 Q791.984 247.516 795.433 247.516 Q798.835 247.516 800.826 244.831 Q802.817 242.146 802.817 237.517 Q802.817 232.91 800.826 230.225 Q798.835 227.517 795.433 227.517 M795.433 223.906 Q800.988 223.906 804.159 227.517 Q807.331 231.128 807.331 237.517 Q807.331 243.882 804.159 247.516 Q800.988 251.128 795.433 251.128 Q789.854 251.128 786.683 247.516 Q783.535 243.882 783.535 237.517 Q783.535 231.128 786.683 227.517 Q789.854 223.906 795.433 223.906 Z" fill="#000000" fill-rule="nonzero" fill-opacity="1" /><path clip-path="url(#clip280)" d="M813.951 240.225 L813.951 224.531 L818.21 224.531 L818.21 240.063 Q818.21 243.743 819.645 245.595 Q821.081 247.424 823.951 247.424 Q827.4 247.424 829.391 245.225 Q831.405 243.026 831.405 239.229 L831.405 224.531 L835.664 224.531 L835.664 250.456 L831.405 250.456 L831.405 246.475 Q829.854 248.836 827.794 249.993 Q825.757 251.128 823.048 251.128 Q818.581 251.128 816.266 248.35 Q813.951 245.572 813.951 240.225 M824.669 223.906 L824.669 223.906 Z" fill="#000000" fill-rule="nonzero" fill-opacity="1" /><path clip-path="url(#clip280)" d="M865.988 234.808 L865.988 250.456 L861.729 250.456 L861.729 234.947 Q861.729 231.267 860.293 229.438 Q858.858 227.609 855.988 227.609 Q852.539 227.609 850.548 229.808 Q848.557 232.007 848.557 235.804 L848.557 250.456 L844.275 250.456 L844.275 224.531 L848.557 224.531 L848.557 228.558 Q850.085 226.22 852.145 225.063 Q854.229 223.906 856.937 223.906 Q861.404 223.906 863.696 226.683 Q865.988 229.438 865.988 234.808 Z" fill="#000000" fill-rule="nonzero" fill-opacity="1" /><path clip-path="url(#clip280)" d="M878.696 217.169 L878.696 224.531 L887.469 224.531 L887.469 227.841 L878.696 227.841 L878.696 241.915 Q878.696 245.086 879.553 245.989 Q880.432 246.891 883.094 246.891 L887.469 246.891 L887.469 250.456 L883.094 250.456 Q878.164 250.456 876.289 248.628 Q874.414 246.776 874.414 241.915 L874.414 227.841 L871.289 227.841 L871.289 224.531 L874.414 224.531 L874.414 217.169 L878.696 217.169 Z" fill="#000000" fill-rule="nonzero" fill-opacity="1" /><path clip-path="url(#clip280)" d="M900.64 215.896 L904.576 215.896 L892.539 254.854 L888.603 254.854 L900.64 215.896 Z" fill="#000000" fill-rule="nonzero" fill-opacity="1" /><path clip-path="url(#clip280)" d="M913.904 219.739 L913.904 232.725 L919.784 232.725 Q923.048 232.725 924.83 231.035 Q926.612 229.345 926.612 226.22 Q926.612 223.118 924.83 221.429 Q923.048 219.739 919.784 219.739 L913.904 219.739 M909.228 215.896 L919.784 215.896 Q925.594 215.896 928.557 218.535 Q931.543 221.151 931.543 226.22 Q931.543 231.336 928.557 233.952 Q925.594 236.567 919.784 236.567 L913.904 236.567 L913.904 250.456 L909.228 250.456 L909.228 215.896 Z" fill="#000000" fill-rule="nonzero" fill-opacity="1" /></svg>
