<?xml version="1.0" encoding="utf-8"?>
<svg xmlns="http://www.w3.org/2000/svg" xmlns:xlink="http://www.w3.org/1999/xlink" width="672" height="480" viewBox="0 0 2688 1920">
<defs>
  <clipPath id="clip340">
    <rect x="0" y="0" width="2688" height="1920"/>
  </clipPath>
</defs>
<path clip-path="url(#clip340)" d="M0 1920 L2688 1920 L2688 -4.26326e-14 L0 -4.26326e-14  Z" fill="#ffffff" fill-rule="evenodd" fill-opacity="1"/>
<defs>
  <clipPath id="clip341">
    <rect x="537" y="0" width="1883" height="1883"/>
  </clipPath>
</defs>
<path clip-path="url(#clip340)" d="M255.816 1734.12 L2640.76 1734.12 L2640.76 127.792 L255.816 127.792  Z" fill="#ffffff" fill-rule="evenodd" fill-opacity="1"/>
<defs>
  <clipPath id="clip342">
    <rect x="255" y="127" width="2386" height="1607"/>
  </clipPath>
</defs>
<polyline clip-path="url(#clip342)" style="stroke:#000000; stroke-linecap:round; stroke-linejoin:round; stroke-width:2; stroke-opacity:0.1; fill:none" points="323.315,1734.12 323.315,127.792 "/>
<polyline clip-path="url(#clip342)" style="stroke:#000000; stroke-linecap:round; stroke-linejoin:round; stroke-width:2; stroke-opacity:0.1; fill:none" points="885.8,1734.12 885.8,127.792 "/>
<polyline clip-path="url(#clip342)" style="stroke:#000000; stroke-linecap:round; stroke-linejoin:round; stroke-width:2; stroke-opacity:0.1; fill:none" points="1448.29,1734.12 1448.29,127.792 "/>
<polyline clip-path="url(#clip342)" style="stroke:#000000; stroke-linecap:round; stroke-linejoin:round; stroke-width:2; stroke-opacity:0.1; fill:none" points="2010.77,1734.12 2010.77,127.792 "/>
<polyline clip-path="url(#clip342)" style="stroke:#000000; stroke-linecap:round; stroke-linejoin:round; stroke-width:2; stroke-opacity:0.1; fill:none" points="2573.26,1734.12 2573.26,127.792 "/>
<polyline clip-path="url(#clip342)" style="stroke:#000000; stroke-linecap:round; stroke-linejoin:round; stroke-width:2; stroke-opacity:0.1; fill:none" points="255.816,1734.12 2640.76,1734.12 "/>
<polyline clip-path="url(#clip342)" style="stroke:#000000; stroke-linecap:round; stroke-linejoin:round; stroke-width:2; stroke-opacity:0.1; fill:none" points="255.816,1466.4 2640.76,1466.4 "/>
<polyline clip-path="url(#clip342)" style="stroke:#000000; stroke-linecap:round; stroke-linejoin:round; stroke-width:2; stroke-opacity:0.1; fill:none" points="255.816,1198.68 2640.76,1198.68 "/>
<polyline clip-path="url(#clip342)" style="stroke:#000000; stroke-linecap:round; stroke-linejoin:round; stroke-width:2; stroke-opacity:0.1; fill:none" points="255.816,930.955 2640.76,930.955 "/>
<polyline clip-path="url(#clip342)" style="stroke:#000000; stroke-linecap:round; stroke-linejoin:round; stroke-width:2; stroke-opacity:0.1; fill:none" points="255.816,663.234 2640.76,663.234 "/>
<polyline clip-path="url(#clip342)" style="stroke:#000000; stroke-linecap:round; stroke-linejoin:round; stroke-width:2; stroke-opacity:0.1; fill:none" points="255.816,395.513 2640.76,395.513 "/>
<polyline clip-path="url(#clip340)" style="stroke:#000000; stroke-linecap:round; stroke-linejoin:round; stroke-width:4; stroke-opacity:1; fill:none" points="255.816,1734.12 2640.76,1734.12 "/>
<polyline clip-path="url(#clip340)" style="stroke:#000000; stroke-linecap:round; stroke-linejoin:round; stroke-width:4; stroke-opacity:1; fill:none" points="323.315,1734.12 323.315,1715.22 "/>
<polyline clip-path="url(#clip340)" style="stroke:#000000; stroke-linecap:round; stroke-linejoin:round; stroke-width:4; stroke-opacity:1; fill:none" points="885.8,1734.12 885.8,1715.22 "/>
<polyline clip-path="url(#clip340)" style="stroke:#000000; stroke-linecap:round; stroke-linejoin:round; stroke-width:4; stroke-opacity:1; fill:none" points="1448.29,1734.12 1448.29,1715.22 "/>
<polyline clip-path="url(#clip340)" style="stroke:#000000; stroke-linecap:round; stroke-linejoin:round; stroke-width:4; stroke-opacity:1; fill:none" points="2010.77,1734.12 2010.77,1715.22 "/>
<polyline clip-path="url(#clip340)" style="stroke:#000000; stroke-linecap:round; stroke-linejoin:round; stroke-width:4; stroke-opacity:1; fill:none" points="2573.26,1734.12 2573.26,1715.22 "/>
<path clip-path="url(#clip340)" d="M301.312 1767.34 Q297.701 1767.34 295.873 1770.9 Q294.067 1774.45 294.067 1781.58 Q294.067 1788.68 295.873 1792.25 Q297.701 1795.79 301.312 1795.79 Q304.947 1795.79 306.752 1792.25 Q308.581 1788.68 308.581 1781.58 Q308.581 1774.45 306.752 1770.9 Q304.947 1767.34 301.312 1767.34 M301.312 1763.64 Q307.123 1763.64 310.178 1768.24 Q313.257 1772.83 313.257 1781.58 Q313.257 1790.3 310.178 1794.91 Q307.123 1799.49 301.312 1799.49 Q295.502 1799.49 292.424 1794.91 Q289.368 1790.3 289.368 1781.58 Q289.368 1772.83 292.424 1768.24 Q295.502 1763.64 301.312 1763.64 Z" fill="#000000" fill-rule="nonzero" fill-opacity="1" /><path clip-path="url(#clip340)" d="M321.474 1792.94 L326.359 1792.94 L326.359 1798.82 L321.474 1798.82 L321.474 1792.94 Z" fill="#000000" fill-rule="nonzero" fill-opacity="1" /><path clip-path="url(#clip340)" d="M337.354 1794.89 L344.993 1794.89 L344.993 1768.52 L336.683 1770.19 L336.683 1765.93 L344.946 1764.26 L349.622 1764.26 L349.622 1794.89 L357.261 1794.89 L357.261 1798.82 L337.354 1798.82 L337.354 1794.89 Z" fill="#000000" fill-rule="nonzero" fill-opacity="1" /><path clip-path="url(#clip340)" d="M863.983 1767.34 Q860.372 1767.34 858.544 1770.9 Q856.738 1774.45 856.738 1781.58 Q856.738 1788.68 858.544 1792.25 Q860.372 1795.79 863.983 1795.79 Q867.618 1795.79 869.423 1792.25 Q871.252 1788.68 871.252 1781.58 Q871.252 1774.45 869.423 1770.9 Q867.618 1767.34 863.983 1767.34 M863.983 1763.64 Q869.794 1763.64 872.849 1768.24 Q875.928 1772.83 875.928 1781.58 Q875.928 1790.3 872.849 1794.91 Q869.794 1799.49 863.983 1799.49 Q858.173 1799.49 855.095 1794.91 Q852.039 1790.3 852.039 1781.58 Q852.039 1772.83 855.095 1768.24 Q858.173 1763.64 863.983 1763.64 Z" fill="#000000" fill-rule="nonzero" fill-opacity="1" /><path clip-path="url(#clip340)" d="M884.145 1792.94 L889.03 1792.94 L889.03 1798.82 L884.145 1798.82 L884.145 1792.94 Z" fill="#000000" fill-rule="nonzero" fill-opacity="1" /><path clip-path="url(#clip340)" d="M903.242 1794.89 L919.562 1794.89 L919.562 1798.82 L897.617 1798.82 L897.617 1794.89 Q900.279 1792.13 904.863 1787.5 Q909.469 1782.85 910.65 1781.51 Q912.895 1778.98 913.775 1777.25 Q914.678 1775.49 914.678 1773.8 Q914.678 1771.04 912.733 1769.31 Q910.812 1767.57 907.71 1767.57 Q905.511 1767.57 903.057 1768.34 Q900.627 1769.1 897.849 1770.65 L897.849 1765.93 Q900.673 1764.79 903.127 1764.21 Q905.58 1763.64 907.617 1763.64 Q912.988 1763.64 916.182 1766.32 Q919.377 1769.01 919.377 1773.5 Q919.377 1775.63 918.566 1777.55 Q917.779 1779.45 915.673 1782.04 Q915.094 1782.71 911.992 1785.93 Q908.891 1789.12 903.242 1794.89 Z" fill="#000000" fill-rule="nonzero" fill-opacity="1" /><path clip-path="url(#clip340)" d="M1425.99 1767.34 Q1422.38 1767.34 1420.55 1770.9 Q1418.75 1774.45 1418.75 1781.58 Q1418.75 1788.68 1420.55 1792.25 Q1422.38 1795.79 1425.99 1795.79 Q1429.63 1795.79 1431.43 1792.25 Q1433.26 1788.68 1433.26 1781.58 Q1433.26 1774.45 1431.43 1770.9 Q1429.63 1767.34 1425.99 1767.34 M1425.99 1763.64 Q1431.8 1763.64 1434.86 1768.24 Q1437.94 1772.83 1437.94 1781.58 Q1437.94 1790.3 1434.86 1794.91 Q1431.8 1799.49 1425.99 1799.49 Q1420.18 1799.49 1417.11 1794.91 Q1414.05 1790.3 1414.05 1781.58 Q1414.05 1772.83 1417.11 1768.24 Q1420.18 1763.64 1425.99 1763.64 Z" fill="#000000" fill-rule="nonzero" fill-opacity="1" /><path clip-path="url(#clip340)" d="M1446.16 1792.94 L1451.04 1792.94 L1451.04 1798.82 L1446.16 1798.82 L1446.16 1792.94 Z" fill="#000000" fill-rule="nonzero" fill-opacity="1" /><path clip-path="url(#clip340)" d="M1475.39 1780.19 Q1478.75 1780.9 1480.62 1783.17 Q1482.52 1785.44 1482.52 1788.77 Q1482.52 1793.89 1479 1796.69 Q1475.49 1799.49 1469 1799.49 Q1466.83 1799.49 1464.51 1799.05 Q1462.22 1798.64 1459.77 1797.78 L1459.77 1793.27 Q1461.71 1794.4 1464.03 1794.98 Q1466.34 1795.56 1468.86 1795.56 Q1473.26 1795.56 1475.55 1793.82 Q1477.87 1792.08 1477.87 1788.77 Q1477.87 1785.72 1475.72 1784.01 Q1473.59 1782.27 1469.77 1782.27 L1465.74 1782.27 L1465.74 1778.43 L1469.95 1778.43 Q1473.4 1778.43 1475.23 1777.06 Q1477.06 1775.67 1477.06 1773.08 Q1477.06 1770.42 1475.16 1769.01 Q1473.29 1767.57 1469.77 1767.57 Q1467.85 1767.57 1465.65 1767.99 Q1463.45 1768.4 1460.81 1769.28 L1460.81 1765.12 Q1463.47 1764.38 1465.79 1764.01 Q1468.12 1763.64 1470.18 1763.64 Q1475.51 1763.64 1478.61 1766.07 Q1481.71 1768.47 1481.71 1772.59 Q1481.71 1775.46 1480.07 1777.46 Q1478.42 1779.42 1475.39 1780.19 Z" fill="#000000" fill-rule="nonzero" fill-opacity="1" /><path clip-path="url(#clip340)" d="M1987.91 1767.34 Q1984.3 1767.34 1982.47 1770.9 Q1980.67 1774.45 1980.67 1781.58 Q1980.67 1788.68 1982.47 1792.25 Q1984.3 1795.79 1987.91 1795.79 Q1991.55 1795.79 1993.35 1792.25 Q1995.18 1788.68 1995.18 1781.58 Q1995.18 1774.45 1993.35 1770.9 Q1991.55 1767.34 1987.91 1767.34 M1987.91 1763.64 Q1993.72 1763.64 1996.78 1768.24 Q1999.86 1772.83 1999.86 1781.58 Q1999.86 1790.3 1996.78 1794.91 Q1993.72 1799.49 1987.91 1799.49 Q1982.1 1799.49 1979.02 1794.91 Q1975.97 1790.3 1975.97 1781.58 Q1975.97 1772.83 1979.02 1768.24 Q1982.1 1763.64 1987.91 1763.64 Z" fill="#000000" fill-rule="nonzero" fill-opacity="1" /><path clip-path="url(#clip340)" d="M2008.08 1792.94 L2012.96 1792.94 L2012.96 1798.82 L2008.08 1798.82 L2008.08 1792.94 Z" fill="#000000" fill-rule="nonzero" fill-opacity="1" /><path clip-path="url(#clip340)" d="M2035.99 1768.34 L2024.19 1786.78 L2035.99 1786.78 L2035.99 1768.34 M2034.76 1764.26 L2040.64 1764.26 L2040.64 1786.78 L2045.57 1786.78 L2045.57 1790.67 L2040.64 1790.67 L2040.64 1798.82 L2035.99 1798.82 L2035.99 1790.67 L2020.39 1790.67 L2020.39 1786.16 L2034.76 1764.26 Z" fill="#000000" fill-rule="nonzero" fill-opacity="1" /><path clip-path="url(#clip340)" d="M2551.14 1767.34 Q2547.53 1767.34 2545.7 1770.9 Q2543.89 1774.45 2543.89 1781.58 Q2543.89 1788.68 2545.7 1792.25 Q2547.53 1795.79 2551.14 1795.79 Q2554.77 1795.79 2556.58 1792.25 Q2558.41 1788.68 2558.41 1781.58 Q2558.41 1774.45 2556.58 1770.9 Q2554.77 1767.34 2551.14 1767.34 M2551.14 1763.64 Q2556.95 1763.64 2560.01 1768.24 Q2563.08 1772.83 2563.08 1781.58 Q2563.08 1790.3 2560.01 1794.91 Q2556.95 1799.49 2551.14 1799.49 Q2545.33 1799.49 2542.25 1794.91 Q2539.2 1790.3 2539.2 1781.58 Q2539.2 1772.83 2542.25 1768.24 Q2545.33 1763.64 2551.14 1763.64 Z" fill="#000000" fill-rule="nonzero" fill-opacity="1" /><path clip-path="url(#clip340)" d="M2571.3 1792.94 L2576.19 1792.94 L2576.19 1798.82 L2571.3 1798.82 L2571.3 1792.94 Z" fill="#000000" fill-rule="nonzero" fill-opacity="1" /><path clip-path="url(#clip340)" d="M2586.42 1764.26 L2604.77 1764.26 L2604.77 1768.2 L2590.7 1768.2 L2590.7 1776.67 Q2591.72 1776.32 2592.74 1776.16 Q2593.76 1775.97 2594.77 1775.97 Q2600.56 1775.97 2603.94 1779.15 Q2607.32 1782.32 2607.32 1787.73 Q2607.32 1793.31 2603.85 1796.41 Q2600.38 1799.49 2594.06 1799.49 Q2591.88 1799.49 2589.61 1799.12 Q2587.37 1798.75 2584.96 1798.01 L2584.96 1793.31 Q2587.04 1794.45 2589.26 1795 Q2591.49 1795.56 2593.96 1795.56 Q2597.97 1795.56 2600.31 1793.45 Q2602.64 1791.34 2602.64 1787.73 Q2602.64 1784.12 2600.31 1782.02 Q2597.97 1779.91 2593.96 1779.91 Q2592.09 1779.91 2590.21 1780.33 Q2588.36 1780.74 2586.42 1781.62 L2586.42 1764.26 Z" fill="#000000" fill-rule="nonzero" fill-opacity="1" /><path clip-path="url(#clip340)" d="M1037.32 1837.34 L1037.32 1843.61 Q1033.66 1841.86 1030.41 1841 Q1027.16 1840.14 1024.14 1840.14 Q1018.89 1840.14 1016.02 1842.18 Q1013.19 1844.22 1013.19 1847.97 Q1013.19 1851.12 1015.07 1852.75 Q1016.98 1854.34 1022.26 1855.32 L1026.14 1856.12 Q1033.34 1857.49 1036.74 1860.96 Q1040.18 1864.39 1040.18 1870.19 Q1040.18 1877.09 1035.53 1880.66 Q1030.92 1884.22 1021.97 1884.22 Q1018.6 1884.22 1014.78 1883.46 Q1010.99 1882.7 1006.92 1881.2 L1006.92 1874.58 Q1010.83 1876.78 1014.59 1877.89 Q1018.35 1879 1021.97 1879 Q1027.48 1879 1030.47 1876.84 Q1033.46 1874.68 1033.46 1870.67 Q1033.46 1867.16 1031.3 1865.19 Q1029.17 1863.22 1024.27 1862.23 L1020.35 1861.47 Q1013.16 1860.03 1009.94 1856.98 Q1006.73 1853.92 1006.73 1848.48 Q1006.73 1842.18 1011.15 1838.55 Q1015.61 1834.92 1023.41 1834.92 Q1026.75 1834.92 1030.22 1835.53 Q1033.69 1836.13 1037.32 1837.34 Z" fill="#000000" fill-rule="nonzero" fill-opacity="1" /><path clip-path="url(#clip340)" d="M1053.45 1865.51 Q1053.45 1871.97 1056.09 1875.66 Q1058.77 1879.32 1063.42 1879.32 Q1068.06 1879.32 1070.74 1875.66 Q1073.41 1871.97 1073.41 1865.51 Q1073.41 1859.05 1070.74 1855.39 Q1068.06 1851.7 1063.42 1851.7 Q1058.77 1851.7 1056.09 1855.39 Q1053.45 1859.05 1053.45 1865.51 M1073.41 1877.95 Q1071.56 1881.14 1068.73 1882.7 Q1065.93 1884.22 1061.98 1884.22 Q1055.52 1884.22 1051.45 1879.07 Q1047.41 1873.91 1047.41 1865.51 Q1047.41 1857.11 1051.45 1851.95 Q1055.52 1846.79 1061.98 1846.79 Q1065.93 1846.79 1068.73 1848.35 Q1071.56 1849.88 1073.41 1853.06 L1073.41 1847.65 L1079.27 1847.65 L1079.27 1896.86 L1073.41 1896.86 L1073.41 1877.95 Z" fill="#000000" fill-rule="nonzero" fill-opacity="1" /><path clip-path="url(#clip340)" d="M1111.99 1853.13 Q1111 1852.55 1109.82 1852.3 Q1108.68 1852.01 1107.28 1852.01 Q1102.31 1852.01 1099.64 1855.26 Q1096.99 1858.47 1096.99 1864.52 L1096.99 1883.3 L1091.11 1883.3 L1091.11 1847.65 L1096.99 1847.65 L1096.99 1853.19 Q1098.84 1849.94 1101.8 1848.39 Q1104.76 1846.79 1108.99 1846.79 Q1109.6 1846.79 1110.33 1846.89 Q1111.06 1846.95 1111.95 1847.11 L1111.99 1853.13 Z" fill="#000000" fill-rule="nonzero" fill-opacity="1" /><path clip-path="url(#clip340)" d="M1123.92 1837.53 L1123.92 1847.65 L1135.98 1847.65 L1135.98 1852.2 L1123.92 1852.2 L1123.92 1871.56 Q1123.92 1875.92 1125.1 1877.16 Q1126.31 1878.4 1129.97 1878.4 L1135.98 1878.4 L1135.98 1883.3 L1129.97 1883.3 Q1123.19 1883.3 1120.61 1880.79 Q1118.03 1878.24 1118.03 1871.56 L1118.03 1852.2 L1113.74 1852.2 L1113.74 1847.65 L1118.03 1847.65 L1118.03 1837.53 L1123.92 1837.53 Z" fill="#000000" fill-rule="nonzero" fill-opacity="1" /><path clip-path="url(#clip340)" d="M1178.22 1851.76 Q1173.51 1851.76 1170.77 1855.45 Q1168.04 1859.11 1168.04 1865.51 Q1168.04 1871.91 1170.74 1875.6 Q1173.48 1879.26 1178.22 1879.26 Q1182.9 1879.26 1185.64 1875.57 Q1188.37 1871.87 1188.37 1865.51 Q1188.37 1859.17 1185.64 1855.48 Q1182.9 1851.76 1178.22 1851.76 M1178.22 1846.79 Q1185.86 1846.79 1190.22 1851.76 Q1194.58 1856.72 1194.58 1865.51 Q1194.58 1874.26 1190.22 1879.26 Q1185.86 1884.22 1178.22 1884.22 Q1170.55 1884.22 1166.19 1879.26 Q1161.86 1874.26 1161.86 1865.51 Q1161.86 1856.72 1166.19 1851.76 Q1170.55 1846.79 1178.22 1846.79 Z" fill="#000000" fill-rule="nonzero" fill-opacity="1" /><path clip-path="url(#clip340)" d="M1222.34 1833.78 L1222.34 1838.65 L1216.73 1838.65 Q1213.58 1838.65 1212.34 1839.92 Q1211.13 1841.19 1211.13 1844.5 L1211.13 1847.65 L1220.78 1847.65 L1220.78 1852.2 L1211.13 1852.2 L1211.13 1883.3 L1205.24 1883.3 L1205.24 1852.2 L1199.64 1852.2 L1199.64 1847.65 L1205.24 1847.65 L1205.24 1845.17 Q1205.24 1839.22 1208.01 1836.51 Q1210.78 1833.78 1216.8 1833.78 L1222.34 1833.78 Z" fill="#000000" fill-rule="nonzero" fill-opacity="1" /><path clip-path="url(#clip340)" d="M1270.68 1848.7 L1270.68 1854.24 Q1268.2 1852.97 1265.53 1852.33 Q1262.85 1851.7 1259.99 1851.7 Q1255.63 1851.7 1253.43 1853.03 Q1251.27 1854.37 1251.27 1857.04 Q1251.27 1859.08 1252.83 1860.26 Q1254.39 1861.4 1259.1 1862.45 L1261.1 1862.9 Q1267.34 1864.24 1269.95 1866.69 Q1272.59 1869.11 1272.59 1873.47 Q1272.59 1878.43 1268.65 1881.33 Q1264.73 1884.22 1257.86 1884.22 Q1254.99 1884.22 1251.87 1883.65 Q1248.78 1883.11 1245.35 1882 L1245.35 1875.95 Q1248.59 1877.64 1251.74 1878.49 Q1254.9 1879.32 1257.98 1879.32 Q1262.12 1879.32 1264.35 1877.92 Q1266.58 1876.49 1266.58 1873.91 Q1266.58 1871.52 1264.95 1870.25 Q1263.36 1868.98 1257.92 1867.8 L1255.88 1867.32 Q1250.44 1866.18 1248.02 1863.82 Q1245.6 1861.43 1245.6 1857.3 Q1245.6 1852.27 1249.17 1849.53 Q1252.73 1846.79 1259.29 1846.79 Q1262.53 1846.79 1265.4 1847.27 Q1268.26 1847.75 1270.68 1848.7 Z" fill="#000000" fill-rule="nonzero" fill-opacity="1" /><path clip-path="url(#clip340)" d="M1287.71 1837.53 L1287.71 1847.65 L1299.77 1847.65 L1299.77 1852.2 L1287.71 1852.2 L1287.71 1871.56 Q1287.71 1875.92 1288.89 1877.16 Q1290.1 1878.4 1293.76 1878.4 L1299.77 1878.4 L1299.77 1883.3 L1293.76 1883.3 Q1286.98 1883.3 1284.4 1880.79 Q1281.82 1878.24 1281.82 1871.56 L1281.82 1852.2 L1277.53 1852.2 L1277.53 1847.65 L1281.82 1847.65 L1281.82 1837.53 L1287.71 1837.53 Z" fill="#000000" fill-rule="nonzero" fill-opacity="1" /><path clip-path="url(#clip340)" d="M1337.97 1864.01 L1337.97 1866.88 L1311.04 1866.88 Q1311.42 1872.92 1314.67 1876.11 Q1317.95 1879.26 1323.77 1879.26 Q1327.15 1879.26 1330.3 1878.43 Q1333.48 1877.6 1336.6 1875.95 L1336.6 1881.49 Q1333.45 1882.82 1330.14 1883.52 Q1326.83 1884.22 1323.42 1884.22 Q1314.89 1884.22 1309.9 1879.26 Q1304.93 1874.29 1304.93 1865.83 Q1304.93 1857.07 1309.64 1851.95 Q1314.38 1846.79 1322.4 1846.79 Q1329.6 1846.79 1333.77 1851.44 Q1337.97 1856.06 1337.97 1864.01 M1332.11 1862.29 Q1332.05 1857.49 1329.41 1854.62 Q1326.8 1851.76 1322.47 1851.76 Q1317.57 1851.76 1314.61 1854.53 Q1311.68 1857.3 1311.23 1862.33 L1332.11 1862.29 Z" fill="#000000" fill-rule="nonzero" fill-opacity="1" /><path clip-path="url(#clip340)" d="M1353.25 1877.95 L1353.25 1896.86 L1347.36 1896.86 L1347.36 1847.65 L1353.25 1847.65 L1353.25 1853.06 Q1355.09 1849.88 1357.89 1848.35 Q1360.73 1846.79 1364.64 1846.79 Q1371.13 1846.79 1375.18 1851.95 Q1379.25 1857.11 1379.25 1865.51 Q1379.25 1873.91 1375.18 1879.07 Q1371.13 1884.22 1364.64 1884.22 Q1360.73 1884.22 1357.89 1882.7 Q1355.09 1881.14 1353.25 1877.95 M1373.17 1865.51 Q1373.17 1859.05 1370.5 1855.39 Q1367.86 1851.7 1363.21 1851.7 Q1358.56 1851.7 1355.89 1855.39 Q1353.25 1859.05 1353.25 1865.51 Q1353.25 1871.97 1355.89 1875.66 Q1358.56 1879.32 1363.21 1879.32 Q1367.86 1879.32 1370.5 1875.66 Q1373.17 1871.97 1373.17 1865.51 Z" fill="#000000" fill-rule="nonzero" fill-opacity="1" /><path clip-path="url(#clip340)" d="M1432.4 1848.7 L1432.4 1854.24 Q1429.92 1852.97 1427.25 1852.33 Q1424.57 1851.7 1421.71 1851.7 Q1417.35 1851.7 1415.15 1853.03 Q1412.99 1854.37 1412.99 1857.04 Q1412.99 1859.08 1414.55 1860.26 Q1416.11 1861.4 1420.82 1862.45 L1422.82 1862.9 Q1429.06 1864.24 1431.67 1866.69 Q1434.31 1869.11 1434.31 1873.47 Q1434.31 1878.43 1430.37 1881.33 Q1426.45 1884.22 1419.58 1884.22 Q1416.71 1884.22 1413.59 1883.65 Q1410.51 1883.11 1407.07 1882 L1407.07 1875.95 Q1410.31 1877.64 1413.47 1878.49 Q1416.62 1879.32 1419.7 1879.32 Q1423.84 1879.32 1426.07 1877.92 Q1428.3 1876.49 1428.3 1873.91 Q1428.3 1871.52 1426.67 1870.25 Q1425.08 1868.98 1419.64 1867.8 L1417.6 1867.32 Q1412.16 1866.18 1409.74 1863.82 Q1407.32 1861.43 1407.32 1857.3 Q1407.32 1852.27 1410.89 1849.53 Q1414.45 1846.79 1421.01 1846.79 Q1424.26 1846.79 1427.12 1847.27 Q1429.98 1847.75 1432.4 1848.7 Z" fill="#000000" fill-rule="nonzero" fill-opacity="1" /><path clip-path="url(#clip340)" d="M1443.64 1847.65 L1449.5 1847.65 L1449.5 1883.3 L1443.64 1883.3 L1443.64 1847.65 M1443.64 1833.78 L1449.5 1833.78 L1449.5 1841.19 L1443.64 1841.19 L1443.64 1833.78 Z" fill="#000000" fill-rule="nonzero" fill-opacity="1" /><path clip-path="url(#clip340)" d="M1459.2 1847.65 L1487.02 1847.65 L1487.02 1853 L1465 1878.62 L1487.02 1878.62 L1487.02 1883.3 L1458.41 1883.3 L1458.41 1877.95 L1480.43 1852.33 L1459.2 1852.33 L1459.2 1847.65 Z" fill="#000000" fill-rule="nonzero" fill-opacity="1" /><path clip-path="url(#clip340)" d="M1526.46 1864.01 L1526.46 1866.88 L1499.53 1866.88 Q1499.91 1872.92 1503.16 1876.11 Q1506.44 1879.26 1512.26 1879.26 Q1515.64 1879.26 1518.79 1878.43 Q1521.97 1877.6 1525.09 1875.95 L1525.09 1881.49 Q1521.94 1882.82 1518.63 1883.52 Q1515.32 1884.22 1511.91 1884.22 Q1503.38 1884.22 1498.38 1879.26 Q1493.42 1874.29 1493.42 1865.83 Q1493.42 1857.07 1498.13 1851.95 Q1502.87 1846.79 1510.89 1846.79 Q1518.09 1846.79 1522.26 1851.44 Q1526.46 1856.06 1526.46 1864.01 M1520.6 1862.29 Q1520.54 1857.49 1517.9 1854.62 Q1515.29 1851.76 1510.96 1851.76 Q1506.05 1851.76 1503.09 1854.53 Q1500.17 1857.3 1499.72 1862.33 L1520.6 1862.29 Z" fill="#000000" fill-rule="nonzero" fill-opacity="1" /><path clip-path="url(#clip340)" d="M1582.44 1849.02 L1582.44 1854.5 Q1579.96 1853.13 1577.45 1852.46 Q1574.96 1851.76 1572.42 1851.76 Q1566.72 1851.76 1563.57 1855.39 Q1560.42 1858.98 1560.42 1865.51 Q1560.42 1872.03 1563.57 1875.66 Q1566.72 1879.26 1572.42 1879.26 Q1574.96 1879.26 1577.45 1878.59 Q1579.96 1877.89 1582.44 1876.52 L1582.44 1881.93 Q1579.99 1883.08 1577.35 1883.65 Q1574.74 1884.22 1571.78 1884.22 Q1563.73 1884.22 1558.99 1879.16 Q1554.24 1874.1 1554.24 1865.51 Q1554.24 1856.79 1559.02 1851.79 Q1563.82 1846.79 1572.16 1846.79 Q1574.87 1846.79 1577.45 1847.37 Q1580.02 1847.91 1582.44 1849.02 Z" fill="#000000" fill-rule="nonzero" fill-opacity="1" /><path clip-path="url(#clip340)" d="M1606.44 1851.76 Q1601.73 1851.76 1598.99 1855.45 Q1596.26 1859.11 1596.26 1865.51 Q1596.26 1871.91 1598.96 1875.6 Q1601.7 1879.26 1606.44 1879.26 Q1611.12 1879.26 1613.86 1875.57 Q1616.6 1871.87 1616.6 1865.51 Q1616.6 1859.17 1613.86 1855.48 Q1611.12 1851.76 1606.44 1851.76 M1606.44 1846.79 Q1614.08 1846.79 1618.44 1851.76 Q1622.8 1856.72 1622.8 1865.51 Q1622.8 1874.26 1618.44 1879.26 Q1614.08 1884.22 1606.44 1884.22 Q1598.77 1884.22 1594.41 1879.26 Q1590.08 1874.26 1590.08 1865.51 Q1590.08 1856.72 1594.41 1851.76 Q1598.77 1846.79 1606.44 1846.79 Z" fill="#000000" fill-rule="nonzero" fill-opacity="1" /><path clip-path="url(#clip340)" d="M1663 1864.01 L1663 1866.88 L1636.07 1866.88 Q1636.46 1872.92 1639.7 1876.11 Q1642.98 1879.26 1648.81 1879.26 Q1652.18 1879.26 1655.33 1878.43 Q1658.51 1877.6 1661.63 1875.95 L1661.63 1881.49 Q1658.48 1882.82 1655.17 1883.52 Q1651.86 1884.22 1648.46 1884.22 Q1639.93 1884.22 1634.93 1879.26 Q1629.96 1874.29 1629.96 1865.83 Q1629.96 1857.07 1634.67 1851.95 Q1639.42 1846.79 1647.44 1846.79 Q1654.63 1846.79 1658.8 1851.44 Q1663 1856.06 1663 1864.01 M1657.14 1862.29 Q1657.08 1857.49 1654.44 1854.62 Q1651.83 1851.76 1647.5 1851.76 Q1642.6 1851.76 1639.64 1854.53 Q1636.71 1857.3 1636.27 1862.33 L1657.14 1862.29 Z" fill="#000000" fill-rule="nonzero" fill-opacity="1" /><path clip-path="url(#clip340)" d="M1690.66 1833.78 L1690.66 1838.65 L1685.06 1838.65 Q1681.91 1838.65 1680.67 1839.92 Q1679.46 1841.19 1679.46 1844.5 L1679.46 1847.65 L1689.1 1847.65 L1689.1 1852.2 L1679.46 1852.2 L1679.46 1883.3 L1673.57 1883.3 L1673.57 1852.2 L1667.97 1852.2 L1667.97 1847.65 L1673.57 1847.65 L1673.57 1845.17 Q1673.57 1839.22 1676.34 1836.51 Q1679.11 1833.78 1685.12 1833.78 L1690.66 1833.78 Z" fill="#000000" fill-rule="nonzero" fill-opacity="1" /><path clip-path="url(#clip340)" d="M1713.61 1833.78 L1713.61 1838.65 L1708.01 1838.65 Q1704.86 1838.65 1703.61 1839.92 Q1702.41 1841.19 1702.41 1844.5 L1702.41 1847.65 L1712.05 1847.65 L1712.05 1852.2 L1702.41 1852.2 L1702.41 1883.3 L1696.52 1883.3 L1696.52 1852.2 L1690.92 1852.2 L1690.92 1847.65 L1696.52 1847.65 L1696.52 1845.17 Q1696.52 1839.22 1699.29 1836.51 Q1702.06 1833.78 1708.07 1833.78 L1713.61 1833.78 Z" fill="#000000" fill-rule="nonzero" fill-opacity="1" /><path clip-path="url(#clip340)" d="M1718.51 1847.65 L1724.37 1847.65 L1724.37 1883.3 L1718.51 1883.3 L1718.51 1847.65 M1718.51 1833.78 L1724.37 1833.78 L1724.37 1841.19 L1718.51 1841.19 L1718.51 1833.78 Z" fill="#000000" fill-rule="nonzero" fill-opacity="1" /><path clip-path="url(#clip340)" d="M1762.27 1849.02 L1762.27 1854.5 Q1759.79 1853.13 1757.28 1852.46 Q1754.79 1851.76 1752.25 1851.76 Q1746.55 1851.76 1743.4 1855.39 Q1740.25 1858.98 1740.25 1865.51 Q1740.25 1872.03 1743.4 1875.66 Q1746.55 1879.26 1752.25 1879.26 Q1754.79 1879.26 1757.28 1878.59 Q1759.79 1877.89 1762.27 1876.52 L1762.27 1881.93 Q1759.82 1883.08 1757.18 1883.65 Q1754.57 1884.22 1751.61 1884.22 Q1743.56 1884.22 1738.82 1879.16 Q1734.07 1874.1 1734.07 1865.51 Q1734.07 1856.79 1738.85 1851.79 Q1743.65 1846.79 1751.99 1846.79 Q1754.7 1846.79 1757.28 1847.37 Q1759.86 1847.91 1762.27 1849.02 Z" fill="#000000" fill-rule="nonzero" fill-opacity="1" /><path clip-path="url(#clip340)" d="M1772.46 1847.65 L1778.32 1847.65 L1778.32 1883.3 L1772.46 1883.3 L1772.46 1847.65 M1772.46 1833.78 L1778.32 1833.78 L1778.32 1841.19 L1772.46 1841.19 L1772.46 1833.78 Z" fill="#000000" fill-rule="nonzero" fill-opacity="1" /><path clip-path="url(#clip340)" d="M1821.06 1864.01 L1821.06 1866.88 L1794.13 1866.88 Q1794.52 1872.92 1797.76 1876.11 Q1801.04 1879.26 1806.87 1879.26 Q1810.24 1879.26 1813.39 1878.43 Q1816.57 1877.6 1819.69 1875.95 L1819.69 1881.49 Q1816.54 1882.82 1813.23 1883.52 Q1809.92 1884.22 1806.52 1884.22 Q1797.99 1884.22 1792.99 1879.26 Q1788.02 1874.29 1788.02 1865.83 Q1788.02 1857.07 1792.73 1851.95 Q1797.48 1846.79 1805.5 1846.79 Q1812.69 1846.79 1816.86 1851.44 Q1821.06 1856.06 1821.06 1864.01 M1815.21 1862.29 Q1815.14 1857.49 1812.5 1854.62 Q1809.89 1851.76 1805.56 1851.76 Q1800.66 1851.76 1797.7 1854.53 Q1794.77 1857.3 1794.33 1862.33 L1815.21 1862.29 Z" fill="#000000" fill-rule="nonzero" fill-opacity="1" /><path clip-path="url(#clip340)" d="M1860.31 1861.78 L1860.31 1883.3 L1854.45 1883.3 L1854.45 1861.98 Q1854.45 1856.92 1852.48 1854.4 Q1850.5 1851.89 1846.56 1851.89 Q1841.81 1851.89 1839.08 1854.91 Q1836.34 1857.93 1836.34 1863.15 L1836.34 1883.3 L1830.45 1883.3 L1830.45 1847.65 L1836.34 1847.65 L1836.34 1853.19 Q1838.44 1849.98 1841.27 1848.39 Q1844.14 1846.79 1847.86 1846.79 Q1854 1846.79 1857.16 1850.61 Q1860.31 1854.4 1860.31 1861.78 Z" fill="#000000" fill-rule="nonzero" fill-opacity="1" /><path clip-path="url(#clip340)" d="M1877.78 1837.53 L1877.78 1847.65 L1889.84 1847.65 L1889.84 1852.2 L1877.78 1852.2 L1877.78 1871.56 Q1877.78 1875.92 1878.96 1877.16 Q1880.17 1878.4 1883.83 1878.4 L1889.84 1878.4 L1889.84 1883.3 L1883.83 1883.3 Q1877.05 1883.3 1874.47 1880.79 Q1871.89 1878.24 1871.89 1871.56 L1871.89 1852.2 L1867.6 1852.2 L1867.6 1847.65 L1871.89 1847.65 L1871.89 1837.53 L1877.78 1837.53 Z" fill="#000000" fill-rule="nonzero" fill-opacity="1" /><polyline clip-path="url(#clip340)" style="stroke:#000000; stroke-linecap:round; stroke-linejoin:round; stroke-width:4; stroke-opacity:1; fill:none" points="255.816,1734.12 255.816,127.792 "/>
<polyline clip-path="url(#clip340)" style="stroke:#000000; stroke-linecap:round; stroke-linejoin:round; stroke-width:4; stroke-opacity:1; fill:none" points="255.816,1734.12 274.714,1734.12 "/>
<polyline clip-path="url(#clip340)" style="stroke:#000000; stroke-linecap:round; stroke-linejoin:round; stroke-width:4; stroke-opacity:1; fill:none" points="255.816,1466.4 274.714,1466.4 "/>
<polyline clip-path="url(#clip340)" style="stroke:#000000; stroke-linecap:round; stroke-linejoin:round; stroke-width:4; stroke-opacity:1; fill:none" points="255.816,1198.68 274.714,1198.68 "/>
<polyline clip-path="url(#clip340)" style="stroke:#000000; stroke-linecap:round; stroke-linejoin:round; stroke-width:4; stroke-opacity:1; fill:none" points="255.816,930.955 274.714,930.955 "/>
<polyline clip-path="url(#clip340)" style="stroke:#000000; stroke-linecap:round; stroke-linejoin:round; stroke-width:4; stroke-opacity:1; fill:none" points="255.816,663.234 274.714,663.234 "/>
<polyline clip-path="url(#clip340)" style="stroke:#000000; stroke-linecap:round; stroke-linejoin:round; stroke-width:4; stroke-opacity:1; fill:none" points="255.816,395.513 274.714,395.513 "/>
<path clip-path="url(#clip340)" d="M128.159 1719.92 Q124.548 1719.92 122.719 1723.48 Q120.913 1727.02 120.913 1734.15 Q120.913 1741.26 122.719 1744.82 Q124.548 1748.36 128.159 1748.36 Q131.793 1748.36 133.599 1744.82 Q135.427 1741.26 135.427 1734.15 Q135.427 1727.02 133.599 1723.48 Q131.793 1719.92 128.159 1719.92 M128.159 1716.21 Q133.969 1716.21 137.025 1720.82 Q140.103 1725.4 140.103 1734.15 Q140.103 1742.88 137.025 1747.48 Q133.969 1752.07 128.159 1752.07 Q122.349 1752.07 119.27 1747.48 Q116.214 1742.88 116.214 1734.15 Q116.214 1725.4 119.27 1720.82 Q122.349 1716.21 128.159 1716.21 Z" fill="#000000" fill-rule="nonzero" fill-opacity="1" /><path clip-path="url(#clip340)" d="M148.321 1745.52 L153.205 1745.52 L153.205 1751.4 L148.321 1751.4 L148.321 1745.52 Z" fill="#000000" fill-rule="nonzero" fill-opacity="1" /><path clip-path="url(#clip340)" d="M173.39 1719.92 Q169.779 1719.92 167.95 1723.48 Q166.145 1727.02 166.145 1734.15 Q166.145 1741.26 167.95 1744.82 Q169.779 1748.36 173.39 1748.36 Q177.024 1748.36 178.83 1744.82 Q180.659 1741.26 180.659 1734.15 Q180.659 1727.02 178.83 1723.48 Q177.024 1719.92 173.39 1719.92 M173.39 1716.21 Q179.2 1716.21 182.256 1720.82 Q185.334 1725.4 185.334 1734.15 Q185.334 1742.88 182.256 1747.48 Q179.2 1752.07 173.39 1752.07 Q167.58 1752.07 164.501 1747.48 Q161.446 1742.88 161.446 1734.15 Q161.446 1725.4 164.501 1720.82 Q167.58 1716.21 173.39 1716.21 Z" fill="#000000" fill-rule="nonzero" fill-opacity="1" /><path clip-path="url(#clip340)" d="M203.552 1719.92 Q199.941 1719.92 198.112 1723.48 Q196.307 1727.02 196.307 1734.15 Q196.307 1741.26 198.112 1744.82 Q199.941 1748.36 203.552 1748.36 Q207.186 1748.36 208.992 1744.82 Q210.82 1741.26 210.82 1734.15 Q210.82 1727.02 208.992 1723.48 Q207.186 1719.92 203.552 1719.92 M203.552 1716.21 Q209.362 1716.21 212.418 1720.82 Q215.496 1725.4 215.496 1734.15 Q215.496 1742.88 212.418 1747.48 Q209.362 1752.07 203.552 1752.07 Q197.742 1752.07 194.663 1747.48 Q191.608 1742.88 191.608 1734.15 Q191.608 1725.4 194.663 1720.82 Q197.742 1716.21 203.552 1716.21 Z" fill="#000000" fill-rule="nonzero" fill-opacity="1" /><path clip-path="url(#clip340)" d="M129.154 1452.19 Q125.543 1452.19 123.714 1455.76 Q121.909 1459.3 121.909 1466.43 Q121.909 1473.54 123.714 1477.1 Q125.543 1480.64 129.154 1480.64 Q132.788 1480.64 134.594 1477.1 Q136.423 1473.54 136.423 1466.43 Q136.423 1459.3 134.594 1455.76 Q132.788 1452.19 129.154 1452.19 M129.154 1448.49 Q134.964 1448.49 138.02 1453.1 Q141.099 1457.68 141.099 1466.43 Q141.099 1475.16 138.02 1479.76 Q134.964 1484.35 129.154 1484.35 Q123.344 1484.35 120.265 1479.76 Q117.21 1475.16 117.21 1466.43 Q117.21 1457.68 120.265 1453.1 Q123.344 1448.49 129.154 1448.49 Z" fill="#000000" fill-rule="nonzero" fill-opacity="1" /><path clip-path="url(#clip340)" d="M149.316 1477.8 L154.2 1477.8 L154.2 1483.68 L149.316 1483.68 L149.316 1477.8 Z" fill="#000000" fill-rule="nonzero" fill-opacity="1" /><path clip-path="url(#clip340)" d="M174.385 1452.19 Q170.774 1452.19 168.946 1455.76 Q167.14 1459.3 167.14 1466.43 Q167.14 1473.54 168.946 1477.1 Q170.774 1480.64 174.385 1480.64 Q178.02 1480.64 179.825 1477.1 Q181.654 1473.54 181.654 1466.43 Q181.654 1459.3 179.825 1455.76 Q178.02 1452.19 174.385 1452.19 M174.385 1448.49 Q180.196 1448.49 183.251 1453.1 Q186.33 1457.68 186.33 1466.43 Q186.33 1475.16 183.251 1479.76 Q180.196 1484.35 174.385 1484.35 Q168.575 1484.35 165.497 1479.76 Q162.441 1475.16 162.441 1466.43 Q162.441 1457.68 165.497 1453.1 Q168.575 1448.49 174.385 1448.49 Z" fill="#000000" fill-rule="nonzero" fill-opacity="1" /><path clip-path="url(#clip340)" d="M194.594 1449.12 L212.95 1449.12 L212.95 1453.05 L198.876 1453.05 L198.876 1461.52 Q199.895 1461.18 200.913 1461.01 Q201.932 1460.83 202.95 1460.83 Q208.737 1460.83 212.117 1464 Q215.496 1467.17 215.496 1472.59 Q215.496 1478.17 212.024 1481.27 Q208.552 1484.35 202.233 1484.35 Q200.057 1484.35 197.788 1483.98 Q195.543 1483.61 193.135 1482.87 L193.135 1478.17 Q195.219 1479.3 197.441 1479.86 Q199.663 1480.41 202.14 1480.41 Q206.145 1480.41 208.482 1478.31 Q210.82 1476.2 210.82 1472.59 Q210.82 1468.98 208.482 1466.87 Q206.145 1464.76 202.14 1464.76 Q200.265 1464.76 198.39 1465.18 Q196.538 1465.6 194.594 1466.48 L194.594 1449.12 Z" fill="#000000" fill-rule="nonzero" fill-opacity="1" /><path clip-path="url(#clip340)" d="M128.159 1184.47 Q124.548 1184.47 122.719 1188.04 Q120.913 1191.58 120.913 1198.71 Q120.913 1205.82 122.719 1209.38 Q124.548 1212.92 128.159 1212.92 Q131.793 1212.92 133.599 1209.38 Q135.427 1205.82 135.427 1198.71 Q135.427 1191.58 133.599 1188.04 Q131.793 1184.47 128.159 1184.47 M128.159 1180.77 Q133.969 1180.77 137.025 1185.38 Q140.103 1189.96 140.103 1198.71 Q140.103 1207.44 137.025 1212.04 Q133.969 1216.63 128.159 1216.63 Q122.349 1216.63 119.27 1212.04 Q116.214 1207.44 116.214 1198.71 Q116.214 1189.96 119.27 1185.38 Q122.349 1180.77 128.159 1180.77 Z" fill="#000000" fill-rule="nonzero" fill-opacity="1" /><path clip-path="url(#clip340)" d="M148.321 1210.08 L153.205 1210.08 L153.205 1215.96 L148.321 1215.96 L148.321 1210.08 Z" fill="#000000" fill-rule="nonzero" fill-opacity="1" /><path clip-path="url(#clip340)" d="M164.2 1212.02 L171.839 1212.02 L171.839 1185.65 L163.529 1187.32 L163.529 1183.06 L171.793 1181.4 L176.469 1181.4 L176.469 1212.02 L184.108 1212.02 L184.108 1215.96 L164.2 1215.96 L164.2 1212.02 Z" fill="#000000" fill-rule="nonzero" fill-opacity="1" /><path clip-path="url(#clip340)" d="M203.552 1184.47 Q199.941 1184.47 198.112 1188.04 Q196.307 1191.58 196.307 1198.71 Q196.307 1205.82 198.112 1209.38 Q199.941 1212.92 203.552 1212.92 Q207.186 1212.92 208.992 1209.38 Q210.82 1205.82 210.82 1198.71 Q210.82 1191.58 208.992 1188.04 Q207.186 1184.47 203.552 1184.47 M203.552 1180.77 Q209.362 1180.77 212.418 1185.38 Q215.496 1189.96 215.496 1198.71 Q215.496 1207.44 212.418 1212.04 Q209.362 1216.63 203.552 1216.63 Q197.742 1216.63 194.663 1212.04 Q191.608 1207.44 191.608 1198.71 Q191.608 1189.96 194.663 1185.38 Q197.742 1180.77 203.552 1180.77 Z" fill="#000000" fill-rule="nonzero" fill-opacity="1" /><path clip-path="url(#clip340)" d="M129.154 916.753 Q125.543 916.753 123.714 920.318 Q121.909 923.86 121.909 930.989 Q121.909 938.096 123.714 941.661 Q125.543 945.202 129.154 945.202 Q132.788 945.202 134.594 941.661 Q136.423 938.096 136.423 930.989 Q136.423 923.86 134.594 920.318 Q132.788 916.753 129.154 916.753 M129.154 913.05 Q134.964 913.05 138.02 917.656 Q141.099 922.239 141.099 930.989 Q141.099 939.716 138.02 944.323 Q134.964 948.906 129.154 948.906 Q123.344 948.906 120.265 944.323 Q117.21 939.716 117.21 930.989 Q117.21 922.239 120.265 917.656 Q123.344 913.05 129.154 913.05 Z" fill="#000000" fill-rule="nonzero" fill-opacity="1" /><path clip-path="url(#clip340)" d="M149.316 942.355 L154.2 942.355 L154.2 948.235 L149.316 948.235 L149.316 942.355 Z" fill="#000000" fill-rule="nonzero" fill-opacity="1" /><path clip-path="url(#clip340)" d="M165.196 944.299 L172.835 944.299 L172.835 917.934 L164.524 919.6 L164.524 915.341 L172.788 913.675 L177.464 913.675 L177.464 944.299 L185.103 944.299 L185.103 948.235 L165.196 948.235 L165.196 944.299 Z" fill="#000000" fill-rule="nonzero" fill-opacity="1" /><path clip-path="url(#clip340)" d="M194.594 913.675 L212.95 913.675 L212.95 917.61 L198.876 917.61 L198.876 926.082 Q199.895 925.735 200.913 925.573 Q201.932 925.387 202.95 925.387 Q208.737 925.387 212.117 928.559 Q215.496 931.73 215.496 937.147 Q215.496 942.725 212.024 945.827 Q208.552 948.906 202.233 948.906 Q200.057 948.906 197.788 948.535 Q195.543 948.165 193.135 947.424 L193.135 942.725 Q195.219 943.86 197.441 944.415 Q199.663 944.971 202.14 944.971 Q206.145 944.971 208.482 942.864 Q210.82 940.758 210.82 937.147 Q210.82 933.536 208.482 931.429 Q206.145 929.323 202.14 929.323 Q200.265 929.323 198.39 929.739 Q196.538 930.156 194.594 931.036 L194.594 913.675 Z" fill="#000000" fill-rule="nonzero" fill-opacity="1" /><path clip-path="url(#clip340)" d="M128.159 649.032 Q124.548 649.032 122.719 652.597 Q120.913 656.139 120.913 663.268 Q120.913 670.375 122.719 673.94 Q124.548 677.481 128.159 677.481 Q131.793 677.481 133.599 673.94 Q135.427 670.375 135.427 663.268 Q135.427 656.139 133.599 652.597 Q131.793 649.032 128.159 649.032 M128.159 645.329 Q133.969 645.329 137.025 649.935 Q140.103 654.519 140.103 663.268 Q140.103 671.995 137.025 676.602 Q133.969 681.185 128.159 681.185 Q122.349 681.185 119.27 676.602 Q116.214 671.995 116.214 663.268 Q116.214 654.519 119.27 649.935 Q122.349 645.329 128.159 645.329 Z" fill="#000000" fill-rule="nonzero" fill-opacity="1" /><path clip-path="url(#clip340)" d="M148.321 674.634 L153.205 674.634 L153.205 680.514 L148.321 680.514 L148.321 674.634 Z" fill="#000000" fill-rule="nonzero" fill-opacity="1" /><path clip-path="url(#clip340)" d="M167.418 676.579 L183.737 676.579 L183.737 680.514 L161.793 680.514 L161.793 676.579 Q164.455 673.824 169.038 669.194 Q173.645 664.542 174.825 663.199 Q177.071 660.676 177.95 658.94 Q178.853 657.181 178.853 655.491 Q178.853 652.736 176.909 651 Q174.987 649.264 171.885 649.264 Q169.686 649.264 167.233 650.028 Q164.802 650.792 162.024 652.343 L162.024 647.62 Q164.848 646.486 167.302 645.907 Q169.756 645.329 171.793 645.329 Q177.163 645.329 180.358 648.014 Q183.552 650.699 183.552 655.19 Q183.552 657.319 182.742 659.241 Q181.955 661.139 179.848 663.731 Q179.27 664.403 176.168 667.62 Q173.066 670.815 167.418 676.579 Z" fill="#000000" fill-rule="nonzero" fill-opacity="1" /><path clip-path="url(#clip340)" d="M203.552 649.032 Q199.941 649.032 198.112 652.597 Q196.307 656.139 196.307 663.268 Q196.307 670.375 198.112 673.94 Q199.941 677.481 203.552 677.481 Q207.186 677.481 208.992 673.94 Q210.82 670.375 210.82 663.268 Q210.82 656.139 208.992 652.597 Q207.186 649.032 203.552 649.032 M203.552 645.329 Q209.362 645.329 212.418 649.935 Q215.496 654.519 215.496 663.268 Q215.496 671.995 212.418 676.602 Q209.362 681.185 203.552 681.185 Q197.742 681.185 194.663 676.602 Q191.608 671.995 191.608 663.268 Q191.608 654.519 194.663 649.935 Q197.742 645.329 203.552 645.329 Z" fill="#000000" fill-rule="nonzero" fill-opacity="1" /><path clip-path="url(#clip340)" d="M129.154 381.312 Q125.543 381.312 123.714 384.876 Q121.909 388.418 121.909 395.548 Q121.909 402.654 123.714 406.219 Q125.543 409.761 129.154 409.761 Q132.788 409.761 134.594 406.219 Q136.423 402.654 136.423 395.548 Q136.423 388.418 134.594 384.876 Q132.788 381.312 129.154 381.312 M129.154 377.608 Q134.964 377.608 138.02 382.214 Q141.099 386.798 141.099 395.548 Q141.099 404.274 138.02 408.881 Q134.964 413.464 129.154 413.464 Q123.344 413.464 120.265 408.881 Q117.21 404.274 117.21 395.548 Q117.21 386.798 120.265 382.214 Q123.344 377.608 129.154 377.608 Z" fill="#000000" fill-rule="nonzero" fill-opacity="1" /><path clip-path="url(#clip340)" d="M149.316 406.913 L154.2 406.913 L154.2 412.793 L149.316 412.793 L149.316 406.913 Z" fill="#000000" fill-rule="nonzero" fill-opacity="1" /><path clip-path="url(#clip340)" d="M168.413 408.858 L184.733 408.858 L184.733 412.793 L162.788 412.793 L162.788 408.858 Q165.45 406.103 170.034 401.474 Q174.64 396.821 175.821 395.478 Q178.066 392.955 178.946 391.219 Q179.848 389.46 179.848 387.77 Q179.848 385.015 177.904 383.279 Q175.983 381.543 172.881 381.543 Q170.682 381.543 168.228 382.307 Q165.798 383.071 163.02 384.622 L163.02 379.9 Q165.844 378.765 168.297 378.187 Q170.751 377.608 172.788 377.608 Q178.159 377.608 181.353 380.293 Q184.547 382.978 184.547 387.469 Q184.547 389.599 183.737 391.52 Q182.95 393.418 180.844 396.011 Q180.265 396.682 177.163 399.899 Q174.061 403.094 168.413 408.858 Z" fill="#000000" fill-rule="nonzero" fill-opacity="1" /><path clip-path="url(#clip340)" d="M194.594 378.233 L212.95 378.233 L212.95 382.168 L198.876 382.168 L198.876 390.64 Q199.895 390.293 200.913 390.131 Q201.932 389.946 202.95 389.946 Q208.737 389.946 212.117 393.117 Q215.496 396.288 215.496 401.705 Q215.496 407.284 212.024 410.386 Q208.552 413.464 202.233 413.464 Q200.057 413.464 197.788 413.094 Q195.543 412.723 193.135 411.983 L193.135 407.284 Q195.219 408.418 197.441 408.974 Q199.663 409.529 202.14 409.529 Q206.145 409.529 208.482 407.423 Q210.82 405.316 210.82 401.705 Q210.82 398.094 208.482 395.987 Q206.145 393.881 202.14 393.881 Q200.265 393.881 198.39 394.298 Q196.538 394.714 194.594 395.594 L194.594 378.233 Z" fill="#000000" fill-rule="nonzero" fill-opacity="1" /><path clip-path="url(#clip340)" d="M14.1184 1277.54 L14.1184 1267.96 L46.4562 1255.83 L14.1184 1243.64 L14.1184 1234.06 L61.6384 1234.06 L61.6384 1240.33 L19.9112 1240.33 L52.5037 1252.58 L52.5037 1259.04 L19.9112 1271.3 L61.6384 1271.3 L61.6384 1277.54 L14.1184 1277.54 Z" fill="#000000" fill-rule="nonzero" fill-opacity="1" /><path clip-path="url(#clip340)" d="M42.3504 1191.06 L45.2149 1191.06 L45.2149 1217.98 Q51.2623 1217.6 54.4452 1214.36 Q57.5962 1211.08 57.5962 1205.25 Q57.5962 1201.88 56.7687 1198.73 Q55.9411 1195.55 54.2861 1192.43 L59.8242 1192.43 Q61.161 1195.58 61.8612 1198.89 Q62.5615 1202.2 62.5615 1205.6 Q62.5615 1214.13 57.5962 1219.13 Q52.631 1224.1 44.1646 1224.1 Q35.4117 1224.1 30.2873 1219.38 Q25.1311 1214.64 25.1311 1206.62 Q25.1311 1199.43 29.7781 1195.26 Q34.3932 1191.06 42.3504 1191.06 M40.6316 1196.91 Q35.8255 1196.98 32.9609 1199.62 Q30.0964 1202.23 30.0964 1206.56 Q30.0964 1211.46 32.8654 1214.42 Q35.6345 1217.35 40.6634 1217.79 L40.6316 1196.91 Z" fill="#000000" fill-rule="nonzero" fill-opacity="1" /><path clip-path="url(#clip340)" d="M43.719 1165.24 Q43.719 1172.34 45.3422 1175.08 Q46.9655 1177.82 50.8804 1177.82 Q53.9996 1177.82 55.8457 1175.78 Q57.6599 1173.71 57.6599 1170.18 Q57.6599 1165.31 54.2224 1162.38 Q50.7531 1159.42 45.0239 1159.42 L43.719 1159.42 L43.719 1165.24 M41.3 1153.56 L61.6384 1153.56 L61.6384 1159.42 L56.2276 1159.42 Q59.4741 1161.42 61.0337 1164.42 Q62.5615 1167.41 62.5615 1171.74 Q62.5615 1177.21 59.5059 1180.46 Q56.4186 1183.67 51.2623 1183.67 Q45.2467 1183.67 42.1912 1179.66 Q39.1357 1175.62 39.1357 1167.63 L39.1357 1159.42 L38.5628 1159.42 Q34.5205 1159.42 32.3244 1162.09 Q30.0964 1164.74 30.0964 1169.54 Q30.0964 1172.6 30.8284 1175.49 Q31.5605 1178.39 33.0246 1181.06 L27.6137 1181.06 Q26.3724 1177.85 25.7677 1174.82 Q25.1311 1171.8 25.1311 1168.94 Q25.1311 1161.2 29.1415 1157.38 Q33.1519 1153.56 41.3 1153.56 Z" fill="#000000" fill-rule="nonzero" fill-opacity="1" /><path clip-path="url(#clip340)" d="M40.1224 1111.87 L61.6384 1111.87 L61.6384 1117.72 L40.3133 1117.72 Q35.2526 1117.72 32.7381 1119.7 Q30.2237 1121.67 30.2237 1125.62 Q30.2237 1130.36 33.2474 1133.1 Q36.2711 1135.83 41.491 1135.83 L61.6384 1135.83 L61.6384 1141.72 L25.9905 1141.72 L25.9905 1135.83 L31.5287 1135.83 Q28.314 1133.73 26.7225 1130.9 Q25.1311 1128.04 25.1311 1124.31 Q25.1311 1118.17 28.9505 1115.02 Q32.7381 1111.87 40.1224 1111.87 Z" fill="#000000" fill-rule="nonzero" fill-opacity="1" /><path clip-path="url(#clip340)" d="M31.4013 1056.01 L12.1132 1056.01 L12.1132 1050.15 L61.6384 1050.15 L61.6384 1056.01 L56.2912 1056.01 Q59.4741 1057.85 61.0337 1060.69 Q62.5615 1063.49 62.5615 1067.44 Q62.5615 1073.9 57.4052 1077.97 Q52.249 1082.01 43.8463 1082.01 Q35.4436 1082.01 30.2873 1077.97 Q25.1311 1073.9 25.1311 1067.44 Q25.1311 1063.49 26.6907 1060.69 Q28.2185 1057.85 31.4013 1056.01 M43.8463 1075.97 Q50.3075 1075.97 53.9996 1073.32 Q57.6599 1070.65 57.6599 1066 Q57.6599 1061.36 53.9996 1058.68 Q50.3075 1056.01 43.8463 1056.01 Q37.3851 1056.01 33.7248 1058.68 Q30.0327 1061.36 30.0327 1066 Q30.0327 1070.65 33.7248 1073.32 Q37.3851 1075.97 43.8463 1075.97 Z" fill="#000000" fill-rule="nonzero" fill-opacity="1" /><path clip-path="url(#clip340)" d="M25.9905 1038.09 L25.9905 1032.23 L61.6384 1032.23 L61.6384 1038.09 L25.9905 1038.09 M12.1132 1038.09 L12.1132 1032.23 L19.5293 1032.23 L19.5293 1038.09 L12.1132 1038.09 Z" fill="#000000" fill-rule="nonzero" fill-opacity="1" /><path clip-path="url(#clip340)" d="M27.0408 997.253 L32.579 997.253 Q31.3059 999.736 30.6693 1002.41 Q30.0327 1005.08 30.0327 1007.95 Q30.0327 1012.31 31.3695 1014.5 Q32.7063 1016.67 35.3799 1016.67 Q37.4169 1016.67 38.5946 1015.11 Q39.7404 1013.55 40.7908 1008.84 L41.2364 1006.83 Q42.5732 1000.6 45.0239 997.985 Q47.4429 995.344 51.8034 995.344 Q56.7687 995.344 59.6651 999.29 Q62.5615 1003.21 62.5615 1010.08 Q62.5615 1012.94 61.9886 1016.06 Q61.4475 1019.15 60.3335 1022.59 L54.2861 1022.59 Q55.973 1019.34 56.8323 1016.19 Q57.6599 1013.04 57.6599 1009.95 Q57.6599 1005.82 56.2594 1003.59 Q54.8271 1001.36 52.249 1001.36 Q49.8619 1001.36 48.5887 1002.98 Q47.3156 1004.57 46.1379 1010.02 L45.6605 1012.05 Q44.5147 1017.5 42.1594 1019.92 Q39.7722 1022.33 35.6345 1022.33 Q30.6056 1022.33 27.8684 1018.77 Q25.1311 1015.2 25.1311 1008.65 Q25.1311 1005.4 25.6085 1002.54 Q26.086 999.672 27.0408 997.253 Z" fill="#000000" fill-rule="nonzero" fill-opacity="1" /><path clip-path="url(#clip340)" d="M27.3591 960.364 L32.8336 960.364 Q31.465 962.847 30.7966 965.361 Q30.0964 967.844 30.0964 970.39 Q30.0964 976.087 33.7248 979.238 Q37.3214 982.389 43.8463 982.389 Q50.3711 982.389 53.9996 979.238 Q57.5962 976.087 57.5962 970.39 Q57.5962 967.844 56.9278 965.361 Q56.2276 962.847 54.859 960.364 L60.2698 960.364 Q61.4156 962.815 61.9886 965.457 Q62.5615 968.067 62.5615 971.027 Q62.5615 979.079 57.5007 983.822 Q52.44 988.564 43.8463 988.564 Q35.1253 988.564 30.1282 983.79 Q25.1311 978.984 25.1311 970.645 Q25.1311 967.939 25.704 965.361 Q26.2451 962.783 27.3591 960.364 Z" fill="#000000" fill-rule="nonzero" fill-opacity="1" /><path clip-path="url(#clip340)" d="M30.0964 936.365 Q30.0964 941.076 33.7885 943.813 Q37.4488 946.551 43.8463 946.551 Q50.2438 946.551 53.9359 943.845 Q57.5962 941.108 57.5962 936.365 Q57.5962 931.687 53.9041 928.949 Q50.212 926.212 43.8463 926.212 Q37.5124 926.212 33.8203 928.949 Q30.0964 931.687 30.0964 936.365 M25.1311 936.365 Q25.1311 928.727 30.0964 924.366 Q35.0616 920.006 43.8463 920.006 Q52.5991 920.006 57.5962 924.366 Q62.5615 928.727 62.5615 936.365 Q62.5615 944.036 57.5962 948.397 Q52.5991 952.725 43.8463 952.725 Q35.0616 952.725 30.0964 948.397 Q25.1311 944.036 25.1311 936.365 Z" fill="#000000" fill-rule="nonzero" fill-opacity="1" /><path clip-path="url(#clip340)" d="M47.5702 910.903 L25.9905 910.903 L25.9905 905.046 L47.3474 905.046 Q52.4082 905.046 54.9545 903.073 Q57.4689 901.099 57.4689 897.153 Q57.4689 892.41 54.4452 889.673 Q51.4215 886.904 46.2016 886.904 L25.9905 886.904 L25.9905 881.047 L61.6384 881.047 L61.6384 886.904 L56.1639 886.904 Q59.4104 889.036 61.0019 891.869 Q62.5615 894.67 62.5615 898.394 Q62.5615 904.537 58.742 907.72 Q54.9226 910.903 47.5702 910.903 M25.1311 896.166 L25.1311 896.166 Z" fill="#000000" fill-rule="nonzero" fill-opacity="1" /><path clip-path="url(#clip340)" d="M40.1224 839.352 L61.6384 839.352 L61.6384 845.208 L40.3133 845.208 Q35.2526 845.208 32.7381 847.182 Q30.2237 849.155 30.2237 853.102 Q30.2237 857.844 33.2474 860.582 Q36.2711 863.319 41.491 863.319 L61.6384 863.319 L61.6384 869.207 L25.9905 869.207 L25.9905 863.319 L31.5287 863.319 Q28.314 861.218 26.7225 858.386 Q25.1311 855.521 25.1311 851.797 Q25.1311 845.654 28.9505 842.503 Q32.7381 839.352 40.1224 839.352 Z" fill="#000000" fill-rule="nonzero" fill-opacity="1" /><path clip-path="url(#clip340)" d="M15.869 821.878 L25.9905 821.878 L25.9905 809.815 L30.542 809.815 L30.542 821.878 L49.8937 821.878 Q54.2542 821.878 55.4955 820.701 Q56.7368 819.491 56.7368 815.831 L56.7368 809.815 L61.6384 809.815 L61.6384 815.831 Q61.6384 822.61 59.124 825.188 Q56.5777 827.766 49.8937 827.766 L30.542 827.766 L30.542 832.063 L25.9905 832.063 L25.9905 827.766 L15.869 827.766 L15.869 821.878 Z" fill="#000000" fill-rule="nonzero" fill-opacity="1" /><path clip-path="url(#clip340)" d="M30.0964 767.579 Q30.0964 772.289 33.7885 775.027 Q37.4488 777.764 43.8463 777.764 Q50.2438 777.764 53.9359 775.058 Q57.5962 772.321 57.5962 767.579 Q57.5962 762.9 53.9041 760.163 Q50.212 757.425 43.8463 757.425 Q37.5124 757.425 33.8203 760.163 Q30.0964 762.9 30.0964 767.579 M25.1311 767.579 Q25.1311 759.94 30.0964 755.579 Q35.0616 751.219 43.8463 751.219 Q52.5991 751.219 57.5962 755.579 Q62.5615 759.94 62.5615 767.579 Q62.5615 775.249 57.5962 779.61 Q52.5991 783.939 43.8463 783.939 Q35.0616 783.939 30.0964 779.61 Q25.1311 775.249 25.1311 767.579 Z" fill="#000000" fill-rule="nonzero" fill-opacity="1" /><path clip-path="url(#clip340)" d="M25.9905 745.712 L25.9905 739.506 L55.9093 728.366 L25.9905 717.226 L25.9905 711.019 L61.6384 724.387 L61.6384 732.345 L25.9905 745.712 Z" fill="#000000" fill-rule="nonzero" fill-opacity="1" /><path clip-path="url(#clip340)" d="M42.3504 672.443 L45.2149 672.443 L45.2149 699.37 Q51.2623 698.988 54.4452 695.742 Q57.5962 692.463 57.5962 686.639 Q57.5962 683.265 56.7687 680.114 Q55.9411 676.931 54.2861 673.812 L59.8242 673.812 Q61.161 676.963 61.8612 680.273 Q62.5615 683.583 62.5615 686.989 Q62.5615 695.519 57.5962 700.516 Q52.631 705.481 44.1646 705.481 Q35.4117 705.481 30.2873 700.771 Q25.1311 696.028 25.1311 688.007 Q25.1311 680.814 29.7781 676.645 Q34.3932 672.443 42.3504 672.443 M40.6316 678.3 Q35.8255 678.363 32.9609 681.005 Q30.0964 683.615 30.0964 687.944 Q30.0964 692.845 32.8654 695.805 Q35.6345 698.734 40.6634 699.179 L40.6316 678.3 Z" fill="#000000" fill-rule="nonzero" fill-opacity="1" /><path clip-path="url(#clip340)" d="M31.465 642.174 Q30.8921 643.161 30.6375 644.339 Q30.351 645.484 30.351 646.885 Q30.351 651.85 33.5975 654.524 Q36.8122 657.166 42.8596 657.166 L61.6384 657.166 L61.6384 663.054 L25.9905 663.054 L25.9905 657.166 L31.5287 657.166 Q28.2821 655.319 26.7225 652.359 Q25.1311 649.399 25.1311 645.166 Q25.1311 644.561 25.2266 643.829 Q25.2903 643.097 25.4494 642.206 L31.465 642.174 Z" fill="#000000" fill-rule="nonzero" fill-opacity="1" /><path clip-path="url(#clip340)" d="M19.402 608.627 L37.2578 608.627 L37.2578 600.543 Q37.2578 596.055 34.9343 593.604 Q32.6108 591.153 28.314 591.153 Q24.0489 591.153 21.7255 593.604 Q19.402 596.055 19.402 600.543 L19.402 608.627 M14.1184 615.056 L14.1184 600.543 Q14.1184 592.554 17.7469 588.48 Q21.3435 584.374 28.314 584.374 Q35.3481 584.374 38.9447 588.48 Q42.5413 592.554 42.5413 600.543 L42.5413 608.627 L61.6384 608.627 L61.6384 615.056 L14.1184 615.056 Z" fill="#000000" fill-rule="nonzero" fill-opacity="1" /><path clip-path="url(#clip340)" d="M843.122 20.1573 L832.022 50.2555 L854.262 50.2555 L843.122 20.1573 M838.503 12.096 L847.78 12.096 L870.83 72.576 L862.323 72.576 L856.814 57.061 L829.551 57.061 L824.042 72.576 L815.413 72.576 L838.503 12.096 Z" fill="#000000" fill-rule="nonzero" fill-opacity="1" /><path clip-path="url(#clip340)" d="M911.906 49.9314 Q911.906 41.7081 908.503 37.0496 Q905.141 32.3505 899.227 32.3505 Q893.312 32.3505 889.909 37.0496 Q886.547 41.7081 886.547 49.9314 Q886.547 58.1548 889.909 62.8538 Q893.312 67.5124 899.227 67.5124 Q905.141 67.5124 908.503 62.8538 Q911.906 58.1548 911.906 49.9314 M886.547 34.0924 Q888.897 30.0415 892.462 28.0971 Q896.067 26.1121 901.049 26.1121 Q909.313 26.1121 914.458 32.6746 Q919.643 39.2371 919.643 49.9314 Q919.643 60.6258 914.458 67.1883 Q909.313 73.7508 901.049 73.7508 Q896.067 73.7508 892.462 71.8063 Q888.897 69.8214 886.547 65.7705 L886.547 72.576 L879.053 72.576 L879.053 9.54393 L886.547 9.54393 L886.547 34.0924 Z" fill="#000000" fill-rule="nonzero" fill-opacity="1" /><path clip-path="url(#clip340)" d="M949.579 32.4315 Q943.584 32.4315 940.1 37.1306 Q936.616 41.7891 936.616 49.9314 Q936.616 58.0738 940.06 62.7728 Q943.543 67.4314 949.579 67.4314 Q955.534 67.4314 959.018 62.7323 Q962.502 58.0333 962.502 49.9314 Q962.502 41.8701 959.018 37.1711 Q955.534 32.4315 949.579 32.4315 M949.579 26.1121 Q959.301 26.1121 964.851 32.4315 Q970.401 38.7509 970.401 49.9314 Q970.401 61.0714 964.851 67.4314 Q959.301 73.7508 949.579 73.7508 Q939.817 73.7508 934.267 67.4314 Q928.758 61.0714 928.758 49.9314 Q928.758 38.7509 934.267 32.4315 Q939.817 26.1121 949.579 26.1121 Z" fill="#000000" fill-rule="nonzero" fill-opacity="1" /><path clip-path="url(#clip340)" d="M977.409 27.2059 L985.308 27.2059 L999.486 65.2844 L1013.66 27.2059 L1021.56 27.2059 L1004.55 72.576 L994.423 72.576 L977.409 27.2059 Z" fill="#000000" fill-rule="nonzero" fill-opacity="1" /><path clip-path="url(#clip340)" d="M1070.66 48.0275 L1070.66 51.6733 L1036.39 51.6733 Q1036.88 59.3701 1041.01 63.421 Q1045.18 67.4314 1052.59 67.4314 Q1056.89 67.4314 1060.9 66.3781 Q1064.95 65.3249 1068.92 63.2184 L1068.92 70.267 Q1064.91 71.9684 1060.7 72.8596 Q1056.48 73.7508 1052.15 73.7508 Q1041.29 73.7508 1034.93 67.4314 Q1028.61 61.1119 1028.61 50.3365 Q1028.61 39.1965 1034.61 32.6746 Q1040.64 26.1121 1050.85 26.1121 Q1060.01 26.1121 1065.31 32.0264 Q1070.66 37.9003 1070.66 48.0275 M1063.21 45.84 Q1063.13 39.7232 1059.76 36.0774 Q1056.44 32.4315 1050.93 32.4315 Q1044.69 32.4315 1040.93 35.9558 Q1037.2 39.4801 1036.63 45.8805 L1063.21 45.84 Z" fill="#000000" fill-rule="nonzero" fill-opacity="1" /><path clip-path="url(#clip340)" d="M1084.8 62.2867 L1093.35 62.2867 L1093.35 69.2543 L1086.7 82.2172 L1081.48 82.2172 L1084.8 69.2543 L1084.8 62.2867 Z" fill="#000000" fill-rule="nonzero" fill-opacity="1" /><path clip-path="url(#clip340)" d="M1168.21 49.9314 Q1168.21 41.7081 1164.8 37.0496 Q1161.44 32.3505 1155.53 32.3505 Q1149.61 32.3505 1146.21 37.0496 Q1142.85 41.7081 1142.85 49.9314 Q1142.85 58.1548 1146.21 62.8538 Q1149.61 67.5124 1155.53 67.5124 Q1161.44 67.5124 1164.8 62.8538 Q1168.21 58.1548 1168.21 49.9314 M1142.85 34.0924 Q1145.2 30.0415 1148.76 28.0971 Q1152.37 26.1121 1157.35 26.1121 Q1165.61 26.1121 1170.76 32.6746 Q1175.94 39.2371 1175.94 49.9314 Q1175.94 60.6258 1170.76 67.1883 Q1165.61 73.7508 1157.35 73.7508 Q1152.37 73.7508 1148.76 71.8063 Q1145.2 69.8214 1142.85 65.7705 L1142.85 72.576 L1135.35 72.576 L1135.35 9.54393 L1142.85 9.54393 L1142.85 34.0924 Z" fill="#000000" fill-rule="nonzero" fill-opacity="1" /><path clip-path="url(#clip340)" d="M1187.53 54.671 L1187.53 27.2059 L1194.98 27.2059 L1194.98 54.3874 Q1194.98 60.8284 1197.49 64.0691 Q1200.01 67.2693 1205.03 67.2693 Q1211.07 67.2693 1214.55 63.421 Q1218.07 59.5726 1218.07 52.9291 L1218.07 27.2059 L1225.53 27.2059 L1225.53 72.576 L1218.07 72.576 L1218.07 65.6084 Q1215.36 69.7404 1211.75 71.7658 Q1208.19 73.7508 1203.45 73.7508 Q1195.63 73.7508 1191.58 68.8897 Q1187.53 64.0286 1187.53 54.671 M1206.29 26.1121 L1206.29 26.1121 Z" fill="#000000" fill-rule="nonzero" fill-opacity="1" /><path clip-path="url(#clip340)" d="M1248.25 14.324 L1248.25 27.2059 L1263.61 27.2059 L1263.61 32.9987 L1248.25 32.9987 L1248.25 57.6282 Q1248.25 63.1779 1249.75 64.7578 Q1251.29 66.3376 1255.95 66.3376 L1263.61 66.3376 L1263.61 72.576 L1255.95 72.576 Q1247.32 72.576 1244.04 69.3758 Q1240.76 66.1351 1240.76 57.6282 L1240.76 32.9987 L1235.29 32.9987 L1235.29 27.2059 L1240.76 27.2059 L1240.76 14.324 L1248.25 14.324 Z" fill="#000000" fill-rule="nonzero" fill-opacity="1" /><path clip-path="url(#clip340)" d="M1295.45 27.2059 L1302.9 27.2059 L1312.22 62.6108 L1321.49 27.2059 L1330.28 27.2059 L1339.6 62.6108 L1348.88 27.2059 L1356.33 27.2059 L1344.46 72.576 L1335.67 72.576 L1325.91 35.3887 L1316.11 72.576 L1307.31 72.576 L1295.45 27.2059 Z" fill="#000000" fill-rule="nonzero" fill-opacity="1" /><path clip-path="url(#clip340)" d="M1367.63 27.2059 L1375.09 27.2059 L1375.09 72.576 L1367.63 72.576 L1367.63 27.2059 M1367.63 9.54393 L1375.09 9.54393 L1375.09 18.9825 L1367.63 18.9825 L1367.63 9.54393 Z" fill="#000000" fill-rule="nonzero" fill-opacity="1" /><path clip-path="url(#clip340)" d="M1398.05 14.324 L1398.05 27.2059 L1413.41 27.2059 L1413.41 32.9987 L1398.05 32.9987 L1398.05 57.6282 Q1398.05 63.1779 1399.55 64.7578 Q1401.09 66.3376 1405.75 66.3376 L1413.41 66.3376 L1413.41 72.576 L1405.75 72.576 Q1397.12 72.576 1393.84 69.3758 Q1390.56 66.1351 1390.56 57.6282 L1390.56 32.9987 L1385.09 32.9987 L1385.09 27.2059 L1390.56 27.2059 L1390.56 14.324 L1398.05 14.324 Z" fill="#000000" fill-rule="nonzero" fill-opacity="1" /><path clip-path="url(#clip340)" d="M1460.92 45.1919 L1460.92 72.576 L1453.47 72.576 L1453.47 45.4349 Q1453.47 38.994 1450.96 35.7938 Q1448.45 32.5936 1443.43 32.5936 Q1437.39 32.5936 1433.91 36.4419 Q1430.42 40.2903 1430.42 46.9338 L1430.42 72.576 L1422.93 72.576 L1422.93 9.54393 L1430.42 9.54393 L1430.42 34.2544 Q1433.1 30.163 1436.7 28.1376 Q1440.35 26.1121 1445.09 26.1121 Q1452.9 26.1121 1456.91 30.9732 Q1460.92 35.7938 1460.92 45.1919 Z" fill="#000000" fill-rule="nonzero" fill-opacity="1" /><path clip-path="url(#clip340)" d="M1531.09 28.5427 L1531.09 35.5912 Q1527.93 33.9709 1524.52 33.1607 Q1521.12 32.3505 1517.48 32.3505 Q1511.93 32.3505 1509.13 34.0519 Q1506.38 35.7533 1506.38 39.156 Q1506.38 41.7486 1508.36 43.2475 Q1510.35 44.7058 1516.34 46.0426 L1518.89 46.6097 Q1526.83 48.3111 1530.15 51.4303 Q1533.52 54.509 1533.52 60.0587 Q1533.52 66.3781 1528.49 70.0644 Q1523.51 73.7508 1514.76 73.7508 Q1511.12 73.7508 1507.15 73.0216 Q1503.22 72.3329 1498.84 70.9151 L1498.84 63.2184 Q1502.97 65.3654 1506.98 66.4591 Q1510.99 67.5124 1514.92 67.5124 Q1520.19 67.5124 1523.03 65.73 Q1525.86 63.9071 1525.86 60.6258 Q1525.86 57.5877 1523.79 55.9673 Q1521.77 54.3469 1514.84 52.8481 L1512.25 52.2405 Q1505.32 50.7821 1502.24 47.7845 Q1499.17 44.7463 1499.17 39.4801 Q1499.17 33.0797 1503.7 29.5959 Q1508.24 26.1121 1516.58 26.1121 Q1520.72 26.1121 1524.36 26.7198 Q1528.01 27.3274 1531.09 28.5427 Z" fill="#000000" fill-rule="nonzero" fill-opacity="1" /><path clip-path="url(#clip340)" d="M1549.84 49.9314 Q1549.84 58.1548 1553.2 62.8538 Q1556.61 67.5124 1562.52 67.5124 Q1568.44 67.5124 1571.84 62.8538 Q1575.24 58.1548 1575.24 49.9314 Q1575.24 41.7081 1571.84 37.0496 Q1568.44 32.3505 1562.52 32.3505 Q1556.61 32.3505 1553.2 37.0496 Q1549.84 41.7081 1549.84 49.9314 M1575.24 65.7705 Q1572.89 69.8214 1569.29 71.8063 Q1565.72 73.7508 1560.7 73.7508 Q1552.48 73.7508 1547.29 67.1883 Q1542.15 60.6258 1542.15 49.9314 Q1542.15 39.2371 1547.29 32.6746 Q1552.48 26.1121 1560.7 26.1121 Q1565.72 26.1121 1569.29 28.0971 Q1572.89 30.0415 1575.24 34.0924 L1575.24 27.2059 L1582.7 27.2059 L1582.7 89.8329 L1575.24 89.8329 L1575.24 65.7705 Z" fill="#000000" fill-rule="nonzero" fill-opacity="1" /><path clip-path="url(#clip340)" d="M1624.34 34.1734 Q1623.08 33.4443 1621.58 33.1202 Q1620.13 32.7556 1618.34 32.7556 Q1612.02 32.7556 1608.62 36.8875 Q1605.26 40.9789 1605.26 48.6757 L1605.26 72.576 L1597.76 72.576 L1597.76 27.2059 L1605.26 27.2059 L1605.26 34.2544 Q1607.61 30.1225 1611.38 28.1376 Q1615.14 26.1121 1620.53 26.1121 Q1621.3 26.1121 1622.23 26.2337 Q1623.16 26.3147 1624.3 26.5172 L1624.34 34.1734 Z" fill="#000000" fill-rule="nonzero" fill-opacity="1" /><path clip-path="url(#clip340)" d="M1639.53 14.324 L1639.53 27.2059 L1654.88 27.2059 L1654.88 32.9987 L1639.53 32.9987 L1639.53 57.6282 Q1639.53 63.1779 1641.03 64.7578 Q1642.57 66.3376 1647.23 66.3376 L1654.88 66.3376 L1654.88 72.576 L1647.23 72.576 Q1638.6 72.576 1635.32 69.3758 Q1632.04 66.1351 1632.04 57.6282 L1632.04 32.9987 L1626.57 32.9987 L1626.57 27.2059 L1632.04 27.2059 L1632.04 14.324 L1639.53 14.324 Z" fill="#000000" fill-rule="nonzero" fill-opacity="1" /><path clip-path="url(#clip340)" d="M1682.59 9.62495 Q1677.16 18.942 1674.53 28.0566 Q1671.9 37.1711 1671.9 46.5287 Q1671.9 55.8863 1674.53 65.0818 Q1677.2 74.2369 1682.59 83.5134 L1676.11 83.5134 Q1670.03 73.9938 1666.99 64.7983 Q1664 55.6027 1664 46.5287 Q1664 37.4952 1666.99 28.3401 Q1669.99 19.1851 1676.11 9.62495 L1682.59 9.62495 Z" fill="#000000" fill-rule="nonzero" fill-opacity="1" /><path clip-path="url(#clip340)" d="M1725.98 28.5427 L1725.98 35.5912 Q1722.82 33.9709 1719.41 33.1607 Q1716.01 32.3505 1712.36 32.3505 Q1706.81 32.3505 1704.02 34.0519 Q1701.27 35.7533 1701.27 39.156 Q1701.27 41.7486 1703.25 43.2475 Q1705.23 44.7058 1711.23 46.0426 L1713.78 46.6097 Q1721.72 48.3111 1725.04 51.4303 Q1728.41 54.509 1728.41 60.0587 Q1728.41 66.3781 1723.38 70.0644 Q1718.4 73.7508 1709.65 73.7508 Q1706 73.7508 1702.03 73.0216 Q1698.11 72.3329 1693.73 70.9151 L1693.73 63.2184 Q1697.86 65.3654 1701.87 66.4591 Q1705.88 67.5124 1709.81 67.5124 Q1715.08 67.5124 1717.91 65.73 Q1720.75 63.9071 1720.75 60.6258 Q1720.75 57.5877 1718.68 55.9673 Q1716.66 54.3469 1709.73 52.8481 L1707.14 52.2405 Q1700.21 50.7821 1697.13 47.7845 Q1694.05 44.7463 1694.05 39.4801 Q1694.05 33.0797 1698.59 29.5959 Q1703.13 26.1121 1711.47 26.1121 Q1715.61 26.1121 1719.25 26.7198 Q1722.9 27.3274 1725.98 28.5427 Z" fill="#000000" fill-rule="nonzero" fill-opacity="1" /><path clip-path="url(#clip340)" d="M1747.65 14.324 L1747.65 27.2059 L1763 27.2059 L1763 32.9987 L1747.65 32.9987 L1747.65 57.6282 Q1747.65 63.1779 1749.15 64.7578 Q1750.69 66.3376 1755.34 66.3376 L1763 66.3376 L1763 72.576 L1755.34 72.576 Q1746.72 72.576 1743.43 69.3758 Q1740.15 66.1351 1740.15 57.6282 L1740.15 32.9987 L1734.69 32.9987 L1734.69 27.2059 L1740.15 27.2059 L1740.15 14.324 L1747.65 14.324 Z" fill="#000000" fill-rule="nonzero" fill-opacity="1" /><path clip-path="url(#clip340)" d="M1811.61 48.0275 L1811.61 51.6733 L1777.34 51.6733 Q1777.83 59.3701 1781.96 63.421 Q1786.13 67.4314 1793.54 67.4314 Q1797.84 67.4314 1801.85 66.3781 Q1805.9 65.3249 1809.87 63.2184 L1809.87 70.267 Q1805.86 71.9684 1801.65 72.8596 Q1797.43 73.7508 1793.1 73.7508 Q1782.24 73.7508 1775.88 67.4314 Q1769.56 61.1119 1769.56 50.3365 Q1769.56 39.1965 1775.56 32.6746 Q1781.59 26.1121 1791.8 26.1121 Q1800.96 26.1121 1806.26 32.0264 Q1811.61 37.9003 1811.61 48.0275 M1804.16 45.84 Q1804.08 39.7232 1800.71 36.0774 Q1797.39 32.4315 1791.88 32.4315 Q1785.65 32.4315 1781.88 35.9558 Q1778.15 39.4801 1777.58 45.8805 L1804.16 45.84 Z" fill="#000000" fill-rule="nonzero" fill-opacity="1" /><path clip-path="url(#clip340)" d="M1831.06 65.7705 L1831.06 89.8329 L1823.56 89.8329 L1823.56 27.2059 L1831.06 27.2059 L1831.06 34.0924 Q1833.41 30.0415 1836.97 28.0971 Q1840.58 26.1121 1845.56 26.1121 Q1853.82 26.1121 1858.97 32.6746 Q1864.15 39.2371 1864.15 49.9314 Q1864.15 60.6258 1858.97 67.1883 Q1853.82 73.7508 1845.56 73.7508 Q1840.58 73.7508 1836.97 71.8063 Q1833.41 69.8214 1831.06 65.7705 M1856.41 49.9314 Q1856.41 41.7081 1853.01 37.0496 Q1849.65 32.3505 1843.74 32.3505 Q1837.82 32.3505 1834.42 37.0496 Q1831.06 41.7081 1831.06 49.9314 Q1831.06 58.1548 1834.42 62.8538 Q1837.82 67.5124 1843.74 67.5124 Q1849.65 67.5124 1853.01 62.8538 Q1856.41 58.1548 1856.41 49.9314 Z" fill="#000000" fill-rule="nonzero" fill-opacity="1" /><path clip-path="url(#clip340)" d="M1931.8 28.5427 L1931.8 35.5912 Q1928.64 33.9709 1925.24 33.1607 Q1921.84 32.3505 1918.19 32.3505 Q1912.64 32.3505 1909.85 34.0519 Q1907.09 35.7533 1907.09 39.156 Q1907.09 41.7486 1909.08 43.2475 Q1911.06 44.7058 1917.06 46.0426 L1919.61 46.6097 Q1927.55 48.3111 1930.87 51.4303 Q1934.23 54.509 1934.23 60.0587 Q1934.23 66.3781 1929.21 70.0644 Q1924.23 73.7508 1915.48 73.7508 Q1911.83 73.7508 1907.86 73.0216 Q1903.93 72.3329 1899.56 70.9151 L1899.56 63.2184 Q1903.69 65.3654 1907.7 66.4591 Q1911.71 67.5124 1915.64 67.5124 Q1920.91 67.5124 1923.74 65.73 Q1926.58 63.9071 1926.58 60.6258 Q1926.58 57.5877 1924.51 55.9673 Q1922.48 54.3469 1915.56 52.8481 L1912.97 52.2405 Q1906.04 50.7821 1902.96 47.7845 Q1899.88 44.7463 1899.88 39.4801 Q1899.88 33.0797 1904.42 29.5959 Q1908.95 26.1121 1917.3 26.1121 Q1921.43 26.1121 1925.08 26.7198 Q1928.72 27.3274 1931.8 28.5427 Z" fill="#000000" fill-rule="nonzero" fill-opacity="1" /><path clip-path="url(#clip340)" d="M1946.1 27.2059 L1953.56 27.2059 L1953.56 72.576 L1946.1 72.576 L1946.1 27.2059 M1946.1 9.54393 L1953.56 9.54393 L1953.56 18.9825 L1946.1 18.9825 L1946.1 9.54393 Z" fill="#000000" fill-rule="nonzero" fill-opacity="1" /><path clip-path="url(#clip340)" d="M1965.91 27.2059 L2001.32 27.2059 L2001.32 34.0114 L1973.28 66.6212 L2001.32 66.6212 L2001.32 72.576 L1964.9 72.576 L1964.9 65.7705 L1992.93 33.1607 L1965.91 33.1607 L1965.91 27.2059 Z" fill="#000000" fill-rule="nonzero" fill-opacity="1" /><path clip-path="url(#clip340)" d="M2051.51 48.0275 L2051.51 51.6733 L2017.24 51.6733 Q2017.72 59.3701 2021.85 63.421 Q2026.03 67.4314 2033.44 67.4314 Q2037.73 67.4314 2041.74 66.3781 Q2045.79 65.3249 2049.76 63.2184 L2049.76 70.267 Q2045.75 71.9684 2041.54 72.8596 Q2037.33 73.7508 2032.99 73.7508 Q2022.14 73.7508 2015.78 67.4314 Q2009.46 61.1119 2009.46 50.3365 Q2009.46 39.1965 2015.45 32.6746 Q2021.49 26.1121 2031.7 26.1121 Q2040.85 26.1121 2046.16 32.0264 Q2051.51 37.9003 2051.51 48.0275 M2044.05 45.84 Q2043.97 39.7232 2040.61 36.0774 Q2037.29 32.4315 2031.78 32.4315 Q2025.54 32.4315 2021.77 35.9558 Q2018.05 39.4801 2017.48 45.8805 L2044.05 45.84 Z" fill="#000000" fill-rule="nonzero" fill-opacity="1" /><path clip-path="url(#clip340)" d="M2062.57 9.62495 L2069.05 9.62495 Q2075.12 19.1851 2078.12 28.3401 Q2081.16 37.4952 2081.16 46.5287 Q2081.16 55.6027 2078.12 64.7983 Q2075.12 73.9938 2069.05 83.5134 L2062.57 83.5134 Q2067.95 74.2369 2070.59 65.0818 Q2073.26 55.8863 2073.26 46.5287 Q2073.26 37.1711 2070.59 28.0566 Q2067.95 18.942 2062.57 9.62495 Z" fill="#000000" fill-rule="nonzero" fill-opacity="1" /><polyline clip-path="url(#clip342)" style="stroke:#009af9; stroke-linecap:round; stroke-linejoin:round; stroke-width:4; stroke-opacity:1; fill:none" points="323.315,1363.05 556.304,1209.83 735.083,1095.38 885.8,1012.56 1018.59,939.619 1138.63,880.128 1249.03,819.259 1351.78,769.999 1448.29,728.194 1539.56,688.635 1626.38,646.618 1709.34,610.916 1788.9,580.118 1865.46,550.397 1939.33,523.033 2010.77,503.075 2080.02,466.988 2147.25,449.245 2212.65,427.262 2276.34,407.148 2338.46,390.916 2399.12,366.23 2458.42,354.389 2516.44,331.312 2573.26,314.548 "/>
<path clip-path="url(#clip340)" d="M335.314 285.016 L958.042 285.016 L958.042 181.336 L335.314 181.336  Z" fill="#ffffff" fill-rule="evenodd" fill-opacity="1"/>
<polyline clip-path="url(#clip340)" style="stroke:#000000; stroke-linecap:round; stroke-linejoin:round; stroke-width:4; stroke-opacity:1; fill:none" points="335.314,285.016 958.042,285.016 958.042,181.336 335.314,181.336 335.314,285.016 "/>
<polyline clip-path="url(#clip340)" style="stroke:#009af9; stroke-linecap:round; stroke-linejoin:round; stroke-width:4; stroke-opacity:1; fill:none" points="361.814,233.176 520.81,233.176 "/>
<path clip-path="url(#clip340)" d="M547.309 215.896 L554.276 215.896 L563.096 239.415 L571.962 215.896 L578.929 215.896 L578.929 250.456 L574.369 250.456 L574.369 220.109 L565.457 243.813 L560.758 243.813 L551.846 220.109 L551.846 250.456 L547.309 250.456 L547.309 215.896 Z" fill="#000000" fill-rule="nonzero" fill-opacity="1" /><path clip-path="url(#clip340)" d="M610.202 236.429 L610.202 238.512 L590.619 238.512 Q590.897 242.91 593.258 245.225 Q595.642 247.516 599.878 247.516 Q602.332 247.516 604.623 246.915 Q606.938 246.313 609.207 245.109 L609.207 249.137 Q606.915 250.109 604.508 250.618 Q602.1 251.128 599.623 251.128 Q593.42 251.128 589.786 247.516 Q586.174 243.905 586.174 237.748 Q586.174 231.382 589.6 227.655 Q593.049 223.906 598.883 223.906 Q604.114 223.906 607.147 227.285 Q610.202 230.642 610.202 236.429 M605.943 235.179 Q605.897 231.683 603.975 229.6 Q602.077 227.517 598.929 227.517 Q595.364 227.517 593.211 229.53 Q591.082 231.544 590.758 235.202 L605.943 235.179 Z" fill="#000000" fill-rule="nonzero" fill-opacity="1" /><path clip-path="url(#clip340)" d="M628.975 237.424 Q623.813 237.424 621.822 238.604 Q619.832 239.785 619.832 242.632 Q619.832 244.901 621.313 246.243 Q622.818 247.563 625.387 247.563 Q628.929 247.563 631.058 245.063 Q633.211 242.54 633.211 238.373 L633.211 237.424 L628.975 237.424 M637.47 235.665 L637.47 250.456 L633.211 250.456 L633.211 246.521 Q631.753 248.882 629.577 250.016 Q627.401 251.128 624.253 251.128 Q620.272 251.128 617.91 248.905 Q615.572 246.66 615.572 242.91 Q615.572 238.535 618.489 236.313 Q621.429 234.091 627.239 234.091 L633.211 234.091 L633.211 233.674 Q633.211 230.734 631.267 229.137 Q629.346 227.517 625.85 227.517 Q623.628 227.517 621.522 228.049 Q619.415 228.581 617.471 229.646 L617.471 225.711 Q619.809 224.808 622.008 224.368 Q624.207 223.906 626.29 223.906 Q631.915 223.906 634.693 226.822 Q637.47 229.739 637.47 235.665 Z" fill="#000000" fill-rule="nonzero" fill-opacity="1" /><path clip-path="url(#clip340)" d="M667.794 234.808 L667.794 250.456 L663.535 250.456 L663.535 234.947 Q663.535 231.267 662.1 229.438 Q660.665 227.609 657.794 227.609 Q654.345 227.609 652.355 229.808 Q650.364 232.007 650.364 235.804 L650.364 250.456 L646.082 250.456 L646.082 224.531 L650.364 224.531 L650.364 228.558 Q651.892 226.22 653.952 225.063 Q656.035 223.906 658.744 223.906 Q663.211 223.906 665.503 226.683 Q667.794 229.438 667.794 234.808 Z" fill="#000000" fill-rule="nonzero" fill-opacity="1" /><path clip-path="url(#clip340)" d="M708.419 228.466 L708.419 214.438 L712.678 214.438 L712.678 250.456 L708.419 250.456 L708.419 246.567 Q707.077 248.882 705.016 250.016 Q702.979 251.128 700.109 251.128 Q695.41 251.128 692.447 247.378 Q689.507 243.628 689.507 237.517 Q689.507 231.405 692.447 227.655 Q695.41 223.906 700.109 223.906 Q702.979 223.906 705.016 225.04 Q707.077 226.151 708.419 228.466 M693.905 237.517 Q693.905 242.216 695.827 244.901 Q697.771 247.563 701.151 247.563 Q704.53 247.563 706.475 244.901 Q708.419 242.216 708.419 237.517 Q708.419 232.817 706.475 230.155 Q704.53 227.47 701.151 227.47 Q697.771 227.47 695.827 230.155 Q693.905 232.817 693.905 237.517 Z" fill="#000000" fill-rule="nonzero" fill-opacity="1" /><path clip-path="url(#clip340)" d="M721.452 224.531 L725.711 224.531 L725.711 250.456 L721.452 250.456 L721.452 224.531 M721.452 214.438 L725.711 214.438 L725.711 219.831 L721.452 219.831 L721.452 214.438 Z" fill="#000000" fill-rule="nonzero" fill-opacity="1" /><path clip-path="url(#clip340)" d="M751.15 225.294 L751.15 229.322 Q749.345 228.396 747.4 227.933 Q745.456 227.47 743.373 227.47 Q740.201 227.47 738.604 228.443 Q737.03 229.415 737.03 231.359 Q737.03 232.841 738.164 233.697 Q739.299 234.53 742.725 235.294 L744.183 235.618 Q748.72 236.591 750.618 238.373 Q752.539 240.132 752.539 243.304 Q752.539 246.915 749.669 249.021 Q746.822 251.128 741.822 251.128 Q739.738 251.128 737.47 250.711 Q735.225 250.317 732.725 249.507 L732.725 245.109 Q735.086 246.336 737.377 246.961 Q739.669 247.563 741.914 247.563 Q744.924 247.563 746.544 246.544 Q748.164 245.503 748.164 243.628 Q748.164 241.892 746.984 240.966 Q745.826 240.04 741.868 239.183 L740.387 238.836 Q736.428 238.003 734.669 236.29 Q732.91 234.554 732.91 231.544 Q732.91 227.887 735.502 225.896 Q738.095 223.906 742.863 223.906 Q745.225 223.906 747.308 224.253 Q749.391 224.6 751.15 225.294 Z" fill="#000000" fill-rule="nonzero" fill-opacity="1" /><path clip-path="url(#clip340)" d="M777.979 225.526 L777.979 229.507 Q776.173 228.512 774.345 228.026 Q772.539 227.517 770.687 227.517 Q766.544 227.517 764.252 230.155 Q761.961 232.771 761.961 237.517 Q761.961 242.262 764.252 244.901 Q766.544 247.516 770.687 247.516 Q772.539 247.516 774.345 247.03 Q776.173 246.521 777.979 245.526 L777.979 249.461 Q776.197 250.294 774.275 250.711 Q772.377 251.128 770.224 251.128 Q764.368 251.128 760.919 247.447 Q757.47 243.767 757.47 237.517 Q757.47 231.174 760.942 227.54 Q764.437 223.906 770.502 223.906 Q772.47 223.906 774.345 224.322 Q776.22 224.716 777.979 225.526 Z" fill="#000000" fill-rule="nonzero" fill-opacity="1" /><path clip-path="url(#clip340)" d="M795.433 227.517 Q792.007 227.517 790.016 230.202 Q788.025 232.864 788.025 237.517 Q788.025 242.169 789.993 244.854 Q791.984 247.516 795.433 247.516 Q798.835 247.516 800.826 244.831 Q802.817 242.146 802.817 237.517 Q802.817 232.91 800.826 230.225 Q798.835 227.517 795.433 227.517 M795.433 223.906 Q800.988 223.906 804.159 227.517 Q807.331 231.128 807.331 237.517 Q807.331 243.882 804.159 247.516 Q800.988 251.128 795.433 251.128 Q789.854 251.128 786.683 247.516 Q783.535 243.882 783.535 237.517 Q783.535 231.128 786.683 227.517 Q789.854 223.906 795.433 223.906 Z" fill="#000000" fill-rule="nonzero" fill-opacity="1" /><path clip-path="url(#clip340)" d="M813.951 240.225 L813.951 224.531 L818.21 224.531 L818.21 240.063 Q818.21 243.743 819.645 245.595 Q821.081 247.424 823.951 247.424 Q827.4 247.424 829.391 245.225 Q831.405 243.026 831.405 239.229 L831.405 224.531 L835.664 224.531 L835.664 250.456 L831.405 250.456 L831.405 246.475 Q829.854 248.836 827.794 249.993 Q825.757 251.128 823.048 251.128 Q818.581 251.128 816.266 248.35 Q813.951 245.572 813.951 240.225 M824.669 223.906 L824.669 223.906 Z" fill="#000000" fill-rule="nonzero" fill-opacity="1" /><path clip-path="url(#clip340)" d="M865.988 234.808 L865.988 250.456 L861.729 250.456 L861.729 234.947 Q861.729 231.267 860.293 229.438 Q858.858 227.609 855.988 227.609 Q852.539 227.609 850.548 229.808 Q848.557 232.007 848.557 235.804 L848.557 250.456 L844.275 250.456 L844.275 224.531 L848.557 224.531 L848.557 228.558 Q850.085 226.22 852.145 225.063 Q854.229 223.906 856.937 223.906 Q861.404 223.906 863.696 226.683 Q865.988 229.438 865.988 234.808 Z" fill="#000000" fill-rule="nonzero" fill-opacity="1" /><path clip-path="url(#clip340)" d="M878.696 217.169 L878.696 224.531 L887.469 224.531 L887.469 227.841 L878.696 227.841 L878.696 241.915 Q878.696 245.086 879.553 245.989 Q880.432 246.891 883.094 246.891 L887.469 246.891 L887.469 250.456 L883.094 250.456 Q878.164 250.456 876.289 248.628 Q874.414 246.776 874.414 241.915 L874.414 227.841 L871.289 227.841 L871.289 224.531 L874.414 224.531 L874.414 217.169 L878.696 217.169 Z" fill="#000000" fill-rule="nonzero" fill-opacity="1" /><path clip-path="url(#clip340)" d="M900.64 215.896 L904.576 215.896 L892.539 254.854 L888.603 254.854 L900.64 215.896 Z" fill="#000000" fill-rule="nonzero" fill-opacity="1" /><path clip-path="url(#clip340)" d="M913.904 219.739 L913.904 232.725 L919.784 232.725 Q923.048 232.725 924.83 231.035 Q926.612 229.345 926.612 226.22 Q926.612 223.118 924.83 221.429 Q923.048 219.739 919.784 219.739 L913.904 219.739 M909.228 215.896 L919.784 215.896 Q925.594 215.896 928.557 218.535 Q931.543 221.151 931.543 226.22 Q931.543 231.336 928.557 233.952 Q925.594 236.567 919.784 236.567 L913.904 236.567 L913.904 250.456 L909.228 250.456 L909.228 215.896 Z" fill="#000000" fill-rule="nonzero" fill-opacity="1" /></svg>
