<?xml version="1.0" encoding="utf-8"?>
<svg xmlns="http://www.w3.org/2000/svg" xmlns:xlink="http://www.w3.org/1999/xlink" width="672" height="480" viewBox="0 0 2688 1920">
<defs>
  <clipPath id="clip220">
    <rect x="0" y="0" width="2688" height="1920"/>
  </clipPath>
</defs>
<path clip-path="url(#clip220)" d="M0 1920 L2688 1920 L2688 -4.26326e-14 L0 -4.26326e-14  Z" fill="#ffffff" fill-rule="evenodd" fill-opacity="1"/>
<defs>
  <clipPath id="clip221">
    <rect x="537" y="0" width="1883" height="1883"/>
  </clipPath>
</defs>
<path clip-path="url(#clip220)" d="M255.816 1734.12 L2640.76 1734.12 L2640.76 127.792 L255.816 127.792  Z" fill="#ffffff" fill-rule="evenodd" fill-opacity="1"/>
<defs>
  <clipPath id="clip222">
    <rect x="255" y="127" width="2386" height="1607"/>
  </clipPath>
</defs>
<polyline clip-path="url(#clip222)" style="stroke:#000000; stroke-linecap:round; stroke-linejoin:round; stroke-width:2; stroke-opacity:0.1; fill:none" points="300.588,1734.12 300.588,127.792 "/>
<polyline clip-path="url(#clip222)" style="stroke:#000000; stroke-linecap:round; stroke-linejoin:round; stroke-width:2; stroke-opacity:0.1; fill:none" points="755.122,1734.12 755.122,127.792 "/>
<polyline clip-path="url(#clip222)" style="stroke:#000000; stroke-linecap:round; stroke-linejoin:round; stroke-width:2; stroke-opacity:0.1; fill:none" points="1209.66,1734.12 1209.66,127.792 "/>
<polyline clip-path="url(#clip222)" style="stroke:#000000; stroke-linecap:round; stroke-linejoin:round; stroke-width:2; stroke-opacity:0.1; fill:none" points="1664.19,1734.12 1664.19,127.792 "/>
<polyline clip-path="url(#clip222)" style="stroke:#000000; stroke-linecap:round; stroke-linejoin:round; stroke-width:2; stroke-opacity:0.1; fill:none" points="2118.72,1734.12 2118.72,127.792 "/>
<polyline clip-path="url(#clip222)" style="stroke:#000000; stroke-linecap:round; stroke-linejoin:round; stroke-width:2; stroke-opacity:0.1; fill:none" points="2573.26,1734.12 2573.26,127.792 "/>
<polyline clip-path="url(#clip222)" style="stroke:#000000; stroke-linecap:round; stroke-linejoin:round; stroke-width:2; stroke-opacity:0.1; fill:none" points="255.816,1734.12 2640.76,1734.12 "/>
<polyline clip-path="url(#clip222)" style="stroke:#000000; stroke-linecap:round; stroke-linejoin:round; stroke-width:2; stroke-opacity:0.1; fill:none" points="255.816,1466.4 2640.76,1466.4 "/>
<polyline clip-path="url(#clip222)" style="stroke:#000000; stroke-linecap:round; stroke-linejoin:round; stroke-width:2; stroke-opacity:0.1; fill:none" points="255.816,1198.68 2640.76,1198.68 "/>
<polyline clip-path="url(#clip222)" style="stroke:#000000; stroke-linecap:round; stroke-linejoin:round; stroke-width:2; stroke-opacity:0.1; fill:none" points="255.816,930.955 2640.76,930.955 "/>
<polyline clip-path="url(#clip222)" style="stroke:#000000; stroke-linecap:round; stroke-linejoin:round; stroke-width:2; stroke-opacity:0.1; fill:none" points="255.816,663.234 2640.76,663.234 "/>
<polyline clip-path="url(#clip222)" style="stroke:#000000; stroke-linecap:round; stroke-linejoin:round; stroke-width:2; stroke-opacity:0.1; fill:none" points="255.816,395.513 2640.76,395.513 "/>
<polyline clip-path="url(#clip220)" style="stroke:#000000; stroke-linecap:round; stroke-linejoin:round; stroke-width:4; stroke-opacity:1; fill:none" points="255.816,1734.12 2640.76,1734.12 "/>
<polyline clip-path="url(#clip220)" style="stroke:#000000; stroke-linecap:round; stroke-linejoin:round; stroke-width:4; stroke-opacity:1; fill:none" points="300.588,1734.12 300.588,1715.22 "/>
<polyline clip-path="url(#clip220)" style="stroke:#000000; stroke-linecap:round; stroke-linejoin:round; stroke-width:4; stroke-opacity:1; fill:none" points="755.122,1734.12 755.122,1715.22 "/>
<polyline clip-path="url(#clip220)" style="stroke:#000000; stroke-linecap:round; stroke-linejoin:round; stroke-width:4; stroke-opacity:1; fill:none" points="1209.66,1734.12 1209.66,1715.22 "/>
<polyline clip-path="url(#clip220)" style="stroke:#000000; stroke-linecap:round; stroke-linejoin:round; stroke-width:4; stroke-opacity:1; fill:none" points="1664.19,1734.12 1664.19,1715.22 "/>
<polyline clip-path="url(#clip220)" style="stroke:#000000; stroke-linecap:round; stroke-linejoin:round; stroke-width:4; stroke-opacity:1; fill:none" points="2118.72,1734.12 2118.72,1715.22 "/>
<polyline clip-path="url(#clip220)" style="stroke:#000000; stroke-linecap:round; stroke-linejoin:round; stroke-width:4; stroke-opacity:1; fill:none" points="2573.26,1734.12 2573.26,1715.22 "/>
<path clip-path="url(#clip220)" d="M300.588 1767.34 Q296.977 1767.34 295.148 1770.9 Q293.343 1774.45 293.343 1781.58 Q293.343 1788.68 295.148 1792.25 Q296.977 1795.79 300.588 1795.79 Q304.222 1795.79 306.028 1792.25 Q307.856 1788.68 307.856 1781.58 Q307.856 1774.45 306.028 1770.9 Q304.222 1767.34 300.588 1767.34 M300.588 1763.64 Q306.398 1763.64 309.454 1768.24 Q312.532 1772.83 312.532 1781.58 Q312.532 1790.3 309.454 1794.91 Q306.398 1799.49 300.588 1799.49 Q294.778 1799.49 291.699 1794.91 Q288.644 1790.3 288.644 1781.58 Q288.644 1772.83 291.699 1768.24 Q294.778 1763.64 300.588 1763.64 Z" fill="#000000" fill-rule="nonzero" fill-opacity="1" /><path clip-path="url(#clip220)" d="M699.648 1794.89 L707.286 1794.89 L707.286 1768.52 L698.976 1770.19 L698.976 1765.93 L707.24 1764.26 L711.916 1764.26 L711.916 1794.89 L719.555 1794.89 L719.555 1798.82 L699.648 1798.82 L699.648 1794.89 Z" fill="#000000" fill-rule="nonzero" fill-opacity="1" /><path clip-path="url(#clip220)" d="M738.999 1767.34 Q735.388 1767.34 733.559 1770.9 Q731.754 1774.45 731.754 1781.58 Q731.754 1788.68 733.559 1792.25 Q735.388 1795.79 738.999 1795.79 Q742.633 1795.79 744.439 1792.25 Q746.268 1788.68 746.268 1781.58 Q746.268 1774.45 744.439 1770.9 Q742.633 1767.34 738.999 1767.34 M738.999 1763.64 Q744.809 1763.64 747.865 1768.24 Q750.944 1772.83 750.944 1781.58 Q750.944 1790.3 747.865 1794.91 Q744.809 1799.49 738.999 1799.49 Q733.189 1799.49 730.11 1794.91 Q727.055 1790.3 727.055 1781.58 Q727.055 1772.83 730.11 1768.24 Q733.189 1763.64 738.999 1763.64 Z" fill="#000000" fill-rule="nonzero" fill-opacity="1" /><path clip-path="url(#clip220)" d="M769.161 1767.34 Q765.55 1767.34 763.721 1770.9 Q761.916 1774.45 761.916 1781.58 Q761.916 1788.68 763.721 1792.25 Q765.55 1795.79 769.161 1795.79 Q772.795 1795.79 774.601 1792.25 Q776.43 1788.68 776.43 1781.58 Q776.43 1774.45 774.601 1770.9 Q772.795 1767.34 769.161 1767.34 M769.161 1763.64 Q774.971 1763.64 778.027 1768.24 Q781.106 1772.83 781.106 1781.58 Q781.106 1790.3 778.027 1794.91 Q774.971 1799.49 769.161 1799.49 Q763.351 1799.49 760.272 1794.91 Q757.217 1790.3 757.217 1781.58 Q757.217 1772.83 760.272 1768.24 Q763.351 1763.64 769.161 1763.64 Z" fill="#000000" fill-rule="nonzero" fill-opacity="1" /><path clip-path="url(#clip220)" d="M799.323 1767.34 Q795.712 1767.34 793.883 1770.9 Q792.078 1774.45 792.078 1781.58 Q792.078 1788.68 793.883 1792.25 Q795.712 1795.79 799.323 1795.79 Q802.957 1795.79 804.763 1792.25 Q806.591 1788.68 806.591 1781.58 Q806.591 1774.45 804.763 1770.9 Q802.957 1767.34 799.323 1767.34 M799.323 1763.64 Q805.133 1763.64 808.189 1768.24 Q811.267 1772.83 811.267 1781.58 Q811.267 1790.3 808.189 1794.91 Q805.133 1799.49 799.323 1799.49 Q793.513 1799.49 790.434 1794.91 Q787.379 1790.3 787.379 1781.58 Q787.379 1772.83 790.434 1768.24 Q793.513 1763.64 799.323 1763.64 Z" fill="#000000" fill-rule="nonzero" fill-opacity="1" /><path clip-path="url(#clip220)" d="M1158.27 1794.89 L1174.59 1794.89 L1174.59 1798.82 L1152.64 1798.82 L1152.64 1794.89 Q1155.3 1792.13 1159.89 1787.5 Q1164.49 1782.85 1165.67 1781.51 Q1167.92 1778.98 1168.8 1777.25 Q1169.7 1775.49 1169.7 1773.8 Q1169.7 1771.04 1167.76 1769.31 Q1165.84 1767.57 1162.73 1767.57 Q1160.54 1767.57 1158.08 1768.34 Q1155.65 1769.1 1152.87 1770.65 L1152.87 1765.93 Q1155.7 1764.79 1158.15 1764.21 Q1160.61 1763.64 1162.64 1763.64 Q1168.01 1763.64 1171.21 1766.32 Q1174.4 1769.01 1174.4 1773.5 Q1174.4 1775.63 1173.59 1777.55 Q1172.8 1779.45 1170.7 1782.04 Q1170.12 1782.71 1167.02 1785.93 Q1163.92 1789.12 1158.27 1794.89 Z" fill="#000000" fill-rule="nonzero" fill-opacity="1" /><path clip-path="url(#clip220)" d="M1194.4 1767.34 Q1190.79 1767.34 1188.96 1770.9 Q1187.16 1774.45 1187.16 1781.58 Q1187.16 1788.68 1188.96 1792.25 Q1190.79 1795.79 1194.4 1795.79 Q1198.04 1795.79 1199.84 1792.25 Q1201.67 1788.68 1201.67 1781.58 Q1201.67 1774.45 1199.84 1770.9 Q1198.04 1767.34 1194.4 1767.34 M1194.4 1763.64 Q1200.21 1763.64 1203.27 1768.24 Q1206.35 1772.83 1206.35 1781.58 Q1206.35 1790.3 1203.27 1794.91 Q1200.21 1799.49 1194.4 1799.49 Q1188.59 1799.49 1185.51 1794.91 Q1182.46 1790.3 1182.46 1781.58 Q1182.46 1772.83 1185.51 1768.24 Q1188.59 1763.64 1194.4 1763.64 Z" fill="#000000" fill-rule="nonzero" fill-opacity="1" /><path clip-path="url(#clip220)" d="M1224.56 1767.34 Q1220.95 1767.34 1219.12 1770.9 Q1217.32 1774.45 1217.32 1781.58 Q1217.32 1788.68 1219.12 1792.25 Q1220.95 1795.79 1224.56 1795.79 Q1228.2 1795.79 1230 1792.25 Q1231.83 1788.68 1231.83 1781.58 Q1231.83 1774.45 1230 1770.9 Q1228.2 1767.34 1224.56 1767.34 M1224.56 1763.64 Q1230.37 1763.64 1233.43 1768.24 Q1236.51 1772.83 1236.51 1781.58 Q1236.51 1790.3 1233.43 1794.91 Q1230.37 1799.49 1224.56 1799.49 Q1218.75 1799.49 1215.67 1794.91 Q1212.62 1790.3 1212.62 1781.58 Q1212.62 1772.83 1215.67 1768.24 Q1218.75 1763.64 1224.56 1763.64 Z" fill="#000000" fill-rule="nonzero" fill-opacity="1" /><path clip-path="url(#clip220)" d="M1254.72 1767.34 Q1251.11 1767.34 1249.29 1770.9 Q1247.48 1774.45 1247.48 1781.58 Q1247.48 1788.68 1249.29 1792.25 Q1251.11 1795.79 1254.72 1795.79 Q1258.36 1795.79 1260.16 1792.25 Q1261.99 1788.68 1261.99 1781.58 Q1261.99 1774.45 1260.16 1770.9 Q1258.36 1767.34 1254.72 1767.34 M1254.72 1763.64 Q1260.54 1763.64 1263.59 1768.24 Q1266.67 1772.83 1266.67 1781.58 Q1266.67 1790.3 1263.59 1794.91 Q1260.54 1799.49 1254.72 1799.49 Q1248.91 1799.49 1245.84 1794.91 Q1242.78 1790.3 1242.78 1781.58 Q1242.78 1772.83 1245.84 1768.24 Q1248.91 1763.64 1254.72 1763.64 Z" fill="#000000" fill-rule="nonzero" fill-opacity="1" /><path clip-path="url(#clip220)" d="M1622.87 1780.19 Q1626.23 1780.9 1628.1 1783.17 Q1630 1785.44 1630 1788.77 Q1630 1793.89 1626.48 1796.69 Q1622.96 1799.49 1616.48 1799.49 Q1614.31 1799.49 1611.99 1799.05 Q1609.7 1798.64 1607.25 1797.78 L1607.25 1793.27 Q1609.19 1794.4 1611.5 1794.98 Q1613.82 1795.56 1616.34 1795.56 Q1620.74 1795.56 1623.03 1793.82 Q1625.35 1792.08 1625.35 1788.77 Q1625.35 1785.72 1623.19 1784.01 Q1621.06 1782.27 1617.25 1782.27 L1613.22 1782.27 L1613.22 1778.43 L1617.43 1778.43 Q1620.88 1778.43 1622.71 1777.06 Q1624.54 1775.67 1624.54 1773.08 Q1624.54 1770.42 1622.64 1769.01 Q1620.76 1767.57 1617.25 1767.57 Q1615.32 1767.57 1613.13 1767.99 Q1610.93 1768.4 1608.29 1769.28 L1608.29 1765.12 Q1610.95 1764.38 1613.26 1764.01 Q1615.6 1763.64 1617.66 1763.64 Q1622.99 1763.64 1626.09 1766.07 Q1629.19 1768.47 1629.19 1772.59 Q1629.19 1775.46 1627.55 1777.46 Q1625.9 1779.42 1622.87 1780.19 Z" fill="#000000" fill-rule="nonzero" fill-opacity="1" /><path clip-path="url(#clip220)" d="M1648.87 1767.34 Q1645.25 1767.34 1643.43 1770.9 Q1641.62 1774.45 1641.62 1781.58 Q1641.62 1788.68 1643.43 1792.25 Q1645.25 1795.79 1648.87 1795.79 Q1652.5 1795.79 1654.31 1792.25 Q1656.13 1788.68 1656.13 1781.58 Q1656.13 1774.45 1654.31 1770.9 Q1652.5 1767.34 1648.87 1767.34 M1648.87 1763.64 Q1654.68 1763.64 1657.73 1768.24 Q1660.81 1772.83 1660.81 1781.58 Q1660.81 1790.3 1657.73 1794.91 Q1654.68 1799.49 1648.87 1799.49 Q1643.06 1799.49 1639.98 1794.91 Q1636.92 1790.3 1636.92 1781.58 Q1636.92 1772.83 1639.98 1768.24 Q1643.06 1763.64 1648.87 1763.64 Z" fill="#000000" fill-rule="nonzero" fill-opacity="1" /><path clip-path="url(#clip220)" d="M1679.03 1767.34 Q1675.42 1767.34 1673.59 1770.9 Q1671.78 1774.45 1671.78 1781.58 Q1671.78 1788.68 1673.59 1792.25 Q1675.42 1795.79 1679.03 1795.79 Q1682.66 1795.79 1684.47 1792.25 Q1686.3 1788.68 1686.3 1781.58 Q1686.3 1774.45 1684.47 1770.9 Q1682.66 1767.34 1679.03 1767.34 M1679.03 1763.64 Q1684.84 1763.64 1687.89 1768.24 Q1690.97 1772.83 1690.97 1781.58 Q1690.97 1790.3 1687.89 1794.91 Q1684.84 1799.49 1679.03 1799.49 Q1673.22 1799.49 1670.14 1794.91 Q1667.08 1790.3 1667.08 1781.58 Q1667.08 1772.83 1670.14 1768.24 Q1673.22 1763.64 1679.03 1763.64 Z" fill="#000000" fill-rule="nonzero" fill-opacity="1" /><path clip-path="url(#clip220)" d="M1709.19 1767.34 Q1705.58 1767.34 1703.75 1770.9 Q1701.94 1774.45 1701.94 1781.58 Q1701.94 1788.68 1703.75 1792.25 Q1705.58 1795.79 1709.19 1795.79 Q1712.82 1795.79 1714.63 1792.25 Q1716.46 1788.68 1716.46 1781.58 Q1716.46 1774.45 1714.63 1770.9 Q1712.82 1767.34 1709.19 1767.34 M1709.19 1763.64 Q1715 1763.64 1718.06 1768.24 Q1721.13 1772.83 1721.13 1781.58 Q1721.13 1790.3 1718.06 1794.91 Q1715 1799.49 1709.19 1799.49 Q1703.38 1799.49 1700.3 1794.91 Q1697.25 1790.3 1697.25 1781.58 Q1697.25 1772.83 1700.3 1768.24 Q1703.38 1763.64 1709.19 1763.64 Z" fill="#000000" fill-rule="nonzero" fill-opacity="1" /><path clip-path="url(#clip220)" d="M2076.73 1768.34 L2064.93 1786.78 L2076.73 1786.78 L2076.73 1768.34 M2075.51 1764.26 L2081.39 1764.26 L2081.39 1786.78 L2086.32 1786.78 L2086.32 1790.67 L2081.39 1790.67 L2081.39 1798.82 L2076.73 1798.82 L2076.73 1790.67 L2061.13 1790.67 L2061.13 1786.16 L2075.51 1764.26 Z" fill="#000000" fill-rule="nonzero" fill-opacity="1" /><path clip-path="url(#clip220)" d="M2104.05 1767.34 Q2100.44 1767.34 2098.61 1770.9 Q2096.8 1774.45 2096.8 1781.58 Q2096.8 1788.68 2098.61 1792.25 Q2100.44 1795.79 2104.05 1795.79 Q2107.68 1795.79 2109.49 1792.25 Q2111.32 1788.68 2111.32 1781.58 Q2111.32 1774.45 2109.49 1770.9 Q2107.68 1767.34 2104.05 1767.34 M2104.05 1763.64 Q2109.86 1763.64 2112.91 1768.24 Q2115.99 1772.83 2115.99 1781.58 Q2115.99 1790.3 2112.91 1794.91 Q2109.86 1799.49 2104.05 1799.49 Q2098.24 1799.49 2095.16 1794.91 Q2092.1 1790.3 2092.1 1781.58 Q2092.1 1772.83 2095.16 1768.24 Q2098.24 1763.64 2104.05 1763.64 Z" fill="#000000" fill-rule="nonzero" fill-opacity="1" /><path clip-path="url(#clip220)" d="M2134.21 1767.34 Q2130.6 1767.34 2128.77 1770.9 Q2126.96 1774.45 2126.96 1781.58 Q2126.96 1788.68 2128.77 1792.25 Q2130.6 1795.79 2134.21 1795.79 Q2137.84 1795.79 2139.65 1792.25 Q2141.48 1788.68 2141.48 1781.58 Q2141.48 1774.45 2139.65 1770.9 Q2137.84 1767.34 2134.21 1767.34 M2134.21 1763.64 Q2140.02 1763.64 2143.08 1768.24 Q2146.15 1772.83 2146.15 1781.58 Q2146.15 1790.3 2143.08 1794.91 Q2140.02 1799.49 2134.21 1799.49 Q2128.4 1799.49 2125.32 1794.91 Q2122.27 1790.3 2122.27 1781.58 Q2122.27 1772.83 2125.32 1768.24 Q2128.4 1763.64 2134.21 1763.64 Z" fill="#000000" fill-rule="nonzero" fill-opacity="1" /><path clip-path="url(#clip220)" d="M2164.37 1767.34 Q2160.76 1767.34 2158.93 1770.9 Q2157.13 1774.45 2157.13 1781.58 Q2157.13 1788.68 2158.93 1792.25 Q2160.76 1795.79 2164.37 1795.79 Q2168.01 1795.79 2169.81 1792.25 Q2171.64 1788.68 2171.64 1781.58 Q2171.64 1774.45 2169.81 1770.9 Q2168.01 1767.34 2164.37 1767.34 M2164.37 1763.64 Q2170.18 1763.64 2173.24 1768.24 Q2176.32 1772.83 2176.32 1781.58 Q2176.32 1790.3 2173.24 1794.91 Q2170.18 1799.49 2164.37 1799.49 Q2158.56 1799.49 2155.48 1794.91 Q2152.43 1790.3 2152.43 1781.58 Q2152.43 1772.83 2155.48 1768.24 Q2158.56 1763.64 2164.37 1763.64 Z" fill="#000000" fill-rule="nonzero" fill-opacity="1" /><path clip-path="url(#clip220)" d="M2517.79 1764.26 L2536.15 1764.26 L2536.15 1768.2 L2522.08 1768.2 L2522.08 1776.67 Q2523.1 1776.32 2524.11 1776.16 Q2525.13 1775.97 2526.15 1775.97 Q2531.94 1775.97 2535.32 1779.15 Q2538.7 1782.32 2538.7 1787.73 Q2538.7 1793.31 2535.23 1796.41 Q2531.75 1799.49 2525.43 1799.49 Q2523.26 1799.49 2520.99 1799.12 Q2518.74 1798.75 2516.34 1798.01 L2516.34 1793.31 Q2518.42 1794.45 2520.64 1795 Q2522.86 1795.56 2525.34 1795.56 Q2529.35 1795.56 2531.68 1793.45 Q2534.02 1791.34 2534.02 1787.73 Q2534.02 1784.12 2531.68 1782.02 Q2529.35 1779.91 2525.34 1779.91 Q2523.47 1779.91 2521.59 1780.33 Q2519.74 1780.74 2517.79 1781.62 L2517.79 1764.26 Z" fill="#000000" fill-rule="nonzero" fill-opacity="1" /><path clip-path="url(#clip220)" d="M2557.91 1767.34 Q2554.3 1767.34 2552.47 1770.9 Q2550.67 1774.45 2550.67 1781.58 Q2550.67 1788.68 2552.47 1792.25 Q2554.3 1795.79 2557.91 1795.79 Q2561.54 1795.79 2563.35 1792.25 Q2565.18 1788.68 2565.18 1781.58 Q2565.18 1774.45 2563.35 1770.9 Q2561.54 1767.34 2557.91 1767.34 M2557.91 1763.64 Q2563.72 1763.64 2566.78 1768.24 Q2569.85 1772.83 2569.85 1781.58 Q2569.85 1790.3 2566.78 1794.91 Q2563.72 1799.49 2557.91 1799.49 Q2552.1 1799.49 2549.02 1794.91 Q2545.97 1790.3 2545.97 1781.58 Q2545.97 1772.83 2549.02 1768.24 Q2552.1 1763.64 2557.91 1763.64 Z" fill="#000000" fill-rule="nonzero" fill-opacity="1" /><path clip-path="url(#clip220)" d="M2588.07 1767.34 Q2584.46 1767.34 2582.63 1770.9 Q2580.83 1774.45 2580.83 1781.58 Q2580.83 1788.68 2582.63 1792.25 Q2584.46 1795.79 2588.07 1795.79 Q2591.71 1795.79 2593.51 1792.25 Q2595.34 1788.68 2595.34 1781.58 Q2595.34 1774.45 2593.51 1770.9 Q2591.71 1767.34 2588.07 1767.34 M2588.07 1763.64 Q2593.88 1763.64 2596.94 1768.24 Q2600.02 1772.83 2600.02 1781.58 Q2600.02 1790.3 2596.94 1794.91 Q2593.88 1799.49 2588.07 1799.49 Q2582.26 1799.49 2579.18 1794.91 Q2576.13 1790.3 2576.13 1781.58 Q2576.13 1772.83 2579.18 1768.24 Q2582.26 1763.64 2588.07 1763.64 Z" fill="#000000" fill-rule="nonzero" fill-opacity="1" /><path clip-path="url(#clip220)" d="M2618.23 1767.34 Q2614.62 1767.34 2612.79 1770.9 Q2610.99 1774.45 2610.99 1781.58 Q2610.99 1788.68 2612.79 1792.25 Q2614.62 1795.79 2618.23 1795.79 Q2621.87 1795.79 2623.67 1792.25 Q2625.5 1788.68 2625.5 1781.58 Q2625.5 1774.45 2623.67 1770.9 Q2621.87 1767.34 2618.23 1767.34 M2618.23 1763.64 Q2624.04 1763.64 2627.1 1768.24 Q2630.18 1772.83 2630.18 1781.58 Q2630.18 1790.3 2627.1 1794.91 Q2624.04 1799.49 2618.23 1799.49 Q2612.42 1799.49 2609.35 1794.91 Q2606.29 1790.3 2606.29 1781.58 Q2606.29 1772.83 2609.35 1768.24 Q2612.42 1763.64 2618.23 1763.64 Z" fill="#000000" fill-rule="nonzero" fill-opacity="1" /><path clip-path="url(#clip220)" d="M1146.46 1835.78 L1176.5 1835.78 L1176.5 1841.19 L1152.89 1841.19 L1152.89 1855.26 L1175.52 1855.26 L1175.52 1860.67 L1152.89 1860.67 L1152.89 1877.89 L1177.08 1877.89 L1177.08 1883.3 L1146.46 1883.3 L1146.46 1835.78 Z" fill="#000000" fill-rule="nonzero" fill-opacity="1" /><path clip-path="url(#clip220)" d="M1190.89 1865.51 Q1190.89 1871.97 1193.53 1875.66 Q1196.2 1879.32 1200.85 1879.32 Q1205.5 1879.32 1208.17 1875.66 Q1210.85 1871.97 1210.85 1865.51 Q1210.85 1859.05 1208.17 1855.39 Q1205.5 1851.7 1200.85 1851.7 Q1196.2 1851.7 1193.53 1855.39 Q1190.89 1859.05 1190.89 1865.51 M1210.85 1877.95 Q1209 1881.14 1206.17 1882.7 Q1203.37 1884.22 1199.42 1884.22 Q1192.96 1884.22 1188.88 1879.07 Q1184.84 1873.91 1184.84 1865.51 Q1184.84 1857.11 1188.88 1851.95 Q1192.96 1846.79 1199.42 1846.79 Q1203.37 1846.79 1206.17 1848.35 Q1209 1849.88 1210.85 1853.06 L1210.85 1847.65 L1216.7 1847.65 L1216.7 1896.86 L1210.85 1896.86 L1210.85 1877.95 Z" fill="#000000" fill-rule="nonzero" fill-opacity="1" /><path clip-path="url(#clip220)" d="M1228.16 1869.23 L1228.16 1847.65 L1234.02 1847.65 L1234.02 1869.01 Q1234.02 1874.07 1235.99 1876.62 Q1237.96 1879.13 1241.91 1879.13 Q1246.65 1879.13 1249.39 1876.11 Q1252.16 1873.08 1252.16 1867.86 L1252.16 1847.65 L1258.02 1847.65 L1258.02 1883.3 L1252.16 1883.3 L1252.16 1877.83 Q1250.03 1881.07 1247.19 1882.66 Q1244.39 1884.22 1240.67 1884.22 Q1234.53 1884.22 1231.34 1880.4 Q1228.16 1876.59 1228.16 1869.23 M1242.9 1846.79 L1242.9 1846.79 Z" fill="#000000" fill-rule="nonzero" fill-opacity="1" /><path clip-path="url(#clip220)" d="M1270.08 1847.65 L1275.93 1847.65 L1275.93 1883.3 L1270.08 1883.3 L1270.08 1847.65 M1270.08 1833.78 L1275.93 1833.78 L1275.93 1841.19 L1270.08 1841.19 L1270.08 1833.78 Z" fill="#000000" fill-rule="nonzero" fill-opacity="1" /><path clip-path="url(#clip220)" d="M1288.19 1833.78 L1294.05 1833.78 L1294.05 1883.3 L1288.19 1883.3 L1288.19 1833.78 Z" fill="#000000" fill-rule="nonzero" fill-opacity="1" /><path clip-path="url(#clip220)" d="M1306.3 1847.65 L1312.16 1847.65 L1312.16 1883.3 L1306.3 1883.3 L1306.3 1847.65 M1306.3 1833.78 L1312.16 1833.78 L1312.16 1841.19 L1306.3 1841.19 L1306.3 1833.78 Z" fill="#000000" fill-rule="nonzero" fill-opacity="1" /><path clip-path="url(#clip220)" d="M1350 1865.51 Q1350 1859.05 1347.33 1855.39 Q1344.68 1851.7 1340.04 1851.7 Q1335.39 1851.7 1332.72 1855.39 Q1330.07 1859.05 1330.07 1865.51 Q1330.07 1871.97 1332.72 1875.66 Q1335.39 1879.32 1340.04 1879.32 Q1344.68 1879.32 1347.33 1875.66 Q1350 1871.97 1350 1865.51 M1330.07 1853.06 Q1331.92 1849.88 1334.72 1848.35 Q1337.55 1846.79 1341.47 1846.79 Q1347.96 1846.79 1352 1851.95 Q1356.08 1857.11 1356.08 1865.51 Q1356.08 1873.91 1352 1879.07 Q1347.96 1884.22 1341.47 1884.22 Q1337.55 1884.22 1334.72 1882.7 Q1331.92 1881.14 1330.07 1877.95 L1330.07 1883.3 L1324.19 1883.3 L1324.19 1833.78 L1330.07 1833.78 L1330.07 1853.06 Z" fill="#000000" fill-rule="nonzero" fill-opacity="1" /><path clip-path="url(#clip220)" d="M1386.44 1853.13 Q1385.46 1852.55 1384.28 1852.3 Q1383.13 1852.01 1381.73 1852.01 Q1376.77 1852.01 1374.09 1855.26 Q1371.45 1858.47 1371.45 1864.52 L1371.45 1883.3 L1365.56 1883.3 L1365.56 1847.65 L1371.45 1847.65 L1371.45 1853.19 Q1373.3 1849.94 1376.26 1848.39 Q1379.22 1846.79 1383.45 1846.79 Q1384.06 1846.79 1384.79 1846.89 Q1385.52 1846.95 1386.41 1847.11 L1386.44 1853.13 Z" fill="#000000" fill-rule="nonzero" fill-opacity="1" /><path clip-path="url(#clip220)" d="M1392.59 1847.65 L1398.44 1847.65 L1398.44 1883.3 L1392.59 1883.3 L1392.59 1847.65 M1392.59 1833.78 L1398.44 1833.78 L1398.44 1841.19 L1392.59 1841.19 L1392.59 1833.78 Z" fill="#000000" fill-rule="nonzero" fill-opacity="1" /><path clip-path="url(#clip220)" d="M1410.09 1869.23 L1410.09 1847.65 L1415.95 1847.65 L1415.95 1869.01 Q1415.95 1874.07 1417.92 1876.62 Q1419.9 1879.13 1423.84 1879.13 Q1428.58 1879.13 1431.32 1876.11 Q1434.09 1873.08 1434.09 1867.86 L1434.09 1847.65 L1439.95 1847.65 L1439.95 1883.3 L1434.09 1883.3 L1434.09 1877.83 Q1431.96 1881.07 1429.13 1882.66 Q1426.32 1884.22 1422.6 1884.22 Q1416.46 1884.22 1413.27 1880.4 Q1410.09 1876.59 1410.09 1869.23 M1424.83 1846.79 L1424.83 1846.79 Z" fill="#000000" fill-rule="nonzero" fill-opacity="1" /><path clip-path="url(#clip220)" d="M1479.76 1854.5 Q1481.96 1850.55 1485.02 1848.67 Q1488.07 1846.79 1492.21 1846.79 Q1497.78 1846.79 1500.8 1850.71 Q1503.83 1854.59 1503.83 1861.78 L1503.83 1883.3 L1497.94 1883.3 L1497.94 1861.98 Q1497.94 1856.85 1496.12 1854.37 Q1494.31 1851.89 1490.59 1851.89 Q1486.03 1851.89 1483.39 1854.91 Q1480.75 1857.93 1480.75 1863.15 L1480.75 1883.3 L1474.86 1883.3 L1474.86 1861.98 Q1474.86 1856.82 1473.05 1854.37 Q1471.23 1851.89 1467.45 1851.89 Q1462.96 1851.89 1460.32 1854.94 Q1457.68 1857.97 1457.68 1863.15 L1457.68 1883.3 L1451.79 1883.3 L1451.79 1847.65 L1457.68 1847.65 L1457.68 1853.19 Q1459.68 1849.91 1462.48 1848.35 Q1465.28 1846.79 1469.13 1846.79 Q1473.02 1846.79 1475.72 1848.77 Q1478.46 1850.74 1479.76 1854.5 Z" fill="#000000" fill-rule="nonzero" fill-opacity="1" /><path clip-path="url(#clip220)" d="M1541.89 1877.95 L1541.89 1896.86 L1536.01 1896.86 L1536.01 1847.65 L1541.89 1847.65 L1541.89 1853.06 Q1543.74 1849.88 1546.54 1848.35 Q1549.37 1846.79 1553.29 1846.79 Q1559.78 1846.79 1563.82 1851.95 Q1567.9 1857.11 1567.9 1865.51 Q1567.9 1873.91 1563.82 1879.07 Q1559.78 1884.22 1553.29 1884.22 Q1549.37 1884.22 1546.54 1882.7 Q1543.74 1881.14 1541.89 1877.95 M1561.82 1865.51 Q1561.82 1859.05 1559.14 1855.39 Q1556.5 1851.7 1551.86 1851.7 Q1547.21 1851.7 1544.54 1855.39 Q1541.89 1859.05 1541.89 1865.51 Q1541.89 1871.97 1544.54 1875.66 Q1547.21 1879.32 1551.86 1879.32 Q1556.5 1879.32 1559.14 1875.66 Q1561.82 1871.97 1561.82 1865.51 Z" fill="#000000" fill-rule="nonzero" fill-opacity="1" /><path clip-path="url(#clip220)" d="M1598.26 1853.13 Q1597.28 1852.55 1596.1 1852.3 Q1594.95 1852.01 1593.55 1852.01 Q1588.59 1852.01 1585.91 1855.26 Q1583.27 1858.47 1583.27 1864.52 L1583.27 1883.3 L1577.38 1883.3 L1577.38 1847.65 L1583.27 1847.65 L1583.27 1853.19 Q1585.12 1849.94 1588.08 1848.39 Q1591.04 1846.79 1595.27 1846.79 Q1595.88 1846.79 1596.61 1846.89 Q1597.34 1846.95 1598.23 1847.11 L1598.26 1853.13 Z" fill="#000000" fill-rule="nonzero" fill-opacity="1" /><path clip-path="url(#clip220)" d="M1604.41 1847.65 L1610.26 1847.65 L1610.26 1883.3 L1604.41 1883.3 L1604.41 1847.65 M1604.41 1833.78 L1610.26 1833.78 L1610.26 1841.19 L1604.41 1841.19 L1604.41 1833.78 Z" fill="#000000" fill-rule="nonzero" fill-opacity="1" /><path clip-path="url(#clip220)" d="M1648.17 1849.02 L1648.17 1854.5 Q1645.69 1853.13 1643.17 1852.46 Q1640.69 1851.76 1638.14 1851.76 Q1632.45 1851.76 1629.29 1855.39 Q1626.14 1858.98 1626.14 1865.51 Q1626.14 1872.03 1629.29 1875.66 Q1632.45 1879.26 1638.14 1879.26 Q1640.69 1879.26 1643.17 1878.59 Q1645.69 1877.89 1648.17 1876.52 L1648.17 1881.93 Q1645.72 1883.08 1643.08 1883.65 Q1640.47 1884.22 1637.51 1884.22 Q1629.45 1884.22 1624.71 1879.16 Q1619.97 1874.1 1619.97 1865.51 Q1619.97 1856.79 1624.74 1851.79 Q1629.55 1846.79 1637.89 1846.79 Q1640.59 1846.79 1643.17 1847.37 Q1645.75 1847.91 1648.17 1849.02 Z" fill="#000000" fill-rule="nonzero" fill-opacity="1" /><path clip-path="url(#clip220)" d="M1688.85 1864.01 L1688.85 1866.88 L1661.92 1866.88 Q1662.3 1872.92 1665.55 1876.11 Q1668.83 1879.26 1674.65 1879.26 Q1678.02 1879.26 1681.18 1878.43 Q1684.36 1877.6 1687.48 1875.95 L1687.48 1881.49 Q1684.33 1882.82 1681.02 1883.52 Q1677.71 1884.22 1674.3 1884.22 Q1665.77 1884.22 1660.77 1879.26 Q1655.81 1874.29 1655.81 1865.83 Q1655.81 1857.07 1660.52 1851.95 Q1665.26 1846.79 1673.28 1846.79 Q1680.48 1846.79 1684.64 1851.44 Q1688.85 1856.06 1688.85 1864.01 M1682.99 1862.29 Q1682.93 1857.49 1680.28 1854.62 Q1677.67 1851.76 1673.35 1851.76 Q1668.44 1851.76 1665.48 1854.53 Q1662.56 1857.3 1662.11 1862.33 L1682.99 1862.29 Z" fill="#000000" fill-rule="nonzero" fill-opacity="1" /><path clip-path="url(#clip220)" d="M1725.86 1841.06 L1725.86 1858.92 L1733.95 1858.92 Q1738.44 1858.92 1740.89 1856.6 Q1743.34 1854.27 1743.34 1849.98 Q1743.34 1845.71 1740.89 1843.39 Q1738.44 1841.06 1733.95 1841.06 L1725.86 1841.06 M1719.43 1835.78 L1733.95 1835.78 Q1741.94 1835.78 1746.01 1839.41 Q1750.12 1843.01 1750.12 1849.98 Q1750.12 1857.01 1746.01 1860.61 Q1741.94 1864.2 1733.95 1864.2 L1725.86 1864.2 L1725.86 1883.3 L1719.43 1883.3 L1719.43 1835.78 Z" fill="#000000" fill-rule="nonzero" fill-opacity="1" /><polyline clip-path="url(#clip220)" style="stroke:#000000; stroke-linecap:round; stroke-linejoin:round; stroke-width:4; stroke-opacity:1; fill:none" points="255.816,1734.12 255.816,127.792 "/>
<polyline clip-path="url(#clip220)" style="stroke:#000000; stroke-linecap:round; stroke-linejoin:round; stroke-width:4; stroke-opacity:1; fill:none" points="255.816,1734.12 274.714,1734.12 "/>
<polyline clip-path="url(#clip220)" style="stroke:#000000; stroke-linecap:round; stroke-linejoin:round; stroke-width:4; stroke-opacity:1; fill:none" points="255.816,1466.4 274.714,1466.4 "/>
<polyline clip-path="url(#clip220)" style="stroke:#000000; stroke-linecap:round; stroke-linejoin:round; stroke-width:4; stroke-opacity:1; fill:none" points="255.816,1198.68 274.714,1198.68 "/>
<polyline clip-path="url(#clip220)" style="stroke:#000000; stroke-linecap:round; stroke-linejoin:round; stroke-width:4; stroke-opacity:1; fill:none" points="255.816,930.955 274.714,930.955 "/>
<polyline clip-path="url(#clip220)" style="stroke:#000000; stroke-linecap:round; stroke-linejoin:round; stroke-width:4; stroke-opacity:1; fill:none" points="255.816,663.234 274.714,663.234 "/>
<polyline clip-path="url(#clip220)" style="stroke:#000000; stroke-linecap:round; stroke-linejoin:round; stroke-width:4; stroke-opacity:1; fill:none" points="255.816,395.513 274.714,395.513 "/>
<path clip-path="url(#clip220)" d="M128.159 1719.92 Q124.548 1719.92 122.719 1723.48 Q120.913 1727.02 120.913 1734.15 Q120.913 1741.26 122.719 1744.82 Q124.548 1748.36 128.159 1748.36 Q131.793 1748.36 133.599 1744.82 Q135.427 1741.26 135.427 1734.15 Q135.427 1727.02 133.599 1723.48 Q131.793 1719.92 128.159 1719.92 M128.159 1716.21 Q133.969 1716.21 137.025 1720.82 Q140.103 1725.4 140.103 1734.15 Q140.103 1742.88 137.025 1747.48 Q133.969 1752.07 128.159 1752.07 Q122.349 1752.07 119.27 1747.48 Q116.214 1742.88 116.214 1734.15 Q116.214 1725.4 119.27 1720.82 Q122.349 1716.21 128.159 1716.21 Z" fill="#000000" fill-rule="nonzero" fill-opacity="1" /><path clip-path="url(#clip220)" d="M148.321 1745.52 L153.205 1745.52 L153.205 1751.4 L148.321 1751.4 L148.321 1745.52 Z" fill="#000000" fill-rule="nonzero" fill-opacity="1" /><path clip-path="url(#clip220)" d="M173.39 1719.92 Q169.779 1719.92 167.95 1723.48 Q166.145 1727.02 166.145 1734.15 Q166.145 1741.26 167.95 1744.82 Q169.779 1748.36 173.39 1748.36 Q177.024 1748.36 178.83 1744.82 Q180.659 1741.26 180.659 1734.15 Q180.659 1727.02 178.83 1723.48 Q177.024 1719.92 173.39 1719.92 M173.39 1716.21 Q179.2 1716.21 182.256 1720.82 Q185.334 1725.4 185.334 1734.15 Q185.334 1742.88 182.256 1747.48 Q179.2 1752.07 173.39 1752.07 Q167.58 1752.07 164.501 1747.48 Q161.446 1742.88 161.446 1734.15 Q161.446 1725.4 164.501 1720.82 Q167.58 1716.21 173.39 1716.21 Z" fill="#000000" fill-rule="nonzero" fill-opacity="1" /><path clip-path="url(#clip220)" d="M203.552 1719.92 Q199.941 1719.92 198.112 1723.48 Q196.307 1727.02 196.307 1734.15 Q196.307 1741.26 198.112 1744.82 Q199.941 1748.36 203.552 1748.36 Q207.186 1748.36 208.992 1744.82 Q210.82 1741.26 210.82 1734.15 Q210.82 1727.02 208.992 1723.48 Q207.186 1719.92 203.552 1719.92 M203.552 1716.21 Q209.362 1716.21 212.418 1720.82 Q215.496 1725.4 215.496 1734.15 Q215.496 1742.88 212.418 1747.48 Q209.362 1752.07 203.552 1752.07 Q197.742 1752.07 194.663 1747.48 Q191.608 1742.88 191.608 1734.15 Q191.608 1725.4 194.663 1720.82 Q197.742 1716.21 203.552 1716.21 Z" fill="#000000" fill-rule="nonzero" fill-opacity="1" /><path clip-path="url(#clip220)" d="M129.154 1452.19 Q125.543 1452.19 123.714 1455.76 Q121.909 1459.3 121.909 1466.43 Q121.909 1473.54 123.714 1477.1 Q125.543 1480.64 129.154 1480.64 Q132.788 1480.64 134.594 1477.1 Q136.423 1473.54 136.423 1466.43 Q136.423 1459.3 134.594 1455.76 Q132.788 1452.19 129.154 1452.19 M129.154 1448.49 Q134.964 1448.49 138.02 1453.1 Q141.099 1457.68 141.099 1466.43 Q141.099 1475.16 138.02 1479.76 Q134.964 1484.35 129.154 1484.35 Q123.344 1484.35 120.265 1479.76 Q117.21 1475.16 117.21 1466.43 Q117.21 1457.68 120.265 1453.1 Q123.344 1448.49 129.154 1448.49 Z" fill="#000000" fill-rule="nonzero" fill-opacity="1" /><path clip-path="url(#clip220)" d="M149.316 1477.8 L154.2 1477.8 L154.2 1483.68 L149.316 1483.68 L149.316 1477.8 Z" fill="#000000" fill-rule="nonzero" fill-opacity="1" /><path clip-path="url(#clip220)" d="M174.385 1452.19 Q170.774 1452.19 168.946 1455.76 Q167.14 1459.3 167.14 1466.43 Q167.14 1473.54 168.946 1477.1 Q170.774 1480.64 174.385 1480.64 Q178.02 1480.64 179.825 1477.1 Q181.654 1473.54 181.654 1466.43 Q181.654 1459.3 179.825 1455.76 Q178.02 1452.19 174.385 1452.19 M174.385 1448.49 Q180.196 1448.49 183.251 1453.1 Q186.33 1457.68 186.33 1466.43 Q186.33 1475.16 183.251 1479.76 Q180.196 1484.35 174.385 1484.35 Q168.575 1484.35 165.497 1479.76 Q162.441 1475.16 162.441 1466.43 Q162.441 1457.68 165.497 1453.1 Q168.575 1448.49 174.385 1448.49 Z" fill="#000000" fill-rule="nonzero" fill-opacity="1" /><path clip-path="url(#clip220)" d="M194.594 1449.12 L212.95 1449.12 L212.95 1453.05 L198.876 1453.05 L198.876 1461.52 Q199.895 1461.18 200.913 1461.01 Q201.932 1460.83 202.95 1460.83 Q208.737 1460.83 212.117 1464 Q215.496 1467.17 215.496 1472.59 Q215.496 1478.17 212.024 1481.27 Q208.552 1484.35 202.233 1484.35 Q200.057 1484.35 197.788 1483.98 Q195.543 1483.61 193.135 1482.87 L193.135 1478.17 Q195.219 1479.3 197.441 1479.86 Q199.663 1480.41 202.14 1480.41 Q206.145 1480.41 208.482 1478.31 Q210.82 1476.2 210.82 1472.59 Q210.82 1468.98 208.482 1466.87 Q206.145 1464.76 202.14 1464.76 Q200.265 1464.76 198.39 1465.18 Q196.538 1465.6 194.594 1466.48 L194.594 1449.12 Z" fill="#000000" fill-rule="nonzero" fill-opacity="1" /><path clip-path="url(#clip220)" d="M128.159 1184.47 Q124.548 1184.47 122.719 1188.04 Q120.913 1191.58 120.913 1198.71 Q120.913 1205.82 122.719 1209.38 Q124.548 1212.92 128.159 1212.92 Q131.793 1212.92 133.599 1209.38 Q135.427 1205.82 135.427 1198.71 Q135.427 1191.58 133.599 1188.04 Q131.793 1184.47 128.159 1184.47 M128.159 1180.77 Q133.969 1180.77 137.025 1185.38 Q140.103 1189.96 140.103 1198.71 Q140.103 1207.44 137.025 1212.04 Q133.969 1216.63 128.159 1216.63 Q122.349 1216.63 119.27 1212.04 Q116.214 1207.44 116.214 1198.71 Q116.214 1189.96 119.27 1185.38 Q122.349 1180.77 128.159 1180.77 Z" fill="#000000" fill-rule="nonzero" fill-opacity="1" /><path clip-path="url(#clip220)" d="M148.321 1210.08 L153.205 1210.08 L153.205 1215.96 L148.321 1215.96 L148.321 1210.08 Z" fill="#000000" fill-rule="nonzero" fill-opacity="1" /><path clip-path="url(#clip220)" d="M164.2 1212.02 L171.839 1212.02 L171.839 1185.65 L163.529 1187.32 L163.529 1183.06 L171.793 1181.4 L176.469 1181.4 L176.469 1212.02 L184.108 1212.02 L184.108 1215.96 L164.2 1215.96 L164.2 1212.02 Z" fill="#000000" fill-rule="nonzero" fill-opacity="1" /><path clip-path="url(#clip220)" d="M203.552 1184.47 Q199.941 1184.47 198.112 1188.04 Q196.307 1191.58 196.307 1198.71 Q196.307 1205.82 198.112 1209.38 Q199.941 1212.92 203.552 1212.92 Q207.186 1212.92 208.992 1209.38 Q210.82 1205.82 210.82 1198.71 Q210.82 1191.58 208.992 1188.04 Q207.186 1184.47 203.552 1184.47 M203.552 1180.77 Q209.362 1180.77 212.418 1185.38 Q215.496 1189.96 215.496 1198.71 Q215.496 1207.44 212.418 1212.04 Q209.362 1216.63 203.552 1216.63 Q197.742 1216.63 194.663 1212.04 Q191.608 1207.44 191.608 1198.71 Q191.608 1189.96 194.663 1185.38 Q197.742 1180.77 203.552 1180.77 Z" fill="#000000" fill-rule="nonzero" fill-opacity="1" /><path clip-path="url(#clip220)" d="M129.154 916.753 Q125.543 916.753 123.714 920.318 Q121.909 923.86 121.909 930.989 Q121.909 938.096 123.714 941.661 Q125.543 945.202 129.154 945.202 Q132.788 945.202 134.594 941.661 Q136.423 938.096 136.423 930.989 Q136.423 923.86 134.594 920.318 Q132.788 916.753 129.154 916.753 M129.154 913.05 Q134.964 913.05 138.02 917.656 Q141.099 922.239 141.099 930.989 Q141.099 939.716 138.02 944.323 Q134.964 948.906 129.154 948.906 Q123.344 948.906 120.265 944.323 Q117.21 939.716 117.21 930.989 Q117.21 922.239 120.265 917.656 Q123.344 913.05 129.154 913.05 Z" fill="#000000" fill-rule="nonzero" fill-opacity="1" /><path clip-path="url(#clip220)" d="M149.316 942.355 L154.2 942.355 L154.2 948.235 L149.316 948.235 L149.316 942.355 Z" fill="#000000" fill-rule="nonzero" fill-opacity="1" /><path clip-path="url(#clip220)" d="M165.196 944.299 L172.835 944.299 L172.835 917.934 L164.524 919.6 L164.524 915.341 L172.788 913.675 L177.464 913.675 L177.464 944.299 L185.103 944.299 L185.103 948.235 L165.196 948.235 L165.196 944.299 Z" fill="#000000" fill-rule="nonzero" fill-opacity="1" /><path clip-path="url(#clip220)" d="M194.594 913.675 L212.95 913.675 L212.95 917.61 L198.876 917.61 L198.876 926.082 Q199.895 925.735 200.913 925.573 Q201.932 925.387 202.95 925.387 Q208.737 925.387 212.117 928.559 Q215.496 931.73 215.496 937.147 Q215.496 942.725 212.024 945.827 Q208.552 948.906 202.233 948.906 Q200.057 948.906 197.788 948.535 Q195.543 948.165 193.135 947.424 L193.135 942.725 Q195.219 943.86 197.441 944.415 Q199.663 944.971 202.14 944.971 Q206.145 944.971 208.482 942.864 Q210.82 940.758 210.82 937.147 Q210.82 933.536 208.482 931.429 Q206.145 929.323 202.14 929.323 Q200.265 929.323 198.39 929.739 Q196.538 930.156 194.594 931.036 L194.594 913.675 Z" fill="#000000" fill-rule="nonzero" fill-opacity="1" /><path clip-path="url(#clip220)" d="M128.159 649.032 Q124.548 649.032 122.719 652.597 Q120.913 656.139 120.913 663.268 Q120.913 670.375 122.719 673.94 Q124.548 677.481 128.159 677.481 Q131.793 677.481 133.599 673.94 Q135.427 670.375 135.427 663.268 Q135.427 656.139 133.599 652.597 Q131.793 649.032 128.159 649.032 M128.159 645.329 Q133.969 645.329 137.025 649.935 Q140.103 654.519 140.103 663.268 Q140.103 671.995 137.025 676.602 Q133.969 681.185 128.159 681.185 Q122.349 681.185 119.27 676.602 Q116.214 671.995 116.214 663.268 Q116.214 654.519 119.27 649.935 Q122.349 645.329 128.159 645.329 Z" fill="#000000" fill-rule="nonzero" fill-opacity="1" /><path clip-path="url(#clip220)" d="M148.321 674.634 L153.205 674.634 L153.205 680.514 L148.321 680.514 L148.321 674.634 Z" fill="#000000" fill-rule="nonzero" fill-opacity="1" /><path clip-path="url(#clip220)" d="M167.418 676.579 L183.737 676.579 L183.737 680.514 L161.793 680.514 L161.793 676.579 Q164.455 673.824 169.038 669.194 Q173.645 664.542 174.825 663.199 Q177.071 660.676 177.95 658.94 Q178.853 657.181 178.853 655.491 Q178.853 652.736 176.909 651 Q174.987 649.264 171.885 649.264 Q169.686 649.264 167.233 650.028 Q164.802 650.792 162.024 652.343 L162.024 647.62 Q164.848 646.486 167.302 645.907 Q169.756 645.329 171.793 645.329 Q177.163 645.329 180.358 648.014 Q183.552 650.699 183.552 655.19 Q183.552 657.319 182.742 659.241 Q181.955 661.139 179.848 663.731 Q179.27 664.403 176.168 667.62 Q173.066 670.815 167.418 676.579 Z" fill="#000000" fill-rule="nonzero" fill-opacity="1" /><path clip-path="url(#clip220)" d="M203.552 649.032 Q199.941 649.032 198.112 652.597 Q196.307 656.139 196.307 663.268 Q196.307 670.375 198.112 673.94 Q199.941 677.481 203.552 677.481 Q207.186 677.481 208.992 673.94 Q210.82 670.375 210.82 663.268 Q210.82 656.139 208.992 652.597 Q207.186 649.032 203.552 649.032 M203.552 645.329 Q209.362 645.329 212.418 649.935 Q215.496 654.519 215.496 663.268 Q215.496 671.995 212.418 676.602 Q209.362 681.185 203.552 681.185 Q197.742 681.185 194.663 676.602 Q191.608 671.995 191.608 663.268 Q191.608 654.519 194.663 649.935 Q197.742 645.329 203.552 645.329 Z" fill="#000000" fill-rule="nonzero" fill-opacity="1" /><path clip-path="url(#clip220)" d="M129.154 381.312 Q125.543 381.312 123.714 384.876 Q121.909 388.418 121.909 395.548 Q121.909 402.654 123.714 406.219 Q125.543 409.761 129.154 409.761 Q132.788 409.761 134.594 406.219 Q136.423 402.654 136.423 395.548 Q136.423 388.418 134.594 384.876 Q132.788 381.312 129.154 381.312 M129.154 377.608 Q134.964 377.608 138.02 382.214 Q141.099 386.798 141.099 395.548 Q141.099 404.274 138.02 408.881 Q134.964 413.464 129.154 413.464 Q123.344 413.464 120.265 408.881 Q117.21 404.274 117.21 395.548 Q117.21 386.798 120.265 382.214 Q123.344 377.608 129.154 377.608 Z" fill="#000000" fill-rule="nonzero" fill-opacity="1" /><path clip-path="url(#clip220)" d="M149.316 406.913 L154.2 406.913 L154.2 412.793 L149.316 412.793 L149.316 406.913 Z" fill="#000000" fill-rule="nonzero" fill-opacity="1" /><path clip-path="url(#clip220)" d="M168.413 408.858 L184.733 408.858 L184.733 412.793 L162.788 412.793 L162.788 408.858 Q165.45 406.103 170.034 401.474 Q174.64 396.821 175.821 395.478 Q178.066 392.955 178.946 391.219 Q179.848 389.46 179.848 387.77 Q179.848 385.015 177.904 383.279 Q175.983 381.543 172.881 381.543 Q170.682 381.543 168.228 382.307 Q165.798 383.071 163.02 384.622 L163.02 379.9 Q165.844 378.765 168.297 378.187 Q170.751 377.608 172.788 377.608 Q178.159 377.608 181.353 380.293 Q184.547 382.978 184.547 387.469 Q184.547 389.599 183.737 391.52 Q182.95 393.418 180.844 396.011 Q180.265 396.682 177.163 399.899 Q174.061 403.094 168.413 408.858 Z" fill="#000000" fill-rule="nonzero" fill-opacity="1" /><path clip-path="url(#clip220)" d="M194.594 378.233 L212.95 378.233 L212.95 382.168 L198.876 382.168 L198.876 390.64 Q199.895 390.293 200.913 390.131 Q201.932 389.946 202.95 389.946 Q208.737 389.946 212.117 393.117 Q215.496 396.288 215.496 401.705 Q215.496 407.284 212.024 410.386 Q208.552 413.464 202.233 413.464 Q200.057 413.464 197.788 413.094 Q195.543 412.723 193.135 411.983 L193.135 407.284 Q195.219 408.418 197.441 408.974 Q199.663 409.529 202.14 409.529 Q206.145 409.529 208.482 407.423 Q210.82 405.316 210.82 401.705 Q210.82 398.094 208.482 395.987 Q206.145 393.881 202.14 393.881 Q200.265 393.881 198.39 394.298 Q196.538 394.714 194.594 395.594 L194.594 378.233 Z" fill="#000000" fill-rule="nonzero" fill-opacity="1" /><path clip-path="url(#clip220)" d="M14.1184 1277.54 L14.1184 1267.96 L46.4562 1255.83 L14.1184 1243.64 L14.1184 1234.06 L61.6384 1234.06 L61.6384 1240.33 L19.9112 1240.33 L52.5037 1252.58 L52.5037 1259.04 L19.9112 1271.3 L61.6384 1271.3 L61.6384 1277.54 L14.1184 1277.54 Z" fill="#000000" fill-rule="nonzero" fill-opacity="1" /><path clip-path="url(#clip220)" d="M42.3504 1191.06 L45.2149 1191.06 L45.2149 1217.98 Q51.2623 1217.6 54.4452 1214.36 Q57.5962 1211.08 57.5962 1205.25 Q57.5962 1201.88 56.7687 1198.73 Q55.9411 1195.55 54.2861 1192.43 L59.8242 1192.43 Q61.161 1195.58 61.8612 1198.89 Q62.5615 1202.2 62.5615 1205.6 Q62.5615 1214.13 57.5962 1219.13 Q52.631 1224.1 44.1646 1224.1 Q35.4117 1224.1 30.2873 1219.38 Q25.1311 1214.64 25.1311 1206.62 Q25.1311 1199.43 29.7781 1195.26 Q34.3932 1191.06 42.3504 1191.06 M40.6316 1196.91 Q35.8255 1196.98 32.9609 1199.62 Q30.0964 1202.23 30.0964 1206.56 Q30.0964 1211.46 32.8654 1214.42 Q35.6345 1217.35 40.6634 1217.79 L40.6316 1196.91 Z" fill="#000000" fill-rule="nonzero" fill-opacity="1" /><path clip-path="url(#clip220)" d="M43.719 1165.24 Q43.719 1172.34 45.3422 1175.08 Q46.9655 1177.82 50.8804 1177.82 Q53.9996 1177.82 55.8457 1175.78 Q57.6599 1173.71 57.6599 1170.18 Q57.6599 1165.31 54.2224 1162.38 Q50.7531 1159.42 45.0239 1159.42 L43.719 1159.42 L43.719 1165.24 M41.3 1153.56 L61.6384 1153.56 L61.6384 1159.42 L56.2276 1159.42 Q59.4741 1161.42 61.0337 1164.42 Q62.5615 1167.41 62.5615 1171.74 Q62.5615 1177.21 59.5059 1180.46 Q56.4186 1183.67 51.2623 1183.67 Q45.2467 1183.67 42.1912 1179.66 Q39.1357 1175.62 39.1357 1167.63 L39.1357 1159.42 L38.5628 1159.42 Q34.5205 1159.42 32.3244 1162.09 Q30.0964 1164.74 30.0964 1169.54 Q30.0964 1172.6 30.8284 1175.49 Q31.5605 1178.39 33.0246 1181.06 L27.6137 1181.06 Q26.3724 1177.85 25.7677 1174.82 Q25.1311 1171.8 25.1311 1168.94 Q25.1311 1161.2 29.1415 1157.38 Q33.1519 1153.56 41.3 1153.56 Z" fill="#000000" fill-rule="nonzero" fill-opacity="1" /><path clip-path="url(#clip220)" d="M40.1224 1111.87 L61.6384 1111.87 L61.6384 1117.72 L40.3133 1117.72 Q35.2526 1117.72 32.7381 1119.7 Q30.2237 1121.67 30.2237 1125.62 Q30.2237 1130.36 33.2474 1133.1 Q36.2711 1135.83 41.491 1135.83 L61.6384 1135.83 L61.6384 1141.72 L25.9905 1141.72 L25.9905 1135.83 L31.5287 1135.83 Q28.314 1133.73 26.7225 1130.9 Q25.1311 1128.04 25.1311 1124.31 Q25.1311 1118.17 28.9505 1115.02 Q32.7381 1111.87 40.1224 1111.87 Z" fill="#000000" fill-rule="nonzero" fill-opacity="1" /><path clip-path="url(#clip220)" d="M31.4013 1056.01 L12.1132 1056.01 L12.1132 1050.15 L61.6384 1050.15 L61.6384 1056.01 L56.2912 1056.01 Q59.4741 1057.85 61.0337 1060.69 Q62.5615 1063.49 62.5615 1067.44 Q62.5615 1073.9 57.4052 1077.97 Q52.249 1082.01 43.8463 1082.01 Q35.4436 1082.01 30.2873 1077.97 Q25.1311 1073.9 25.1311 1067.44 Q25.1311 1063.49 26.6907 1060.69 Q28.2185 1057.85 31.4013 1056.01 M43.8463 1075.97 Q50.3075 1075.97 53.9996 1073.32 Q57.6599 1070.65 57.6599 1066 Q57.6599 1061.36 53.9996 1058.68 Q50.3075 1056.01 43.8463 1056.01 Q37.3851 1056.01 33.7248 1058.68 Q30.0327 1061.36 30.0327 1066 Q30.0327 1070.65 33.7248 1073.32 Q37.3851 1075.97 43.8463 1075.97 Z" fill="#000000" fill-rule="nonzero" fill-opacity="1" /><path clip-path="url(#clip220)" d="M25.9905 1038.09 L25.9905 1032.23 L61.6384 1032.23 L61.6384 1038.09 L25.9905 1038.09 M12.1132 1038.09 L12.1132 1032.23 L19.5293 1032.23 L19.5293 1038.09 L12.1132 1038.09 Z" fill="#000000" fill-rule="nonzero" fill-opacity="1" /><path clip-path="url(#clip220)" d="M27.0408 997.253 L32.579 997.253 Q31.3059 999.736 30.6693 1002.41 Q30.0327 1005.08 30.0327 1007.95 Q30.0327 1012.31 31.3695 1014.5 Q32.7063 1016.67 35.3799 1016.67 Q37.4169 1016.67 38.5946 1015.11 Q39.7404 1013.55 40.7908 1008.84 L41.2364 1006.83 Q42.5732 1000.6 45.0239 997.985 Q47.4429 995.344 51.8034 995.344 Q56.7687 995.344 59.6651 999.29 Q62.5615 1003.21 62.5615 1010.08 Q62.5615 1012.94 61.9886 1016.06 Q61.4475 1019.15 60.3335 1022.59 L54.2861 1022.59 Q55.973 1019.34 56.8323 1016.19 Q57.6599 1013.04 57.6599 1009.95 Q57.6599 1005.82 56.2594 1003.59 Q54.8271 1001.36 52.249 1001.36 Q49.8619 1001.36 48.5887 1002.98 Q47.3156 1004.57 46.1379 1010.02 L45.6605 1012.05 Q44.5147 1017.5 42.1594 1019.92 Q39.7722 1022.33 35.6345 1022.33 Q30.6056 1022.33 27.8684 1018.77 Q25.1311 1015.2 25.1311 1008.65 Q25.1311 1005.4 25.6085 1002.54 Q26.086 999.672 27.0408 997.253 Z" fill="#000000" fill-rule="nonzero" fill-opacity="1" /><path clip-path="url(#clip220)" d="M27.3591 960.364 L32.8336 960.364 Q31.465 962.847 30.7966 965.361 Q30.0964 967.844 30.0964 970.39 Q30.0964 976.087 33.7248 979.238 Q37.3214 982.389 43.8463 982.389 Q50.3711 982.389 53.9996 979.238 Q57.5962 976.087 57.5962 970.39 Q57.5962 967.844 56.9278 965.361 Q56.2276 962.847 54.859 960.364 L60.2698 960.364 Q61.4156 962.815 61.9886 965.457 Q62.5615 968.067 62.5615 971.027 Q62.5615 979.079 57.5007 983.822 Q52.44 988.564 43.8463 988.564 Q35.1253 988.564 30.1282 983.79 Q25.1311 978.984 25.1311 970.645 Q25.1311 967.939 25.704 965.361 Q26.2451 962.783 27.3591 960.364 Z" fill="#000000" fill-rule="nonzero" fill-opacity="1" /><path clip-path="url(#clip220)" d="M30.0964 936.365 Q30.0964 941.076 33.7885 943.813 Q37.4488 946.551 43.8463 946.551 Q50.2438 946.551 53.9359 943.845 Q57.5962 941.108 57.5962 936.365 Q57.5962 931.687 53.9041 928.949 Q50.212 926.212 43.8463 926.212 Q37.5124 926.212 33.8203 928.949 Q30.0964 931.687 30.0964 936.365 M25.1311 936.365 Q25.1311 928.727 30.0964 924.366 Q35.0616 920.006 43.8463 920.006 Q52.5991 920.006 57.5962 924.366 Q62.5615 928.727 62.5615 936.365 Q62.5615 944.036 57.5962 948.397 Q52.5991 952.725 43.8463 952.725 Q35.0616 952.725 30.0964 948.397 Q25.1311 944.036 25.1311 936.365 Z" fill="#000000" fill-rule="nonzero" fill-opacity="1" /><path clip-path="url(#clip220)" d="M47.5702 910.903 L25.9905 910.903 L25.9905 905.046 L47.3474 905.046 Q52.4082 905.046 54.9545 903.073 Q57.4689 901.099 57.4689 897.153 Q57.4689 892.41 54.4452 889.673 Q51.4215 886.904 46.2016 886.904 L25.9905 886.904 L25.9905 881.047 L61.6384 881.047 L61.6384 886.904 L56.1639 886.904 Q59.4104 889.036 61.0019 891.869 Q62.5615 894.67 62.5615 898.394 Q62.5615 904.537 58.742 907.72 Q54.9226 910.903 47.5702 910.903 M25.1311 896.166 L25.1311 896.166 Z" fill="#000000" fill-rule="nonzero" fill-opacity="1" /><path clip-path="url(#clip220)" d="M40.1224 839.352 L61.6384 839.352 L61.6384 845.208 L40.3133 845.208 Q35.2526 845.208 32.7381 847.182 Q30.2237 849.155 30.2237 853.102 Q30.2237 857.844 33.2474 860.582 Q36.2711 863.319 41.491 863.319 L61.6384 863.319 L61.6384 869.207 L25.9905 869.207 L25.9905 863.319 L31.5287 863.319 Q28.314 861.218 26.7225 858.386 Q25.1311 855.521 25.1311 851.797 Q25.1311 845.654 28.9505 842.503 Q32.7381 839.352 40.1224 839.352 Z" fill="#000000" fill-rule="nonzero" fill-opacity="1" /><path clip-path="url(#clip220)" d="M15.869 821.878 L25.9905 821.878 L25.9905 809.815 L30.542 809.815 L30.542 821.878 L49.8937 821.878 Q54.2542 821.878 55.4955 820.701 Q56.7368 819.491 56.7368 815.831 L56.7368 809.815 L61.6384 809.815 L61.6384 815.831 Q61.6384 822.61 59.124 825.188 Q56.5777 827.766 49.8937 827.766 L30.542 827.766 L30.542 832.063 L25.9905 832.063 L25.9905 827.766 L15.869 827.766 L15.869 821.878 Z" fill="#000000" fill-rule="nonzero" fill-opacity="1" /><path clip-path="url(#clip220)" d="M30.0964 767.579 Q30.0964 772.289 33.7885 775.027 Q37.4488 777.764 43.8463 777.764 Q50.2438 777.764 53.9359 775.058 Q57.5962 772.321 57.5962 767.579 Q57.5962 762.9 53.9041 760.163 Q50.212 757.425 43.8463 757.425 Q37.5124 757.425 33.8203 760.163 Q30.0964 762.9 30.0964 767.579 M25.1311 767.579 Q25.1311 759.94 30.0964 755.579 Q35.0616 751.219 43.8463 751.219 Q52.5991 751.219 57.5962 755.579 Q62.5615 759.94 62.5615 767.579 Q62.5615 775.249 57.5962 779.61 Q52.5991 783.939 43.8463 783.939 Q35.0616 783.939 30.0964 779.61 Q25.1311 775.249 25.1311 767.579 Z" fill="#000000" fill-rule="nonzero" fill-opacity="1" /><path clip-path="url(#clip220)" d="M25.9905 745.712 L25.9905 739.506 L55.9093 728.366 L25.9905 717.226 L25.9905 711.019 L61.6384 724.387 L61.6384 732.345 L25.9905 745.712 Z" fill="#000000" fill-rule="nonzero" fill-opacity="1" /><path clip-path="url(#clip220)" d="M42.3504 672.443 L45.2149 672.443 L45.2149 699.37 Q51.2623 698.988 54.4452 695.742 Q57.5962 692.463 57.5962 686.639 Q57.5962 683.265 56.7687 680.114 Q55.9411 676.931 54.2861 673.812 L59.8242 673.812 Q61.161 676.963 61.8612 680.273 Q62.5615 683.583 62.5615 686.989 Q62.5615 695.519 57.5962 700.516 Q52.631 705.481 44.1646 705.481 Q35.4117 705.481 30.2873 700.771 Q25.1311 696.028 25.1311 688.007 Q25.1311 680.814 29.7781 676.645 Q34.3932 672.443 42.3504 672.443 M40.6316 678.3 Q35.8255 678.363 32.9609 681.005 Q30.0964 683.615 30.0964 687.944 Q30.0964 692.845 32.8654 695.805 Q35.6345 698.734 40.6634 699.179 L40.6316 678.3 Z" fill="#000000" fill-rule="nonzero" fill-opacity="1" /><path clip-path="url(#clip220)" d="M31.465 642.174 Q30.8921 643.161 30.6375 644.339 Q30.351 645.484 30.351 646.885 Q30.351 651.85 33.5975 654.524 Q36.8122 657.166 42.8596 657.166 L61.6384 657.166 L61.6384 663.054 L25.9905 663.054 L25.9905 657.166 L31.5287 657.166 Q28.2821 655.319 26.7225 652.359 Q25.1311 649.399 25.1311 645.166 Q25.1311 644.561 25.2266 643.829 Q25.2903 643.097 25.4494 642.206 L31.465 642.174 Z" fill="#000000" fill-rule="nonzero" fill-opacity="1" /><path clip-path="url(#clip220)" d="M19.402 608.627 L37.2578 608.627 L37.2578 600.543 Q37.2578 596.055 34.9343 593.604 Q32.6108 591.153 28.314 591.153 Q24.0489 591.153 21.7255 593.604 Q19.402 596.055 19.402 600.543 L19.402 608.627 M14.1184 615.056 L14.1184 600.543 Q14.1184 592.554 17.7469 588.48 Q21.3435 584.374 28.314 584.374 Q35.3481 584.374 38.9447 588.48 Q42.5413 592.554 42.5413 600.543 L42.5413 608.627 L61.6384 608.627 L61.6384 615.056 L14.1184 615.056 Z" fill="#000000" fill-rule="nonzero" fill-opacity="1" /><path clip-path="url(#clip220)" d="M729.109 18.8205 L729.109 65.8515 L738.993 65.8515 Q751.51 65.8515 757.303 60.1802 Q763.136 54.509 763.136 42.2752 Q763.136 30.1225 757.303 24.4918 Q751.51 18.8205 738.993 18.8205 L729.109 18.8205 M720.926 12.096 L737.737 12.096 Q755.318 12.096 763.542 19.4281 Q771.765 26.7198 771.765 42.2752 Q771.765 57.9117 763.501 65.2439 Q755.237 72.576 737.737 72.576 L720.926 72.576 L720.926 12.096 Z" fill="#000000" fill-rule="nonzero" fill-opacity="1" /><path clip-path="url(#clip220)" d="M784.485 27.2059 L791.938 27.2059 L791.938 72.576 L784.485 72.576 L784.485 27.2059 M784.485 9.54393 L791.938 9.54393 L791.938 18.9825 L784.485 18.9825 L784.485 9.54393 Z" fill="#000000" fill-rule="nonzero" fill-opacity="1" /><path clip-path="url(#clip220)" d="M836.458 28.5427 L836.458 35.5912 Q833.298 33.9709 829.895 33.1607 Q826.493 32.3505 822.847 32.3505 Q817.297 32.3505 814.502 34.0519 Q811.747 35.7533 811.747 39.156 Q811.747 41.7486 813.732 43.2475 Q815.717 44.7058 821.713 46.0426 L824.265 46.6097 Q832.204 48.3111 835.526 51.4303 Q838.888 54.509 838.888 60.0587 Q838.888 66.3781 833.865 70.0644 Q828.883 73.7508 820.133 73.7508 Q816.487 73.7508 812.517 73.0216 Q808.588 72.3329 804.213 70.9151 L804.213 63.2184 Q808.345 65.3654 812.355 66.4591 Q816.365 67.5124 820.295 67.5124 Q825.561 67.5124 828.396 65.73 Q831.232 63.9071 831.232 60.6258 Q831.232 57.5877 829.166 55.9673 Q827.141 54.3469 820.214 52.8481 L817.621 52.2405 Q810.694 50.7821 807.615 47.7845 Q804.537 44.7463 804.537 39.4801 Q804.537 33.0797 809.074 29.5959 Q813.611 26.1121 821.956 26.1121 Q826.087 26.1121 829.733 26.7198 Q833.379 27.3274 836.458 28.5427 Z" fill="#000000" fill-rule="nonzero" fill-opacity="1" /><path clip-path="url(#clip220)" d="M883.408 28.9478 L883.408 35.9153 Q880.248 34.1734 877.048 33.3227 Q873.888 32.4315 870.647 32.4315 Q863.396 32.4315 859.386 37.0496 Q855.376 41.6271 855.376 49.9314 Q855.376 58.2358 859.386 62.8538 Q863.396 67.4314 870.647 67.4314 Q873.888 67.4314 877.048 66.5807 Q880.248 65.6895 883.408 63.9476 L883.408 70.8341 Q880.289 72.2924 876.926 73.0216 Q873.605 73.7508 869.837 73.7508 Q859.588 73.7508 853.553 67.3098 Q847.517 60.8689 847.517 49.9314 Q847.517 38.832 853.593 32.472 Q859.71 26.1121 870.323 26.1121 Q873.767 26.1121 877.048 26.8413 Q880.329 27.5299 883.408 28.9478 Z" fill="#000000" fill-rule="nonzero" fill-opacity="1" /><path clip-path="url(#clip220)" d="M913.952 32.4315 Q907.956 32.4315 904.472 37.1306 Q900.989 41.7891 900.989 49.9314 Q900.989 58.0738 904.432 62.7728 Q907.916 67.4314 913.952 67.4314 Q919.906 67.4314 923.39 62.7323 Q926.874 58.0333 926.874 49.9314 Q926.874 41.8701 923.39 37.1711 Q919.906 32.4315 913.952 32.4315 M913.952 26.1121 Q923.674 26.1121 929.223 32.4315 Q934.773 38.7509 934.773 49.9314 Q934.773 61.0714 929.223 67.4314 Q923.674 73.7508 913.952 73.7508 Q904.189 73.7508 898.639 67.4314 Q893.13 61.0714 893.13 49.9314 Q893.13 38.7509 898.639 32.4315 Q904.189 26.1121 913.952 26.1121 Z" fill="#000000" fill-rule="nonzero" fill-opacity="1" /><path clip-path="url(#clip220)" d="M946.359 54.671 L946.359 27.2059 L953.812 27.2059 L953.812 54.3874 Q953.812 60.8284 956.324 64.0691 Q958.836 67.2693 963.859 67.2693 Q969.895 67.2693 973.378 63.421 Q976.903 59.5726 976.903 52.9291 L976.903 27.2059 L984.356 27.2059 L984.356 72.576 L976.903 72.576 L976.903 65.6084 Q974.189 69.7404 970.583 71.7658 Q967.018 73.7508 962.279 73.7508 Q954.461 73.7508 950.41 68.8897 Q946.359 64.0286 946.359 54.671 M965.115 26.1121 L965.115 26.1121 Z" fill="#000000" fill-rule="nonzero" fill-opacity="1" /><path clip-path="url(#clip220)" d="M1037.42 45.1919 L1037.42 72.576 L1029.97 72.576 L1029.97 45.4349 Q1029.97 38.994 1027.46 35.7938 Q1024.95 32.5936 1019.92 32.5936 Q1013.89 32.5936 1010.4 36.4419 Q1006.92 40.2903 1006.92 46.9338 L1006.92 72.576 L999.426 72.576 L999.426 27.2059 L1006.92 27.2059 L1006.92 34.2544 Q1009.59 30.163 1013.2 28.1376 Q1016.84 26.1121 1021.58 26.1121 Q1029.4 26.1121 1033.41 30.9732 Q1037.42 35.7938 1037.42 45.1919 Z" fill="#000000" fill-rule="nonzero" fill-opacity="1" /><path clip-path="url(#clip220)" d="M1059.66 14.324 L1059.66 27.2059 L1075.02 27.2059 L1075.02 32.9987 L1059.66 32.9987 L1059.66 57.6282 Q1059.66 63.1779 1061.16 64.7578 Q1062.7 66.3376 1067.36 66.3376 L1075.02 66.3376 L1075.02 72.576 L1067.36 72.576 Q1058.73 72.576 1055.45 69.3758 Q1052.17 66.1351 1052.17 57.6282 L1052.17 32.9987 L1046.7 32.9987 L1046.7 27.2059 L1052.17 27.2059 L1052.17 14.324 L1059.66 14.324 Z" fill="#000000" fill-rule="nonzero" fill-opacity="1" /><path clip-path="url(#clip220)" d="M1098.07 12.096 L1104.95 12.096 L1083.89 80.2727 L1077 80.2727 L1098.07 12.096 Z" fill="#000000" fill-rule="nonzero" fill-opacity="1" /><path clip-path="url(#clip220)" d="M1121.28 18.8205 L1121.28 41.5461 L1131.57 41.5461 Q1137.28 41.5461 1140.4 38.5889 Q1143.52 35.6318 1143.52 30.163 Q1143.52 24.7348 1140.4 21.7777 Q1137.28 18.8205 1131.57 18.8205 L1121.28 18.8205 M1113.09 12.096 L1131.57 12.096 Q1141.73 12.096 1146.92 16.714 Q1152.14 21.2916 1152.14 30.163 Q1152.14 39.1155 1146.92 43.6931 Q1141.73 48.2706 1131.57 48.2706 L1121.28 48.2706 L1121.28 72.576 L1113.09 72.576 L1113.09 12.096 Z" fill="#000000" fill-rule="nonzero" fill-opacity="1" /><path clip-path="url(#clip220)" d="M1212.14 9.54393 L1212.14 15.7418 L1205.01 15.7418 Q1201 15.7418 1199.42 17.3622 Q1197.88 18.9825 1197.88 23.1955 L1197.88 27.2059 L1210.15 27.2059 L1210.15 32.9987 L1197.88 32.9987 L1197.88 72.576 L1190.39 72.576 L1190.39 32.9987 L1183.26 32.9987 L1183.26 27.2059 L1190.39 27.2059 L1190.39 24.0462 Q1190.39 16.471 1193.91 13.0277 Q1197.43 9.54393 1205.09 9.54393 L1212.14 9.54393 Z" fill="#000000" fill-rule="nonzero" fill-opacity="1" /><path clip-path="url(#clip220)" d="M1235.96 32.4315 Q1229.96 32.4315 1226.48 37.1306 Q1223 41.7891 1223 49.9314 Q1223 58.0738 1226.44 62.7728 Q1229.92 67.4314 1235.96 67.4314 Q1241.91 67.4314 1245.4 62.7323 Q1248.88 58.0333 1248.88 49.9314 Q1248.88 41.8701 1245.4 37.1711 Q1241.91 32.4315 1235.96 32.4315 M1235.96 26.1121 Q1245.68 26.1121 1251.23 32.4315 Q1256.78 38.7509 1256.78 49.9314 Q1256.78 61.0714 1251.23 67.4314 Q1245.68 73.7508 1235.96 73.7508 Q1226.2 73.7508 1220.65 67.4314 Q1215.14 61.0714 1215.14 49.9314 Q1215.14 38.7509 1220.65 32.4315 Q1226.2 26.1121 1235.96 26.1121 Z" fill="#000000" fill-rule="nonzero" fill-opacity="1" /><path clip-path="url(#clip220)" d="M1295.43 34.1734 Q1294.17 33.4443 1292.67 33.1202 Q1291.21 32.7556 1289.43 32.7556 Q1283.11 32.7556 1279.71 36.8875 Q1276.35 40.9789 1276.35 48.6757 L1276.35 72.576 L1268.85 72.576 L1268.85 27.2059 L1276.35 27.2059 L1276.35 34.2544 Q1278.7 30.1225 1282.46 28.1376 Q1286.23 26.1121 1291.62 26.1121 Q1292.39 26.1121 1293.32 26.2337 Q1294.25 26.3147 1295.38 26.5172 L1295.43 34.1734 Z" fill="#000000" fill-rule="nonzero" fill-opacity="1" /><path clip-path="url(#clip220)" d="M1352.58 9.54393 L1352.58 15.7418 L1345.45 15.7418 Q1341.44 15.7418 1339.86 17.3622 Q1338.32 18.9825 1338.32 23.1955 L1338.32 27.2059 L1350.6 27.2059 L1350.6 32.9987 L1338.32 32.9987 L1338.32 72.576 L1330.83 72.576 L1330.83 32.9987 L1323.7 32.9987 L1323.7 27.2059 L1330.83 27.2059 L1330.83 24.0462 Q1330.83 16.471 1334.35 13.0277 Q1337.88 9.54393 1345.53 9.54393 L1352.58 9.54393 Z" fill="#000000" fill-rule="nonzero" fill-opacity="1" /><path clip-path="url(#clip220)" d="M1358.82 27.2059 L1366.28 27.2059 L1366.28 72.576 L1358.82 72.576 L1358.82 27.2059 M1358.82 9.54393 L1366.28 9.54393 L1366.28 18.9825 L1358.82 18.9825 L1358.82 9.54393 Z" fill="#000000" fill-rule="nonzero" fill-opacity="1" /><path clip-path="url(#clip220)" d="M1419.59 27.2059 L1403.18 49.2833 L1420.44 72.576 L1411.65 72.576 L1398.44 54.752 L1385.23 72.576 L1376.44 72.576 L1394.06 48.8377 L1377.94 27.2059 L1386.73 27.2059 L1398.76 43.369 L1410.79 27.2059 L1419.59 27.2059 Z" fill="#000000" fill-rule="nonzero" fill-opacity="1" /><path clip-path="url(#clip220)" d="M1467.22 48.0275 L1467.22 51.6733 L1432.95 51.6733 Q1433.44 59.3701 1437.57 63.421 Q1441.74 67.4314 1449.16 67.4314 Q1453.45 67.4314 1457.46 66.3781 Q1461.51 65.3249 1465.48 63.2184 L1465.48 70.267 Q1461.47 71.9684 1457.26 72.8596 Q1453.05 73.7508 1448.71 73.7508 Q1437.86 73.7508 1431.5 67.4314 Q1425.18 61.1119 1425.18 50.3365 Q1425.18 39.1965 1431.17 32.6746 Q1437.21 26.1121 1447.42 26.1121 Q1456.57 26.1121 1461.88 32.0264 Q1467.22 37.9003 1467.22 48.0275 M1459.77 45.84 Q1459.69 39.7232 1456.33 36.0774 Q1453.01 32.4315 1447.5 32.4315 Q1441.26 32.4315 1437.49 35.9558 Q1433.76 39.4801 1433.2 45.8805 L1459.77 45.84 Z" fill="#000000" fill-rule="nonzero" fill-opacity="1" /><path clip-path="url(#clip220)" d="M1509.31 34.0924 L1509.31 9.54393 L1516.77 9.54393 L1516.77 72.576 L1509.31 72.576 L1509.31 65.7705 Q1506.96 69.8214 1503.36 71.8063 Q1499.79 73.7508 1494.77 73.7508 Q1486.55 73.7508 1481.36 67.1883 Q1476.22 60.6258 1476.22 49.9314 Q1476.22 39.2371 1481.36 32.6746 Q1486.55 26.1121 1494.77 26.1121 Q1499.79 26.1121 1503.36 28.0971 Q1506.96 30.0415 1509.31 34.0924 M1483.91 49.9314 Q1483.91 58.1548 1487.28 62.8538 Q1490.68 67.5124 1496.59 67.5124 Q1502.51 67.5124 1505.91 62.8538 Q1509.31 58.1548 1509.31 49.9314 Q1509.31 41.7081 1505.91 37.0496 Q1502.51 32.3505 1496.59 32.3505 Q1490.68 32.3505 1487.28 37.0496 Q1483.91 41.7081 1483.91 49.9314 Z" fill="#000000" fill-rule="nonzero" fill-opacity="1" /><path clip-path="url(#clip220)" d="M1587.41 28.5427 L1587.41 35.5912 Q1584.25 33.9709 1580.85 33.1607 Q1577.45 32.3505 1573.8 32.3505 Q1568.25 32.3505 1565.46 34.0519 Q1562.7 35.7533 1562.7 39.156 Q1562.7 41.7486 1564.69 43.2475 Q1566.67 44.7058 1572.67 46.0426 L1575.22 46.6097 Q1583.16 48.3111 1586.48 51.4303 Q1589.84 54.509 1589.84 60.0587 Q1589.84 66.3781 1584.82 70.0644 Q1579.84 73.7508 1571.09 73.7508 Q1567.44 73.7508 1563.47 73.0216 Q1559.54 72.3329 1555.17 70.9151 L1555.17 63.2184 Q1559.3 65.3654 1563.31 66.4591 Q1567.32 67.5124 1571.25 67.5124 Q1576.52 67.5124 1579.35 65.73 Q1582.19 63.9071 1582.19 60.6258 Q1582.19 57.5877 1580.12 55.9673 Q1578.1 54.3469 1571.17 52.8481 L1568.58 52.2405 Q1561.65 50.7821 1558.57 47.7845 Q1555.49 44.7463 1555.49 39.4801 Q1555.49 33.0797 1560.03 29.5959 Q1564.57 26.1121 1572.91 26.1121 Q1577.04 26.1121 1580.69 26.7198 Q1584.34 27.3274 1587.41 28.5427 Z" fill="#000000" fill-rule="nonzero" fill-opacity="1" /><path clip-path="url(#clip220)" d="M1609.09 14.324 L1609.09 27.2059 L1624.44 27.2059 L1624.44 32.9987 L1609.09 32.9987 L1609.09 57.6282 Q1609.09 63.1779 1610.59 64.7578 Q1612.12 66.3376 1616.78 66.3376 L1624.44 66.3376 L1624.44 72.576 L1616.78 72.576 Q1608.16 72.576 1604.87 69.3758 Q1601.59 66.1351 1601.59 57.6282 L1601.59 32.9987 L1596.12 32.9987 L1596.12 27.2059 L1601.59 27.2059 L1601.59 14.324 L1609.09 14.324 Z" fill="#000000" fill-rule="nonzero" fill-opacity="1" /><path clip-path="url(#clip220)" d="M1673.05 48.0275 L1673.05 51.6733 L1638.78 51.6733 Q1639.27 59.3701 1643.4 63.421 Q1647.57 67.4314 1654.98 67.4314 Q1659.28 67.4314 1663.29 66.3781 Q1667.34 65.3249 1671.31 63.2184 L1671.31 70.267 Q1667.3 71.9684 1663.09 72.8596 Q1658.87 73.7508 1654.54 73.7508 Q1643.68 73.7508 1637.32 67.4314 Q1631 61.1119 1631 50.3365 Q1631 39.1965 1637 32.6746 Q1643.03 26.1121 1653.24 26.1121 Q1662.4 26.1121 1667.7 32.0264 Q1673.05 37.9003 1673.05 48.0275 M1665.6 45.84 Q1665.52 39.7232 1662.15 36.0774 Q1658.83 32.4315 1653.32 32.4315 Q1647.08 32.4315 1643.32 35.9558 Q1639.59 39.4801 1639.02 45.8805 L1665.6 45.84 Z" fill="#000000" fill-rule="nonzero" fill-opacity="1" /><path clip-path="url(#clip220)" d="M1692.49 65.7705 L1692.49 89.8329 L1685 89.8329 L1685 27.2059 L1692.49 27.2059 L1692.49 34.0924 Q1694.84 30.0415 1698.41 28.0971 Q1702.01 26.1121 1707 26.1121 Q1715.26 26.1121 1720.41 32.6746 Q1725.59 39.2371 1725.59 49.9314 Q1725.59 60.6258 1720.41 67.1883 Q1715.26 73.7508 1707 73.7508 Q1702.01 73.7508 1698.41 71.8063 Q1694.84 69.8214 1692.49 65.7705 M1717.85 49.9314 Q1717.85 41.7081 1714.45 37.0496 Q1711.09 32.3505 1705.17 32.3505 Q1699.26 32.3505 1695.86 37.0496 Q1692.49 41.7081 1692.49 49.9314 Q1692.49 58.1548 1695.86 62.8538 Q1699.26 67.5124 1705.17 67.5124 Q1711.09 67.5124 1714.45 62.8538 Q1717.85 58.1548 1717.85 49.9314 Z" fill="#000000" fill-rule="nonzero" fill-opacity="1" /><path clip-path="url(#clip220)" d="M1793.24 28.5427 L1793.24 35.5912 Q1790.08 33.9709 1786.68 33.1607 Q1783.28 32.3505 1779.63 32.3505 Q1774.08 32.3505 1771.28 34.0519 Q1768.53 35.7533 1768.53 39.156 Q1768.53 41.7486 1770.52 43.2475 Q1772.5 44.7058 1778.5 46.0426 L1781.05 46.6097 Q1788.99 48.3111 1792.31 51.4303 Q1795.67 54.509 1795.67 60.0587 Q1795.67 66.3781 1790.65 70.0644 Q1785.67 73.7508 1776.92 73.7508 Q1773.27 73.7508 1769.3 73.0216 Q1765.37 72.3329 1761 70.9151 L1761 63.2184 Q1765.13 65.3654 1769.14 66.4591 Q1773.15 67.5124 1777.08 67.5124 Q1782.34 67.5124 1785.18 65.73 Q1788.02 63.9071 1788.02 60.6258 Q1788.02 57.5877 1785.95 55.9673 Q1783.92 54.3469 1777 52.8481 L1774.4 52.2405 Q1767.48 50.7821 1764.4 47.7845 Q1761.32 44.7463 1761.32 39.4801 Q1761.32 33.0797 1765.86 29.5959 Q1770.39 26.1121 1778.74 26.1121 Q1782.87 26.1121 1786.52 26.7198 Q1790.16 27.3274 1793.24 28.5427 Z" fill="#000000" fill-rule="nonzero" fill-opacity="1" /><path clip-path="url(#clip220)" d="M1807.54 27.2059 L1814.99 27.2059 L1814.99 72.576 L1807.54 72.576 L1807.54 27.2059 M1807.54 9.54393 L1814.99 9.54393 L1814.99 18.9825 L1807.54 18.9825 L1807.54 9.54393 Z" fill="#000000" fill-rule="nonzero" fill-opacity="1" /><path clip-path="url(#clip220)" d="M1827.35 27.2059 L1862.75 27.2059 L1862.75 34.0114 L1834.72 66.6212 L1862.75 66.6212 L1862.75 72.576 L1826.34 72.576 L1826.34 65.7705 L1854.37 33.1607 L1827.35 33.1607 L1827.35 27.2059 Z" fill="#000000" fill-rule="nonzero" fill-opacity="1" /><path clip-path="url(#clip220)" d="M1912.95 48.0275 L1912.95 51.6733 L1878.67 51.6733 Q1879.16 59.3701 1883.29 63.421 Q1887.46 67.4314 1894.88 67.4314 Q1899.17 67.4314 1903.18 66.3781 Q1907.23 65.3249 1911.2 63.2184 L1911.2 70.267 Q1907.19 71.9684 1902.98 72.8596 Q1898.77 73.7508 1894.43 73.7508 Q1883.58 73.7508 1877.22 67.4314 Q1870.9 61.1119 1870.9 50.3365 Q1870.9 39.1965 1876.89 32.6746 Q1882.93 26.1121 1893.14 26.1121 Q1902.29 26.1121 1907.6 32.0264 Q1912.95 37.9003 1912.95 48.0275 M1905.49 45.84 Q1905.41 39.7232 1902.05 36.0774 Q1898.73 32.4315 1893.22 32.4315 Q1886.98 32.4315 1883.21 35.9558 Q1879.48 39.4801 1878.92 45.8805 L1905.49 45.84 Z" fill="#000000" fill-rule="nonzero" fill-opacity="1" /><path clip-path="url(#clip220)" d="M1970.1 17.4837 Q1963.78 17.4837 1960.58 23.7221 Q1957.42 29.92 1957.42 42.3968 Q1957.42 54.833 1960.58 61.0714 Q1963.78 67.2693 1970.1 67.2693 Q1976.46 67.2693 1979.62 61.0714 Q1982.82 54.833 1982.82 42.3968 Q1982.82 29.92 1979.62 23.7221 Q1976.46 17.4837 1970.1 17.4837 M1970.1 11.0023 Q1980.27 11.0023 1985.62 19.0636 Q1991.01 27.0843 1991.01 42.3968 Q1991.01 57.6687 1985.62 65.73 Q1980.27 73.7508 1970.1 73.7508 Q1959.94 73.7508 1954.55 65.73 Q1949.2 57.6687 1949.2 42.3968 Q1949.2 27.0843 1954.55 19.0636 Q1959.94 11.0023 1970.1 11.0023 Z" fill="#000000" fill-rule="nonzero" fill-opacity="1" /><path clip-path="url(#clip220)" d="M2005.39 62.2867 L2013.93 62.2867 L2013.93 72.576 L2005.39 72.576 L2005.39 62.2867 Z" fill="#000000" fill-rule="nonzero" fill-opacity="1" /><path clip-path="url(#clip220)" d="M2049.26 17.4837 Q2042.94 17.4837 2039.74 23.7221 Q2036.58 29.92 2036.58 42.3968 Q2036.58 54.833 2039.74 61.0714 Q2042.94 67.2693 2049.26 67.2693 Q2055.62 67.2693 2058.78 61.0714 Q2061.98 54.833 2061.98 42.3968 Q2061.98 29.92 2058.78 23.7221 Q2055.62 17.4837 2049.26 17.4837 M2049.26 11.0023 Q2059.43 11.0023 2064.77 19.0636 Q2070.16 27.0843 2070.16 42.3968 Q2070.16 57.6687 2064.77 65.73 Q2059.43 73.7508 2049.26 73.7508 Q2039.09 73.7508 2033.7 65.73 Q2028.36 57.6687 2028.36 42.3968 Q2028.36 27.0843 2033.7 19.0636 Q2039.09 11.0023 2049.26 11.0023 Z" fill="#000000" fill-rule="nonzero" fill-opacity="1" /><path clip-path="url(#clip220)" d="M2091.59 65.6895 L2120.15 65.6895 L2120.15 72.576 L2081.75 72.576 L2081.75 65.6895 Q2086.4 60.8689 2094.43 52.7671 Q2102.49 44.6248 2104.55 42.2752 Q2108.48 37.8598 2110.02 34.8216 Q2111.6 31.7429 2111.6 28.7857 Q2111.6 23.9651 2108.2 20.927 Q2104.84 17.8888 2099.41 17.8888 Q2095.56 17.8888 2091.27 19.2256 Q2087.01 20.5624 2082.15 23.2765 L2082.15 15.0127 Q2087.09 13.0277 2091.39 12.015 Q2095.68 11.0023 2099.25 11.0023 Q2108.64 11.0023 2114.23 15.7013 Q2119.82 20.4004 2119.82 28.2591 Q2119.82 31.9859 2118.41 35.3482 Q2117.03 38.6699 2113.34 43.2069 Q2112.33 44.3817 2106.9 50.0125 Q2101.47 55.6027 2091.59 65.6895 Z" fill="#000000" fill-rule="nonzero" fill-opacity="1" /><path clip-path="url(#clip220)" d="M2144.78 18.8205 L2144.78 41.5461 L2155.07 41.5461 Q2160.78 41.5461 2163.9 38.5889 Q2167.02 35.6318 2167.02 30.163 Q2167.02 24.7348 2163.9 21.7777 Q2160.78 18.8205 2155.07 18.8205 L2144.78 18.8205 M2136.6 12.096 L2155.07 12.096 Q2165.24 12.096 2170.42 16.714 Q2175.65 21.2916 2175.65 30.163 Q2175.65 39.1155 2170.42 43.6931 Q2165.24 48.2706 2155.07 48.2706 L2144.78 48.2706 L2144.78 72.576 L2136.6 72.576 L2136.6 12.096 Z" fill="#000000" fill-rule="nonzero" fill-opacity="1" /><polyline clip-path="url(#clip222)" style="stroke:#009af9; stroke-linecap:round; stroke-linejoin:round; stroke-width:4; stroke-opacity:1; fill:none" points="323.315,1210.08 346.041,1206.51 368.768,1214.09 391.495,1205.83 414.221,1209.77 436.948,1206.38 459.675,1209.74 482.401,1212.18 505.128,1212.66 527.855,1212.42 550.582,1205.52 573.308,1210.97 596.035,1210.67 618.762,1209.99 641.488,1206.51 664.215,1210.62 686.942,1208.1 709.668,1207.83 732.395,1205.84 755.122,1207.96 777.849,1210.78 800.575,1211.2 823.302,1208.06 846.029,1210.61 868.755,1210.45 891.482,1209.34 914.209,1208.26 936.935,1206.11 959.662,1208.86 982.389,1204.28 1005.12,1208.46 1027.84,1207.02 1050.57,1207.82 1073.3,1210.45 1096.02,1209.26 1118.75,1205.29 1141.48,1203.6 1164.2,1209.73 1186.93,1208.85 1209.66,1202.58 1232.38,1216.73 1255.11,1212.58 1277.84,1212.26 1300.56,1206.75 1323.29,1210.21 1346.02,1211.7 1368.74,1207.77 1391.47,1213.14 1414.2,1208.91 1436.92,1208.26 1459.65,1203.87 1482.38,1212.25 1505.1,1208.27 1527.83,1210.22 1550.56,1207.02 1573.28,1202.39 1596.01,1203.18 1618.74,1209.81 1641.46,1210.05 1664.19,1211.75 1686.92,1214.52 1709.64,1205.66 1732.37,1205.57 1755.1,1209.19 1777.82,1208.79 1800.55,1205.53 1823.28,1205.51 1846,1208.7 1868.73,1213.03 1891.46,1207.66 1914.18,1212.05 1936.91,1209.35 1959.64,1210.18 1982.36,1213.11 2005.09,1201.97 2027.82,1206.68 2050.54,1207.12 2073.27,1200.88 2096,1205.68 2118.72,1213.16 2141.45,1215.87 2164.18,1216.2 2186.9,1206.65 2209.63,1203.29 2232.36,1203.76 2255.08,1214.37 2277.81,1217.18 2300.54,1215.09 2323.26,1206.1 2345.99,1211.73 2368.72,1207.04 2391.44,1214.27 2414.17,1205.89 2436.9,1210.88 2459.62,1209.98 2482.35,1212.38 2505.08,1213.17 2527.8,1200.76 2550.53,1208 2573.26,1207.83 "/>
<path clip-path="url(#clip220)" d="M1818.65 285.016 L2561.26 285.016 L2561.26 181.336 L1818.65 181.336  Z" fill="#ffffff" fill-rule="evenodd" fill-opacity="1"/>
<polyline clip-path="url(#clip220)" style="stroke:#000000; stroke-linecap:round; stroke-linejoin:round; stroke-width:4; stroke-opacity:1; fill:none" points="1818.65,285.016 2561.26,285.016 2561.26,181.336 1818.65,181.336 1818.65,285.016 "/>
<polyline clip-path="url(#clip220)" style="stroke:#009af9; stroke-linecap:round; stroke-linejoin:round; stroke-width:4; stroke-opacity:1; fill:none" points="1845.15,233.176 2004.14,233.176 "/>
<path clip-path="url(#clip220)" d="M2030.64 215.896 L2037.61 215.896 L2046.43 239.415 L2055.29 215.896 L2062.26 215.896 L2062.26 250.456 L2057.7 250.456 L2057.7 220.109 L2048.79 243.813 L2044.09 243.813 L2035.18 220.109 L2035.18 250.456 L2030.64 250.456 L2030.64 215.896 Z" fill="#000000" fill-rule="nonzero" fill-opacity="1" /><path clip-path="url(#clip220)" d="M2093.53 236.429 L2093.53 238.512 L2073.95 238.512 Q2074.23 242.91 2076.59 245.225 Q2078.97 247.516 2083.21 247.516 Q2085.66 247.516 2087.96 246.915 Q2090.27 246.313 2092.54 245.109 L2092.54 249.137 Q2090.25 250.109 2087.84 250.618 Q2085.43 251.128 2082.96 251.128 Q2076.75 251.128 2073.12 247.516 Q2069.51 243.905 2069.51 237.748 Q2069.51 231.382 2072.93 227.655 Q2076.38 223.906 2082.21 223.906 Q2087.45 223.906 2090.48 227.285 Q2093.53 230.642 2093.53 236.429 M2089.27 235.179 Q2089.23 231.683 2087.31 229.6 Q2085.41 227.517 2082.26 227.517 Q2078.7 227.517 2076.54 229.53 Q2074.41 231.544 2074.09 235.202 L2089.27 235.179 Z" fill="#000000" fill-rule="nonzero" fill-opacity="1" /><path clip-path="url(#clip220)" d="M2112.31 237.424 Q2107.15 237.424 2105.15 238.604 Q2103.16 239.785 2103.16 242.632 Q2103.16 244.901 2104.65 246.243 Q2106.15 247.563 2108.72 247.563 Q2112.26 247.563 2114.39 245.063 Q2116.54 242.54 2116.54 238.373 L2116.54 237.424 L2112.31 237.424 M2120.8 235.665 L2120.8 250.456 L2116.54 250.456 L2116.54 246.521 Q2115.08 248.882 2112.91 250.016 Q2110.73 251.128 2107.58 251.128 Q2103.6 251.128 2101.24 248.905 Q2098.9 246.66 2098.9 242.91 Q2098.9 238.535 2101.82 236.313 Q2104.76 234.091 2110.57 234.091 L2116.54 234.091 L2116.54 233.674 Q2116.54 230.734 2114.6 229.137 Q2112.68 227.517 2109.18 227.517 Q2106.96 227.517 2104.85 228.049 Q2102.75 228.581 2100.8 229.646 L2100.8 225.711 Q2103.14 224.808 2105.34 224.368 Q2107.54 223.906 2109.62 223.906 Q2115.25 223.906 2118.02 226.822 Q2120.8 229.739 2120.8 235.665 Z" fill="#000000" fill-rule="nonzero" fill-opacity="1" /><path clip-path="url(#clip220)" d="M2151.13 234.808 L2151.13 250.456 L2146.87 250.456 L2146.87 234.947 Q2146.87 231.267 2145.43 229.438 Q2144 227.609 2141.13 227.609 Q2137.68 227.609 2135.69 229.808 Q2133.7 232.007 2133.7 235.804 L2133.7 250.456 L2129.41 250.456 L2129.41 224.531 L2133.7 224.531 L2133.7 228.558 Q2135.22 226.22 2137.28 225.063 Q2139.37 223.906 2142.08 223.906 Q2146.54 223.906 2148.83 226.683 Q2151.13 229.438 2151.13 234.808 Z" fill="#000000" fill-rule="nonzero" fill-opacity="1" /><path clip-path="url(#clip220)" d="M2191.75 228.466 L2191.75 214.438 L2196.01 214.438 L2196.01 250.456 L2191.75 250.456 L2191.75 246.567 Q2190.41 248.882 2188.35 250.016 Q2186.31 251.128 2183.44 251.128 Q2178.74 251.128 2175.78 247.378 Q2172.84 243.628 2172.84 237.517 Q2172.84 231.405 2175.78 227.655 Q2178.74 223.906 2183.44 223.906 Q2186.31 223.906 2188.35 225.04 Q2190.41 226.151 2191.75 228.466 M2177.24 237.517 Q2177.24 242.216 2179.16 244.901 Q2181.1 247.563 2184.48 247.563 Q2187.86 247.563 2189.81 244.901 Q2191.75 242.216 2191.75 237.517 Q2191.75 232.817 2189.81 230.155 Q2187.86 227.47 2184.48 227.47 Q2181.1 227.47 2179.16 230.155 Q2177.24 232.817 2177.24 237.517 Z" fill="#000000" fill-rule="nonzero" fill-opacity="1" /><path clip-path="url(#clip220)" d="M2204.78 224.531 L2209.04 224.531 L2209.04 250.456 L2204.78 250.456 L2204.78 224.531 M2204.78 214.438 L2209.04 214.438 L2209.04 219.831 L2204.78 219.831 L2204.78 214.438 Z" fill="#000000" fill-rule="nonzero" fill-opacity="1" /><path clip-path="url(#clip220)" d="M2234.48 225.294 L2234.48 229.322 Q2232.68 228.396 2230.73 227.933 Q2228.79 227.47 2226.7 227.47 Q2223.53 227.47 2221.94 228.443 Q2220.36 229.415 2220.36 231.359 Q2220.36 232.841 2221.5 233.697 Q2222.63 234.53 2226.06 235.294 L2227.51 235.618 Q2232.05 236.591 2233.95 238.373 Q2235.87 240.132 2235.87 243.304 Q2235.87 246.915 2233 249.021 Q2230.15 251.128 2225.15 251.128 Q2223.07 251.128 2220.8 250.711 Q2218.56 250.317 2216.06 249.507 L2216.06 245.109 Q2218.42 246.336 2220.71 246.961 Q2223 247.563 2225.25 247.563 Q2228.26 247.563 2229.88 246.544 Q2231.5 245.503 2231.5 243.628 Q2231.5 241.892 2230.32 240.966 Q2229.16 240.04 2225.2 239.183 L2223.72 238.836 Q2219.76 238.003 2218 236.29 Q2216.24 234.554 2216.24 231.544 Q2216.24 227.887 2218.83 225.896 Q2221.43 223.906 2226.2 223.906 Q2228.56 223.906 2230.64 224.253 Q2232.72 224.6 2234.48 225.294 Z" fill="#000000" fill-rule="nonzero" fill-opacity="1" /><path clip-path="url(#clip220)" d="M2261.31 225.526 L2261.31 229.507 Q2259.51 228.512 2257.68 228.026 Q2255.87 227.517 2254.02 227.517 Q2249.88 227.517 2247.58 230.155 Q2245.29 232.771 2245.29 237.517 Q2245.29 242.262 2247.58 244.901 Q2249.88 247.516 2254.02 247.516 Q2255.87 247.516 2257.68 247.03 Q2259.51 246.521 2261.31 245.526 L2261.31 249.461 Q2259.53 250.294 2257.61 250.711 Q2255.71 251.128 2253.56 251.128 Q2247.7 251.128 2244.25 247.447 Q2240.8 243.767 2240.8 237.517 Q2240.8 231.174 2244.27 227.54 Q2247.77 223.906 2253.83 223.906 Q2255.8 223.906 2257.68 224.322 Q2259.55 224.716 2261.31 225.526 Z" fill="#000000" fill-rule="nonzero" fill-opacity="1" /><path clip-path="url(#clip220)" d="M2278.76 227.517 Q2275.34 227.517 2273.35 230.202 Q2271.36 232.864 2271.36 237.517 Q2271.36 242.169 2273.32 244.854 Q2275.32 247.516 2278.76 247.516 Q2282.17 247.516 2284.16 244.831 Q2286.15 242.146 2286.15 237.517 Q2286.15 232.91 2284.16 230.225 Q2282.17 227.517 2278.76 227.517 M2278.76 223.906 Q2284.32 223.906 2287.49 227.517 Q2290.66 231.128 2290.66 237.517 Q2290.66 243.882 2287.49 247.516 Q2284.32 251.128 2278.76 251.128 Q2273.19 251.128 2270.01 247.516 Q2266.87 243.882 2266.87 237.517 Q2266.87 231.128 2270.01 227.517 Q2273.19 223.906 2278.76 223.906 Z" fill="#000000" fill-rule="nonzero" fill-opacity="1" /><path clip-path="url(#clip220)" d="M2297.28 240.225 L2297.28 224.531 L2301.54 224.531 L2301.54 240.063 Q2301.54 243.743 2302.98 245.595 Q2304.41 247.424 2307.28 247.424 Q2310.73 247.424 2312.72 245.225 Q2314.74 243.026 2314.74 239.229 L2314.74 224.531 L2319 224.531 L2319 250.456 L2314.74 250.456 L2314.74 246.475 Q2313.19 248.836 2311.13 249.993 Q2309.09 251.128 2306.38 251.128 Q2301.91 251.128 2299.6 248.35 Q2297.28 245.572 2297.28 240.225 M2308 223.906 L2308 223.906 Z" fill="#000000" fill-rule="nonzero" fill-opacity="1" /><path clip-path="url(#clip220)" d="M2349.32 234.808 L2349.32 250.456 L2345.06 250.456 L2345.06 234.947 Q2345.06 231.267 2343.63 229.438 Q2342.19 227.609 2339.32 227.609 Q2335.87 227.609 2333.88 229.808 Q2331.89 232.007 2331.89 235.804 L2331.89 250.456 L2327.61 250.456 L2327.61 224.531 L2331.89 224.531 L2331.89 228.558 Q2333.42 226.22 2335.48 225.063 Q2337.56 223.906 2340.27 223.906 Q2344.74 223.906 2347.03 226.683 Q2349.32 229.438 2349.32 234.808 Z" fill="#000000" fill-rule="nonzero" fill-opacity="1" /><path clip-path="url(#clip220)" d="M2362.03 217.169 L2362.03 224.531 L2370.8 224.531 L2370.8 227.841 L2362.03 227.841 L2362.03 241.915 Q2362.03 245.086 2362.88 245.989 Q2363.76 246.891 2366.43 246.891 L2370.8 246.891 L2370.8 250.456 L2366.43 250.456 Q2361.5 250.456 2359.62 248.628 Q2357.75 246.776 2357.75 241.915 L2357.75 227.841 L2354.62 227.841 L2354.62 224.531 L2357.75 224.531 L2357.75 217.169 L2362.03 217.169 Z" fill="#000000" fill-rule="nonzero" fill-opacity="1" /><path clip-path="url(#clip220)" d="M2401.52 227.517 Q2398.09 227.517 2396.1 230.202 Q2394.11 232.864 2394.11 237.517 Q2394.11 242.169 2396.08 244.854 Q2398.07 247.516 2401.52 247.516 Q2404.92 247.516 2406.91 244.831 Q2408.9 242.146 2408.9 237.517 Q2408.9 232.91 2406.91 230.225 Q2404.92 227.517 2401.52 227.517 M2401.52 223.906 Q2407.07 223.906 2410.25 227.517 Q2413.42 231.128 2413.42 237.517 Q2413.42 243.882 2410.25 247.516 Q2407.07 251.128 2401.52 251.128 Q2395.94 251.128 2392.77 247.516 Q2389.62 243.882 2389.62 237.517 Q2389.62 231.128 2392.77 227.517 Q2395.94 223.906 2401.52 223.906 Z" fill="#000000" fill-rule="nonzero" fill-opacity="1" /><path clip-path="url(#clip220)" d="M2417.42 224.531 L2421.94 224.531 L2430.04 246.29 L2438.14 224.531 L2442.65 224.531 L2432.93 250.456 L2427.14 250.456 L2417.42 224.531 Z" fill="#000000" fill-rule="nonzero" fill-opacity="1" /><path clip-path="url(#clip220)" d="M2470.71 236.429 L2470.71 238.512 L2451.12 238.512 Q2451.4 242.91 2453.76 245.225 Q2456.15 247.516 2460.38 247.516 Q2462.84 247.516 2465.13 246.915 Q2467.44 246.313 2469.71 245.109 L2469.71 249.137 Q2467.42 250.109 2465.01 250.618 Q2462.61 251.128 2460.13 251.128 Q2453.93 251.128 2450.29 247.516 Q2446.68 243.905 2446.68 237.748 Q2446.68 231.382 2450.11 227.655 Q2453.56 223.906 2459.39 223.906 Q2464.62 223.906 2467.65 227.285 Q2470.71 230.642 2470.71 236.429 M2466.45 235.179 Q2466.4 231.683 2464.48 229.6 Q2462.58 227.517 2459.43 227.517 Q2455.87 227.517 2453.72 229.53 Q2451.59 231.544 2451.26 235.202 L2466.45 235.179 Z" fill="#000000" fill-rule="nonzero" fill-opacity="1" /><path clip-path="url(#clip220)" d="M2492.72 228.512 Q2492 228.095 2491.15 227.91 Q2490.31 227.702 2489.3 227.702 Q2485.68 227.702 2483.74 230.063 Q2481.82 232.401 2481.82 236.799 L2481.82 250.456 L2477.54 250.456 L2477.54 224.531 L2481.82 224.531 L2481.82 228.558 Q2483.16 226.197 2485.31 225.063 Q2487.47 223.906 2490.55 223.906 Q2490.99 223.906 2491.52 223.975 Q2492.05 224.021 2492.7 224.137 L2492.72 228.512 Z" fill="#000000" fill-rule="nonzero" fill-opacity="1" /><path clip-path="url(#clip220)" d="M2517.12 219.739 L2517.12 232.725 L2523 232.725 Q2526.26 232.725 2528.05 231.035 Q2529.83 229.345 2529.83 226.22 Q2529.83 223.118 2528.05 221.429 Q2526.26 219.739 2523 219.739 L2517.12 219.739 M2512.44 215.896 L2523 215.896 Q2528.81 215.896 2531.77 218.535 Q2534.76 221.151 2534.76 226.22 Q2534.76 231.336 2531.77 233.952 Q2528.81 236.567 2523 236.567 L2517.12 236.567 L2517.12 250.456 L2512.44 250.456 L2512.44 215.896 Z" fill="#000000" fill-rule="nonzero" fill-opacity="1" /></svg>
