<?xml version="1.0" encoding="utf-8"?>
<svg xmlns="http://www.w3.org/2000/svg" xmlns:xlink="http://www.w3.org/1999/xlink" width="672" height="480" viewBox="0 0 2688 1920">
<defs>
  <clipPath id="clip400">
    <rect x="0" y="0" width="2688" height="1920"/>
  </clipPath>
</defs>
<path clip-path="url(#clip400)" d="M0 1920 L2688 1920 L2688 -4.26326e-14 L0 -4.26326e-14  Z" fill="#ffffff" fill-rule="evenodd" fill-opacity="1"/>
<defs>
  <clipPath id="clip401">
    <rect x="537" y="0" width="1883" height="1883"/>
  </clipPath>
</defs>
<path clip-path="url(#clip400)" d="M255.816 1734.12 L2640.76 1734.12 L2640.76 127.792 L255.816 127.792  Z" fill="#ffffff" fill-rule="evenodd" fill-opacity="1"/>
<defs>
  <clipPath id="clip402">
    <rect x="255" y="127" width="2386" height="1607"/>
  </clipPath>
</defs>
<polyline clip-path="url(#clip402)" style="stroke:#000000; stroke-linecap:round; stroke-linejoin:round; stroke-width:2; stroke-opacity:0.1; fill:none" points="323.315,1734.12 323.315,127.792 "/>
<polyline clip-path="url(#clip402)" style="stroke:#000000; stroke-linecap:round; stroke-linejoin:round; stroke-width:2; stroke-opacity:0.1; fill:none" points="885.8,1734.12 885.8,127.792 "/>
<polyline clip-path="url(#clip402)" style="stroke:#000000; stroke-linecap:round; stroke-linejoin:round; stroke-width:2; stroke-opacity:0.1; fill:none" points="1448.29,1734.12 1448.29,127.792 "/>
<polyline clip-path="url(#clip402)" style="stroke:#000000; stroke-linecap:round; stroke-linejoin:round; stroke-width:2; stroke-opacity:0.1; fill:none" points="2010.77,1734.12 2010.77,127.792 "/>
<polyline clip-path="url(#clip402)" style="stroke:#000000; stroke-linecap:round; stroke-linejoin:round; stroke-width:2; stroke-opacity:0.1; fill:none" points="2573.26,1734.12 2573.26,127.792 "/>
<polyline clip-path="url(#clip402)" style="stroke:#000000; stroke-linecap:round; stroke-linejoin:round; stroke-width:2; stroke-opacity:0.1; fill:none" points="255.816,1734.12 2640.76,1734.12 "/>
<polyline clip-path="url(#clip402)" style="stroke:#000000; stroke-linecap:round; stroke-linejoin:round; stroke-width:2; stroke-opacity:0.1; fill:none" points="255.816,1466.4 2640.76,1466.4 "/>
<polyline clip-path="url(#clip402)" style="stroke:#000000; stroke-linecap:round; stroke-linejoin:round; stroke-width:2; stroke-opacity:0.1; fill:none" points="255.816,1198.68 2640.76,1198.68 "/>
<polyline clip-path="url(#clip402)" style="stroke:#000000; stroke-linecap:round; stroke-linejoin:round; stroke-width:2; stroke-opacity:0.1; fill:none" points="255.816,930.955 2640.76,930.955 "/>
<polyline clip-path="url(#clip402)" style="stroke:#000000; stroke-linecap:round; stroke-linejoin:round; stroke-width:2; stroke-opacity:0.1; fill:none" points="255.816,663.234 2640.76,663.234 "/>
<polyline clip-path="url(#clip402)" style="stroke:#000000; stroke-linecap:round; stroke-linejoin:round; stroke-width:2; stroke-opacity:0.1; fill:none" points="255.816,395.513 2640.76,395.513 "/>
<polyline clip-path="url(#clip400)" style="stroke:#000000; stroke-linecap:round; stroke-linejoin:round; stroke-width:4; stroke-opacity:1; fill:none" points="255.816,1734.12 2640.76,1734.12 "/>
<polyline clip-path="url(#clip400)" style="stroke:#000000; stroke-linecap:round; stroke-linejoin:round; stroke-width:4; stroke-opacity:1; fill:none" points="323.315,1734.12 323.315,1715.22 "/>
<polyline clip-path="url(#clip400)" style="stroke:#000000; stroke-linecap:round; stroke-linejoin:round; stroke-width:4; stroke-opacity:1; fill:none" points="885.8,1734.12 885.8,1715.22 "/>
<polyline clip-path="url(#clip400)" style="stroke:#000000; stroke-linecap:round; stroke-linejoin:round; stroke-width:4; stroke-opacity:1; fill:none" points="1448.29,1734.12 1448.29,1715.22 "/>
<polyline clip-path="url(#clip400)" style="stroke:#000000; stroke-linecap:round; stroke-linejoin:round; stroke-width:4; stroke-opacity:1; fill:none" points="2010.77,1734.12 2010.77,1715.22 "/>
<polyline clip-path="url(#clip400)" style="stroke:#000000; stroke-linecap:round; stroke-linejoin:round; stroke-width:4; stroke-opacity:1; fill:none" points="2573.26,1734.12 2573.26,1715.22 "/>
<path clip-path="url(#clip400)" d="M323.315 1767.34 Q319.704 1767.34 317.875 1770.9 Q316.069 1774.45 316.069 1781.58 Q316.069 1788.68 317.875 1792.25 Q319.704 1795.79 323.315 1795.79 Q326.949 1795.79 328.754 1792.25 Q330.583 1788.68 330.583 1781.58 Q330.583 1774.45 328.754 1770.9 Q326.949 1767.34 323.315 1767.34 M323.315 1763.64 Q329.125 1763.64 332.18 1768.24 Q335.259 1772.83 335.259 1781.58 Q335.259 1790.3 332.18 1794.91 Q329.125 1799.49 323.315 1799.49 Q317.504 1799.49 314.426 1794.91 Q311.37 1790.3 311.37 1781.58 Q311.37 1772.83 314.426 1768.24 Q317.504 1763.64 323.315 1763.64 Z" fill="#000000" fill-rule="nonzero" fill-opacity="1" /><path clip-path="url(#clip400)" d="M865.071 1794.89 L881.391 1794.89 L881.391 1798.82 L859.446 1798.82 L859.446 1794.89 Q862.108 1792.13 866.692 1787.5 Q871.298 1782.85 872.479 1781.51 Q874.724 1778.98 875.604 1777.25 Q876.506 1775.49 876.506 1773.8 Q876.506 1771.04 874.562 1769.31 Q872.641 1767.57 869.539 1767.57 Q867.34 1767.57 864.886 1768.34 Q862.456 1769.1 859.678 1770.65 L859.678 1765.93 Q862.502 1764.79 864.956 1764.21 Q867.409 1763.64 869.446 1763.64 Q874.817 1763.64 878.011 1766.32 Q881.205 1769.01 881.205 1773.5 Q881.205 1775.63 880.395 1777.55 Q879.608 1779.45 877.502 1782.04 Q876.923 1782.71 873.821 1785.93 Q870.719 1789.12 865.071 1794.89 Z" fill="#000000" fill-rule="nonzero" fill-opacity="1" /><path clip-path="url(#clip400)" d="M891.252 1764.26 L909.608 1764.26 L909.608 1768.2 L895.534 1768.2 L895.534 1776.67 Q896.553 1776.32 897.571 1776.16 Q898.59 1775.97 899.608 1775.97 Q905.395 1775.97 908.775 1779.15 Q912.154 1782.32 912.154 1787.73 Q912.154 1793.31 908.682 1796.41 Q905.21 1799.49 898.891 1799.49 Q896.715 1799.49 894.446 1799.12 Q892.201 1798.75 889.793 1798.01 L889.793 1793.31 Q891.877 1794.45 894.099 1795 Q896.321 1795.56 898.798 1795.56 Q902.803 1795.56 905.141 1793.45 Q907.478 1791.34 907.478 1787.73 Q907.478 1784.12 905.141 1782.02 Q902.803 1779.91 898.798 1779.91 Q896.923 1779.91 895.048 1780.33 Q893.196 1780.74 891.252 1781.62 L891.252 1764.26 Z" fill="#000000" fill-rule="nonzero" fill-opacity="1" /><path clip-path="url(#clip400)" d="M1422.99 1764.26 L1441.34 1764.26 L1441.34 1768.2 L1427.27 1768.2 L1427.27 1776.67 Q1428.29 1776.32 1429.3 1776.16 Q1430.32 1775.97 1431.34 1775.97 Q1437.13 1775.97 1440.51 1779.15 Q1443.89 1782.32 1443.89 1787.73 Q1443.89 1793.31 1440.42 1796.41 Q1436.94 1799.49 1430.62 1799.49 Q1428.45 1799.49 1426.18 1799.12 Q1423.93 1798.75 1421.53 1798.01 L1421.53 1793.31 Q1423.61 1794.45 1425.83 1795 Q1428.05 1795.56 1430.53 1795.56 Q1434.54 1795.56 1436.87 1793.45 Q1439.21 1791.34 1439.21 1787.73 Q1439.21 1784.12 1436.87 1782.02 Q1434.54 1779.91 1430.53 1779.91 Q1428.66 1779.91 1426.78 1780.33 Q1424.93 1780.74 1422.99 1781.62 L1422.99 1764.26 Z" fill="#000000" fill-rule="nonzero" fill-opacity="1" /><path clip-path="url(#clip400)" d="M1463.1 1767.34 Q1459.49 1767.34 1457.66 1770.9 Q1455.86 1774.45 1455.86 1781.58 Q1455.86 1788.68 1457.66 1792.25 Q1459.49 1795.79 1463.1 1795.79 Q1466.74 1795.79 1468.54 1792.25 Q1470.37 1788.68 1470.37 1781.58 Q1470.37 1774.45 1468.54 1770.9 Q1466.74 1767.34 1463.1 1767.34 M1463.1 1763.64 Q1468.91 1763.64 1471.97 1768.24 Q1475.05 1772.83 1475.05 1781.58 Q1475.05 1790.3 1471.97 1794.91 Q1468.91 1799.49 1463.1 1799.49 Q1457.29 1799.49 1454.21 1794.91 Q1451.16 1790.3 1451.16 1781.58 Q1451.16 1772.83 1454.21 1768.24 Q1457.29 1763.64 1463.1 1763.64 Z" fill="#000000" fill-rule="nonzero" fill-opacity="1" /><path clip-path="url(#clip400)" d="M1984.63 1764.26 L2006.85 1764.26 L2006.85 1766.25 L1994.3 1798.82 L1989.42 1798.82 L2001.22 1768.2 L1984.63 1768.2 L1984.63 1764.26 Z" fill="#000000" fill-rule="nonzero" fill-opacity="1" /><path clip-path="url(#clip400)" d="M2016.01 1764.26 L2034.37 1764.26 L2034.37 1768.2 L2020.3 1768.2 L2020.3 1776.67 Q2021.32 1776.32 2022.33 1776.16 Q2023.35 1775.97 2024.37 1775.97 Q2030.16 1775.97 2033.54 1779.15 Q2036.92 1782.32 2036.92 1787.73 Q2036.92 1793.31 2033.45 1796.41 Q2029.97 1799.49 2023.65 1799.49 Q2021.48 1799.49 2019.21 1799.12 Q2016.96 1798.75 2014.56 1798.01 L2014.56 1793.31 Q2016.64 1794.45 2018.86 1795 Q2021.08 1795.56 2023.56 1795.56 Q2027.57 1795.56 2029.9 1793.45 Q2032.24 1791.34 2032.24 1787.73 Q2032.24 1784.12 2029.9 1782.02 Q2027.57 1779.91 2023.56 1779.91 Q2021.69 1779.91 2019.81 1780.33 Q2017.96 1780.74 2016.01 1781.62 L2016.01 1764.26 Z" fill="#000000" fill-rule="nonzero" fill-opacity="1" /><path clip-path="url(#clip400)" d="M2532.86 1794.89 L2540.5 1794.89 L2540.5 1768.52 L2532.19 1770.19 L2532.19 1765.93 L2540.46 1764.26 L2545.13 1764.26 L2545.13 1794.89 L2552.77 1794.89 L2552.77 1798.82 L2532.86 1798.82 L2532.86 1794.89 Z" fill="#000000" fill-rule="nonzero" fill-opacity="1" /><path clip-path="url(#clip400)" d="M2572.22 1767.34 Q2568.6 1767.34 2566.78 1770.9 Q2564.97 1774.45 2564.97 1781.58 Q2564.97 1788.68 2566.78 1792.25 Q2568.6 1795.79 2572.22 1795.79 Q2575.85 1795.79 2577.66 1792.25 Q2579.48 1788.68 2579.48 1781.58 Q2579.48 1774.45 2577.66 1770.9 Q2575.85 1767.34 2572.22 1767.34 M2572.22 1763.64 Q2578.03 1763.64 2581.08 1768.24 Q2584.16 1772.83 2584.16 1781.58 Q2584.16 1790.3 2581.08 1794.91 Q2578.03 1799.49 2572.22 1799.49 Q2566.41 1799.49 2563.33 1794.91 Q2560.27 1790.3 2560.27 1781.58 Q2560.27 1772.83 2563.33 1768.24 Q2566.41 1763.64 2572.22 1763.64 Z" fill="#000000" fill-rule="nonzero" fill-opacity="1" /><path clip-path="url(#clip400)" d="M2602.38 1767.34 Q2598.77 1767.34 2596.94 1770.9 Q2595.13 1774.45 2595.13 1781.58 Q2595.13 1788.68 2596.94 1792.25 Q2598.77 1795.79 2602.38 1795.79 Q2606.01 1795.79 2607.82 1792.25 Q2609.65 1788.68 2609.65 1781.58 Q2609.65 1774.45 2607.82 1770.9 Q2606.01 1767.34 2602.38 1767.34 M2602.38 1763.64 Q2608.19 1763.64 2611.24 1768.24 Q2614.32 1772.83 2614.32 1781.58 Q2614.32 1790.3 2611.24 1794.91 Q2608.19 1799.49 2602.38 1799.49 Q2596.57 1799.49 2593.49 1794.91 Q2590.43 1790.3 2590.43 1781.58 Q2590.43 1772.83 2593.49 1768.24 Q2596.57 1763.64 2602.38 1763.64 Z" fill="#000000" fill-rule="nonzero" fill-opacity="1" /><path clip-path="url(#clip400)" d="M1202.79 1860.61 L1202.79 1878.02 L1213.11 1878.02 Q1218.29 1878.02 1220.78 1875.88 Q1223.29 1873.72 1223.29 1869.3 Q1223.29 1864.84 1220.78 1862.74 Q1218.29 1860.61 1213.11 1860.61 L1202.79 1860.61 M1202.79 1841.06 L1202.79 1855.39 L1212.31 1855.39 Q1217.02 1855.39 1219.31 1853.64 Q1221.64 1851.85 1221.64 1848.23 Q1221.64 1844.63 1219.31 1842.85 Q1217.02 1841.06 1212.31 1841.06 L1202.79 1841.06 M1196.36 1835.78 L1212.79 1835.78 Q1220.14 1835.78 1224.12 1838.84 Q1228.1 1841.89 1228.1 1847.53 Q1228.1 1851.89 1226.06 1854.46 Q1224.02 1857.04 1220.08 1857.68 Q1224.82 1858.7 1227.43 1861.94 Q1230.07 1865.16 1230.07 1870 Q1230.07 1876.36 1225.74 1879.83 Q1221.41 1883.3 1213.42 1883.3 L1196.36 1883.3 L1196.36 1835.78 Z" fill="#000000" fill-rule="nonzero" fill-opacity="1" /><path clip-path="url(#clip400)" d="M1271.32 1864.01 L1271.32 1866.88 L1244.39 1866.88 Q1244.77 1872.92 1248.02 1876.11 Q1251.3 1879.26 1257.12 1879.26 Q1260.5 1879.26 1263.65 1878.43 Q1266.83 1877.6 1269.95 1875.95 L1269.95 1881.49 Q1266.8 1882.82 1263.49 1883.52 Q1260.18 1884.22 1256.77 1884.22 Q1248.24 1884.22 1243.25 1879.26 Q1238.28 1874.29 1238.28 1865.83 Q1238.28 1857.07 1242.99 1851.95 Q1247.73 1846.79 1255.76 1846.79 Q1262.95 1846.79 1267.12 1851.44 Q1271.32 1856.06 1271.32 1864.01 M1265.46 1862.29 Q1265.4 1857.49 1262.76 1854.62 Q1260.15 1851.76 1255.82 1851.76 Q1250.92 1851.76 1247.96 1854.53 Q1245.03 1857.3 1244.58 1862.33 L1265.46 1862.29 Z" fill="#000000" fill-rule="nonzero" fill-opacity="1" /><path clip-path="url(#clip400)" d="M1286.72 1837.53 L1286.72 1847.65 L1298.79 1847.65 L1298.79 1852.2 L1286.72 1852.2 L1286.72 1871.56 Q1286.72 1875.92 1287.9 1877.16 Q1289.11 1878.4 1292.77 1878.4 L1298.79 1878.4 L1298.79 1883.3 L1292.77 1883.3 Q1285.99 1883.3 1283.41 1880.79 Q1280.84 1878.24 1280.84 1871.56 L1280.84 1852.2 L1276.54 1852.2 L1276.54 1847.65 L1280.84 1847.65 L1280.84 1837.53 L1286.72 1837.53 Z" fill="#000000" fill-rule="nonzero" fill-opacity="1" /><path clip-path="url(#clip400)" d="M1322.69 1865.38 Q1315.59 1865.38 1312.86 1867 Q1310.12 1868.63 1310.12 1872.54 Q1310.12 1875.66 1312.16 1877.51 Q1314.22 1879.32 1317.76 1879.32 Q1322.63 1879.32 1325.56 1875.88 Q1328.52 1872.42 1328.52 1866.69 L1328.52 1865.38 L1322.69 1865.38 M1334.37 1862.96 L1334.37 1883.3 L1328.52 1883.3 L1328.52 1877.89 Q1326.51 1881.14 1323.52 1882.7 Q1320.53 1884.22 1316.2 1884.22 Q1310.72 1884.22 1307.48 1881.17 Q1304.26 1878.08 1304.26 1872.92 Q1304.26 1866.91 1308.27 1863.85 Q1312.31 1860.8 1320.3 1860.8 L1328.52 1860.8 L1328.52 1860.23 Q1328.52 1856.18 1325.84 1853.99 Q1323.2 1851.76 1318.39 1851.76 Q1315.34 1851.76 1312.44 1852.49 Q1309.55 1853.22 1306.87 1854.69 L1306.87 1849.28 Q1310.09 1848.03 1313.11 1847.43 Q1316.13 1846.79 1319 1846.79 Q1326.73 1846.79 1330.55 1850.8 Q1334.37 1854.81 1334.37 1862.96 Z" fill="#000000" fill-rule="nonzero" fill-opacity="1" /><path clip-path="url(#clip400)" d="M1392.81 1849.02 L1392.81 1854.5 Q1390.33 1853.13 1387.81 1852.46 Q1385.33 1851.76 1382.78 1851.76 Q1377.09 1851.76 1373.93 1855.39 Q1370.78 1858.98 1370.78 1865.51 Q1370.78 1872.03 1373.93 1875.66 Q1377.09 1879.26 1382.78 1879.26 Q1385.33 1879.26 1387.81 1878.59 Q1390.33 1877.89 1392.81 1876.52 L1392.81 1881.93 Q1390.36 1883.08 1387.72 1883.65 Q1385.11 1884.22 1382.15 1884.22 Q1374.09 1884.22 1369.35 1879.16 Q1364.61 1874.1 1364.61 1865.51 Q1364.61 1856.79 1369.38 1851.79 Q1374.19 1846.79 1382.53 1846.79 Q1385.23 1846.79 1387.81 1847.37 Q1390.39 1847.91 1392.81 1849.02 Z" fill="#000000" fill-rule="nonzero" fill-opacity="1" /><path clip-path="url(#clip400)" d="M1416.81 1851.76 Q1412.1 1851.76 1409.36 1855.45 Q1406.62 1859.11 1406.62 1865.51 Q1406.62 1871.91 1409.33 1875.6 Q1412.07 1879.26 1416.81 1879.26 Q1421.49 1879.26 1424.22 1875.57 Q1426.96 1871.87 1426.96 1865.51 Q1426.96 1859.17 1424.22 1855.48 Q1421.49 1851.76 1416.81 1851.76 M1416.81 1846.79 Q1424.45 1846.79 1428.81 1851.76 Q1433.17 1856.72 1433.17 1865.51 Q1433.17 1874.26 1428.81 1879.26 Q1424.45 1884.22 1416.81 1884.22 Q1409.14 1884.22 1404.78 1879.26 Q1400.45 1874.26 1400.45 1865.51 Q1400.45 1856.72 1404.78 1851.76 Q1409.14 1846.79 1416.81 1846.79 Z" fill="#000000" fill-rule="nonzero" fill-opacity="1" /><path clip-path="url(#clip400)" d="M1473.37 1864.01 L1473.37 1866.88 L1446.44 1866.88 Q1446.82 1872.92 1450.07 1876.11 Q1453.35 1879.26 1459.17 1879.26 Q1462.55 1879.26 1465.7 1878.43 Q1468.88 1877.6 1472 1875.95 L1472 1881.49 Q1468.85 1882.82 1465.54 1883.52 Q1462.23 1884.22 1458.82 1884.22 Q1450.29 1884.22 1445.29 1879.26 Q1440.33 1874.29 1440.33 1865.83 Q1440.33 1857.07 1445.04 1851.95 Q1449.78 1846.79 1457.8 1846.79 Q1465 1846.79 1469.17 1851.44 Q1473.37 1856.06 1473.37 1864.01 M1467.51 1862.29 Q1467.45 1857.49 1464.81 1854.62 Q1462.2 1851.76 1457.87 1851.76 Q1452.96 1851.76 1450 1854.53 Q1447.08 1857.3 1446.63 1862.33 L1467.51 1862.29 Z" fill="#000000" fill-rule="nonzero" fill-opacity="1" /><path clip-path="url(#clip400)" d="M1501.03 1833.78 L1501.03 1838.65 L1495.42 1838.65 Q1492.27 1838.65 1491.03 1839.92 Q1489.82 1841.19 1489.82 1844.5 L1489.82 1847.65 L1499.47 1847.65 L1499.47 1852.2 L1489.82 1852.2 L1489.82 1883.3 L1483.93 1883.3 L1483.93 1852.2 L1478.33 1852.2 L1478.33 1847.65 L1483.93 1847.65 L1483.93 1845.17 Q1483.93 1839.22 1486.7 1836.51 Q1489.47 1833.78 1495.49 1833.78 L1501.03 1833.78 Z" fill="#000000" fill-rule="nonzero" fill-opacity="1" /><path clip-path="url(#clip400)" d="M1523.97 1833.78 L1523.97 1838.65 L1518.37 1838.65 Q1515.22 1838.65 1513.98 1839.92 Q1512.77 1841.19 1512.77 1844.5 L1512.77 1847.65 L1522.41 1847.65 L1522.41 1852.2 L1512.77 1852.2 L1512.77 1883.3 L1506.88 1883.3 L1506.88 1852.2 L1501.28 1852.2 L1501.28 1847.65 L1506.88 1847.65 L1506.88 1845.17 Q1506.88 1839.22 1509.65 1836.51 Q1512.42 1833.78 1518.44 1833.78 L1523.97 1833.78 Z" fill="#000000" fill-rule="nonzero" fill-opacity="1" /><path clip-path="url(#clip400)" d="M1528.88 1847.65 L1534.73 1847.65 L1534.73 1883.3 L1528.88 1883.3 L1528.88 1847.65 M1528.88 1833.78 L1534.73 1833.78 L1534.73 1841.19 L1528.88 1841.19 L1528.88 1833.78 Z" fill="#000000" fill-rule="nonzero" fill-opacity="1" /><path clip-path="url(#clip400)" d="M1572.64 1849.02 L1572.64 1854.5 Q1570.16 1853.13 1567.64 1852.46 Q1565.16 1851.76 1562.61 1851.76 Q1556.92 1851.76 1553.77 1855.39 Q1550.61 1858.98 1550.61 1865.51 Q1550.61 1872.03 1553.77 1875.66 Q1556.92 1879.26 1562.61 1879.26 Q1565.16 1879.26 1567.64 1878.59 Q1570.16 1877.89 1572.64 1876.52 L1572.64 1881.93 Q1570.19 1883.08 1567.55 1883.65 Q1564.94 1884.22 1561.98 1884.22 Q1553.93 1884.22 1549.18 1879.16 Q1544.44 1874.1 1544.44 1865.51 Q1544.44 1856.79 1549.21 1851.79 Q1554.02 1846.79 1562.36 1846.79 Q1565.07 1846.79 1567.64 1847.37 Q1570.22 1847.91 1572.64 1849.02 Z" fill="#000000" fill-rule="nonzero" fill-opacity="1" /><path clip-path="url(#clip400)" d="M1582.83 1847.65 L1588.68 1847.65 L1588.68 1883.3 L1582.83 1883.3 L1582.83 1847.65 M1582.83 1833.78 L1588.68 1833.78 L1588.68 1841.19 L1582.83 1841.19 L1582.83 1833.78 Z" fill="#000000" fill-rule="nonzero" fill-opacity="1" /><path clip-path="url(#clip400)" d="M1631.43 1864.01 L1631.43 1866.88 L1604.5 1866.88 Q1604.88 1872.92 1608.13 1876.11 Q1611.41 1879.26 1617.23 1879.26 Q1620.61 1879.26 1623.76 1878.43 Q1626.94 1877.6 1630.06 1875.95 L1630.06 1881.49 Q1626.91 1882.82 1623.6 1883.52 Q1620.29 1884.22 1616.88 1884.22 Q1608.35 1884.22 1603.35 1879.26 Q1598.39 1874.29 1598.39 1865.83 Q1598.39 1857.07 1603.1 1851.95 Q1607.84 1846.79 1615.86 1846.79 Q1623.06 1846.79 1627.23 1851.44 Q1631.43 1856.06 1631.43 1864.01 M1625.57 1862.29 Q1625.51 1857.49 1622.87 1854.62 Q1620.26 1851.76 1615.93 1851.76 Q1611.03 1851.76 1608.07 1854.53 Q1605.14 1857.3 1604.69 1862.33 L1625.57 1862.29 Z" fill="#000000" fill-rule="nonzero" fill-opacity="1" /><path clip-path="url(#clip400)" d="M1670.67 1861.78 L1670.67 1883.3 L1664.82 1883.3 L1664.82 1861.98 Q1664.82 1856.92 1662.84 1854.4 Q1660.87 1851.89 1656.92 1851.89 Q1652.18 1851.89 1649.44 1854.91 Q1646.71 1857.93 1646.71 1863.15 L1646.71 1883.3 L1640.82 1883.3 L1640.82 1847.65 L1646.71 1847.65 L1646.71 1853.19 Q1648.81 1849.98 1651.64 1848.39 Q1654.5 1846.79 1658.23 1846.79 Q1664.37 1846.79 1667.52 1850.61 Q1670.67 1854.4 1670.67 1861.78 Z" fill="#000000" fill-rule="nonzero" fill-opacity="1" /><path clip-path="url(#clip400)" d="M1688.15 1837.53 L1688.15 1847.65 L1700.21 1847.65 L1700.21 1852.2 L1688.15 1852.2 L1688.15 1871.56 Q1688.15 1875.92 1689.32 1877.16 Q1690.53 1878.4 1694.19 1878.4 L1700.21 1878.4 L1700.21 1883.3 L1694.19 1883.3 Q1687.41 1883.3 1684.84 1880.79 Q1682.26 1878.24 1682.26 1871.56 L1682.26 1852.2 L1677.96 1852.2 L1677.96 1847.65 L1682.26 1847.65 L1682.26 1837.53 L1688.15 1837.53 Z" fill="#000000" fill-rule="nonzero" fill-opacity="1" /><polyline clip-path="url(#clip400)" style="stroke:#000000; stroke-linecap:round; stroke-linejoin:round; stroke-width:4; stroke-opacity:1; fill:none" points="255.816,1734.12 255.816,127.792 "/>
<polyline clip-path="url(#clip400)" style="stroke:#000000; stroke-linecap:round; stroke-linejoin:round; stroke-width:4; stroke-opacity:1; fill:none" points="255.816,1734.12 274.714,1734.12 "/>
<polyline clip-path="url(#clip400)" style="stroke:#000000; stroke-linecap:round; stroke-linejoin:round; stroke-width:4; stroke-opacity:1; fill:none" points="255.816,1466.4 274.714,1466.4 "/>
<polyline clip-path="url(#clip400)" style="stroke:#000000; stroke-linecap:round; stroke-linejoin:round; stroke-width:4; stroke-opacity:1; fill:none" points="255.816,1198.68 274.714,1198.68 "/>
<polyline clip-path="url(#clip400)" style="stroke:#000000; stroke-linecap:round; stroke-linejoin:round; stroke-width:4; stroke-opacity:1; fill:none" points="255.816,930.955 274.714,930.955 "/>
<polyline clip-path="url(#clip400)" style="stroke:#000000; stroke-linecap:round; stroke-linejoin:round; stroke-width:4; stroke-opacity:1; fill:none" points="255.816,663.234 274.714,663.234 "/>
<polyline clip-path="url(#clip400)" style="stroke:#000000; stroke-linecap:round; stroke-linejoin:round; stroke-width:4; stroke-opacity:1; fill:none" points="255.816,395.513 274.714,395.513 "/>
<path clip-path="url(#clip400)" d="M128.159 1719.92 Q124.548 1719.92 122.719 1723.48 Q120.913 1727.02 120.913 1734.15 Q120.913 1741.26 122.719 1744.82 Q124.548 1748.36 128.159 1748.36 Q131.793 1748.36 133.599 1744.82 Q135.427 1741.26 135.427 1734.15 Q135.427 1727.02 133.599 1723.48 Q131.793 1719.92 128.159 1719.92 M128.159 1716.21 Q133.969 1716.21 137.025 1720.82 Q140.103 1725.4 140.103 1734.15 Q140.103 1742.88 137.025 1747.48 Q133.969 1752.07 128.159 1752.07 Q122.349 1752.07 119.27 1747.48 Q116.214 1742.88 116.214 1734.15 Q116.214 1725.4 119.27 1720.82 Q122.349 1716.21 128.159 1716.21 Z" fill="#000000" fill-rule="nonzero" fill-opacity="1" /><path clip-path="url(#clip400)" d="M148.321 1745.52 L153.205 1745.52 L153.205 1751.4 L148.321 1751.4 L148.321 1745.52 Z" fill="#000000" fill-rule="nonzero" fill-opacity="1" /><path clip-path="url(#clip400)" d="M173.39 1719.92 Q169.779 1719.92 167.95 1723.48 Q166.145 1727.02 166.145 1734.15 Q166.145 1741.26 167.95 1744.82 Q169.779 1748.36 173.39 1748.36 Q177.024 1748.36 178.83 1744.82 Q180.659 1741.26 180.659 1734.15 Q180.659 1727.02 178.83 1723.48 Q177.024 1719.92 173.39 1719.92 M173.39 1716.21 Q179.2 1716.21 182.256 1720.82 Q185.334 1725.4 185.334 1734.15 Q185.334 1742.88 182.256 1747.48 Q179.2 1752.07 173.39 1752.07 Q167.58 1752.07 164.501 1747.48 Q161.446 1742.88 161.446 1734.15 Q161.446 1725.4 164.501 1720.82 Q167.58 1716.21 173.39 1716.21 Z" fill="#000000" fill-rule="nonzero" fill-opacity="1" /><path clip-path="url(#clip400)" d="M203.552 1719.92 Q199.941 1719.92 198.112 1723.48 Q196.307 1727.02 196.307 1734.15 Q196.307 1741.26 198.112 1744.82 Q199.941 1748.36 203.552 1748.36 Q207.186 1748.36 208.992 1744.82 Q210.82 1741.26 210.82 1734.15 Q210.82 1727.02 208.992 1723.48 Q207.186 1719.92 203.552 1719.92 M203.552 1716.21 Q209.362 1716.21 212.418 1720.82 Q215.496 1725.4 215.496 1734.15 Q215.496 1742.88 212.418 1747.48 Q209.362 1752.07 203.552 1752.07 Q197.742 1752.07 194.663 1747.48 Q191.608 1742.88 191.608 1734.15 Q191.608 1725.4 194.663 1720.82 Q197.742 1716.21 203.552 1716.21 Z" fill="#000000" fill-rule="nonzero" fill-opacity="1" /><path clip-path="url(#clip400)" d="M129.154 1452.19 Q125.543 1452.19 123.714 1455.76 Q121.909 1459.3 121.909 1466.43 Q121.909 1473.54 123.714 1477.1 Q125.543 1480.64 129.154 1480.64 Q132.788 1480.64 134.594 1477.1 Q136.423 1473.54 136.423 1466.43 Q136.423 1459.3 134.594 1455.76 Q132.788 1452.19 129.154 1452.19 M129.154 1448.49 Q134.964 1448.49 138.02 1453.1 Q141.099 1457.68 141.099 1466.43 Q141.099 1475.16 138.02 1479.76 Q134.964 1484.35 129.154 1484.35 Q123.344 1484.35 120.265 1479.76 Q117.21 1475.16 117.21 1466.43 Q117.21 1457.68 120.265 1453.1 Q123.344 1448.49 129.154 1448.49 Z" fill="#000000" fill-rule="nonzero" fill-opacity="1" /><path clip-path="url(#clip400)" d="M149.316 1477.8 L154.2 1477.8 L154.2 1483.68 L149.316 1483.68 L149.316 1477.8 Z" fill="#000000" fill-rule="nonzero" fill-opacity="1" /><path clip-path="url(#clip400)" d="M174.385 1452.19 Q170.774 1452.19 168.946 1455.76 Q167.14 1459.3 167.14 1466.43 Q167.14 1473.54 168.946 1477.1 Q170.774 1480.64 174.385 1480.64 Q178.02 1480.64 179.825 1477.1 Q181.654 1473.54 181.654 1466.43 Q181.654 1459.3 179.825 1455.76 Q178.02 1452.19 174.385 1452.19 M174.385 1448.49 Q180.196 1448.49 183.251 1453.1 Q186.33 1457.68 186.33 1466.43 Q186.33 1475.16 183.251 1479.76 Q180.196 1484.35 174.385 1484.35 Q168.575 1484.35 165.497 1479.76 Q162.441 1475.16 162.441 1466.43 Q162.441 1457.68 165.497 1453.1 Q168.575 1448.49 174.385 1448.49 Z" fill="#000000" fill-rule="nonzero" fill-opacity="1" /><path clip-path="url(#clip400)" d="M194.594 1449.12 L212.95 1449.12 L212.95 1453.05 L198.876 1453.05 L198.876 1461.52 Q199.895 1461.18 200.913 1461.01 Q201.932 1460.83 202.95 1460.83 Q208.737 1460.83 212.117 1464 Q215.496 1467.17 215.496 1472.59 Q215.496 1478.17 212.024 1481.27 Q208.552 1484.35 202.233 1484.35 Q200.057 1484.35 197.788 1483.98 Q195.543 1483.61 193.135 1482.87 L193.135 1478.17 Q195.219 1479.3 197.441 1479.86 Q199.663 1480.41 202.14 1480.41 Q206.145 1480.41 208.482 1478.31 Q210.82 1476.2 210.82 1472.59 Q210.82 1468.98 208.482 1466.87 Q206.145 1464.76 202.14 1464.76 Q200.265 1464.76 198.39 1465.18 Q196.538 1465.6 194.594 1466.48 L194.594 1449.12 Z" fill="#000000" fill-rule="nonzero" fill-opacity="1" /><path clip-path="url(#clip400)" d="M128.159 1184.47 Q124.548 1184.47 122.719 1188.04 Q120.913 1191.58 120.913 1198.71 Q120.913 1205.82 122.719 1209.38 Q124.548 1212.92 128.159 1212.92 Q131.793 1212.92 133.599 1209.38 Q135.427 1205.82 135.427 1198.71 Q135.427 1191.58 133.599 1188.04 Q131.793 1184.47 128.159 1184.47 M128.159 1180.77 Q133.969 1180.77 137.025 1185.38 Q140.103 1189.96 140.103 1198.71 Q140.103 1207.44 137.025 1212.04 Q133.969 1216.63 128.159 1216.63 Q122.349 1216.63 119.27 1212.04 Q116.214 1207.44 116.214 1198.71 Q116.214 1189.96 119.27 1185.38 Q122.349 1180.77 128.159 1180.77 Z" fill="#000000" fill-rule="nonzero" fill-opacity="1" /><path clip-path="url(#clip400)" d="M148.321 1210.08 L153.205 1210.08 L153.205 1215.96 L148.321 1215.96 L148.321 1210.08 Z" fill="#000000" fill-rule="nonzero" fill-opacity="1" /><path clip-path="url(#clip400)" d="M164.2 1212.02 L171.839 1212.02 L171.839 1185.65 L163.529 1187.32 L163.529 1183.06 L171.793 1181.4 L176.469 1181.4 L176.469 1212.02 L184.108 1212.02 L184.108 1215.96 L164.2 1215.96 L164.2 1212.02 Z" fill="#000000" fill-rule="nonzero" fill-opacity="1" /><path clip-path="url(#clip400)" d="M203.552 1184.47 Q199.941 1184.47 198.112 1188.04 Q196.307 1191.58 196.307 1198.71 Q196.307 1205.82 198.112 1209.38 Q199.941 1212.92 203.552 1212.92 Q207.186 1212.92 208.992 1209.38 Q210.82 1205.82 210.82 1198.71 Q210.82 1191.58 208.992 1188.04 Q207.186 1184.47 203.552 1184.47 M203.552 1180.77 Q209.362 1180.77 212.418 1185.38 Q215.496 1189.96 215.496 1198.71 Q215.496 1207.44 212.418 1212.04 Q209.362 1216.63 203.552 1216.63 Q197.742 1216.63 194.663 1212.04 Q191.608 1207.44 191.608 1198.71 Q191.608 1189.96 194.663 1185.38 Q197.742 1180.77 203.552 1180.77 Z" fill="#000000" fill-rule="nonzero" fill-opacity="1" /><path clip-path="url(#clip400)" d="M129.154 916.753 Q125.543 916.753 123.714 920.318 Q121.909 923.86 121.909 930.989 Q121.909 938.096 123.714 941.661 Q125.543 945.202 129.154 945.202 Q132.788 945.202 134.594 941.661 Q136.423 938.096 136.423 930.989 Q136.423 923.86 134.594 920.318 Q132.788 916.753 129.154 916.753 M129.154 913.05 Q134.964 913.05 138.02 917.656 Q141.099 922.239 141.099 930.989 Q141.099 939.716 138.02 944.323 Q134.964 948.906 129.154 948.906 Q123.344 948.906 120.265 944.323 Q117.21 939.716 117.21 930.989 Q117.21 922.239 120.265 917.656 Q123.344 913.05 129.154 913.05 Z" fill="#000000" fill-rule="nonzero" fill-opacity="1" /><path clip-path="url(#clip400)" d="M149.316 942.355 L154.2 942.355 L154.2 948.235 L149.316 948.235 L149.316 942.355 Z" fill="#000000" fill-rule="nonzero" fill-opacity="1" /><path clip-path="url(#clip400)" d="M165.196 944.299 L172.835 944.299 L172.835 917.934 L164.524 919.6 L164.524 915.341 L172.788 913.675 L177.464 913.675 L177.464 944.299 L185.103 944.299 L185.103 948.235 L165.196 948.235 L165.196 944.299 Z" fill="#000000" fill-rule="nonzero" fill-opacity="1" /><path clip-path="url(#clip400)" d="M194.594 913.675 L212.95 913.675 L212.95 917.61 L198.876 917.61 L198.876 926.082 Q199.895 925.735 200.913 925.573 Q201.932 925.387 202.95 925.387 Q208.737 925.387 212.117 928.559 Q215.496 931.73 215.496 937.147 Q215.496 942.725 212.024 945.827 Q208.552 948.906 202.233 948.906 Q200.057 948.906 197.788 948.535 Q195.543 948.165 193.135 947.424 L193.135 942.725 Q195.219 943.86 197.441 944.415 Q199.663 944.971 202.14 944.971 Q206.145 944.971 208.482 942.864 Q210.82 940.758 210.82 937.147 Q210.82 933.536 208.482 931.429 Q206.145 929.323 202.14 929.323 Q200.265 929.323 198.39 929.739 Q196.538 930.156 194.594 931.036 L194.594 913.675 Z" fill="#000000" fill-rule="nonzero" fill-opacity="1" /><path clip-path="url(#clip400)" d="M128.159 649.032 Q124.548 649.032 122.719 652.597 Q120.913 656.139 120.913 663.268 Q120.913 670.375 122.719 673.94 Q124.548 677.481 128.159 677.481 Q131.793 677.481 133.599 673.94 Q135.427 670.375 135.427 663.268 Q135.427 656.139 133.599 652.597 Q131.793 649.032 128.159 649.032 M128.159 645.329 Q133.969 645.329 137.025 649.935 Q140.103 654.519 140.103 663.268 Q140.103 671.995 137.025 676.602 Q133.969 681.185 128.159 681.185 Q122.349 681.185 119.27 676.602 Q116.214 671.995 116.214 663.268 Q116.214 654.519 119.27 649.935 Q122.349 645.329 128.159 645.329 Z" fill="#000000" fill-rule="nonzero" fill-opacity="1" /><path clip-path="url(#clip400)" d="M148.321 674.634 L153.205 674.634 L153.205 680.514 L148.321 680.514 L148.321 674.634 Z" fill="#000000" fill-rule="nonzero" fill-opacity="1" /><path clip-path="url(#clip400)" d="M167.418 676.579 L183.737 676.579 L183.737 680.514 L161.793 680.514 L161.793 676.579 Q164.455 673.824 169.038 669.194 Q173.645 664.542 174.825 663.199 Q177.071 660.676 177.95 658.94 Q178.853 657.181 178.853 655.491 Q178.853 652.736 176.909 651 Q174.987 649.264 171.885 649.264 Q169.686 649.264 167.233 650.028 Q164.802 650.792 162.024 652.343 L162.024 647.62 Q164.848 646.486 167.302 645.907 Q169.756 645.329 171.793 645.329 Q177.163 645.329 180.358 648.014 Q183.552 650.699 183.552 655.19 Q183.552 657.319 182.742 659.241 Q181.955 661.139 179.848 663.731 Q179.27 664.403 176.168 667.62 Q173.066 670.815 167.418 676.579 Z" fill="#000000" fill-rule="nonzero" fill-opacity="1" /><path clip-path="url(#clip400)" d="M203.552 649.032 Q199.941 649.032 198.112 652.597 Q196.307 656.139 196.307 663.268 Q196.307 670.375 198.112 673.94 Q199.941 677.481 203.552 677.481 Q207.186 677.481 208.992 673.94 Q210.82 670.375 210.82 663.268 Q210.82 656.139 208.992 652.597 Q207.186 649.032 203.552 649.032 M203.552 645.329 Q209.362 645.329 212.418 649.935 Q215.496 654.519 215.496 663.268 Q215.496 671.995 212.418 676.602 Q209.362 681.185 203.552 681.185 Q197.742 681.185 194.663 676.602 Q191.608 671.995 191.608 663.268 Q191.608 654.519 194.663 649.935 Q197.742 645.329 203.552 645.329 Z" fill="#000000" fill-rule="nonzero" fill-opacity="1" /><path clip-path="url(#clip400)" d="M129.154 381.312 Q125.543 381.312 123.714 384.876 Q121.909 388.418 121.909 395.548 Q121.909 402.654 123.714 406.219 Q125.543 409.761 129.154 409.761 Q132.788 409.761 134.594 406.219 Q136.423 402.654 136.423 395.548 Q136.423 388.418 134.594 384.876 Q132.788 381.312 129.154 381.312 M129.154 377.608 Q134.964 377.608 138.02 382.214 Q141.099 386.798 141.099 395.548 Q141.099 404.274 138.02 408.881 Q134.964 413.464 129.154 413.464 Q123.344 413.464 120.265 408.881 Q117.21 404.274 117.21 395.548 Q117.21 386.798 120.265 382.214 Q123.344 377.608 129.154 377.608 Z" fill="#000000" fill-rule="nonzero" fill-opacity="1" /><path clip-path="url(#clip400)" d="M149.316 406.913 L154.2 406.913 L154.2 412.793 L149.316 412.793 L149.316 406.913 Z" fill="#000000" fill-rule="nonzero" fill-opacity="1" /><path clip-path="url(#clip400)" d="M168.413 408.858 L184.733 408.858 L184.733 412.793 L162.788 412.793 L162.788 408.858 Q165.45 406.103 170.034 401.474 Q174.64 396.821 175.821 395.478 Q178.066 392.955 178.946 391.219 Q179.848 389.46 179.848 387.77 Q179.848 385.015 177.904 383.279 Q175.983 381.543 172.881 381.543 Q170.682 381.543 168.228 382.307 Q165.798 383.071 163.02 384.622 L163.02 379.9 Q165.844 378.765 168.297 378.187 Q170.751 377.608 172.788 377.608 Q178.159 377.608 181.353 380.293 Q184.547 382.978 184.547 387.469 Q184.547 389.599 183.737 391.52 Q182.95 393.418 180.844 396.011 Q180.265 396.682 177.163 399.899 Q174.061 403.094 168.413 408.858 Z" fill="#000000" fill-rule="nonzero" fill-opacity="1" /><path clip-path="url(#clip400)" d="M194.594 378.233 L212.95 378.233 L212.95 382.168 L198.876 382.168 L198.876 390.64 Q199.895 390.293 200.913 390.131 Q201.932 389.946 202.95 389.946 Q208.737 389.946 212.117 393.117 Q215.496 396.288 215.496 401.705 Q215.496 407.284 212.024 410.386 Q208.552 413.464 202.233 413.464 Q200.057 413.464 197.788 413.094 Q195.543 412.723 193.135 411.983 L193.135 407.284 Q195.219 408.418 197.441 408.974 Q199.663 409.529 202.14 409.529 Q206.145 409.529 208.482 407.423 Q210.82 405.316 210.82 401.705 Q210.82 398.094 208.482 395.987 Q206.145 393.881 202.14 393.881 Q200.265 393.881 198.39 394.298 Q196.538 394.714 194.594 395.594 L194.594 378.233 Z" fill="#000000" fill-rule="nonzero" fill-opacity="1" /><path clip-path="url(#clip400)" d="M14.1184 1277.54 L14.1184 1267.96 L46.4562 1255.83 L14.1184 1243.64 L14.1184 1234.06 L61.6384 1234.06 L61.6384 1240.33 L19.9112 1240.33 L52.5037 1252.58 L52.5037 1259.04 L19.9112 1271.3 L61.6384 1271.3 L61.6384 1277.54 L14.1184 1277.54 Z" fill="#000000" fill-rule="nonzero" fill-opacity="1" /><path clip-path="url(#clip400)" d="M42.3504 1191.06 L45.2149 1191.06 L45.2149 1217.98 Q51.2623 1217.6 54.4452 1214.36 Q57.5962 1211.08 57.5962 1205.25 Q57.5962 1201.88 56.7687 1198.73 Q55.9411 1195.55 54.2861 1192.43 L59.8242 1192.43 Q61.161 1195.58 61.8612 1198.89 Q62.5615 1202.2 62.5615 1205.6 Q62.5615 1214.13 57.5962 1219.13 Q52.631 1224.1 44.1646 1224.1 Q35.4117 1224.1 30.2873 1219.38 Q25.1311 1214.64 25.1311 1206.62 Q25.1311 1199.43 29.7781 1195.26 Q34.3932 1191.06 42.3504 1191.06 M40.6316 1196.91 Q35.8255 1196.98 32.9609 1199.62 Q30.0964 1202.23 30.0964 1206.56 Q30.0964 1211.46 32.8654 1214.42 Q35.6345 1217.35 40.6634 1217.79 L40.6316 1196.91 Z" fill="#000000" fill-rule="nonzero" fill-opacity="1" /><path clip-path="url(#clip400)" d="M43.719 1165.24 Q43.719 1172.34 45.3422 1175.08 Q46.9655 1177.82 50.8804 1177.82 Q53.9996 1177.82 55.8457 1175.78 Q57.6599 1173.71 57.6599 1170.18 Q57.6599 1165.31 54.2224 1162.38 Q50.7531 1159.42 45.0239 1159.42 L43.719 1159.42 L43.719 1165.24 M41.3 1153.56 L61.6384 1153.56 L61.6384 1159.42 L56.2276 1159.42 Q59.4741 1161.42 61.0337 1164.42 Q62.5615 1167.41 62.5615 1171.74 Q62.5615 1177.21 59.5059 1180.46 Q56.4186 1183.67 51.2623 1183.67 Q45.2467 1183.67 42.1912 1179.66 Q39.1357 1175.62 39.1357 1167.63 L39.1357 1159.42 L38.5628 1159.42 Q34.5205 1159.42 32.3244 1162.09 Q30.0964 1164.74 30.0964 1169.54 Q30.0964 1172.6 30.8284 1175.49 Q31.5605 1178.39 33.0246 1181.06 L27.6137 1181.06 Q26.3724 1177.85 25.7677 1174.82 Q25.1311 1171.8 25.1311 1168.94 Q25.1311 1161.2 29.1415 1157.38 Q33.1519 1153.56 41.3 1153.56 Z" fill="#000000" fill-rule="nonzero" fill-opacity="1" /><path clip-path="url(#clip400)" d="M40.1224 1111.87 L61.6384 1111.87 L61.6384 1117.72 L40.3133 1117.72 Q35.2526 1117.72 32.7381 1119.7 Q30.2237 1121.67 30.2237 1125.62 Q30.2237 1130.36 33.2474 1133.1 Q36.2711 1135.83 41.491 1135.83 L61.6384 1135.83 L61.6384 1141.72 L25.9905 1141.72 L25.9905 1135.83 L31.5287 1135.83 Q28.314 1133.73 26.7225 1130.9 Q25.1311 1128.04 25.1311 1124.31 Q25.1311 1118.17 28.9505 1115.02 Q32.7381 1111.87 40.1224 1111.87 Z" fill="#000000" fill-rule="nonzero" fill-opacity="1" /><path clip-path="url(#clip400)" d="M31.4013 1056.01 L12.1132 1056.01 L12.1132 1050.15 L61.6384 1050.15 L61.6384 1056.01 L56.2912 1056.01 Q59.4741 1057.85 61.0337 1060.69 Q62.5615 1063.49 62.5615 1067.44 Q62.5615 1073.9 57.4052 1077.97 Q52.249 1082.01 43.8463 1082.01 Q35.4436 1082.01 30.2873 1077.97 Q25.1311 1073.9 25.1311 1067.44 Q25.1311 1063.49 26.6907 1060.69 Q28.2185 1057.85 31.4013 1056.01 M43.8463 1075.97 Q50.3075 1075.97 53.9996 1073.32 Q57.6599 1070.65 57.6599 1066 Q57.6599 1061.36 53.9996 1058.68 Q50.3075 1056.01 43.8463 1056.01 Q37.3851 1056.01 33.7248 1058.68 Q30.0327 1061.36 30.0327 1066 Q30.0327 1070.65 33.7248 1073.32 Q37.3851 1075.97 43.8463 1075.97 Z" fill="#000000" fill-rule="nonzero" fill-opacity="1" /><path clip-path="url(#clip400)" d="M25.9905 1038.09 L25.9905 1032.23 L61.6384 1032.23 L61.6384 1038.09 L25.9905 1038.09 M12.1132 1038.09 L12.1132 1032.23 L19.5293 1032.23 L19.5293 1038.09 L12.1132 1038.09 Z" fill="#000000" fill-rule="nonzero" fill-opacity="1" /><path clip-path="url(#clip400)" d="M27.0408 997.253 L32.579 997.253 Q31.3059 999.736 30.6693 1002.41 Q30.0327 1005.08 30.0327 1007.95 Q30.0327 1012.31 31.3695 1014.5 Q32.7063 1016.67 35.3799 1016.67 Q37.4169 1016.67 38.5946 1015.11 Q39.7404 1013.55 40.7908 1008.84 L41.2364 1006.83 Q42.5732 1000.6 45.0239 997.985 Q47.4429 995.344 51.8034 995.344 Q56.7687 995.344 59.6651 999.29 Q62.5615 1003.21 62.5615 1010.08 Q62.5615 1012.94 61.9886 1016.06 Q61.4475 1019.15 60.3335 1022.59 L54.2861 1022.59 Q55.973 1019.34 56.8323 1016.19 Q57.6599 1013.04 57.6599 1009.95 Q57.6599 1005.82 56.2594 1003.59 Q54.8271 1001.36 52.249 1001.36 Q49.8619 1001.36 48.5887 1002.98 Q47.3156 1004.57 46.1379 1010.02 L45.6605 1012.05 Q44.5147 1017.5 42.1594 1019.92 Q39.7722 1022.33 35.6345 1022.33 Q30.6056 1022.33 27.8684 1018.77 Q25.1311 1015.2 25.1311 1008.65 Q25.1311 1005.4 25.6085 1002.54 Q26.086 999.672 27.0408 997.253 Z" fill="#000000" fill-rule="nonzero" fill-opacity="1" /><path clip-path="url(#clip400)" d="M27.3591 960.364 L32.8336 960.364 Q31.465 962.847 30.7966 965.361 Q30.0964 967.844 30.0964 970.39 Q30.0964 976.087 33.7248 979.238 Q37.3214 982.389 43.8463 982.389 Q50.3711 982.389 53.9996 979.238 Q57.5962 976.087 57.5962 970.39 Q57.5962 967.844 56.9278 965.361 Q56.2276 962.847 54.859 960.364 L60.2698 960.364 Q61.4156 962.815 61.9886 965.457 Q62.5615 968.067 62.5615 971.027 Q62.5615 979.079 57.5007 983.822 Q52.44 988.564 43.8463 988.564 Q35.1253 988.564 30.1282 983.79 Q25.1311 978.984 25.1311 970.645 Q25.1311 967.939 25.704 965.361 Q26.2451 962.783 27.3591 960.364 Z" fill="#000000" fill-rule="nonzero" fill-opacity="1" /><path clip-path="url(#clip400)" d="M30.0964 936.365 Q30.0964 941.076 33.7885 943.813 Q37.4488 946.551 43.8463 946.551 Q50.2438 946.551 53.9359 943.845 Q57.5962 941.108 57.5962 936.365 Q57.5962 931.687 53.9041 928.949 Q50.212 926.212 43.8463 926.212 Q37.5124 926.212 33.8203 928.949 Q30.0964 931.687 30.0964 936.365 M25.1311 936.365 Q25.1311 928.727 30.0964 924.366 Q35.0616 920.006 43.8463 920.006 Q52.5991 920.006 57.5962 924.366 Q62.5615 928.727 62.5615 936.365 Q62.5615 944.036 57.5962 948.397 Q52.5991 952.725 43.8463 952.725 Q35.0616 952.725 30.0964 948.397 Q25.1311 944.036 25.1311 936.365 Z" fill="#000000" fill-rule="nonzero" fill-opacity="1" /><path clip-path="url(#clip400)" d="M47.5702 910.903 L25.9905 910.903 L25.9905 905.046 L47.3474 905.046 Q52.4082 905.046 54.9545 903.073 Q57.4689 901.099 57.4689 897.153 Q57.4689 892.41 54.4452 889.673 Q51.4215 886.904 46.2016 886.904 L25.9905 886.904 L25.9905 881.047 L61.6384 881.047 L61.6384 886.904 L56.1639 886.904 Q59.4104 889.036 61.0019 891.869 Q62.5615 894.67 62.5615 898.394 Q62.5615 904.537 58.742 907.72 Q54.9226 910.903 47.5702 910.903 M25.1311 896.166 L25.1311 896.166 Z" fill="#000000" fill-rule="nonzero" fill-opacity="1" /><path clip-path="url(#clip400)" d="M40.1224 839.352 L61.6384 839.352 L61.6384 845.208 L40.3133 845.208 Q35.2526 845.208 32.7381 847.182 Q30.2237 849.155 30.2237 853.102 Q30.2237 857.844 33.2474 860.582 Q36.2711 863.319 41.491 863.319 L61.6384 863.319 L61.6384 869.207 L25.9905 869.207 L25.9905 863.319 L31.5287 863.319 Q28.314 861.218 26.7225 858.386 Q25.1311 855.521 25.1311 851.797 Q25.1311 845.654 28.9505 842.503 Q32.7381 839.352 40.1224 839.352 Z" fill="#000000" fill-rule="nonzero" fill-opacity="1" /><path clip-path="url(#clip400)" d="M15.869 821.878 L25.9905 821.878 L25.9905 809.815 L30.542 809.815 L30.542 821.878 L49.8937 821.878 Q54.2542 821.878 55.4955 820.701 Q56.7368 819.491 56.7368 815.831 L56.7368 809.815 L61.6384 809.815 L61.6384 815.831 Q61.6384 822.61 59.124 825.188 Q56.5777 827.766 49.8937 827.766 L30.542 827.766 L30.542 832.063 L25.9905 832.063 L25.9905 827.766 L15.869 827.766 L15.869 821.878 Z" fill="#000000" fill-rule="nonzero" fill-opacity="1" /><path clip-path="url(#clip400)" d="M30.0964 767.579 Q30.0964 772.289 33.7885 775.027 Q37.4488 777.764 43.8463 777.764 Q50.2438 777.764 53.9359 775.058 Q57.5962 772.321 57.5962 767.579 Q57.5962 762.9 53.9041 760.163 Q50.212 757.425 43.8463 757.425 Q37.5124 757.425 33.8203 760.163 Q30.0964 762.9 30.0964 767.579 M25.1311 767.579 Q25.1311 759.94 30.0964 755.579 Q35.0616 751.219 43.8463 751.219 Q52.5991 751.219 57.5962 755.579 Q62.5615 759.94 62.5615 767.579 Q62.5615 775.249 57.5962 779.61 Q52.5991 783.939 43.8463 783.939 Q35.0616 783.939 30.0964 779.61 Q25.1311 775.249 25.1311 767.579 Z" fill="#000000" fill-rule="nonzero" fill-opacity="1" /><path clip-path="url(#clip400)" d="M25.9905 745.712 L25.9905 739.506 L55.9093 728.366 L25.9905 717.226 L25.9905 711.019 L61.6384 724.387 L61.6384 732.345 L25.9905 745.712 Z" fill="#000000" fill-rule="nonzero" fill-opacity="1" /><path clip-path="url(#clip400)" d="M42.3504 672.443 L45.2149 672.443 L45.2149 699.37 Q51.2623 698.988 54.4452 695.742 Q57.5962 692.463 57.5962 686.639 Q57.5962 683.265 56.7687 680.114 Q55.9411 676.931 54.2861 673.812 L59.8242 673.812 Q61.161 676.963 61.8612 680.273 Q62.5615 683.583 62.5615 686.989 Q62.5615 695.519 57.5962 700.516 Q52.631 705.481 44.1646 705.481 Q35.4117 705.481 30.2873 700.771 Q25.1311 696.028 25.1311 688.007 Q25.1311 680.814 29.7781 676.645 Q34.3932 672.443 42.3504 672.443 M40.6316 678.3 Q35.8255 678.363 32.9609 681.005 Q30.0964 683.615 30.0964 687.944 Q30.0964 692.845 32.8654 695.805 Q35.6345 698.734 40.6634 699.179 L40.6316 678.3 Z" fill="#000000" fill-rule="nonzero" fill-opacity="1" /><path clip-path="url(#clip400)" d="M31.465 642.174 Q30.8921 643.161 30.6375 644.339 Q30.351 645.484 30.351 646.885 Q30.351 651.85 33.5975 654.524 Q36.8122 657.166 42.8596 657.166 L61.6384 657.166 L61.6384 663.054 L25.9905 663.054 L25.9905 657.166 L31.5287 657.166 Q28.2821 655.319 26.7225 652.359 Q25.1311 649.399 25.1311 645.166 Q25.1311 644.561 25.2266 643.829 Q25.2903 643.097 25.4494 642.206 L31.465 642.174 Z" fill="#000000" fill-rule="nonzero" fill-opacity="1" /><path clip-path="url(#clip400)" d="M19.402 608.627 L37.2578 608.627 L37.2578 600.543 Q37.2578 596.055 34.9343 593.604 Q32.6108 591.153 28.314 591.153 Q24.0489 591.153 21.7255 593.604 Q19.402 596.055 19.402 600.543 L19.402 608.627 M14.1184 615.056 L14.1184 600.543 Q14.1184 592.554 17.7469 588.48 Q21.3435 584.374 28.314 584.374 Q35.3481 584.374 38.9447 588.48 Q42.5413 592.554 42.5413 600.543 L42.5413 608.627 L61.6384 608.627 L61.6384 615.056 L14.1184 615.056 Z" fill="#000000" fill-rule="nonzero" fill-opacity="1" /><path clip-path="url(#clip400)" d="M345.488 12.096 L357.681 12.096 L373.115 53.2532 L388.63 12.096 L400.824 12.096 L400.824 72.576 L392.843 72.576 L392.843 19.4686 L377.247 60.9499 L369.024 60.9499 L353.428 19.4686 L353.428 72.576 L345.488 72.576 L345.488 12.096 Z" fill="#000000" fill-rule="nonzero" fill-opacity="1" /><path clip-path="url(#clip400)" d="M455.551 48.0275 L455.551 51.6733 L421.281 51.6733 Q421.767 59.3701 425.899 63.421 Q430.071 67.4314 437.484 67.4314 Q441.778 67.4314 445.789 66.3781 Q449.839 65.3249 453.809 63.2184 L453.809 70.267 Q449.799 71.9684 445.586 72.8596 Q441.373 73.7508 437.039 73.7508 Q426.182 73.7508 419.822 67.4314 Q413.503 61.1119 413.503 50.3365 Q413.503 39.1965 419.498 32.6746 Q425.534 26.1121 435.742 26.1121 Q444.897 26.1121 450.204 32.0264 Q455.551 37.9003 455.551 48.0275 M448.098 45.84 Q448.017 39.7232 444.654 36.0774 Q441.333 32.4315 435.823 32.4315 Q429.585 32.4315 425.818 35.9558 Q422.091 39.4801 421.524 45.8805 L448.098 45.84 Z" fill="#000000" fill-rule="nonzero" fill-opacity="1" /><path clip-path="url(#clip400)" d="M488.404 49.7694 Q479.371 49.7694 475.887 51.8354 Q472.403 53.9013 472.403 58.8839 Q472.403 62.8538 474.996 65.2034 Q477.629 67.5124 482.125 67.5124 Q488.323 67.5124 492.05 63.1374 Q495.817 58.7219 495.817 51.4303 L495.817 49.7694 L488.404 49.7694 M503.271 46.6907 L503.271 72.576 L495.817 72.576 L495.817 65.6895 Q493.265 69.8214 489.457 71.8063 Q485.649 73.7508 480.14 73.7508 Q473.173 73.7508 469.041 69.8619 Q464.949 65.9325 464.949 59.3701 Q464.949 51.7138 470.054 47.825 Q475.198 43.9361 485.366 43.9361 L495.817 43.9361 L495.817 43.2069 Q495.817 38.0623 492.414 35.2672 Q489.052 32.4315 482.935 32.4315 Q479.047 32.4315 475.36 33.3632 Q471.674 34.295 468.271 36.1584 L468.271 29.2718 Q472.363 27.692 476.211 26.9223 Q480.059 26.1121 483.705 26.1121 Q493.549 26.1121 498.41 31.2163 Q503.271 36.3204 503.271 46.6907 Z" fill="#000000" fill-rule="nonzero" fill-opacity="1" /><path clip-path="url(#clip400)" d="M556.338 45.1919 L556.338 72.576 L548.884 72.576 L548.884 45.4349 Q548.884 38.994 546.373 35.7938 Q543.861 32.5936 538.838 32.5936 Q532.802 32.5936 529.318 36.4419 Q525.834 40.2903 525.834 46.9338 L525.834 72.576 L518.34 72.576 L518.34 27.2059 L525.834 27.2059 L525.834 34.2544 Q528.508 30.163 532.113 28.1376 Q535.759 26.1121 540.499 26.1121 Q548.317 26.1121 552.327 30.9732 Q556.338 35.7938 556.338 45.1919 Z" fill="#000000" fill-rule="nonzero" fill-opacity="1" /><path clip-path="url(#clip400)" d="M604.787 65.7705 L604.787 89.8329 L597.292 89.8329 L597.292 27.2059 L604.787 27.2059 L604.787 34.0924 Q607.136 30.0415 610.701 28.0971 Q614.306 26.1121 619.289 26.1121 Q627.553 26.1121 632.697 32.6746 Q637.882 39.2371 637.882 49.9314 Q637.882 60.6258 632.697 67.1883 Q627.553 73.7508 619.289 73.7508 Q614.306 73.7508 610.701 71.8063 Q607.136 69.8214 604.787 65.7705 M630.145 49.9314 Q630.145 41.7081 626.742 37.0496 Q623.38 32.3505 617.466 32.3505 Q611.552 32.3505 608.149 37.0496 Q604.787 41.7081 604.787 49.9314 Q604.787 58.1548 608.149 62.8538 Q611.552 67.5124 617.466 67.5124 Q623.38 67.5124 626.742 62.8538 Q630.145 58.1548 630.145 49.9314 Z" fill="#000000" fill-rule="nonzero" fill-opacity="1" /><path clip-path="url(#clip400)" d="M676.528 34.1734 Q675.272 33.4443 673.773 33.1202 Q672.315 32.7556 670.533 32.7556 Q664.213 32.7556 660.811 36.8875 Q657.448 40.9789 657.448 48.6757 L657.448 72.576 L649.954 72.576 L649.954 27.2059 L657.448 27.2059 L657.448 34.2544 Q659.798 30.1225 663.565 28.1376 Q667.333 26.1121 672.72 26.1121 Q673.49 26.1121 674.422 26.2337 Q675.353 26.3147 676.488 26.5172 L676.528 34.1734 Z" fill="#000000" fill-rule="nonzero" fill-opacity="1" /><path clip-path="url(#clip400)" d="M684.346 27.2059 L691.8 27.2059 L691.8 72.576 L684.346 72.576 L684.346 27.2059 M684.346 9.54393 L691.8 9.54393 L691.8 18.9825 L684.346 18.9825 L684.346 9.54393 Z" fill="#000000" fill-rule="nonzero" fill-opacity="1" /><path clip-path="url(#clip400)" d="M740.046 28.9478 L740.046 35.9153 Q736.887 34.1734 733.686 33.3227 Q730.527 32.4315 727.286 32.4315 Q720.035 32.4315 716.024 37.0496 Q712.014 41.6271 712.014 49.9314 Q712.014 58.2358 716.024 62.8538 Q720.035 67.4314 727.286 67.4314 Q730.527 67.4314 733.686 66.5807 Q736.887 65.6895 740.046 63.9476 L740.046 70.8341 Q736.927 72.2924 733.565 73.0216 Q730.243 73.7508 726.476 73.7508 Q716.227 73.7508 710.191 67.3098 Q704.155 60.8689 704.155 49.9314 Q704.155 38.832 710.232 32.472 Q716.348 26.1121 726.962 26.1121 Q730.405 26.1121 733.686 26.8413 Q736.968 27.5299 740.046 28.9478 Z" fill="#000000" fill-rule="nonzero" fill-opacity="1" /><path clip-path="url(#clip400)" d="M791.817 48.0275 L791.817 51.6733 L757.546 51.6733 Q758.032 59.3701 762.164 63.421 Q766.337 67.4314 773.75 67.4314 Q778.044 67.4314 782.054 66.3781 Q786.105 65.3249 790.075 63.2184 L790.075 70.267 Q786.065 71.9684 781.852 72.8596 Q777.639 73.7508 773.304 73.7508 Q762.448 73.7508 756.088 67.4314 Q749.768 61.1119 749.768 50.3365 Q749.768 39.1965 755.764 32.6746 Q761.8 26.1121 772.008 26.1121 Q781.163 26.1121 786.47 32.0264 Q791.817 37.9003 791.817 48.0275 M784.363 45.84 Q784.282 39.7232 780.92 36.0774 Q777.598 32.4315 772.089 32.4315 Q765.851 32.4315 762.083 35.9558 Q758.356 39.4801 757.789 45.8805 L784.363 45.84 Z" fill="#000000" fill-rule="nonzero" fill-opacity="1" /><path clip-path="url(#clip400)" d="M860.277 34.0924 L860.277 9.54393 L867.731 9.54393 L867.731 72.576 L860.277 72.576 L860.277 65.7705 Q857.928 69.8214 854.322 71.8063 Q850.757 73.7508 845.734 73.7508 Q837.511 73.7508 832.326 67.1883 Q827.181 60.6258 827.181 49.9314 Q827.181 39.2371 832.326 32.6746 Q837.511 26.1121 845.734 26.1121 Q850.757 26.1121 854.322 28.0971 Q857.928 30.0415 860.277 34.0924 M834.878 49.9314 Q834.878 58.1548 838.24 62.8538 Q841.643 67.5124 847.557 67.5124 Q853.472 67.5124 856.874 62.8538 Q860.277 58.1548 860.277 49.9314 Q860.277 41.7081 856.874 37.0496 Q853.472 32.3505 847.557 32.3505 Q841.643 32.3505 838.24 37.0496 Q834.878 41.7081 834.878 49.9314 Z" fill="#000000" fill-rule="nonzero" fill-opacity="1" /><path clip-path="url(#clip400)" d="M883.084 27.2059 L890.537 27.2059 L890.537 72.576 L883.084 72.576 L883.084 27.2059 M883.084 9.54393 L890.537 9.54393 L890.537 18.9825 L883.084 18.9825 L883.084 9.54393 Z" fill="#000000" fill-rule="nonzero" fill-opacity="1" /><path clip-path="url(#clip400)" d="M935.057 28.5427 L935.057 35.5912 Q931.897 33.9709 928.494 33.1607 Q925.092 32.3505 921.446 32.3505 Q915.896 32.3505 913.101 34.0519 Q910.346 35.7533 910.346 39.156 Q910.346 41.7486 912.331 43.2475 Q914.316 44.7058 920.312 46.0426 L922.864 46.6097 Q930.803 48.3111 934.125 51.4303 Q937.487 54.509 937.487 60.0587 Q937.487 66.3781 932.464 70.0644 Q927.482 73.7508 918.732 73.7508 Q915.086 73.7508 911.116 73.0216 Q907.187 72.3329 902.812 70.9151 L902.812 63.2184 Q906.944 65.3654 910.954 66.4591 Q914.964 67.5124 918.894 67.5124 Q924.16 67.5124 926.996 65.73 Q929.831 63.9071 929.831 60.6258 Q929.831 57.5877 927.765 55.9673 Q925.74 54.3469 918.813 52.8481 L916.22 52.2405 Q909.293 50.7821 906.214 47.7845 Q903.136 44.7463 903.136 39.4801 Q903.136 33.0797 907.673 29.5959 Q912.21 26.1121 920.555 26.1121 Q924.686 26.1121 928.332 26.7198 Q931.978 27.3274 935.057 28.5427 Z" fill="#000000" fill-rule="nonzero" fill-opacity="1" /><path clip-path="url(#clip400)" d="M982.007 28.9478 L982.007 35.9153 Q978.847 34.1734 975.647 33.3227 Q972.487 32.4315 969.246 32.4315 Q961.995 32.4315 957.985 37.0496 Q953.975 41.6271 953.975 49.9314 Q953.975 58.2358 957.985 62.8538 Q961.995 67.4314 969.246 67.4314 Q972.487 67.4314 975.647 66.5807 Q978.847 65.6895 982.007 63.9476 L982.007 70.8341 Q978.888 72.2924 975.525 73.0216 Q972.204 73.7508 968.436 73.7508 Q958.187 73.7508 952.152 67.3098 Q946.116 60.8689 946.116 49.9314 Q946.116 38.832 952.192 32.472 Q958.309 26.1121 968.922 26.1121 Q972.366 26.1121 975.647 26.8413 Q978.928 27.5299 982.007 28.9478 Z" fill="#000000" fill-rule="nonzero" fill-opacity="1" /><path clip-path="url(#clip400)" d="M1012.55 32.4315 Q1006.56 32.4315 1003.07 37.1306 Q999.588 41.7891 999.588 49.9314 Q999.588 58.0738 1003.03 62.7728 Q1006.51 67.4314 1012.55 67.4314 Q1018.51 67.4314 1021.99 62.7323 Q1025.47 58.0333 1025.47 49.9314 Q1025.47 41.8701 1021.99 37.1711 Q1018.51 32.4315 1012.55 32.4315 M1012.55 26.1121 Q1022.27 26.1121 1027.82 32.4315 Q1033.37 38.7509 1033.37 49.9314 Q1033.37 61.0714 1027.82 67.4314 Q1022.27 73.7508 1012.55 73.7508 Q1002.79 73.7508 997.238 67.4314 Q991.729 61.0714 991.729 49.9314 Q991.729 38.7509 997.238 32.4315 Q1002.79 26.1121 1012.55 26.1121 Z" fill="#000000" fill-rule="nonzero" fill-opacity="1" /><path clip-path="url(#clip400)" d="M1044.96 54.671 L1044.96 27.2059 L1052.41 27.2059 L1052.41 54.3874 Q1052.41 60.8284 1054.92 64.0691 Q1057.43 67.2693 1062.46 67.2693 Q1068.49 67.2693 1071.98 63.421 Q1075.5 59.5726 1075.5 52.9291 L1075.5 27.2059 L1082.96 27.2059 L1082.96 72.576 L1075.5 72.576 L1075.5 65.6084 Q1072.79 69.7404 1069.18 71.7658 Q1065.62 73.7508 1060.88 73.7508 Q1053.06 73.7508 1049.01 68.8897 Q1044.96 64.0286 1044.96 54.671 M1063.71 26.1121 L1063.71 26.1121 Z" fill="#000000" fill-rule="nonzero" fill-opacity="1" /><path clip-path="url(#clip400)" d="M1136.02 45.1919 L1136.02 72.576 L1128.57 72.576 L1128.57 45.4349 Q1128.57 38.994 1126.06 35.7938 Q1123.55 32.5936 1118.52 32.5936 Q1112.49 32.5936 1109 36.4419 Q1105.52 40.2903 1105.52 46.9338 L1105.52 72.576 L1098.02 72.576 L1098.02 27.2059 L1105.52 27.2059 L1105.52 34.2544 Q1108.19 30.163 1111.8 28.1376 Q1115.44 26.1121 1120.18 26.1121 Q1128 26.1121 1132.01 30.9732 Q1136.02 35.7938 1136.02 45.1919 Z" fill="#000000" fill-rule="nonzero" fill-opacity="1" /><path clip-path="url(#clip400)" d="M1158.26 14.324 L1158.26 27.2059 L1173.61 27.2059 L1173.61 32.9987 L1158.26 32.9987 L1158.26 57.6282 Q1158.26 63.1779 1159.76 64.7578 Q1161.3 66.3376 1165.96 66.3376 L1173.61 66.3376 L1173.61 72.576 L1165.96 72.576 Q1157.33 72.576 1154.05 69.3758 Q1150.77 66.1351 1150.77 57.6282 L1150.77 32.9987 L1145.3 32.9987 L1145.3 27.2059 L1150.77 27.2059 L1150.77 14.324 L1158.26 14.324 Z" fill="#000000" fill-rule="nonzero" fill-opacity="1" /><path clip-path="url(#clip400)" d="M1196.66 12.096 L1203.55 12.096 L1182.49 80.2727 L1175.6 80.2727 L1196.66 12.096 Z" fill="#000000" fill-rule="nonzero" fill-opacity="1" /><path clip-path="url(#clip400)" d="M1219.88 18.8205 L1219.88 41.5461 L1230.17 41.5461 Q1235.88 41.5461 1239 38.5889 Q1242.12 35.6318 1242.12 30.163 Q1242.12 24.7348 1239 21.7777 Q1235.88 18.8205 1230.17 18.8205 L1219.88 18.8205 M1211.69 12.096 L1230.17 12.096 Q1240.33 12.096 1245.52 16.714 Q1250.74 21.2916 1250.74 30.163 Q1250.74 39.1155 1245.52 43.6931 Q1240.33 48.2706 1230.17 48.2706 L1219.88 48.2706 L1219.88 72.576 L1211.69 72.576 L1211.69 12.096 Z" fill="#000000" fill-rule="nonzero" fill-opacity="1" /><path clip-path="url(#clip400)" d="M1283.43 27.2059 L1290.89 27.2059 L1300.21 62.6108 L1309.48 27.2059 L1318.27 27.2059 L1327.59 62.6108 L1336.87 27.2059 L1344.32 27.2059 L1332.45 72.576 L1323.66 72.576 L1313.9 35.3887 L1304.09 72.576 L1295.3 72.576 L1283.43 27.2059 Z" fill="#000000" fill-rule="nonzero" fill-opacity="1" /><path clip-path="url(#clip400)" d="M1355.62 27.2059 L1363.08 27.2059 L1363.08 72.576 L1355.62 72.576 L1355.62 27.2059 M1355.62 9.54393 L1363.08 9.54393 L1363.08 18.9825 L1355.62 18.9825 L1355.62 9.54393 Z" fill="#000000" fill-rule="nonzero" fill-opacity="1" /><path clip-path="url(#clip400)" d="M1386.04 14.324 L1386.04 27.2059 L1401.4 27.2059 L1401.4 32.9987 L1386.04 32.9987 L1386.04 57.6282 Q1386.04 63.1779 1387.54 64.7578 Q1389.08 66.3376 1393.74 66.3376 L1401.4 66.3376 L1401.4 72.576 L1393.74 72.576 Q1385.11 72.576 1381.83 69.3758 Q1378.55 66.1351 1378.55 57.6282 L1378.55 32.9987 L1373.08 32.9987 L1373.08 27.2059 L1378.55 27.2059 L1378.55 14.324 L1386.04 14.324 Z" fill="#000000" fill-rule="nonzero" fill-opacity="1" /><path clip-path="url(#clip400)" d="M1448.91 45.1919 L1448.91 72.576 L1441.46 72.576 L1441.46 45.4349 Q1441.46 38.994 1438.95 35.7938 Q1436.44 32.5936 1431.41 32.5936 Q1425.38 32.5936 1421.89 36.4419 Q1418.41 40.2903 1418.41 46.9338 L1418.41 72.576 L1410.92 72.576 L1410.92 9.54393 L1418.41 9.54393 L1418.41 34.2544 Q1421.08 30.163 1424.69 28.1376 Q1428.34 26.1121 1433.07 26.1121 Q1440.89 26.1121 1444.9 30.9732 Q1448.91 35.7938 1448.91 45.1919 Z" fill="#000000" fill-rule="nonzero" fill-opacity="1" /><path clip-path="url(#clip400)" d="M1498.66 18.8205 L1498.66 41.5461 L1508.95 41.5461 Q1514.66 41.5461 1517.78 38.5889 Q1520.9 35.6318 1520.9 30.163 Q1520.9 24.7348 1517.78 21.7777 Q1514.66 18.8205 1508.95 18.8205 L1498.66 18.8205 M1490.48 12.096 L1508.95 12.096 Q1519.12 12.096 1524.3 16.714 Q1529.53 21.2916 1529.53 30.163 Q1529.53 39.1155 1524.3 43.6931 Q1519.12 48.2706 1508.95 48.2706 L1498.66 48.2706 L1498.66 72.576 L1490.48 72.576 L1490.48 12.096 Z" fill="#000000" fill-rule="nonzero" fill-opacity="1" /><path clip-path="url(#clip400)" d="M1567.52 34.9026 L1619.46 34.9026 L1619.46 41.7081 L1567.52 41.7081 L1567.52 34.9026 M1567.52 51.4303 L1619.46 51.4303 L1619.46 58.3168 L1567.52 58.3168 L1567.52 51.4303 Z" fill="#000000" fill-rule="nonzero" fill-opacity="1" /><path clip-path="url(#clip400)" d="M1664.91 65.6895 L1678.28 65.6895 L1678.28 19.5497 L1663.73 22.4663 L1663.73 15.0127 L1678.2 12.096 L1686.38 12.096 L1686.38 65.6895 L1699.75 65.6895 L1699.75 72.576 L1664.91 72.576 L1664.91 65.6895 Z" fill="#000000" fill-rule="nonzero" fill-opacity="1" /><path clip-path="url(#clip400)" d="M1733.77 17.4837 Q1727.45 17.4837 1724.25 23.7221 Q1721.09 29.92 1721.09 42.3968 Q1721.09 54.833 1724.25 61.0714 Q1727.45 67.2693 1733.77 67.2693 Q1740.13 67.2693 1743.29 61.0714 Q1746.49 54.833 1746.49 42.3968 Q1746.49 29.92 1743.29 23.7221 Q1740.13 17.4837 1733.77 17.4837 M1733.77 11.0023 Q1743.94 11.0023 1749.29 19.0636 Q1754.68 27.0843 1754.68 42.3968 Q1754.68 57.6687 1749.29 65.73 Q1743.94 73.7508 1733.77 73.7508 Q1723.61 73.7508 1718.22 65.73 Q1712.87 57.6687 1712.87 42.3968 Q1712.87 27.0843 1718.22 19.0636 Q1723.61 11.0023 1733.77 11.0023 Z" fill="#000000" fill-rule="nonzero" fill-opacity="1" /><path clip-path="url(#clip400)" d="M1786.56 17.4837 Q1780.24 17.4837 1777.04 23.7221 Q1773.88 29.92 1773.88 42.3968 Q1773.88 54.833 1777.04 61.0714 Q1780.24 67.2693 1786.56 67.2693 Q1792.92 67.2693 1796.08 61.0714 Q1799.28 54.833 1799.28 42.3968 Q1799.28 29.92 1796.08 23.7221 Q1792.92 17.4837 1786.56 17.4837 M1786.56 11.0023 Q1796.72 11.0023 1802.07 19.0636 Q1807.46 27.0843 1807.46 42.3968 Q1807.46 57.6687 1802.07 65.73 Q1796.72 73.7508 1786.56 73.7508 Q1776.39 73.7508 1771 65.73 Q1765.65 57.6687 1765.65 42.3968 Q1765.65 27.0843 1771 19.0636 Q1776.39 11.0023 1786.56 11.0023 Z" fill="#000000" fill-rule="nonzero" fill-opacity="1" /><path clip-path="url(#clip400)" d="M1839.34 17.4837 Q1833.02 17.4837 1829.82 23.7221 Q1826.66 29.92 1826.66 42.3968 Q1826.66 54.833 1829.82 61.0714 Q1833.02 67.2693 1839.34 67.2693 Q1845.7 67.2693 1848.86 61.0714 Q1852.06 54.833 1852.06 42.3968 Q1852.06 29.92 1848.86 23.7221 Q1845.7 17.4837 1839.34 17.4837 M1839.34 11.0023 Q1849.51 11.0023 1854.86 19.0636 Q1860.24 27.0843 1860.24 42.3968 Q1860.24 57.6687 1854.86 65.73 Q1849.51 73.7508 1839.34 73.7508 Q1829.17 73.7508 1823.78 65.73 Q1818.44 57.6687 1818.44 42.3968 Q1818.44 27.0843 1823.78 19.0636 Q1829.17 11.0023 1839.34 11.0023 Z" fill="#000000" fill-rule="nonzero" fill-opacity="1" /><path clip-path="url(#clip400)" d="M1920.56 49.7694 Q1911.53 49.7694 1908.04 51.8354 Q1904.56 53.9013 1904.56 58.8839 Q1904.56 62.8538 1907.15 65.2034 Q1909.79 67.5124 1914.28 67.5124 Q1920.48 67.5124 1924.21 63.1374 Q1927.97 58.7219 1927.97 51.4303 L1927.97 49.7694 L1920.56 49.7694 M1935.43 46.6907 L1935.43 72.576 L1927.97 72.576 L1927.97 65.6895 Q1925.42 69.8214 1921.61 71.8063 Q1917.81 73.7508 1912.3 73.7508 Q1905.33 73.7508 1901.2 69.8619 Q1897.11 65.9325 1897.11 59.3701 Q1897.11 51.7138 1902.21 47.825 Q1907.35 43.9361 1917.52 43.9361 L1927.97 43.9361 L1927.97 43.2069 Q1927.97 38.0623 1924.57 35.2672 Q1921.21 32.4315 1915.09 32.4315 Q1911.2 32.4315 1907.52 33.3632 Q1903.83 34.295 1900.43 36.1584 L1900.43 29.2718 Q1904.52 27.692 1908.37 26.9223 Q1912.22 26.1121 1915.86 26.1121 Q1925.71 26.1121 1930.57 31.2163 Q1935.43 36.3204 1935.43 46.6907 Z" fill="#000000" fill-rule="nonzero" fill-opacity="1" /><path clip-path="url(#clip400)" d="M1988.49 45.1919 L1988.49 72.576 L1981.04 72.576 L1981.04 45.4349 Q1981.04 38.994 1978.53 35.7938 Q1976.02 32.5936 1970.99 32.5936 Q1964.96 32.5936 1961.47 36.4419 Q1957.99 40.2903 1957.99 46.9338 L1957.99 72.576 L1950.5 72.576 L1950.5 27.2059 L1957.99 27.2059 L1957.99 34.2544 Q1960.66 30.163 1964.27 28.1376 Q1967.92 26.1121 1972.66 26.1121 Q1980.47 26.1121 1984.48 30.9732 Q1988.49 35.7938 1988.49 45.1919 Z" fill="#000000" fill-rule="nonzero" fill-opacity="1" /><path clip-path="url(#clip400)" d="M2033.22 34.0924 L2033.22 9.54393 L2040.67 9.54393 L2040.67 72.576 L2033.22 72.576 L2033.22 65.7705 Q2030.87 69.8214 2027.26 71.8063 Q2023.7 73.7508 2018.67 73.7508 Q2010.45 73.7508 2005.27 67.1883 Q2000.12 60.6258 2000.12 49.9314 Q2000.12 39.2371 2005.27 32.6746 Q2010.45 26.1121 2018.67 26.1121 Q2023.7 26.1121 2027.26 28.0971 Q2030.87 30.0415 2033.22 34.0924 M2007.82 49.9314 Q2007.82 58.1548 2011.18 62.8538 Q2014.58 67.5124 2020.5 67.5124 Q2026.41 67.5124 2029.81 62.8538 Q2033.22 58.1548 2033.22 49.9314 Q2033.22 41.7081 2029.81 37.0496 Q2026.41 32.3505 2020.5 32.3505 Q2014.58 32.3505 2011.18 37.0496 Q2007.82 41.7081 2007.82 49.9314 Z" fill="#000000" fill-rule="nonzero" fill-opacity="1" /><path clip-path="url(#clip400)" d="M2103.01 49.7694 Q2093.98 49.7694 2090.5 51.8354 Q2087.01 53.9013 2087.01 58.8839 Q2087.01 62.8538 2089.61 65.2034 Q2092.24 67.5124 2096.73 67.5124 Q2102.93 67.5124 2106.66 63.1374 Q2110.43 58.7219 2110.43 51.4303 L2110.43 49.7694 L2103.01 49.7694 M2117.88 46.6907 L2117.88 72.576 L2110.43 72.576 L2110.43 65.6895 Q2107.87 69.8214 2104.07 71.8063 Q2100.26 73.7508 2094.75 73.7508 Q2087.78 73.7508 2083.65 69.8619 Q2079.56 65.9325 2079.56 59.3701 Q2079.56 51.7138 2084.66 47.825 Q2089.81 43.9361 2099.98 43.9361 L2110.43 43.9361 L2110.43 43.2069 Q2110.43 38.0623 2107.02 35.2672 Q2103.66 32.4315 2097.54 32.4315 Q2093.66 32.4315 2089.97 33.3632 Q2086.28 34.295 2082.88 36.1584 L2082.88 29.2718 Q2086.97 27.692 2090.82 26.9223 Q2094.67 26.1121 2098.31 26.1121 Q2108.16 26.1121 2113.02 31.2163 Q2117.88 36.3204 2117.88 46.6907 Z" fill="#000000" fill-rule="nonzero" fill-opacity="1" /><path clip-path="url(#clip400)" d="M2133.23 9.54393 L2140.69 9.54393 L2140.69 72.576 L2133.23 72.576 L2133.23 9.54393 Z" fill="#000000" fill-rule="nonzero" fill-opacity="1" /><path clip-path="url(#clip400)" d="M2163.49 65.7705 L2163.49 89.8329 L2156 89.8329 L2156 27.2059 L2163.49 27.2059 L2163.49 34.0924 Q2165.84 30.0415 2169.41 28.0971 Q2173.01 26.1121 2178 26.1121 Q2186.26 26.1121 2191.4 32.6746 Q2196.59 39.2371 2196.59 49.9314 Q2196.59 60.6258 2191.4 67.1883 Q2186.26 73.7508 2178 73.7508 Q2173.01 73.7508 2169.41 71.8063 Q2165.84 69.8214 2163.49 65.7705 M2188.85 49.9314 Q2188.85 41.7081 2185.45 37.0496 Q2182.09 32.3505 2176.17 32.3505 Q2170.26 32.3505 2166.86 37.0496 Q2163.49 41.7081 2163.49 49.9314 Q2163.49 58.1548 2166.86 62.8538 Q2170.26 67.5124 2176.17 67.5124 Q2182.09 67.5124 2185.45 62.8538 Q2188.85 58.1548 2188.85 49.9314 Z" fill="#000000" fill-rule="nonzero" fill-opacity="1" /><path clip-path="url(#clip400)" d="M2246.66 45.1919 L2246.66 72.576 L2239.2 72.576 L2239.2 45.4349 Q2239.2 38.994 2236.69 35.7938 Q2234.18 32.5936 2229.16 32.5936 Q2223.12 32.5936 2219.64 36.4419 Q2216.16 40.2903 2216.16 46.9338 L2216.16 72.576 L2208.66 72.576 L2208.66 9.54393 L2216.16 9.54393 L2216.16 34.2544 Q2218.83 30.163 2222.43 28.1376 Q2226.08 26.1121 2230.82 26.1121 Q2238.64 26.1121 2242.65 30.9732 Q2246.66 35.7938 2246.66 45.1919 Z" fill="#000000" fill-rule="nonzero" fill-opacity="1" /><path clip-path="url(#clip400)" d="M2282.14 49.7694 Q2273.11 49.7694 2269.63 51.8354 Q2266.14 53.9013 2266.14 58.8839 Q2266.14 62.8538 2268.74 65.2034 Q2271.37 67.5124 2275.87 67.5124 Q2282.06 67.5124 2285.79 63.1374 Q2289.56 58.7219 2289.56 51.4303 L2289.56 49.7694 L2282.14 49.7694 M2297.01 46.6907 L2297.01 72.576 L2289.56 72.576 L2289.56 65.6895 Q2287.01 69.8214 2283.2 71.8063 Q2279.39 73.7508 2273.88 73.7508 Q2266.91 73.7508 2262.78 69.8619 Q2258.69 65.9325 2258.69 59.3701 Q2258.69 51.7138 2263.79 47.825 Q2268.94 43.9361 2279.11 43.9361 L2289.56 43.9361 L2289.56 43.2069 Q2289.56 38.0623 2286.15 35.2672 Q2282.79 32.4315 2276.68 32.4315 Q2272.79 32.4315 2269.1 33.3632 Q2265.41 34.295 2262.01 36.1584 L2262.01 29.2718 Q2266.1 27.692 2269.95 26.9223 Q2273.8 26.1121 2277.45 26.1121 Q2287.29 26.1121 2292.15 31.2163 Q2297.01 36.3204 2297.01 46.6907 Z" fill="#000000" fill-rule="nonzero" fill-opacity="1" /><path clip-path="url(#clip400)" d="M2339.71 34.9026 L2391.64 34.9026 L2391.64 41.7081 L2339.71 41.7081 L2339.71 34.9026 M2339.71 51.4303 L2391.64 51.4303 L2391.64 58.3168 L2339.71 58.3168 L2339.71 51.4303 Z" fill="#000000" fill-rule="nonzero" fill-opacity="1" /><path clip-path="url(#clip400)" d="M2453.17 17.4837 Q2446.85 17.4837 2443.65 23.7221 Q2440.49 29.92 2440.49 42.3968 Q2440.49 54.833 2443.65 61.0714 Q2446.85 67.2693 2453.17 67.2693 Q2459.53 67.2693 2462.69 61.0714 Q2465.89 54.833 2465.89 42.3968 Q2465.89 29.92 2462.69 23.7221 Q2459.53 17.4837 2453.17 17.4837 M2453.17 11.0023 Q2463.34 11.0023 2468.69 19.0636 Q2474.08 27.0843 2474.08 42.3968 Q2474.08 57.6687 2468.69 65.73 Q2463.34 73.7508 2453.17 73.7508 Q2443.01 73.7508 2437.62 65.73 Q2432.27 57.6687 2432.27 42.3968 Q2432.27 27.0843 2437.62 19.0636 Q2443.01 11.0023 2453.17 11.0023 Z" fill="#000000" fill-rule="nonzero" fill-opacity="1" /><path clip-path="url(#clip400)" d="M2488.46 62.2867 L2497 62.2867 L2497 72.576 L2488.46 72.576 L2488.46 62.2867 Z" fill="#000000" fill-rule="nonzero" fill-opacity="1" /><path clip-path="url(#clip400)" d="M2516.25 65.6895 L2529.61 65.6895 L2529.61 19.5497 L2515.07 22.4663 L2515.07 15.0127 L2529.53 12.096 L2537.72 12.096 L2537.72 65.6895 L2551.08 65.6895 L2551.08 72.576 L2516.25 72.576 L2516.25 65.6895 Z" fill="#000000" fill-rule="nonzero" fill-opacity="1" /><polyline clip-path="url(#clip402)" style="stroke:#009af9; stroke-linecap:round; stroke-linejoin:round; stroke-width:4; stroke-opacity:1; fill:none" points="323.315,691.188 345.814,691.51 368.313,682.462 390.813,675.08 413.312,669.805 435.812,666.401 458.311,661.576 480.811,657.068 503.31,659.686 525.809,655.465 548.309,653.595 570.808,642.401 593.308,644.52 615.807,640.649 638.307,639.984 660.806,629.506 683.305,626.182 705.805,618.427 728.304,616.975 750.804,615.823 773.303,621.818 795.803,613.898 818.302,606.808 840.802,606.265 863.301,605.662 885.8,596.607 908.3,594.426 930.799,594.823 953.299,588.96 975.798,583.98 998.298,584.038 1020.8,583.606 1043.3,574.846 1065.8,574.91 1088.3,570.265 1110.79,574.416 1133.29,563.727 1155.79,563.58 1178.29,559.248 1200.79,561.409 1223.29,550.412 1245.79,555.171 1268.29,548.959 1290.79,545.267 1313.29,538.491 1335.79,534.842 1358.29,536.305 1380.79,536.276 1403.29,529.057 1425.79,523.137 1448.29,525.609 1470.79,524.103 1493.28,517.226 1515.78,517.073 1538.28,517.084 1560.78,506.301 1583.28,511.523 1605.78,506.304 1628.28,503.321 1650.78,499.756 1673.28,500.151 1695.78,496.423 1718.28,499.01 1740.78,494.803 1763.28,483.993 1785.78,488.772 1808.28,478.03 1830.78,484.109 1853.28,478.842 1875.78,480.493 1898.27,478.801 1920.77,469.677 1943.27,467.996 1965.77,465.281 1988.27,462.063 2010.77,459.158 2033.27,461.766 2055.77,463.597 2078.27,456.244 2100.77,450.051 2123.27,446.48 2145.77,445.698 2168.27,444.549 2190.77,441.021 2213.27,439.177 2235.77,435.87 2258.27,433.399 2280.77,432.287 2303.26,431.333 2325.76,432.524 2348.26,424.708 2370.76,420.56 2393.26,422.007 2415.76,420.962 2438.26,415.551 2460.76,421.205 2483.26,413.028 2505.76,408.954 2528.26,407.716 2550.76,408.243 2573.26,406.036 "/>
<path clip-path="url(#clip400)" d="M335.314 285.016 L958.042 285.016 L958.042 181.336 L335.314 181.336  Z" fill="#ffffff" fill-rule="evenodd" fill-opacity="1"/>
<polyline clip-path="url(#clip400)" style="stroke:#000000; stroke-linecap:round; stroke-linejoin:round; stroke-width:4; stroke-opacity:1; fill:none" points="335.314,285.016 958.042,285.016 958.042,181.336 335.314,181.336 335.314,285.016 "/>
<polyline clip-path="url(#clip400)" style="stroke:#009af9; stroke-linecap:round; stroke-linejoin:round; stroke-width:4; stroke-opacity:1; fill:none" points="361.814,233.176 520.81,233.176 "/>
<path clip-path="url(#clip400)" d="M547.309 215.896 L554.276 215.896 L563.096 239.415 L571.962 215.896 L578.929 215.896 L578.929 250.456 L574.369 250.456 L574.369 220.109 L565.457 243.813 L560.758 243.813 L551.846 220.109 L551.846 250.456 L547.309 250.456 L547.309 215.896 Z" fill="#000000" fill-rule="nonzero" fill-opacity="1" /><path clip-path="url(#clip400)" d="M610.202 236.429 L610.202 238.512 L590.619 238.512 Q590.897 242.91 593.258 245.225 Q595.642 247.516 599.878 247.516 Q602.332 247.516 604.623 246.915 Q606.938 246.313 609.207 245.109 L609.207 249.137 Q606.915 250.109 604.508 250.618 Q602.1 251.128 599.623 251.128 Q593.42 251.128 589.786 247.516 Q586.174 243.905 586.174 237.748 Q586.174 231.382 589.6 227.655 Q593.049 223.906 598.883 223.906 Q604.114 223.906 607.147 227.285 Q610.202 230.642 610.202 236.429 M605.943 235.179 Q605.897 231.683 603.975 229.6 Q602.077 227.517 598.929 227.517 Q595.364 227.517 593.211 229.53 Q591.082 231.544 590.758 235.202 L605.943 235.179 Z" fill="#000000" fill-rule="nonzero" fill-opacity="1" /><path clip-path="url(#clip400)" d="M628.975 237.424 Q623.813 237.424 621.822 238.604 Q619.832 239.785 619.832 242.632 Q619.832 244.901 621.313 246.243 Q622.818 247.563 625.387 247.563 Q628.929 247.563 631.058 245.063 Q633.211 242.54 633.211 238.373 L633.211 237.424 L628.975 237.424 M637.47 235.665 L637.47 250.456 L633.211 250.456 L633.211 246.521 Q631.753 248.882 629.577 250.016 Q627.401 251.128 624.253 251.128 Q620.272 251.128 617.91 248.905 Q615.572 246.66 615.572 242.91 Q615.572 238.535 618.489 236.313 Q621.429 234.091 627.239 234.091 L633.211 234.091 L633.211 233.674 Q633.211 230.734 631.267 229.137 Q629.346 227.517 625.85 227.517 Q623.628 227.517 621.522 228.049 Q619.415 228.581 617.471 229.646 L617.471 225.711 Q619.809 224.808 622.008 224.368 Q624.207 223.906 626.29 223.906 Q631.915 223.906 634.693 226.822 Q637.47 229.739 637.47 235.665 Z" fill="#000000" fill-rule="nonzero" fill-opacity="1" /><path clip-path="url(#clip400)" d="M667.794 234.808 L667.794 250.456 L663.535 250.456 L663.535 234.947 Q663.535 231.267 662.1 229.438 Q660.665 227.609 657.794 227.609 Q654.345 227.609 652.355 229.808 Q650.364 232.007 650.364 235.804 L650.364 250.456 L646.082 250.456 L646.082 224.531 L650.364 224.531 L650.364 228.558 Q651.892 226.22 653.952 225.063 Q656.035 223.906 658.744 223.906 Q663.211 223.906 665.503 226.683 Q667.794 229.438 667.794 234.808 Z" fill="#000000" fill-rule="nonzero" fill-opacity="1" /><path clip-path="url(#clip400)" d="M708.419 228.466 L708.419 214.438 L712.678 214.438 L712.678 250.456 L708.419 250.456 L708.419 246.567 Q707.077 248.882 705.016 250.016 Q702.979 251.128 700.109 251.128 Q695.41 251.128 692.447 247.378 Q689.507 243.628 689.507 237.517 Q689.507 231.405 692.447 227.655 Q695.41 223.906 700.109 223.906 Q702.979 223.906 705.016 225.04 Q707.077 226.151 708.419 228.466 M693.905 237.517 Q693.905 242.216 695.827 244.901 Q697.771 247.563 701.151 247.563 Q704.53 247.563 706.475 244.901 Q708.419 242.216 708.419 237.517 Q708.419 232.817 706.475 230.155 Q704.53 227.47 701.151 227.47 Q697.771 227.47 695.827 230.155 Q693.905 232.817 693.905 237.517 Z" fill="#000000" fill-rule="nonzero" fill-opacity="1" /><path clip-path="url(#clip400)" d="M721.452 224.531 L725.711 224.531 L725.711 250.456 L721.452 250.456 L721.452 224.531 M721.452 214.438 L725.711 214.438 L725.711 219.831 L721.452 219.831 L721.452 214.438 Z" fill="#000000" fill-rule="nonzero" fill-opacity="1" /><path clip-path="url(#clip400)" d="M751.15 225.294 L751.15 229.322 Q749.345 228.396 747.4 227.933 Q745.456 227.47 743.373 227.47 Q740.201 227.47 738.604 228.443 Q737.03 229.415 737.03 231.359 Q737.03 232.841 738.164 233.697 Q739.299 234.53 742.725 235.294 L744.183 235.618 Q748.72 236.591 750.618 238.373 Q752.539 240.132 752.539 243.304 Q752.539 246.915 749.669 249.021 Q746.822 251.128 741.822 251.128 Q739.738 251.128 737.47 250.711 Q735.225 250.317 732.725 249.507 L732.725 245.109 Q735.086 246.336 737.377 246.961 Q739.669 247.563 741.914 247.563 Q744.924 247.563 746.544 246.544 Q748.164 245.503 748.164 243.628 Q748.164 241.892 746.984 240.966 Q745.826 240.04 741.868 239.183 L740.387 238.836 Q736.428 238.003 734.669 236.29 Q732.91 234.554 732.91 231.544 Q732.91 227.887 735.502 225.896 Q738.095 223.906 742.863 223.906 Q745.225 223.906 747.308 224.253 Q749.391 224.6 751.15 225.294 Z" fill="#000000" fill-rule="nonzero" fill-opacity="1" /><path clip-path="url(#clip400)" d="M777.979 225.526 L777.979 229.507 Q776.173 228.512 774.345 228.026 Q772.539 227.517 770.687 227.517 Q766.544 227.517 764.252 230.155 Q761.961 232.771 761.961 237.517 Q761.961 242.262 764.252 244.901 Q766.544 247.516 770.687 247.516 Q772.539 247.516 774.345 247.03 Q776.173 246.521 777.979 245.526 L777.979 249.461 Q776.197 250.294 774.275 250.711 Q772.377 251.128 770.224 251.128 Q764.368 251.128 760.919 247.447 Q757.47 243.767 757.47 237.517 Q757.47 231.174 760.942 227.54 Q764.437 223.906 770.502 223.906 Q772.47 223.906 774.345 224.322 Q776.22 224.716 777.979 225.526 Z" fill="#000000" fill-rule="nonzero" fill-opacity="1" /><path clip-path="url(#clip400)" d="M795.433 227.517 Q792.007 227.517 790.016 230.202 Q788.025 232.864 788.025 237.517 Q788.025 242.169 789.993 244.854 Q791.984 247.516 795.433 247.516 Q798.835 247.516 800.826 244.831 Q802.817 242.146 802.817 237.517 Q802.817 232.91 800.826 230.225 Q798.835 227.517 795.433 227.517 M795.433 223.906 Q800.988 223.906 804.159 227.517 Q807.331 231.128 807.331 237.517 Q807.331 243.882 804.159 247.516 Q800.988 251.128 795.433 251.128 Q789.854 251.128 786.683 247.516 Q783.535 243.882 783.535 237.517 Q783.535 231.128 786.683 227.517 Q789.854 223.906 795.433 223.906 Z" fill="#000000" fill-rule="nonzero" fill-opacity="1" /><path clip-path="url(#clip400)" d="M813.951 240.225 L813.951 224.531 L818.21 224.531 L818.21 240.063 Q818.21 243.743 819.645 245.595 Q821.081 247.424 823.951 247.424 Q827.4 247.424 829.391 245.225 Q831.405 243.026 831.405 239.229 L831.405 224.531 L835.664 224.531 L835.664 250.456 L831.405 250.456 L831.405 246.475 Q829.854 248.836 827.794 249.993 Q825.757 251.128 823.048 251.128 Q818.581 251.128 816.266 248.35 Q813.951 245.572 813.951 240.225 M824.669 223.906 L824.669 223.906 Z" fill="#000000" fill-rule="nonzero" fill-opacity="1" /><path clip-path="url(#clip400)" d="M865.988 234.808 L865.988 250.456 L861.729 250.456 L861.729 234.947 Q861.729 231.267 860.293 229.438 Q858.858 227.609 855.988 227.609 Q852.539 227.609 850.548 229.808 Q848.557 232.007 848.557 235.804 L848.557 250.456 L844.275 250.456 L844.275 224.531 L848.557 224.531 L848.557 228.558 Q850.085 226.22 852.145 225.063 Q854.229 223.906 856.937 223.906 Q861.404 223.906 863.696 226.683 Q865.988 229.438 865.988 234.808 Z" fill="#000000" fill-rule="nonzero" fill-opacity="1" /><path clip-path="url(#clip400)" d="M878.696 217.169 L878.696 224.531 L887.469 224.531 L887.469 227.841 L878.696 227.841 L878.696 241.915 Q878.696 245.086 879.553 245.989 Q880.432 246.891 883.094 246.891 L887.469 246.891 L887.469 250.456 L883.094 250.456 Q878.164 250.456 876.289 248.628 Q874.414 246.776 874.414 241.915 L874.414 227.841 L871.289 227.841 L871.289 224.531 L874.414 224.531 L874.414 217.169 L878.696 217.169 Z" fill="#000000" fill-rule="nonzero" fill-opacity="1" /><path clip-path="url(#clip400)" d="M900.64 215.896 L904.576 215.896 L892.539 254.854 L888.603 254.854 L900.64 215.896 Z" fill="#000000" fill-rule="nonzero" fill-opacity="1" /><path clip-path="url(#clip400)" d="M913.904 219.739 L913.904 232.725 L919.784 232.725 Q923.048 232.725 924.83 231.035 Q926.612 229.345 926.612 226.22 Q926.612 223.118 924.83 221.429 Q923.048 219.739 919.784 219.739 L913.904 219.739 M909.228 215.896 L919.784 215.896 Q925.594 215.896 928.557 218.535 Q931.543 221.151 931.543 226.22 Q931.543 231.336 928.557 233.952 Q925.594 236.567 919.784 236.567 L913.904 236.567 L913.904 250.456 L909.228 250.456 L909.228 215.896 Z" fill="#000000" fill-rule="nonzero" fill-opacity="1" /></svg>
